G04 #@! TF.GenerationSoftware,KiCad,Pcbnew,(5.1.2)-2*
G04 #@! TF.CreationDate,2020-11-11T13:09:37+13:00*
G04 #@! TF.ProjectId,APEDSK-AU,41504544-534b-42d4-9155-2e6b69636164,rev?*
G04 #@! TF.SameCoordinates,Original*
G04 #@! TF.FileFunction,Copper,L2,Inr*
G04 #@! TF.FilePolarity,Positive*
%FSLAX46Y46*%
G04 Gerber Fmt 4.6, Leading zero omitted, Abs format (unit mm)*
G04 Created by KiCad (PCBNEW (5.1.2)-2) date 2020-11-11 13:09:37*
%MOMM*%
%LPD*%
G04 APERTURE LIST*
%ADD10O,1.600000X1.600000*%
%ADD11R,1.600000X1.600000*%
%ADD12C,1.600000*%
%ADD13O,1.800000X1.800000*%
%ADD14R,1.800000X1.800000*%
%ADD15O,1.400000X1.400000*%
%ADD16C,1.400000*%
%ADD17O,1.700000X1.700000*%
%ADD18R,1.700000X1.700000*%
%ADD19O,2.032000X1.727200*%
%ADD20C,1.800000*%
%ADD21C,0.500000*%
%ADD22C,0.250000*%
G04 APERTURE END LIST*
D10*
X149098000Y-126365000D03*
X171958000Y-133985000D03*
X151638000Y-126365000D03*
X169418000Y-133985000D03*
X154178000Y-126365000D03*
X166878000Y-133985000D03*
X156718000Y-126365000D03*
X164338000Y-133985000D03*
X159258000Y-126365000D03*
X161798000Y-133985000D03*
X161798000Y-126365000D03*
X159258000Y-133985000D03*
X164338000Y-126365000D03*
X156718000Y-133985000D03*
X166878000Y-126365000D03*
X154178000Y-133985000D03*
X169418000Y-126365000D03*
X151638000Y-133985000D03*
X171958000Y-126365000D03*
D11*
X149098000Y-133985000D03*
D12*
X157948000Y-117475000D03*
X155448000Y-117475000D03*
X147868000Y-99695000D03*
X150368000Y-99695000D03*
D10*
X150368000Y-75565000D03*
X142748000Y-93345000D03*
X150368000Y-78105000D03*
X142748000Y-90805000D03*
X150368000Y-80645000D03*
X142748000Y-88265000D03*
X150368000Y-83185000D03*
X142748000Y-85725000D03*
X150368000Y-85725000D03*
X142748000Y-83185000D03*
X150368000Y-88265000D03*
X142748000Y-80645000D03*
X150368000Y-90805000D03*
X142748000Y-78105000D03*
X150368000Y-93345000D03*
D11*
X142748000Y-75565000D03*
D13*
X168148000Y-84455000D03*
D14*
X168148000Y-89535000D03*
D10*
X155448000Y-114935000D03*
X163068000Y-76835000D03*
X155448000Y-112395000D03*
X163068000Y-79375000D03*
X155448000Y-109855000D03*
X163068000Y-81915000D03*
X155448000Y-107315000D03*
X163068000Y-84455000D03*
X155448000Y-104775000D03*
X163068000Y-86995000D03*
X155448000Y-102235000D03*
X163068000Y-89535000D03*
X155448000Y-99695000D03*
X163068000Y-92075000D03*
X155448000Y-97155000D03*
X163068000Y-94615000D03*
X155448000Y-94615000D03*
X163068000Y-97155000D03*
X155448000Y-92075000D03*
X163068000Y-99695000D03*
X155448000Y-89535000D03*
X163068000Y-102235000D03*
X155448000Y-86995000D03*
X163068000Y-104775000D03*
X155448000Y-84455000D03*
X163068000Y-107315000D03*
X155448000Y-81915000D03*
X163068000Y-109855000D03*
X155448000Y-79375000D03*
X163068000Y-112395000D03*
X155448000Y-76835000D03*
D11*
X163068000Y-114935000D03*
D12*
X147868000Y-73025000D03*
X150368000Y-73025000D03*
D15*
X168148000Y-76835000D03*
D16*
X168148000Y-81915000D03*
D15*
X163068000Y-122555000D03*
D16*
X163068000Y-117475000D03*
D15*
X171958000Y-116205000D03*
D16*
X166878000Y-116205000D03*
D15*
X168148000Y-107315000D03*
D16*
X168148000Y-112395000D03*
D15*
X168148000Y-99695000D03*
D16*
X168148000Y-104775000D03*
D15*
X168148000Y-97155000D03*
D16*
X168148000Y-92075000D03*
D17*
X114808000Y-76835000D03*
X112268000Y-76835000D03*
X114808000Y-79375000D03*
X112268000Y-79375000D03*
X114808000Y-81915000D03*
X112268000Y-81915000D03*
X114808000Y-84455000D03*
X112268000Y-84455000D03*
X114808000Y-86995000D03*
X112268000Y-86995000D03*
X114808000Y-89535000D03*
X112268000Y-89535000D03*
X114808000Y-92075000D03*
X112268000Y-92075000D03*
X114808000Y-94615000D03*
X112268000Y-94615000D03*
X114808000Y-97155000D03*
X112268000Y-97155000D03*
X114808000Y-99695000D03*
X112268000Y-99695000D03*
X114808000Y-102235000D03*
X112268000Y-102235000D03*
X114808000Y-104775000D03*
X112268000Y-104775000D03*
X114808000Y-107315000D03*
X112268000Y-107315000D03*
X114808000Y-109855000D03*
X112268000Y-109855000D03*
X114808000Y-112395000D03*
X112268000Y-112395000D03*
X114808000Y-114935000D03*
X112268000Y-114935000D03*
X114808000Y-117475000D03*
X112268000Y-117475000D03*
X114808000Y-120015000D03*
X112268000Y-120015000D03*
X114808000Y-122555000D03*
X112268000Y-122555000D03*
X114808000Y-125095000D03*
X112268000Y-125095000D03*
X114808000Y-127635000D03*
X112268000Y-127635000D03*
X114808000Y-130175000D03*
D18*
X112268000Y-130175000D03*
D10*
X144018000Y-133985000D03*
X121158000Y-126365000D03*
X141478000Y-133985000D03*
X123698000Y-126365000D03*
X138938000Y-133985000D03*
X126238000Y-126365000D03*
X136398000Y-133985000D03*
X128778000Y-126365000D03*
X133858000Y-133985000D03*
X131318000Y-126365000D03*
X131318000Y-133985000D03*
X133858000Y-126365000D03*
X128778000Y-133985000D03*
X136398000Y-126365000D03*
X126238000Y-133985000D03*
X138938000Y-126365000D03*
X123698000Y-133985000D03*
X141478000Y-126365000D03*
X121158000Y-133985000D03*
D11*
X144018000Y-126365000D03*
D12*
X146558000Y-131485000D03*
X146558000Y-133985000D03*
D10*
X136398000Y-99695000D03*
X128778000Y-122555000D03*
X136398000Y-102235000D03*
X128778000Y-120015000D03*
X136398000Y-104775000D03*
X128778000Y-117475000D03*
X136398000Y-107315000D03*
X128778000Y-114935000D03*
X136398000Y-109855000D03*
X128778000Y-112395000D03*
X136398000Y-112395000D03*
X128778000Y-109855000D03*
X136398000Y-114935000D03*
X128778000Y-107315000D03*
X136398000Y-117475000D03*
X128778000Y-104775000D03*
X136398000Y-120015000D03*
X128778000Y-102235000D03*
X136398000Y-122555000D03*
D11*
X128778000Y-99695000D03*
D10*
X150368000Y-102235000D03*
X142748000Y-120015000D03*
X150368000Y-104775000D03*
X142748000Y-117475000D03*
X150368000Y-107315000D03*
X142748000Y-114935000D03*
X150368000Y-109855000D03*
X142748000Y-112395000D03*
X150368000Y-112395000D03*
X142748000Y-109855000D03*
X150368000Y-114935000D03*
X142748000Y-107315000D03*
X150368000Y-117475000D03*
X142748000Y-104775000D03*
X150368000Y-120015000D03*
D11*
X142748000Y-102235000D03*
D19*
X123698000Y-90805000D03*
X123698000Y-88265000D03*
X123698000Y-85725000D03*
X123698000Y-83185000D03*
X123698000Y-80645000D03*
X123698000Y-78105000D03*
X123698000Y-75565000D03*
X123698000Y-73025000D03*
D10*
X136398000Y-73025000D03*
X128778000Y-95885000D03*
X136398000Y-75565000D03*
X128778000Y-93345000D03*
X136398000Y-78105000D03*
X128778000Y-90805000D03*
X136398000Y-80645000D03*
X128778000Y-88265000D03*
X136398000Y-83185000D03*
X128778000Y-85725000D03*
X136398000Y-85725000D03*
X128778000Y-83185000D03*
X136398000Y-88265000D03*
X128778000Y-80645000D03*
X136398000Y-90805000D03*
X128778000Y-78105000D03*
X136398000Y-93345000D03*
X128778000Y-75565000D03*
X136398000Y-95885000D03*
D11*
X128778000Y-73025000D03*
D20*
X171958000Y-121285000D03*
D14*
X169418000Y-121285000D03*
D12*
X146558000Y-125135000D03*
X146558000Y-127635000D03*
X138938000Y-70525000D03*
X138938000Y-73025000D03*
X138938000Y-97195000D03*
X138938000Y-99695000D03*
D19*
X171958000Y-108585000D03*
X171958000Y-106045000D03*
X171958000Y-103505000D03*
X171958000Y-100965000D03*
X171958000Y-98425000D03*
X171958000Y-95885000D03*
X171958000Y-93345000D03*
X171958000Y-90805000D03*
X171958000Y-85725000D03*
X171958000Y-83185000D03*
X171958000Y-80645000D03*
X171958000Y-78105000D03*
X171958000Y-75565000D03*
X171958000Y-73025000D03*
X123698000Y-117729000D03*
X123698000Y-115189000D03*
X123698000Y-112649000D03*
X123698000Y-110109000D03*
X123698000Y-107569000D03*
X123698000Y-105029000D03*
X123698000Y-102489000D03*
X123698000Y-99949000D03*
X123698000Y-97409000D03*
X123698000Y-94869000D03*
D21*
X136398000Y-73025000D02*
X138938000Y-73025000D01*
X150368000Y-75565000D02*
X150368000Y-73025000D01*
X136398000Y-99695000D02*
X138938000Y-99695000D01*
X156698001Y-113684999D02*
X156698001Y-111105001D01*
X155448000Y-114935000D02*
X156698001Y-113684999D01*
X166878000Y-113665000D02*
X168148000Y-112395000D01*
X166878000Y-116205000D02*
X166878000Y-113665000D01*
X171958000Y-98425000D02*
X171805600Y-98425000D01*
X155448000Y-109855000D02*
X156698001Y-111105001D01*
X168148000Y-94767400D02*
X168148000Y-92075000D01*
X150368000Y-99695000D02*
X150368000Y-102235000D01*
X155448000Y-114935000D02*
X155448000Y-117475000D01*
X150368000Y-117475000D02*
X155448000Y-117475000D01*
X164357999Y-118725001D02*
X166878000Y-116205000D01*
X156698001Y-118725001D02*
X164357999Y-118725001D01*
X155448000Y-117475000D02*
X156698001Y-118725001D01*
X147828000Y-126365000D02*
X146558000Y-127635000D01*
X149098000Y-126365000D02*
X147828000Y-126365000D01*
X169341800Y-95961200D02*
X168148000Y-94767400D01*
X171805600Y-98425000D02*
X169341800Y-95961200D01*
X165608000Y-107315000D02*
X168148000Y-104775000D01*
X168148000Y-112395000D02*
X165608000Y-109855000D01*
X165608000Y-109855000D02*
X165608000Y-107315000D01*
X149568001Y-116675001D02*
X150368000Y-117475000D01*
X146558000Y-113665000D02*
X149568001Y-116675001D01*
X150368000Y-102235000D02*
X146558000Y-106045000D01*
X146558000Y-106045000D02*
X146558000Y-113665000D01*
X141478000Y-97155000D02*
X138938000Y-99695000D01*
X147828000Y-97155000D02*
X141478000Y-97155000D01*
X141478000Y-70485000D02*
X138938000Y-73025000D01*
X150368000Y-73025000D02*
X147828000Y-70485000D01*
X147828000Y-70485000D02*
X141478000Y-70485000D01*
X169341800Y-97663202D02*
X168460003Y-98544999D01*
X169341800Y-95961200D02*
X169341800Y-97663202D01*
X165608000Y-102235000D02*
X168148000Y-104775000D01*
X168460003Y-98544999D02*
X167595999Y-98544999D01*
X167595999Y-98544999D02*
X165608000Y-100532998D01*
X165608000Y-100532998D02*
X165608000Y-102235000D01*
X144058000Y-133985000D02*
X146558000Y-131485000D01*
X144018000Y-133985000D02*
X144058000Y-133985000D01*
X146558000Y-131485000D02*
X146558000Y-127635000D01*
X150368000Y-90805000D02*
X147828000Y-93345000D01*
X147828000Y-93345000D02*
X147828000Y-97155000D01*
X147828000Y-97155000D02*
X150368000Y-99695000D01*
X149098000Y-126365000D02*
X149098000Y-123825000D01*
X149098000Y-123825000D02*
X147828000Y-122555000D01*
X149568001Y-118274999D02*
X150368000Y-117475000D01*
X147828000Y-120015000D02*
X149568001Y-118274999D01*
X147828000Y-122555000D02*
X147828000Y-120015000D01*
X149236630Y-90805000D02*
X150368000Y-90805000D01*
X145288000Y-86856370D02*
X149236630Y-90805000D01*
X145288000Y-79375000D02*
X145288000Y-86856370D01*
X150368000Y-75565000D02*
X149098000Y-75565000D01*
X149098000Y-75565000D02*
X145288000Y-79375000D01*
X146518000Y-133985000D02*
X146558000Y-133945000D01*
D22*
X171958000Y-121285000D02*
X171958000Y-116205000D01*
X149548011Y-135705011D02*
X138993009Y-135705011D01*
X138993009Y-135705011D02*
X137668000Y-134380002D01*
X137668000Y-134380002D02*
X137668000Y-133589998D01*
X137668000Y-133589998D02*
X135973013Y-131895011D01*
X150512999Y-134740023D02*
X149548011Y-135705011D01*
X116897989Y-101784989D02*
X115657999Y-100544999D01*
X120971600Y-131895011D02*
X116897989Y-127821400D01*
X150512999Y-133444999D02*
X150512999Y-134740023D01*
X160672999Y-132859999D02*
X151097999Y-132859999D01*
X151097999Y-132859999D02*
X150512999Y-133444999D01*
X135973013Y-131895011D02*
X120971600Y-131895011D01*
X115657999Y-100544999D02*
X114808000Y-99695000D01*
X116897989Y-127821400D02*
X116897989Y-101784989D01*
X161798000Y-133985000D02*
X160672999Y-132859999D01*
X157592998Y-73025000D02*
X171958000Y-73025000D01*
X152908000Y-91679998D02*
X150908001Y-89679999D01*
X147377989Y-79430009D02*
X149827999Y-76979999D01*
X149827999Y-76979999D02*
X153637999Y-76979999D01*
X152908000Y-104775000D02*
X152908000Y-91679998D01*
X149827999Y-89679999D02*
X147377989Y-87229989D01*
X150908001Y-89679999D02*
X149827999Y-89679999D01*
X150368000Y-107315000D02*
X152908000Y-104775000D01*
X153637999Y-76979999D02*
X157592998Y-73025000D01*
X147377989Y-87229989D02*
X147377989Y-79430009D01*
X153808022Y-89165022D02*
X150368000Y-85725000D01*
X153808022Y-108954978D02*
X153808022Y-89165022D01*
X150368000Y-112395000D02*
X153808022Y-108954978D01*
X152763001Y-83329999D02*
X151167999Y-84925001D01*
X164040601Y-83329999D02*
X152763001Y-83329999D01*
X151167999Y-84925001D02*
X150368000Y-85725000D01*
X171805600Y-75565000D02*
X164040601Y-83329999D01*
X171958000Y-75565000D02*
X171805600Y-75565000D01*
X149242999Y-113809999D02*
X149568001Y-114135001D01*
X149242999Y-111854999D02*
X149242999Y-113809999D01*
X149827999Y-111269999D02*
X149242999Y-111854999D01*
X149568001Y-114135001D02*
X150368000Y-114935000D01*
X150618003Y-111269999D02*
X149827999Y-111269999D01*
X153358011Y-108529991D02*
X150618003Y-111269999D01*
X153358011Y-91255011D02*
X153358011Y-108529991D01*
X150368000Y-88265000D02*
X153358011Y-91255011D01*
X149568001Y-87465001D02*
X150368000Y-88265000D01*
X147828000Y-85725000D02*
X149568001Y-87465001D01*
X147828000Y-81519998D02*
X147828000Y-85725000D01*
X149827999Y-79519999D02*
X147828000Y-81519998D01*
X153637999Y-79519999D02*
X149827999Y-79519999D01*
X155052998Y-78105000D02*
X153637999Y-79519999D01*
X160132998Y-78105000D02*
X155052998Y-78105000D01*
X163942998Y-74295000D02*
X160132998Y-78105000D01*
X173299010Y-76916390D02*
X173299010Y-75072662D01*
X171958000Y-78105000D02*
X172110400Y-78105000D01*
X172110400Y-78105000D02*
X173299010Y-76916390D01*
X172521348Y-74295000D02*
X163942998Y-74295000D01*
X173299010Y-75072662D02*
X172521348Y-74295000D01*
X133858000Y-99695000D02*
X136398000Y-102235000D01*
X128778000Y-99695000D02*
X133858000Y-99695000D01*
X133858000Y-73025000D02*
X136398000Y-75565000D01*
X128778000Y-73025000D02*
X133858000Y-73025000D01*
X135598001Y-76364999D02*
X136398000Y-75565000D01*
X132588000Y-79375000D02*
X135598001Y-76364999D01*
X132588000Y-94835000D02*
X132588000Y-79375000D01*
X128778000Y-99695000D02*
X128778000Y-98645000D01*
X128778000Y-98645000D02*
X132588000Y-94835000D01*
X169418000Y-100965000D02*
X168148000Y-99695000D01*
X168148000Y-132715000D02*
X168148000Y-125095000D01*
X168148000Y-125095000D02*
X166878000Y-123825000D01*
X166878000Y-123825000D02*
X166878000Y-121285000D01*
X166878000Y-133985000D02*
X168148000Y-132715000D01*
X166878000Y-121285000D02*
X169418000Y-118745000D01*
X169418000Y-118745000D02*
X169418000Y-100965000D01*
X123545600Y-97409000D02*
X123698000Y-97409000D01*
X121158000Y-99796600D02*
X123545600Y-97409000D01*
X123698000Y-126365000D02*
X121158000Y-123825000D01*
X121158000Y-123825000D02*
X121158000Y-99796600D01*
X123850400Y-94869000D02*
X123698000Y-94869000D01*
X126238000Y-97256600D02*
X123850400Y-94869000D01*
X126238000Y-126365000D02*
X126238000Y-97256600D01*
X170692000Y-85725000D02*
X171958000Y-85725000D01*
X168152000Y-88265000D02*
X170692000Y-85725000D01*
X156718000Y-88265000D02*
X168152000Y-88265000D01*
X155448000Y-89535000D02*
X156718000Y-88265000D01*
X166878000Y-126365000D02*
X163068000Y-122555000D01*
X168148000Y-81915000D02*
X168148000Y-84455000D01*
X117348000Y-94615000D02*
X114808000Y-92075000D01*
X117348000Y-127635000D02*
X117348000Y-94615000D01*
X121158000Y-131445000D02*
X117348000Y-127635000D01*
X147828000Y-133069998D02*
X148633009Y-132264989D01*
X147828000Y-135255000D02*
X147828000Y-133069998D01*
X141082998Y-135255000D02*
X147828000Y-135255000D01*
X140208000Y-134380002D02*
X141082998Y-135255000D01*
X140208000Y-133589998D02*
X140208000Y-134380002D01*
X138063002Y-131445000D02*
X140208000Y-133589998D01*
X162617989Y-132264989D02*
X164338000Y-133985000D01*
X148633009Y-132264989D02*
X162617989Y-132264989D01*
X121158000Y-131445000D02*
X123698000Y-131445000D01*
X123574810Y-131445000D02*
X123698000Y-131445000D01*
X123698000Y-131445000D02*
X138063002Y-131445000D01*
X155448000Y-107315000D02*
X156718000Y-107315000D01*
X164733002Y-97155000D02*
X168148000Y-97155000D01*
X163608001Y-98280001D02*
X164733002Y-97155000D01*
X164193001Y-84995001D02*
X163318003Y-85869999D01*
X167900998Y-80645000D02*
X164193001Y-84352997D01*
X164193001Y-84352997D02*
X164193001Y-84995001D01*
X163318003Y-85869999D02*
X154907999Y-85869999D01*
X154907999Y-85869999D02*
X154258033Y-86519965D01*
X154258033Y-86519965D02*
X154258033Y-106125033D01*
X154258033Y-106125033D02*
X154648001Y-106515001D01*
X171958000Y-80645000D02*
X167900998Y-80645000D01*
X154648001Y-106515001D02*
X155448000Y-107315000D01*
X163608001Y-98280001D02*
X161942999Y-98280001D01*
X159258000Y-100965000D02*
X159258000Y-104775000D01*
X161942999Y-98280001D02*
X159258000Y-100965000D01*
X156718000Y-107315000D02*
X159258000Y-104775000D01*
M02*
