G04 #@! TF.GenerationSoftware,KiCad,Pcbnew,(5.1.2)-2*
G04 #@! TF.CreationDate,2019-08-10T21:31:32+12:00*
G04 #@! TF.ProjectId,APEDSK-AU,41504544-534b-42d4-9155-2e6b69636164,rev?*
G04 #@! TF.SameCoordinates,Original*
G04 #@! TF.FileFunction,Other,Fab,Top*
%FSLAX46Y46*%
G04 Gerber Fmt 4.6, Leading zero omitted, Abs format (unit mm)*
G04 Created by KiCad (PCBNEW (5.1.2)-2) date 2019-08-10 21:31:32*
%MOMM*%
%LPD*%
G04 APERTURE LIST*
%ADD10C,0.100000*%
%ADD11C,0.150000*%
%ADD12C,0.108000*%
%ADD13C,0.090000*%
G04 APERTURE END LIST*
D10*
X152638000Y-133350000D02*
X151638000Y-132350000D01*
X171958000Y-133350000D02*
X152638000Y-133350000D01*
X171958000Y-127000000D02*
X171958000Y-133350000D01*
X151638000Y-127000000D02*
X171958000Y-127000000D01*
X151638000Y-132350000D02*
X151638000Y-127000000D01*
X122158000Y-133350000D02*
X121158000Y-132350000D01*
X146558000Y-133350000D02*
X122158000Y-133350000D01*
X146558000Y-127000000D02*
X146558000Y-133350000D01*
X121158000Y-127000000D02*
X146558000Y-127000000D01*
X121158000Y-132350000D02*
X121158000Y-127000000D01*
X119088000Y-123575000D02*
X119088000Y-126575000D01*
X120688000Y-123575000D02*
X119088000Y-123575000D01*
X120688000Y-126575000D02*
X120688000Y-123575000D01*
X119088000Y-126575000D02*
X120688000Y-126575000D01*
X168148000Y-76835000D02*
X168148000Y-77575000D01*
X168148000Y-81915000D02*
X168148000Y-81175000D01*
X167348000Y-77575000D02*
X167348000Y-81175000D01*
X168948000Y-77575000D02*
X167348000Y-77575000D01*
X168948000Y-81175000D02*
X168948000Y-77575000D01*
X167348000Y-81175000D02*
X168948000Y-81175000D01*
X129413000Y-72755000D02*
X130413000Y-71755000D01*
X129413000Y-97155000D02*
X129413000Y-72755000D01*
X135763000Y-97155000D02*
X129413000Y-97155000D01*
X135763000Y-71755000D02*
X135763000Y-97155000D01*
X130413000Y-71755000D02*
X135763000Y-71755000D01*
X129413000Y-103235000D02*
X130413000Y-102235000D01*
X129413000Y-122555000D02*
X129413000Y-103235000D01*
X135763000Y-122555000D02*
X129413000Y-122555000D01*
X135763000Y-102235000D02*
X135763000Y-122555000D01*
X130413000Y-102235000D02*
X135763000Y-102235000D01*
X143383000Y-79105000D02*
X144383000Y-78105000D01*
X143383000Y-113665000D02*
X143383000Y-79105000D01*
X149733000Y-113665000D02*
X143383000Y-113665000D01*
X149733000Y-78105000D02*
X149733000Y-113665000D01*
X144383000Y-78105000D02*
X149733000Y-78105000D01*
X157353000Y-101965000D02*
X158353000Y-100965000D01*
X157353000Y-121285000D02*
X157353000Y-101965000D01*
X163703000Y-121285000D02*
X157353000Y-121285000D01*
X163703000Y-100965000D02*
X163703000Y-121285000D01*
X158353000Y-100965000D02*
X163703000Y-100965000D01*
X157353000Y-71485000D02*
X158353000Y-70485000D01*
X157353000Y-95885000D02*
X157353000Y-71485000D01*
X163703000Y-95885000D02*
X157353000Y-95885000D01*
X163703000Y-70485000D02*
X163703000Y-95885000D01*
X158353000Y-70485000D02*
X163703000Y-70485000D01*
X171958000Y-116205000D02*
X171218000Y-116205000D01*
X166878000Y-116205000D02*
X167618000Y-116205000D01*
X171218000Y-115405000D02*
X167618000Y-115405000D01*
X171218000Y-117005000D02*
X171218000Y-115405000D01*
X167618000Y-117005000D02*
X171218000Y-117005000D01*
X167618000Y-115405000D02*
X167618000Y-117005000D01*
X168148000Y-107315000D02*
X168148000Y-108055000D01*
X168148000Y-112395000D02*
X168148000Y-111655000D01*
X167348000Y-108055000D02*
X167348000Y-111655000D01*
X168948000Y-108055000D02*
X167348000Y-108055000D01*
X168948000Y-111655000D02*
X168948000Y-108055000D01*
X167348000Y-111655000D02*
X168948000Y-111655000D01*
X168148000Y-99695000D02*
X168148000Y-100435000D01*
X168148000Y-104775000D02*
X168148000Y-104035000D01*
X167348000Y-100435000D02*
X167348000Y-104035000D01*
X168948000Y-100435000D02*
X167348000Y-100435000D01*
X168948000Y-104035000D02*
X168948000Y-100435000D01*
X167348000Y-104035000D02*
X168948000Y-104035000D01*
X168148000Y-97155000D02*
X168148000Y-96415000D01*
X168148000Y-92075000D02*
X168148000Y-92815000D01*
X168948000Y-96415000D02*
X168948000Y-92815000D01*
X167348000Y-96415000D02*
X168948000Y-96415000D01*
X167348000Y-92815000D02*
X167348000Y-96415000D01*
X168948000Y-92815000D02*
X167348000Y-92815000D01*
X168148000Y-84455000D02*
X168148000Y-85195000D01*
X168148000Y-89535000D02*
X168148000Y-88795000D01*
X167348000Y-85195000D02*
X167348000Y-88795000D01*
X168948000Y-85195000D02*
X167348000Y-85195000D01*
X168948000Y-88795000D02*
X168948000Y-85195000D01*
X167348000Y-88795000D02*
X168948000Y-88795000D01*
X171068000Y-120085000D02*
X167768000Y-120085000D01*
X171068000Y-122485000D02*
X171068000Y-120085000D01*
X167768000Y-122485000D02*
X171068000Y-122485000D01*
X167768000Y-120085000D02*
X167768000Y-122485000D01*
X170318000Y-121285000D02*
G75*
G03X170318000Y-121285000I-900000J0D01*
G01*
X149568000Y-128695000D02*
X149568000Y-131695000D01*
X151168000Y-128695000D02*
X149568000Y-128695000D01*
X151168000Y-131695000D02*
X151168000Y-128695000D01*
X149568000Y-131695000D02*
X151168000Y-131695000D01*
X162048000Y-97625000D02*
X159048000Y-97625000D01*
X162048000Y-99225000D02*
X162048000Y-97625000D01*
X159048000Y-99225000D02*
X162048000Y-99225000D01*
X159048000Y-97625000D02*
X159048000Y-99225000D01*
X167348000Y-70235000D02*
X167348000Y-73235000D01*
X168948000Y-70235000D02*
X167348000Y-70235000D01*
X168948000Y-73235000D02*
X168948000Y-70235000D01*
X167348000Y-73235000D02*
X168948000Y-73235000D01*
X147618000Y-75095000D02*
X150618000Y-75095000D01*
X147618000Y-73495000D02*
X147618000Y-75095000D01*
X150618000Y-73495000D02*
X147618000Y-73495000D01*
X150618000Y-75095000D02*
X150618000Y-73495000D01*
X139408000Y-70235000D02*
X139408000Y-73235000D01*
X141008000Y-70235000D02*
X139408000Y-70235000D01*
X141008000Y-73235000D02*
X141008000Y-70235000D01*
X139408000Y-73235000D02*
X141008000Y-73235000D01*
X131108000Y-100495000D02*
X134108000Y-100495000D01*
X131108000Y-98895000D02*
X131108000Y-100495000D01*
X134108000Y-98895000D02*
X131108000Y-98895000D01*
X134108000Y-100495000D02*
X134108000Y-98895000D01*
D11*
X172470380Y-133294047D02*
X172470380Y-132627380D01*
X173470380Y-133055952D01*
X172803714Y-131817857D02*
X173470380Y-131817857D01*
X172422761Y-132055952D02*
X173137047Y-132294047D01*
X173137047Y-131675000D01*
X173470380Y-130817857D02*
X173470380Y-131294047D01*
X172470380Y-131294047D01*
X173422761Y-130532142D02*
X173470380Y-130389285D01*
X173470380Y-130151190D01*
X173422761Y-130055952D01*
X173375142Y-130008333D01*
X173279904Y-129960714D01*
X173184666Y-129960714D01*
X173089428Y-130008333D01*
X173041809Y-130055952D01*
X172994190Y-130151190D01*
X172946571Y-130341666D01*
X172898952Y-130436904D01*
X172851333Y-130484523D01*
X172756095Y-130532142D01*
X172660857Y-130532142D01*
X172565619Y-130484523D01*
X172518000Y-130436904D01*
X172470380Y-130341666D01*
X172470380Y-130103571D01*
X172518000Y-129960714D01*
X173470380Y-129008333D02*
X173470380Y-129579761D01*
X173470380Y-129294047D02*
X172470380Y-129294047D01*
X172613238Y-129389285D01*
X172708476Y-129484523D01*
X172756095Y-129579761D01*
X172470380Y-128675000D02*
X172470380Y-128055952D01*
X172851333Y-128389285D01*
X172851333Y-128246428D01*
X172898952Y-128151190D01*
X172946571Y-128103571D01*
X173041809Y-128055952D01*
X173279904Y-128055952D01*
X173375142Y-128103571D01*
X173422761Y-128151190D01*
X173470380Y-128246428D01*
X173470380Y-128532142D01*
X173422761Y-128627380D01*
X173375142Y-128675000D01*
X172898952Y-127484523D02*
X172851333Y-127579761D01*
X172803714Y-127627380D01*
X172708476Y-127675000D01*
X172660857Y-127675000D01*
X172565619Y-127627380D01*
X172518000Y-127579761D01*
X172470380Y-127484523D01*
X172470380Y-127294047D01*
X172518000Y-127198809D01*
X172565619Y-127151190D01*
X172660857Y-127103571D01*
X172708476Y-127103571D01*
X172803714Y-127151190D01*
X172851333Y-127198809D01*
X172898952Y-127294047D01*
X172898952Y-127484523D01*
X172946571Y-127579761D01*
X172994190Y-127627380D01*
X173089428Y-127675000D01*
X173279904Y-127675000D01*
X173375142Y-127627380D01*
X173422761Y-127579761D01*
X173470380Y-127484523D01*
X173470380Y-127294047D01*
X173422761Y-127198809D01*
X173375142Y-127151190D01*
X173279904Y-127103571D01*
X173089428Y-127103571D01*
X172994190Y-127151190D01*
X172946571Y-127198809D01*
X172898952Y-127294047D01*
X161250380Y-130936904D02*
X162059904Y-130936904D01*
X162155142Y-130889285D01*
X162202761Y-130841666D01*
X162250380Y-130746428D01*
X162250380Y-130555952D01*
X162202761Y-130460714D01*
X162155142Y-130413095D01*
X162059904Y-130365476D01*
X161250380Y-130365476D01*
X161583714Y-129460714D02*
X162250380Y-129460714D01*
X161202761Y-129698809D02*
X161917047Y-129936904D01*
X161917047Y-129317857D01*
X147070380Y-133294047D02*
X147070380Y-132627380D01*
X148070380Y-133055952D01*
X147403714Y-131817857D02*
X148070380Y-131817857D01*
X147022761Y-132055952D02*
X147737047Y-132294047D01*
X147737047Y-131675000D01*
X148070380Y-130817857D02*
X148070380Y-131294047D01*
X147070380Y-131294047D01*
X148022761Y-130532142D02*
X148070380Y-130389285D01*
X148070380Y-130151190D01*
X148022761Y-130055952D01*
X147975142Y-130008333D01*
X147879904Y-129960714D01*
X147784666Y-129960714D01*
X147689428Y-130008333D01*
X147641809Y-130055952D01*
X147594190Y-130151190D01*
X147546571Y-130341666D01*
X147498952Y-130436904D01*
X147451333Y-130484523D01*
X147356095Y-130532142D01*
X147260857Y-130532142D01*
X147165619Y-130484523D01*
X147118000Y-130436904D01*
X147070380Y-130341666D01*
X147070380Y-130103571D01*
X147118000Y-129960714D01*
X147165619Y-129579761D02*
X147118000Y-129532142D01*
X147070380Y-129436904D01*
X147070380Y-129198809D01*
X147118000Y-129103571D01*
X147165619Y-129055952D01*
X147260857Y-129008333D01*
X147356095Y-129008333D01*
X147498952Y-129055952D01*
X148070380Y-129627380D01*
X148070380Y-129008333D01*
X147403714Y-128151190D02*
X148070380Y-128151190D01*
X147022761Y-128389285D02*
X147737047Y-128627380D01*
X147737047Y-128008333D01*
X147070380Y-127151190D02*
X147070380Y-127627380D01*
X147546571Y-127675000D01*
X147498952Y-127627380D01*
X147451333Y-127532142D01*
X147451333Y-127294047D01*
X147498952Y-127198809D01*
X147546571Y-127151190D01*
X147641809Y-127103571D01*
X147879904Y-127103571D01*
X147975142Y-127151190D01*
X148022761Y-127198809D01*
X148070380Y-127294047D01*
X148070380Y-127532142D01*
X148022761Y-127627380D01*
X147975142Y-127675000D01*
X133310380Y-130936904D02*
X134119904Y-130936904D01*
X134215142Y-130889285D01*
X134262761Y-130841666D01*
X134310380Y-130746428D01*
X134310380Y-130555952D01*
X134262761Y-130460714D01*
X134215142Y-130413095D01*
X134119904Y-130365476D01*
X133310380Y-130365476D01*
X134310380Y-129365476D02*
X134310380Y-129936904D01*
X134310380Y-129651190D02*
X133310380Y-129651190D01*
X133453238Y-129746428D01*
X133548476Y-129841666D01*
X133596095Y-129936904D01*
X122390380Y-126265476D02*
X122390380Y-126836904D01*
X122390380Y-126551190D02*
X121390380Y-126551190D01*
X121533238Y-126646428D01*
X121628476Y-126741666D01*
X121676095Y-126836904D01*
X121390380Y-125646428D02*
X121390380Y-125551190D01*
X121438000Y-125455952D01*
X121485619Y-125408333D01*
X121580857Y-125360714D01*
X121771333Y-125313095D01*
X122009428Y-125313095D01*
X122199904Y-125360714D01*
X122295142Y-125408333D01*
X122342761Y-125455952D01*
X122390380Y-125551190D01*
X122390380Y-125646428D01*
X122342761Y-125741666D01*
X122295142Y-125789285D01*
X122199904Y-125836904D01*
X122009428Y-125884523D01*
X121771333Y-125884523D01*
X121580857Y-125836904D01*
X121485619Y-125789285D01*
X121438000Y-125741666D01*
X121390380Y-125646428D01*
X121390380Y-124694047D02*
X121390380Y-124598809D01*
X121438000Y-124503571D01*
X121485619Y-124455952D01*
X121580857Y-124408333D01*
X121771333Y-124360714D01*
X122009428Y-124360714D01*
X122199904Y-124408333D01*
X122295142Y-124455952D01*
X122342761Y-124503571D01*
X122390380Y-124598809D01*
X122390380Y-124694047D01*
X122342761Y-124789285D01*
X122295142Y-124836904D01*
X122199904Y-124884523D01*
X122009428Y-124932142D01*
X121771333Y-124932142D01*
X121580857Y-124884523D01*
X121485619Y-124836904D01*
X121438000Y-124789285D01*
X121390380Y-124694047D01*
X122390380Y-123932142D02*
X121390380Y-123932142D01*
X122390380Y-123360714D01*
X121390380Y-123360714D01*
X169520380Y-80160714D02*
X169520380Y-80351190D01*
X169568000Y-80446428D01*
X169615619Y-80494047D01*
X169758476Y-80589285D01*
X169948952Y-80636904D01*
X170329904Y-80636904D01*
X170425142Y-80589285D01*
X170472761Y-80541666D01*
X170520380Y-80446428D01*
X170520380Y-80255952D01*
X170472761Y-80160714D01*
X170425142Y-80113095D01*
X170329904Y-80065476D01*
X170091809Y-80065476D01*
X169996571Y-80113095D01*
X169948952Y-80160714D01*
X169901333Y-80255952D01*
X169901333Y-80446428D01*
X169948952Y-80541666D01*
X169996571Y-80589285D01*
X170091809Y-80636904D01*
X169948952Y-79494047D02*
X169901333Y-79589285D01*
X169853714Y-79636904D01*
X169758476Y-79684523D01*
X169710857Y-79684523D01*
X169615619Y-79636904D01*
X169568000Y-79589285D01*
X169520380Y-79494047D01*
X169520380Y-79303571D01*
X169568000Y-79208333D01*
X169615619Y-79160714D01*
X169710857Y-79113095D01*
X169758476Y-79113095D01*
X169853714Y-79160714D01*
X169901333Y-79208333D01*
X169948952Y-79303571D01*
X169948952Y-79494047D01*
X169996571Y-79589285D01*
X170044190Y-79636904D01*
X170139428Y-79684523D01*
X170329904Y-79684523D01*
X170425142Y-79636904D01*
X170472761Y-79589285D01*
X170520380Y-79494047D01*
X170520380Y-79303571D01*
X170472761Y-79208333D01*
X170425142Y-79160714D01*
X170329904Y-79113095D01*
X170139428Y-79113095D01*
X170044190Y-79160714D01*
X169996571Y-79208333D01*
X169948952Y-79303571D01*
X170520380Y-78113095D02*
X170044190Y-78446428D01*
X170520380Y-78684523D02*
X169520380Y-78684523D01*
X169520380Y-78303571D01*
X169568000Y-78208333D01*
X169615619Y-78160714D01*
X169710857Y-78113095D01*
X169853714Y-78113095D01*
X169948952Y-78160714D01*
X169996571Y-78208333D01*
X170044190Y-78303571D01*
X170044190Y-78684523D01*
D12*
X168473714Y-79495000D02*
X168130857Y-79735000D01*
X168473714Y-79906428D02*
X167753714Y-79906428D01*
X167753714Y-79632142D01*
X167788000Y-79563571D01*
X167822285Y-79529285D01*
X167890857Y-79495000D01*
X167993714Y-79495000D01*
X168062285Y-79529285D01*
X168096571Y-79563571D01*
X168130857Y-79632142D01*
X168130857Y-79906428D01*
X168473714Y-78809285D02*
X168473714Y-79220714D01*
X168473714Y-79015000D02*
X167753714Y-79015000D01*
X167856571Y-79083571D01*
X167925142Y-79152142D01*
X167959428Y-79220714D01*
D11*
X129468952Y-97667380D02*
X130135619Y-97667380D01*
X129707047Y-98667380D01*
X130945142Y-98000714D02*
X130945142Y-98667380D01*
X130707047Y-97619761D02*
X130468952Y-98334047D01*
X131088000Y-98334047D01*
X131945142Y-98667380D02*
X131468952Y-98667380D01*
X131468952Y-97667380D01*
X132230857Y-98619761D02*
X132373714Y-98667380D01*
X132611809Y-98667380D01*
X132707047Y-98619761D01*
X132754666Y-98572142D01*
X132802285Y-98476904D01*
X132802285Y-98381666D01*
X132754666Y-98286428D01*
X132707047Y-98238809D01*
X132611809Y-98191190D01*
X132421333Y-98143571D01*
X132326095Y-98095952D01*
X132278476Y-98048333D01*
X132230857Y-97953095D01*
X132230857Y-97857857D01*
X132278476Y-97762619D01*
X132326095Y-97715000D01*
X132421333Y-97667380D01*
X132659428Y-97667380D01*
X132802285Y-97715000D01*
X133707047Y-97667380D02*
X133230857Y-97667380D01*
X133183238Y-98143571D01*
X133230857Y-98095952D01*
X133326095Y-98048333D01*
X133564190Y-98048333D01*
X133659428Y-98095952D01*
X133707047Y-98143571D01*
X133754666Y-98238809D01*
X133754666Y-98476904D01*
X133707047Y-98572142D01*
X133659428Y-98619761D01*
X133564190Y-98667380D01*
X133326095Y-98667380D01*
X133230857Y-98619761D01*
X133183238Y-98572142D01*
X134611809Y-98000714D02*
X134611809Y-98667380D01*
X134373714Y-97619761D02*
X134135619Y-98334047D01*
X134754666Y-98334047D01*
X135659428Y-98667380D02*
X135088000Y-98667380D01*
X135373714Y-98667380D02*
X135373714Y-97667380D01*
X135278476Y-97810238D01*
X135183238Y-97905476D01*
X135088000Y-97953095D01*
X131826095Y-83907380D02*
X131826095Y-84716904D01*
X131873714Y-84812142D01*
X131921333Y-84859761D01*
X132016571Y-84907380D01*
X132207047Y-84907380D01*
X132302285Y-84859761D01*
X132349904Y-84812142D01*
X132397523Y-84716904D01*
X132397523Y-83907380D01*
X132826095Y-84002619D02*
X132873714Y-83955000D01*
X132968952Y-83907380D01*
X133207047Y-83907380D01*
X133302285Y-83955000D01*
X133349904Y-84002619D01*
X133397523Y-84097857D01*
X133397523Y-84193095D01*
X133349904Y-84335952D01*
X132778476Y-84907380D01*
X133397523Y-84907380D01*
X129326095Y-123067380D02*
X129992761Y-123067380D01*
X129564190Y-124067380D01*
X130802285Y-123400714D02*
X130802285Y-124067380D01*
X130564190Y-123019761D02*
X130326095Y-123734047D01*
X130945142Y-123734047D01*
X131326095Y-124067380D02*
X131326095Y-123067380D01*
X131326095Y-123543571D02*
X131897523Y-123543571D01*
X131897523Y-124067380D02*
X131897523Y-123067380D01*
X132945142Y-123972142D02*
X132897523Y-124019761D01*
X132754666Y-124067380D01*
X132659428Y-124067380D01*
X132516571Y-124019761D01*
X132421333Y-123924523D01*
X132373714Y-123829285D01*
X132326095Y-123638809D01*
X132326095Y-123495952D01*
X132373714Y-123305476D01*
X132421333Y-123210238D01*
X132516571Y-123115000D01*
X132659428Y-123067380D01*
X132754666Y-123067380D01*
X132897523Y-123115000D01*
X132945142Y-123162619D01*
X133849904Y-123067380D02*
X133373714Y-123067380D01*
X133326095Y-123543571D01*
X133373714Y-123495952D01*
X133468952Y-123448333D01*
X133707047Y-123448333D01*
X133802285Y-123495952D01*
X133849904Y-123543571D01*
X133897523Y-123638809D01*
X133897523Y-123876904D01*
X133849904Y-123972142D01*
X133802285Y-124019761D01*
X133707047Y-124067380D01*
X133468952Y-124067380D01*
X133373714Y-124019761D01*
X133326095Y-123972142D01*
X134373714Y-124067380D02*
X134564190Y-124067380D01*
X134659428Y-124019761D01*
X134707047Y-123972142D01*
X134802285Y-123829285D01*
X134849904Y-123638809D01*
X134849904Y-123257857D01*
X134802285Y-123162619D01*
X134754666Y-123115000D01*
X134659428Y-123067380D01*
X134468952Y-123067380D01*
X134373714Y-123115000D01*
X134326095Y-123162619D01*
X134278476Y-123257857D01*
X134278476Y-123495952D01*
X134326095Y-123591190D01*
X134373714Y-123638809D01*
X134468952Y-123686428D01*
X134659428Y-123686428D01*
X134754666Y-123638809D01*
X134802285Y-123591190D01*
X134849904Y-123495952D01*
X135754666Y-123067380D02*
X135278476Y-123067380D01*
X135230857Y-123543571D01*
X135278476Y-123495952D01*
X135373714Y-123448333D01*
X135611809Y-123448333D01*
X135707047Y-123495952D01*
X135754666Y-123543571D01*
X135802285Y-123638809D01*
X135802285Y-123876904D01*
X135754666Y-123972142D01*
X135707047Y-124019761D01*
X135611809Y-124067380D01*
X135373714Y-124067380D01*
X135278476Y-124019761D01*
X135230857Y-123972142D01*
X131826095Y-111847380D02*
X131826095Y-112656904D01*
X131873714Y-112752142D01*
X131921333Y-112799761D01*
X132016571Y-112847380D01*
X132207047Y-112847380D01*
X132302285Y-112799761D01*
X132349904Y-112752142D01*
X132397523Y-112656904D01*
X132397523Y-111847380D01*
X133349904Y-111847380D02*
X132873714Y-111847380D01*
X132826095Y-112323571D01*
X132873714Y-112275952D01*
X132968952Y-112228333D01*
X133207047Y-112228333D01*
X133302285Y-112275952D01*
X133349904Y-112323571D01*
X133397523Y-112418809D01*
X133397523Y-112656904D01*
X133349904Y-112752142D01*
X133302285Y-112799761D01*
X133207047Y-112847380D01*
X132968952Y-112847380D01*
X132873714Y-112799761D01*
X132826095Y-112752142D01*
X128468380Y-84105476D02*
X127468380Y-84105476D01*
X127468380Y-83867380D01*
X127516000Y-83724523D01*
X127611238Y-83629285D01*
X127706476Y-83581666D01*
X127896952Y-83534047D01*
X128039809Y-83534047D01*
X128230285Y-83581666D01*
X128325523Y-83629285D01*
X128420761Y-83724523D01*
X128468380Y-83867380D01*
X128468380Y-84105476D01*
X128468380Y-83105476D02*
X127801714Y-83105476D01*
X127468380Y-83105476D02*
X127516000Y-83153095D01*
X127563619Y-83105476D01*
X127516000Y-83057857D01*
X127468380Y-83105476D01*
X127563619Y-83105476D01*
X127801714Y-82200714D02*
X128611238Y-82200714D01*
X128706476Y-82248333D01*
X128754095Y-82295952D01*
X128801714Y-82391190D01*
X128801714Y-82534047D01*
X128754095Y-82629285D01*
X128420761Y-82200714D02*
X128468380Y-82295952D01*
X128468380Y-82486428D01*
X128420761Y-82581666D01*
X128373142Y-82629285D01*
X128277904Y-82676904D01*
X127992190Y-82676904D01*
X127896952Y-82629285D01*
X127849333Y-82581666D01*
X127801714Y-82486428D01*
X127801714Y-82295952D01*
X127849333Y-82200714D01*
X128468380Y-81724523D02*
X127801714Y-81724523D01*
X127468380Y-81724523D02*
X127516000Y-81772142D01*
X127563619Y-81724523D01*
X127516000Y-81676904D01*
X127468380Y-81724523D01*
X127563619Y-81724523D01*
X127801714Y-81391190D02*
X127801714Y-81010238D01*
X127468380Y-81248333D02*
X128325523Y-81248333D01*
X128420761Y-81200714D01*
X128468380Y-81105476D01*
X128468380Y-81010238D01*
X128468380Y-80248333D02*
X127944571Y-80248333D01*
X127849333Y-80295952D01*
X127801714Y-80391190D01*
X127801714Y-80581666D01*
X127849333Y-80676904D01*
X128420761Y-80248333D02*
X128468380Y-80343571D01*
X128468380Y-80581666D01*
X128420761Y-80676904D01*
X128325523Y-80724523D01*
X128230285Y-80724523D01*
X128135047Y-80676904D01*
X128087428Y-80581666D01*
X128087428Y-80343571D01*
X128039809Y-80248333D01*
X128468380Y-79629285D02*
X128420761Y-79724523D01*
X128325523Y-79772142D01*
X127468380Y-79772142D01*
X143319904Y-115177380D02*
X143319904Y-114177380D01*
X143319904Y-114653571D02*
X143891333Y-114653571D01*
X143891333Y-115177380D02*
X143891333Y-114177380D01*
X144367523Y-115177380D02*
X144367523Y-114177380D01*
X144700857Y-114891666D01*
X145034190Y-114177380D01*
X145034190Y-115177380D01*
X145938952Y-114177380D02*
X145748476Y-114177380D01*
X145653238Y-114225000D01*
X145605619Y-114272619D01*
X145510380Y-114415476D01*
X145462761Y-114605952D01*
X145462761Y-114986904D01*
X145510380Y-115082142D01*
X145558000Y-115129761D01*
X145653238Y-115177380D01*
X145843714Y-115177380D01*
X145938952Y-115129761D01*
X145986571Y-115082142D01*
X146034190Y-114986904D01*
X146034190Y-114748809D01*
X145986571Y-114653571D01*
X145938952Y-114605952D01*
X145843714Y-114558333D01*
X145653238Y-114558333D01*
X145558000Y-114605952D01*
X145510380Y-114653571D01*
X145462761Y-114748809D01*
X146938952Y-114177380D02*
X146462761Y-114177380D01*
X146415142Y-114653571D01*
X146462761Y-114605952D01*
X146558000Y-114558333D01*
X146796095Y-114558333D01*
X146891333Y-114605952D01*
X146938952Y-114653571D01*
X146986571Y-114748809D01*
X146986571Y-114986904D01*
X146938952Y-115082142D01*
X146891333Y-115129761D01*
X146796095Y-115177380D01*
X146558000Y-115177380D01*
X146462761Y-115129761D01*
X146415142Y-115082142D01*
X147319904Y-114177380D02*
X147986571Y-114177380D01*
X147558000Y-115177380D01*
X148796095Y-114177380D02*
X148605619Y-114177380D01*
X148510380Y-114225000D01*
X148462761Y-114272619D01*
X148367523Y-114415476D01*
X148319904Y-114605952D01*
X148319904Y-114986904D01*
X148367523Y-115082142D01*
X148415142Y-115129761D01*
X148510380Y-115177380D01*
X148700857Y-115177380D01*
X148796095Y-115129761D01*
X148843714Y-115082142D01*
X148891333Y-114986904D01*
X148891333Y-114748809D01*
X148843714Y-114653571D01*
X148796095Y-114605952D01*
X148700857Y-114558333D01*
X148510380Y-114558333D01*
X148415142Y-114605952D01*
X148367523Y-114653571D01*
X148319904Y-114748809D01*
X149748476Y-114510714D02*
X149748476Y-115177380D01*
X149510380Y-114129761D02*
X149272285Y-114844047D01*
X149891333Y-114844047D01*
X145796095Y-95337380D02*
X145796095Y-96146904D01*
X145843714Y-96242142D01*
X145891333Y-96289761D01*
X145986571Y-96337380D01*
X146177047Y-96337380D01*
X146272285Y-96289761D01*
X146319904Y-96242142D01*
X146367523Y-96146904D01*
X146367523Y-95337380D01*
X146748476Y-95337380D02*
X147415142Y-95337380D01*
X146986571Y-96337380D01*
X157266095Y-121797380D02*
X157932761Y-121797380D01*
X157504190Y-122797380D01*
X158742285Y-122130714D02*
X158742285Y-122797380D01*
X158504190Y-121749761D02*
X158266095Y-122464047D01*
X158885142Y-122464047D01*
X159266095Y-122797380D02*
X159266095Y-121797380D01*
X159266095Y-122273571D02*
X159837523Y-122273571D01*
X159837523Y-122797380D02*
X159837523Y-121797380D01*
X160885142Y-122702142D02*
X160837523Y-122749761D01*
X160694666Y-122797380D01*
X160599428Y-122797380D01*
X160456571Y-122749761D01*
X160361333Y-122654523D01*
X160313714Y-122559285D01*
X160266095Y-122368809D01*
X160266095Y-122225952D01*
X160313714Y-122035476D01*
X160361333Y-121940238D01*
X160456571Y-121845000D01*
X160599428Y-121797380D01*
X160694666Y-121797380D01*
X160837523Y-121845000D01*
X160885142Y-121892619D01*
X161789904Y-121797380D02*
X161313714Y-121797380D01*
X161266095Y-122273571D01*
X161313714Y-122225952D01*
X161408952Y-122178333D01*
X161647047Y-122178333D01*
X161742285Y-122225952D01*
X161789904Y-122273571D01*
X161837523Y-122368809D01*
X161837523Y-122606904D01*
X161789904Y-122702142D01*
X161742285Y-122749761D01*
X161647047Y-122797380D01*
X161408952Y-122797380D01*
X161313714Y-122749761D01*
X161266095Y-122702142D01*
X162313714Y-122797380D02*
X162504190Y-122797380D01*
X162599428Y-122749761D01*
X162647047Y-122702142D01*
X162742285Y-122559285D01*
X162789904Y-122368809D01*
X162789904Y-121987857D01*
X162742285Y-121892619D01*
X162694666Y-121845000D01*
X162599428Y-121797380D01*
X162408952Y-121797380D01*
X162313714Y-121845000D01*
X162266095Y-121892619D01*
X162218476Y-121987857D01*
X162218476Y-122225952D01*
X162266095Y-122321190D01*
X162313714Y-122368809D01*
X162408952Y-122416428D01*
X162599428Y-122416428D01*
X162694666Y-122368809D01*
X162742285Y-122321190D01*
X162789904Y-122225952D01*
X163694666Y-121797380D02*
X163218476Y-121797380D01*
X163170857Y-122273571D01*
X163218476Y-122225952D01*
X163313714Y-122178333D01*
X163551809Y-122178333D01*
X163647047Y-122225952D01*
X163694666Y-122273571D01*
X163742285Y-122368809D01*
X163742285Y-122606904D01*
X163694666Y-122702142D01*
X163647047Y-122749761D01*
X163551809Y-122797380D01*
X163313714Y-122797380D01*
X163218476Y-122749761D01*
X163170857Y-122702142D01*
X159766095Y-110577380D02*
X159766095Y-111386904D01*
X159813714Y-111482142D01*
X159861333Y-111529761D01*
X159956571Y-111577380D01*
X160147047Y-111577380D01*
X160242285Y-111529761D01*
X160289904Y-111482142D01*
X160337523Y-111386904D01*
X160337523Y-110577380D01*
X161242285Y-110577380D02*
X161051809Y-110577380D01*
X160956571Y-110625000D01*
X160908952Y-110672619D01*
X160813714Y-110815476D01*
X160766095Y-111005952D01*
X160766095Y-111386904D01*
X160813714Y-111482142D01*
X160861333Y-111529761D01*
X160956571Y-111577380D01*
X161147047Y-111577380D01*
X161242285Y-111529761D01*
X161289904Y-111482142D01*
X161337523Y-111386904D01*
X161337523Y-111148809D01*
X161289904Y-111053571D01*
X161242285Y-111005952D01*
X161147047Y-110958333D01*
X160956571Y-110958333D01*
X160861333Y-111005952D01*
X160813714Y-111053571D01*
X160766095Y-111148809D01*
X157408952Y-96397380D02*
X158075619Y-96397380D01*
X157647047Y-97397380D01*
X158885142Y-96730714D02*
X158885142Y-97397380D01*
X158647047Y-96349761D02*
X158408952Y-97064047D01*
X159028000Y-97064047D01*
X159885142Y-97397380D02*
X159408952Y-97397380D01*
X159408952Y-96397380D01*
X160170857Y-97349761D02*
X160313714Y-97397380D01*
X160551809Y-97397380D01*
X160647047Y-97349761D01*
X160694666Y-97302142D01*
X160742285Y-97206904D01*
X160742285Y-97111666D01*
X160694666Y-97016428D01*
X160647047Y-96968809D01*
X160551809Y-96921190D01*
X160361333Y-96873571D01*
X160266095Y-96825952D01*
X160218476Y-96778333D01*
X160170857Y-96683095D01*
X160170857Y-96587857D01*
X160218476Y-96492619D01*
X160266095Y-96445000D01*
X160361333Y-96397380D01*
X160599428Y-96397380D01*
X160742285Y-96445000D01*
X161647047Y-96397380D02*
X161170857Y-96397380D01*
X161123238Y-96873571D01*
X161170857Y-96825952D01*
X161266095Y-96778333D01*
X161504190Y-96778333D01*
X161599428Y-96825952D01*
X161647047Y-96873571D01*
X161694666Y-96968809D01*
X161694666Y-97206904D01*
X161647047Y-97302142D01*
X161599428Y-97349761D01*
X161504190Y-97397380D01*
X161266095Y-97397380D01*
X161170857Y-97349761D01*
X161123238Y-97302142D01*
X162551809Y-96730714D02*
X162551809Y-97397380D01*
X162313714Y-96349761D02*
X162075619Y-97064047D01*
X162694666Y-97064047D01*
X163599428Y-97397380D02*
X163028000Y-97397380D01*
X163313714Y-97397380D02*
X163313714Y-96397380D01*
X163218476Y-96540238D01*
X163123238Y-96635476D01*
X163028000Y-96683095D01*
X159766095Y-82637380D02*
X159766095Y-83446904D01*
X159813714Y-83542142D01*
X159861333Y-83589761D01*
X159956571Y-83637380D01*
X160147047Y-83637380D01*
X160242285Y-83589761D01*
X160289904Y-83542142D01*
X160337523Y-83446904D01*
X160337523Y-82637380D01*
X160718476Y-82637380D02*
X161337523Y-82637380D01*
X161004190Y-83018333D01*
X161147047Y-83018333D01*
X161242285Y-83065952D01*
X161289904Y-83113571D01*
X161337523Y-83208809D01*
X161337523Y-83446904D01*
X161289904Y-83542142D01*
X161242285Y-83589761D01*
X161147047Y-83637380D01*
X160861333Y-83637380D01*
X160766095Y-83589761D01*
X160718476Y-83542142D01*
X168108476Y-117577380D02*
X168727523Y-117577380D01*
X168394190Y-117958333D01*
X168537047Y-117958333D01*
X168632285Y-118005952D01*
X168679904Y-118053571D01*
X168727523Y-118148809D01*
X168727523Y-118386904D01*
X168679904Y-118482142D01*
X168632285Y-118529761D01*
X168537047Y-118577380D01*
X168251333Y-118577380D01*
X168156095Y-118529761D01*
X168108476Y-118482142D01*
X169060857Y-117577380D02*
X169679904Y-117577380D01*
X169346571Y-117958333D01*
X169489428Y-117958333D01*
X169584666Y-118005952D01*
X169632285Y-118053571D01*
X169679904Y-118148809D01*
X169679904Y-118386904D01*
X169632285Y-118482142D01*
X169584666Y-118529761D01*
X169489428Y-118577380D01*
X169203714Y-118577380D01*
X169108476Y-118529761D01*
X169060857Y-118482142D01*
X170679904Y-118577380D02*
X170346571Y-118101190D01*
X170108476Y-118577380D02*
X170108476Y-117577380D01*
X170489428Y-117577380D01*
X170584666Y-117625000D01*
X170632285Y-117672619D01*
X170679904Y-117767857D01*
X170679904Y-117910714D01*
X170632285Y-118005952D01*
X170584666Y-118053571D01*
X170489428Y-118101190D01*
X170108476Y-118101190D01*
D12*
X169298000Y-116530714D02*
X169058000Y-116187857D01*
X168886571Y-116530714D02*
X168886571Y-115810714D01*
X169160857Y-115810714D01*
X169229428Y-115845000D01*
X169263714Y-115879285D01*
X169298000Y-115947857D01*
X169298000Y-116050714D01*
X169263714Y-116119285D01*
X169229428Y-116153571D01*
X169160857Y-116187857D01*
X168886571Y-116187857D01*
X169915142Y-115810714D02*
X169778000Y-115810714D01*
X169709428Y-115845000D01*
X169675142Y-115879285D01*
X169606571Y-115982142D01*
X169572285Y-116119285D01*
X169572285Y-116393571D01*
X169606571Y-116462142D01*
X169640857Y-116496428D01*
X169709428Y-116530714D01*
X169846571Y-116530714D01*
X169915142Y-116496428D01*
X169949428Y-116462142D01*
X169983714Y-116393571D01*
X169983714Y-116222142D01*
X169949428Y-116153571D01*
X169915142Y-116119285D01*
X169846571Y-116085000D01*
X169709428Y-116085000D01*
X169640857Y-116119285D01*
X169606571Y-116153571D01*
X169572285Y-116222142D01*
D11*
X169520380Y-110831190D02*
X169520380Y-111307380D01*
X169996571Y-111355000D01*
X169948952Y-111307380D01*
X169901333Y-111212142D01*
X169901333Y-110974047D01*
X169948952Y-110878809D01*
X169996571Y-110831190D01*
X170091809Y-110783571D01*
X170329904Y-110783571D01*
X170425142Y-110831190D01*
X170472761Y-110878809D01*
X170520380Y-110974047D01*
X170520380Y-111212142D01*
X170472761Y-111307380D01*
X170425142Y-111355000D01*
X170425142Y-110355000D02*
X170472761Y-110307380D01*
X170520380Y-110355000D01*
X170472761Y-110402619D01*
X170425142Y-110355000D01*
X170520380Y-110355000D01*
X170520380Y-109355000D02*
X170520380Y-109926428D01*
X170520380Y-109640714D02*
X169520380Y-109640714D01*
X169663238Y-109735952D01*
X169758476Y-109831190D01*
X169806095Y-109926428D01*
X170520380Y-108926428D02*
X169520380Y-108926428D01*
X170520380Y-108355000D02*
X169948952Y-108783571D01*
X169520380Y-108355000D02*
X170091809Y-108926428D01*
D12*
X168473714Y-109975000D02*
X168130857Y-110215000D01*
X168473714Y-110386428D02*
X167753714Y-110386428D01*
X167753714Y-110112142D01*
X167788000Y-110043571D01*
X167822285Y-110009285D01*
X167890857Y-109975000D01*
X167993714Y-109975000D01*
X168062285Y-110009285D01*
X168096571Y-110043571D01*
X168130857Y-110112142D01*
X168130857Y-110386428D01*
X167753714Y-109323571D02*
X167753714Y-109666428D01*
X168096571Y-109700714D01*
X168062285Y-109666428D01*
X168028000Y-109597857D01*
X168028000Y-109426428D01*
X168062285Y-109357857D01*
X168096571Y-109323571D01*
X168165142Y-109289285D01*
X168336571Y-109289285D01*
X168405142Y-109323571D01*
X168439428Y-109357857D01*
X168473714Y-109426428D01*
X168473714Y-109597857D01*
X168439428Y-109666428D01*
X168405142Y-109700714D01*
D11*
X169520380Y-103211190D02*
X169520380Y-103687380D01*
X169996571Y-103735000D01*
X169948952Y-103687380D01*
X169901333Y-103592142D01*
X169901333Y-103354047D01*
X169948952Y-103258809D01*
X169996571Y-103211190D01*
X170091809Y-103163571D01*
X170329904Y-103163571D01*
X170425142Y-103211190D01*
X170472761Y-103258809D01*
X170520380Y-103354047D01*
X170520380Y-103592142D01*
X170472761Y-103687380D01*
X170425142Y-103735000D01*
X170425142Y-102735000D02*
X170472761Y-102687380D01*
X170520380Y-102735000D01*
X170472761Y-102782619D01*
X170425142Y-102735000D01*
X170520380Y-102735000D01*
X170520380Y-101735000D02*
X170520380Y-102306428D01*
X170520380Y-102020714D02*
X169520380Y-102020714D01*
X169663238Y-102115952D01*
X169758476Y-102211190D01*
X169806095Y-102306428D01*
X170520380Y-101306428D02*
X169520380Y-101306428D01*
X170520380Y-100735000D02*
X169948952Y-101163571D01*
X169520380Y-100735000D02*
X170091809Y-101306428D01*
D12*
X168473714Y-102355000D02*
X168130857Y-102595000D01*
X168473714Y-102766428D02*
X167753714Y-102766428D01*
X167753714Y-102492142D01*
X167788000Y-102423571D01*
X167822285Y-102389285D01*
X167890857Y-102355000D01*
X167993714Y-102355000D01*
X168062285Y-102389285D01*
X168096571Y-102423571D01*
X168130857Y-102492142D01*
X168130857Y-102766428D01*
X167993714Y-101737857D02*
X168473714Y-101737857D01*
X167719428Y-101909285D02*
X168233714Y-102080714D01*
X168233714Y-101635000D01*
D11*
X165680380Y-95591190D02*
X165680380Y-96067380D01*
X166156571Y-96115000D01*
X166108952Y-96067380D01*
X166061333Y-95972142D01*
X166061333Y-95734047D01*
X166108952Y-95638809D01*
X166156571Y-95591190D01*
X166251809Y-95543571D01*
X166489904Y-95543571D01*
X166585142Y-95591190D01*
X166632761Y-95638809D01*
X166680380Y-95734047D01*
X166680380Y-95972142D01*
X166632761Y-96067380D01*
X166585142Y-96115000D01*
X166585142Y-95115000D02*
X166632761Y-95067380D01*
X166680380Y-95115000D01*
X166632761Y-95162619D01*
X166585142Y-95115000D01*
X166680380Y-95115000D01*
X166680380Y-94115000D02*
X166680380Y-94686428D01*
X166680380Y-94400714D02*
X165680380Y-94400714D01*
X165823238Y-94495952D01*
X165918476Y-94591190D01*
X165966095Y-94686428D01*
X166680380Y-93686428D02*
X165680380Y-93686428D01*
X166680380Y-93115000D02*
X166108952Y-93543571D01*
X165680380Y-93115000D02*
X166251809Y-93686428D01*
D12*
X168473714Y-94735000D02*
X168130857Y-94975000D01*
X168473714Y-95146428D02*
X167753714Y-95146428D01*
X167753714Y-94872142D01*
X167788000Y-94803571D01*
X167822285Y-94769285D01*
X167890857Y-94735000D01*
X167993714Y-94735000D01*
X168062285Y-94769285D01*
X168096571Y-94803571D01*
X168130857Y-94872142D01*
X168130857Y-95146428D01*
X167753714Y-94495000D02*
X167753714Y-94049285D01*
X168028000Y-94289285D01*
X168028000Y-94186428D01*
X168062285Y-94117857D01*
X168096571Y-94083571D01*
X168165142Y-94049285D01*
X168336571Y-94049285D01*
X168405142Y-94083571D01*
X168439428Y-94117857D01*
X168473714Y-94186428D01*
X168473714Y-94392142D01*
X168439428Y-94460714D01*
X168405142Y-94495000D01*
D11*
X169520380Y-87971190D02*
X169520380Y-88447380D01*
X169996571Y-88495000D01*
X169948952Y-88447380D01*
X169901333Y-88352142D01*
X169901333Y-88114047D01*
X169948952Y-88018809D01*
X169996571Y-87971190D01*
X170091809Y-87923571D01*
X170329904Y-87923571D01*
X170425142Y-87971190D01*
X170472761Y-88018809D01*
X170520380Y-88114047D01*
X170520380Y-88352142D01*
X170472761Y-88447380D01*
X170425142Y-88495000D01*
X170425142Y-87495000D02*
X170472761Y-87447380D01*
X170520380Y-87495000D01*
X170472761Y-87542619D01*
X170425142Y-87495000D01*
X170520380Y-87495000D01*
X170520380Y-86495000D02*
X170520380Y-87066428D01*
X170520380Y-86780714D02*
X169520380Y-86780714D01*
X169663238Y-86875952D01*
X169758476Y-86971190D01*
X169806095Y-87066428D01*
X170520380Y-86066428D02*
X169520380Y-86066428D01*
X170520380Y-85495000D02*
X169948952Y-85923571D01*
X169520380Y-85495000D02*
X170091809Y-86066428D01*
D12*
X168473714Y-87115000D02*
X168130857Y-87355000D01*
X168473714Y-87526428D02*
X167753714Y-87526428D01*
X167753714Y-87252142D01*
X167788000Y-87183571D01*
X167822285Y-87149285D01*
X167890857Y-87115000D01*
X167993714Y-87115000D01*
X168062285Y-87149285D01*
X168096571Y-87183571D01*
X168130857Y-87252142D01*
X168130857Y-87526428D01*
X167822285Y-86840714D02*
X167788000Y-86806428D01*
X167753714Y-86737857D01*
X167753714Y-86566428D01*
X167788000Y-86497857D01*
X167822285Y-86463571D01*
X167890857Y-86429285D01*
X167959428Y-86429285D01*
X168062285Y-86463571D01*
X168473714Y-86875000D01*
X168473714Y-86429285D01*
D11*
X168465619Y-122630000D02*
X169465619Y-122630000D01*
X169275142Y-123902142D02*
X169227523Y-123949761D01*
X169084666Y-123997380D01*
X168989428Y-123997380D01*
X168846571Y-123949761D01*
X168751333Y-123854523D01*
X168703714Y-123759285D01*
X168656095Y-123568809D01*
X168656095Y-123425952D01*
X168703714Y-123235476D01*
X168751333Y-123140238D01*
X168846571Y-123045000D01*
X168989428Y-122997380D01*
X169084666Y-122997380D01*
X169227523Y-123045000D01*
X169275142Y-123092619D01*
X169465619Y-122630000D02*
X170370380Y-122630000D01*
X169703714Y-123473571D02*
X170037047Y-123473571D01*
X170179904Y-123997380D02*
X169703714Y-123997380D01*
X169703714Y-122997380D01*
X170179904Y-122997380D01*
X152870380Y-131385476D02*
X152870380Y-131956904D01*
X152870380Y-131671190D02*
X151870380Y-131671190D01*
X152013238Y-131766428D01*
X152108476Y-131861666D01*
X152156095Y-131956904D01*
X151870380Y-130766428D02*
X151870380Y-130671190D01*
X151918000Y-130575952D01*
X151965619Y-130528333D01*
X152060857Y-130480714D01*
X152251333Y-130433095D01*
X152489428Y-130433095D01*
X152679904Y-130480714D01*
X152775142Y-130528333D01*
X152822761Y-130575952D01*
X152870380Y-130671190D01*
X152870380Y-130766428D01*
X152822761Y-130861666D01*
X152775142Y-130909285D01*
X152679904Y-130956904D01*
X152489428Y-131004523D01*
X152251333Y-131004523D01*
X152060857Y-130956904D01*
X151965619Y-130909285D01*
X151918000Y-130861666D01*
X151870380Y-130766428D01*
X151870380Y-129814047D02*
X151870380Y-129718809D01*
X151918000Y-129623571D01*
X151965619Y-129575952D01*
X152060857Y-129528333D01*
X152251333Y-129480714D01*
X152489428Y-129480714D01*
X152679904Y-129528333D01*
X152775142Y-129575952D01*
X152822761Y-129623571D01*
X152870380Y-129718809D01*
X152870380Y-129814047D01*
X152822761Y-129909285D01*
X152775142Y-129956904D01*
X152679904Y-130004523D01*
X152489428Y-130052142D01*
X152251333Y-130052142D01*
X152060857Y-130004523D01*
X151965619Y-129956904D01*
X151918000Y-129909285D01*
X151870380Y-129814047D01*
X152870380Y-129052142D02*
X151870380Y-129052142D01*
X152870380Y-128480714D01*
X151870380Y-128480714D01*
D13*
X150582285Y-130295000D02*
X150610857Y-130323571D01*
X150639428Y-130409285D01*
X150639428Y-130466428D01*
X150610857Y-130552142D01*
X150553714Y-130609285D01*
X150496571Y-130637857D01*
X150382285Y-130666428D01*
X150296571Y-130666428D01*
X150182285Y-130637857D01*
X150125142Y-130609285D01*
X150068000Y-130552142D01*
X150039428Y-130466428D01*
X150039428Y-130409285D01*
X150068000Y-130323571D01*
X150096571Y-130295000D01*
X150239428Y-129780714D02*
X150639428Y-129780714D01*
X150010857Y-129923571D02*
X150439428Y-130066428D01*
X150439428Y-129695000D01*
D11*
X159357523Y-100927380D02*
X158786095Y-100927380D01*
X159071809Y-100927380D02*
X159071809Y-99927380D01*
X158976571Y-100070238D01*
X158881333Y-100165476D01*
X158786095Y-100213095D01*
X159976571Y-99927380D02*
X160071809Y-99927380D01*
X160167047Y-99975000D01*
X160214666Y-100022619D01*
X160262285Y-100117857D01*
X160309904Y-100308333D01*
X160309904Y-100546428D01*
X160262285Y-100736904D01*
X160214666Y-100832142D01*
X160167047Y-100879761D01*
X160071809Y-100927380D01*
X159976571Y-100927380D01*
X159881333Y-100879761D01*
X159833714Y-100832142D01*
X159786095Y-100736904D01*
X159738476Y-100546428D01*
X159738476Y-100308333D01*
X159786095Y-100117857D01*
X159833714Y-100022619D01*
X159881333Y-99975000D01*
X159976571Y-99927380D01*
X160928952Y-99927380D02*
X161024190Y-99927380D01*
X161119428Y-99975000D01*
X161167047Y-100022619D01*
X161214666Y-100117857D01*
X161262285Y-100308333D01*
X161262285Y-100546428D01*
X161214666Y-100736904D01*
X161167047Y-100832142D01*
X161119428Y-100879761D01*
X161024190Y-100927380D01*
X160928952Y-100927380D01*
X160833714Y-100879761D01*
X160786095Y-100832142D01*
X160738476Y-100736904D01*
X160690857Y-100546428D01*
X160690857Y-100308333D01*
X160738476Y-100117857D01*
X160786095Y-100022619D01*
X160833714Y-99975000D01*
X160928952Y-99927380D01*
X161690857Y-100927380D02*
X161690857Y-99927380D01*
X162262285Y-100927380D01*
X162262285Y-99927380D01*
D13*
X160448000Y-98639285D02*
X160419428Y-98667857D01*
X160333714Y-98696428D01*
X160276571Y-98696428D01*
X160190857Y-98667857D01*
X160133714Y-98610714D01*
X160105142Y-98553571D01*
X160076571Y-98439285D01*
X160076571Y-98353571D01*
X160105142Y-98239285D01*
X160133714Y-98182142D01*
X160190857Y-98125000D01*
X160276571Y-98096428D01*
X160333714Y-98096428D01*
X160419428Y-98125000D01*
X160448000Y-98153571D01*
X160962285Y-98096428D02*
X160848000Y-98096428D01*
X160790857Y-98125000D01*
X160762285Y-98153571D01*
X160705142Y-98239285D01*
X160676571Y-98353571D01*
X160676571Y-98582142D01*
X160705142Y-98639285D01*
X160733714Y-98667857D01*
X160790857Y-98696428D01*
X160905142Y-98696428D01*
X160962285Y-98667857D01*
X160990857Y-98639285D01*
X161019428Y-98582142D01*
X161019428Y-98439285D01*
X160990857Y-98382142D01*
X160962285Y-98353571D01*
X160905142Y-98325000D01*
X160790857Y-98325000D01*
X160733714Y-98353571D01*
X160705142Y-98382142D01*
X160676571Y-98439285D01*
D11*
X170650380Y-72925476D02*
X170650380Y-73496904D01*
X170650380Y-73211190D02*
X169650380Y-73211190D01*
X169793238Y-73306428D01*
X169888476Y-73401666D01*
X169936095Y-73496904D01*
X169650380Y-72306428D02*
X169650380Y-72211190D01*
X169698000Y-72115952D01*
X169745619Y-72068333D01*
X169840857Y-72020714D01*
X170031333Y-71973095D01*
X170269428Y-71973095D01*
X170459904Y-72020714D01*
X170555142Y-72068333D01*
X170602761Y-72115952D01*
X170650380Y-72211190D01*
X170650380Y-72306428D01*
X170602761Y-72401666D01*
X170555142Y-72449285D01*
X170459904Y-72496904D01*
X170269428Y-72544523D01*
X170031333Y-72544523D01*
X169840857Y-72496904D01*
X169745619Y-72449285D01*
X169698000Y-72401666D01*
X169650380Y-72306428D01*
X169650380Y-71354047D02*
X169650380Y-71258809D01*
X169698000Y-71163571D01*
X169745619Y-71115952D01*
X169840857Y-71068333D01*
X170031333Y-71020714D01*
X170269428Y-71020714D01*
X170459904Y-71068333D01*
X170555142Y-71115952D01*
X170602761Y-71163571D01*
X170650380Y-71258809D01*
X170650380Y-71354047D01*
X170602761Y-71449285D01*
X170555142Y-71496904D01*
X170459904Y-71544523D01*
X170269428Y-71592142D01*
X170031333Y-71592142D01*
X169840857Y-71544523D01*
X169745619Y-71496904D01*
X169698000Y-71449285D01*
X169650380Y-71354047D01*
X170650380Y-70592142D02*
X169650380Y-70592142D01*
X170650380Y-70020714D01*
X169650380Y-70020714D01*
D13*
X168362285Y-71835000D02*
X168390857Y-71863571D01*
X168419428Y-71949285D01*
X168419428Y-72006428D01*
X168390857Y-72092142D01*
X168333714Y-72149285D01*
X168276571Y-72177857D01*
X168162285Y-72206428D01*
X168076571Y-72206428D01*
X167962285Y-72177857D01*
X167905142Y-72149285D01*
X167848000Y-72092142D01*
X167819428Y-72006428D01*
X167819428Y-71949285D01*
X167848000Y-71863571D01*
X167876571Y-71835000D01*
X167819428Y-71635000D02*
X167819428Y-71263571D01*
X168048000Y-71463571D01*
X168048000Y-71377857D01*
X168076571Y-71320714D01*
X168105142Y-71292142D01*
X168162285Y-71263571D01*
X168305142Y-71263571D01*
X168362285Y-71292142D01*
X168390857Y-71320714D01*
X168419428Y-71377857D01*
X168419428Y-71549285D01*
X168390857Y-71606428D01*
X168362285Y-71635000D01*
D11*
X147927523Y-72697380D02*
X147356095Y-72697380D01*
X147641809Y-72697380D02*
X147641809Y-71697380D01*
X147546571Y-71840238D01*
X147451333Y-71935476D01*
X147356095Y-71983095D01*
X148546571Y-71697380D02*
X148641809Y-71697380D01*
X148737047Y-71745000D01*
X148784666Y-71792619D01*
X148832285Y-71887857D01*
X148879904Y-72078333D01*
X148879904Y-72316428D01*
X148832285Y-72506904D01*
X148784666Y-72602142D01*
X148737047Y-72649761D01*
X148641809Y-72697380D01*
X148546571Y-72697380D01*
X148451333Y-72649761D01*
X148403714Y-72602142D01*
X148356095Y-72506904D01*
X148308476Y-72316428D01*
X148308476Y-72078333D01*
X148356095Y-71887857D01*
X148403714Y-71792619D01*
X148451333Y-71745000D01*
X148546571Y-71697380D01*
X149498952Y-71697380D02*
X149594190Y-71697380D01*
X149689428Y-71745000D01*
X149737047Y-71792619D01*
X149784666Y-71887857D01*
X149832285Y-72078333D01*
X149832285Y-72316428D01*
X149784666Y-72506904D01*
X149737047Y-72602142D01*
X149689428Y-72649761D01*
X149594190Y-72697380D01*
X149498952Y-72697380D01*
X149403714Y-72649761D01*
X149356095Y-72602142D01*
X149308476Y-72506904D01*
X149260857Y-72316428D01*
X149260857Y-72078333D01*
X149308476Y-71887857D01*
X149356095Y-71792619D01*
X149403714Y-71745000D01*
X149498952Y-71697380D01*
X150260857Y-72697380D02*
X150260857Y-71697380D01*
X150832285Y-72697380D01*
X150832285Y-71697380D01*
D13*
X149018000Y-74509285D02*
X148989428Y-74537857D01*
X148903714Y-74566428D01*
X148846571Y-74566428D01*
X148760857Y-74537857D01*
X148703714Y-74480714D01*
X148675142Y-74423571D01*
X148646571Y-74309285D01*
X148646571Y-74223571D01*
X148675142Y-74109285D01*
X148703714Y-74052142D01*
X148760857Y-73995000D01*
X148846571Y-73966428D01*
X148903714Y-73966428D01*
X148989428Y-73995000D01*
X149018000Y-74023571D01*
X149218000Y-73966428D02*
X149618000Y-73966428D01*
X149360857Y-74566428D01*
D11*
X142710380Y-72925476D02*
X142710380Y-73496904D01*
X142710380Y-73211190D02*
X141710380Y-73211190D01*
X141853238Y-73306428D01*
X141948476Y-73401666D01*
X141996095Y-73496904D01*
X141710380Y-72306428D02*
X141710380Y-72211190D01*
X141758000Y-72115952D01*
X141805619Y-72068333D01*
X141900857Y-72020714D01*
X142091333Y-71973095D01*
X142329428Y-71973095D01*
X142519904Y-72020714D01*
X142615142Y-72068333D01*
X142662761Y-72115952D01*
X142710380Y-72211190D01*
X142710380Y-72306428D01*
X142662761Y-72401666D01*
X142615142Y-72449285D01*
X142519904Y-72496904D01*
X142329428Y-72544523D01*
X142091333Y-72544523D01*
X141900857Y-72496904D01*
X141805619Y-72449285D01*
X141758000Y-72401666D01*
X141710380Y-72306428D01*
X141710380Y-71354047D02*
X141710380Y-71258809D01*
X141758000Y-71163571D01*
X141805619Y-71115952D01*
X141900857Y-71068333D01*
X142091333Y-71020714D01*
X142329428Y-71020714D01*
X142519904Y-71068333D01*
X142615142Y-71115952D01*
X142662761Y-71163571D01*
X142710380Y-71258809D01*
X142710380Y-71354047D01*
X142662761Y-71449285D01*
X142615142Y-71496904D01*
X142519904Y-71544523D01*
X142329428Y-71592142D01*
X142091333Y-71592142D01*
X141900857Y-71544523D01*
X141805619Y-71496904D01*
X141758000Y-71449285D01*
X141710380Y-71354047D01*
X142710380Y-70592142D02*
X141710380Y-70592142D01*
X142710380Y-70020714D01*
X141710380Y-70020714D01*
D13*
X140422285Y-71835000D02*
X140450857Y-71863571D01*
X140479428Y-71949285D01*
X140479428Y-72006428D01*
X140450857Y-72092142D01*
X140393714Y-72149285D01*
X140336571Y-72177857D01*
X140222285Y-72206428D01*
X140136571Y-72206428D01*
X140022285Y-72177857D01*
X139965142Y-72149285D01*
X139908000Y-72092142D01*
X139879428Y-72006428D01*
X139879428Y-71949285D01*
X139908000Y-71863571D01*
X139936571Y-71835000D01*
X139936571Y-71606428D02*
X139908000Y-71577857D01*
X139879428Y-71520714D01*
X139879428Y-71377857D01*
X139908000Y-71320714D01*
X139936571Y-71292142D01*
X139993714Y-71263571D01*
X140050857Y-71263571D01*
X140136571Y-71292142D01*
X140479428Y-71635000D01*
X140479428Y-71263571D01*
D11*
X131397523Y-101417380D02*
X130826095Y-101417380D01*
X131111809Y-101417380D02*
X131111809Y-100417380D01*
X131016571Y-100560238D01*
X130921333Y-100655476D01*
X130826095Y-100703095D01*
X132016571Y-100417380D02*
X132111809Y-100417380D01*
X132207047Y-100465000D01*
X132254666Y-100512619D01*
X132302285Y-100607857D01*
X132349904Y-100798333D01*
X132349904Y-101036428D01*
X132302285Y-101226904D01*
X132254666Y-101322142D01*
X132207047Y-101369761D01*
X132111809Y-101417380D01*
X132016571Y-101417380D01*
X131921333Y-101369761D01*
X131873714Y-101322142D01*
X131826095Y-101226904D01*
X131778476Y-101036428D01*
X131778476Y-100798333D01*
X131826095Y-100607857D01*
X131873714Y-100512619D01*
X131921333Y-100465000D01*
X132016571Y-100417380D01*
X132968952Y-100417380D02*
X133064190Y-100417380D01*
X133159428Y-100465000D01*
X133207047Y-100512619D01*
X133254666Y-100607857D01*
X133302285Y-100798333D01*
X133302285Y-101036428D01*
X133254666Y-101226904D01*
X133207047Y-101322142D01*
X133159428Y-101369761D01*
X133064190Y-101417380D01*
X132968952Y-101417380D01*
X132873714Y-101369761D01*
X132826095Y-101322142D01*
X132778476Y-101226904D01*
X132730857Y-101036428D01*
X132730857Y-100798333D01*
X132778476Y-100607857D01*
X132826095Y-100512619D01*
X132873714Y-100465000D01*
X132968952Y-100417380D01*
X133730857Y-101417380D02*
X133730857Y-100417380D01*
X134302285Y-101417380D01*
X134302285Y-100417380D01*
D13*
X132508000Y-99909285D02*
X132479428Y-99937857D01*
X132393714Y-99966428D01*
X132336571Y-99966428D01*
X132250857Y-99937857D01*
X132193714Y-99880714D01*
X132165142Y-99823571D01*
X132136571Y-99709285D01*
X132136571Y-99623571D01*
X132165142Y-99509285D01*
X132193714Y-99452142D01*
X132250857Y-99395000D01*
X132336571Y-99366428D01*
X132393714Y-99366428D01*
X132479428Y-99395000D01*
X132508000Y-99423571D01*
X133050857Y-99366428D02*
X132765142Y-99366428D01*
X132736571Y-99652142D01*
X132765142Y-99623571D01*
X132822285Y-99595000D01*
X132965142Y-99595000D01*
X133022285Y-99623571D01*
X133050857Y-99652142D01*
X133079428Y-99709285D01*
X133079428Y-99852142D01*
X133050857Y-99909285D01*
X133022285Y-99937857D01*
X132965142Y-99966428D01*
X132822285Y-99966428D01*
X132765142Y-99937857D01*
X132736571Y-99909285D01*
D11*
X168346380Y-101671190D02*
X167346380Y-101671190D01*
X167346380Y-101290238D01*
X167394000Y-101195000D01*
X167441619Y-101147380D01*
X167536857Y-101099761D01*
X167679714Y-101099761D01*
X167774952Y-101147380D01*
X167822571Y-101195000D01*
X167870190Y-101290238D01*
X167870190Y-101671190D01*
X168346380Y-100528333D02*
X168298761Y-100623571D01*
X168251142Y-100671190D01*
X168155904Y-100718809D01*
X167870190Y-100718809D01*
X167774952Y-100671190D01*
X167727333Y-100623571D01*
X167679714Y-100528333D01*
X167679714Y-100385476D01*
X167727333Y-100290238D01*
X167774952Y-100242619D01*
X167870190Y-100195000D01*
X168155904Y-100195000D01*
X168251142Y-100242619D01*
X168298761Y-100290238D01*
X168346380Y-100385476D01*
X168346380Y-100528333D01*
X167679714Y-99861666D02*
X168346380Y-99671190D01*
X167870190Y-99480714D01*
X168346380Y-99290238D01*
X167679714Y-99099761D01*
X168298761Y-98337857D02*
X168346380Y-98433095D01*
X168346380Y-98623571D01*
X168298761Y-98718809D01*
X168203523Y-98766428D01*
X167822571Y-98766428D01*
X167727333Y-98718809D01*
X167679714Y-98623571D01*
X167679714Y-98433095D01*
X167727333Y-98337857D01*
X167822571Y-98290238D01*
X167917809Y-98290238D01*
X168013047Y-98766428D01*
X168346380Y-97861666D02*
X167679714Y-97861666D01*
X167870190Y-97861666D02*
X167774952Y-97814047D01*
X167727333Y-97766428D01*
X167679714Y-97671190D01*
X167679714Y-97575952D01*
X168060666Y-81430523D02*
X168060666Y-80954333D01*
X168346380Y-81525761D02*
X167346380Y-81192428D01*
X168346380Y-80859095D01*
X167679714Y-80525761D02*
X168346380Y-80525761D01*
X167774952Y-80525761D02*
X167727333Y-80478142D01*
X167679714Y-80382904D01*
X167679714Y-80240047D01*
X167727333Y-80144809D01*
X167822571Y-80097190D01*
X168346380Y-80097190D01*
X168346380Y-79192428D02*
X167822571Y-79192428D01*
X167727333Y-79240047D01*
X167679714Y-79335285D01*
X167679714Y-79525761D01*
X167727333Y-79621000D01*
X168298761Y-79192428D02*
X168346380Y-79287666D01*
X168346380Y-79525761D01*
X168298761Y-79621000D01*
X168203523Y-79668619D01*
X168108285Y-79668619D01*
X168013047Y-79621000D01*
X167965428Y-79525761D01*
X167965428Y-79287666D01*
X167917809Y-79192428D01*
X168346380Y-78573380D02*
X168298761Y-78668619D01*
X168203523Y-78716238D01*
X167346380Y-78716238D01*
X168346380Y-78049571D02*
X168298761Y-78144809D01*
X168251142Y-78192428D01*
X168155904Y-78240047D01*
X167870190Y-78240047D01*
X167774952Y-78192428D01*
X167727333Y-78144809D01*
X167679714Y-78049571D01*
X167679714Y-77906714D01*
X167727333Y-77811476D01*
X167774952Y-77763857D01*
X167870190Y-77716238D01*
X168155904Y-77716238D01*
X168251142Y-77763857D01*
X168298761Y-77811476D01*
X168346380Y-77906714D01*
X168346380Y-78049571D01*
X167679714Y-76859095D02*
X168489238Y-76859095D01*
X168584476Y-76906714D01*
X168632095Y-76954333D01*
X168679714Y-77049571D01*
X168679714Y-77192428D01*
X168632095Y-77287666D01*
X168298761Y-76859095D02*
X168346380Y-76954333D01*
X168346380Y-77144809D01*
X168298761Y-77240047D01*
X168251142Y-77287666D01*
X168155904Y-77335285D01*
X167870190Y-77335285D01*
X167774952Y-77287666D01*
X167727333Y-77240047D01*
X167679714Y-77144809D01*
X167679714Y-76954333D01*
X167727333Y-76859095D01*
X128468380Y-108489476D02*
X127468380Y-108489476D01*
X127468380Y-108251380D01*
X127516000Y-108108523D01*
X127611238Y-108013285D01*
X127706476Y-107965666D01*
X127896952Y-107918047D01*
X128039809Y-107918047D01*
X128230285Y-107965666D01*
X128325523Y-108013285D01*
X128420761Y-108108523D01*
X128468380Y-108251380D01*
X128468380Y-108489476D01*
X128468380Y-107489476D02*
X127801714Y-107489476D01*
X127468380Y-107489476D02*
X127516000Y-107537095D01*
X127563619Y-107489476D01*
X127516000Y-107441857D01*
X127468380Y-107489476D01*
X127563619Y-107489476D01*
X127801714Y-106584714D02*
X128611238Y-106584714D01*
X128706476Y-106632333D01*
X128754095Y-106679952D01*
X128801714Y-106775190D01*
X128801714Y-106918047D01*
X128754095Y-107013285D01*
X128420761Y-106584714D02*
X128468380Y-106679952D01*
X128468380Y-106870428D01*
X128420761Y-106965666D01*
X128373142Y-107013285D01*
X128277904Y-107060904D01*
X127992190Y-107060904D01*
X127896952Y-107013285D01*
X127849333Y-106965666D01*
X127801714Y-106870428D01*
X127801714Y-106679952D01*
X127849333Y-106584714D01*
X128468380Y-106108523D02*
X127801714Y-106108523D01*
X127468380Y-106108523D02*
X127516000Y-106156142D01*
X127563619Y-106108523D01*
X127516000Y-106060904D01*
X127468380Y-106108523D01*
X127563619Y-106108523D01*
X127801714Y-105775190D02*
X127801714Y-105394238D01*
X127468380Y-105632333D02*
X128325523Y-105632333D01*
X128420761Y-105584714D01*
X128468380Y-105489476D01*
X128468380Y-105394238D01*
X128468380Y-104632333D02*
X127944571Y-104632333D01*
X127849333Y-104679952D01*
X127801714Y-104775190D01*
X127801714Y-104965666D01*
X127849333Y-105060904D01*
X128420761Y-104632333D02*
X128468380Y-104727571D01*
X128468380Y-104965666D01*
X128420761Y-105060904D01*
X128325523Y-105108523D01*
X128230285Y-105108523D01*
X128135047Y-105060904D01*
X128087428Y-104965666D01*
X128087428Y-104727571D01*
X128039809Y-104632333D01*
X128468380Y-104013285D02*
X128420761Y-104108523D01*
X128325523Y-104156142D01*
X127468380Y-104156142D01*
M02*
