G04 #@! TF.GenerationSoftware,KiCad,Pcbnew,(5.1.2)-2*
G04 #@! TF.CreationDate,2020-02-02T16:06:22+13:00*
G04 #@! TF.ProjectId,APEDSK-AU,41504544-534b-42d4-9155-2e6b69636164,rev?*
G04 #@! TF.SameCoordinates,Original*
G04 #@! TF.FileFunction,Copper,L1,Top*
G04 #@! TF.FilePolarity,Positive*
%FSLAX46Y46*%
G04 Gerber Fmt 4.6, Leading zero omitted, Abs format (unit mm)*
G04 Created by KiCad (PCBNEW (5.1.2)-2) date 2020-02-02 16:06:22*
%MOMM*%
%LPD*%
G04 APERTURE LIST*
%ADD10O,1.400000X1.400000*%
%ADD11C,1.400000*%
%ADD12O,1.800000X1.800000*%
%ADD13R,1.800000X1.800000*%
%ADD14O,1.600000X1.600000*%
%ADD15R,1.600000X1.600000*%
%ADD16O,1.700000X1.700000*%
%ADD17R,1.700000X1.700000*%
%ADD18C,1.600000*%
%ADD19O,2.032000X1.727200*%
%ADD20C,1.800000*%
%ADD21C,0.250000*%
G04 APERTURE END LIST*
D10*
X171958000Y-116205000D03*
D11*
X166878000Y-116205000D03*
D10*
X168148000Y-107315000D03*
D11*
X168148000Y-112395000D03*
D10*
X168148000Y-99695000D03*
D11*
X168148000Y-104775000D03*
D10*
X168148000Y-97155000D03*
D11*
X168148000Y-92075000D03*
D12*
X168148000Y-80645000D03*
D13*
X168148000Y-85725000D03*
D14*
X152908000Y-126365000D03*
X170688000Y-133985000D03*
X155448000Y-126365000D03*
X168148000Y-133985000D03*
X157988000Y-126365000D03*
X165608000Y-133985000D03*
X160528000Y-126365000D03*
X163068000Y-133985000D03*
X163068000Y-126365000D03*
X160528000Y-133985000D03*
X165608000Y-126365000D03*
X157988000Y-133985000D03*
X168148000Y-126365000D03*
X155448000Y-133985000D03*
X170688000Y-126365000D03*
D15*
X152908000Y-133985000D03*
D16*
X114808000Y-76835000D03*
X112268000Y-76835000D03*
X114808000Y-79375000D03*
X112268000Y-79375000D03*
X114808000Y-81915000D03*
X112268000Y-81915000D03*
X114808000Y-84455000D03*
X112268000Y-84455000D03*
X114808000Y-86995000D03*
X112268000Y-86995000D03*
X114808000Y-89535000D03*
X112268000Y-89535000D03*
X114808000Y-92075000D03*
X112268000Y-92075000D03*
X114808000Y-94615000D03*
X112268000Y-94615000D03*
X114808000Y-97155000D03*
X112268000Y-97155000D03*
X114808000Y-99695000D03*
X112268000Y-99695000D03*
X114808000Y-102235000D03*
X112268000Y-102235000D03*
X114808000Y-104775000D03*
X112268000Y-104775000D03*
X114808000Y-107315000D03*
X112268000Y-107315000D03*
X114808000Y-109855000D03*
X112268000Y-109855000D03*
X114808000Y-112395000D03*
X112268000Y-112395000D03*
X114808000Y-114935000D03*
X112268000Y-114935000D03*
X114808000Y-117475000D03*
X112268000Y-117475000D03*
X114808000Y-120015000D03*
X112268000Y-120015000D03*
X114808000Y-122555000D03*
X112268000Y-122555000D03*
X114808000Y-125095000D03*
X112268000Y-125095000D03*
X114808000Y-127635000D03*
X112268000Y-127635000D03*
X114808000Y-130175000D03*
D17*
X112268000Y-130175000D03*
D14*
X122428000Y-126365000D03*
X145288000Y-133985000D03*
X124968000Y-126365000D03*
X142748000Y-133985000D03*
X127508000Y-126365000D03*
X140208000Y-133985000D03*
X130048000Y-126365000D03*
X137668000Y-133985000D03*
X132588000Y-126365000D03*
X135128000Y-133985000D03*
X135128000Y-126365000D03*
X132588000Y-133985000D03*
X137668000Y-126365000D03*
X130048000Y-133985000D03*
X140208000Y-126365000D03*
X127508000Y-133985000D03*
X142748000Y-126365000D03*
X124968000Y-133985000D03*
X145288000Y-126365000D03*
D15*
X122428000Y-133985000D03*
D18*
X119888000Y-123825000D03*
X119888000Y-126325000D03*
D14*
X136398000Y-73025000D03*
X128778000Y-95885000D03*
X136398000Y-75565000D03*
X128778000Y-93345000D03*
X136398000Y-78105000D03*
X128778000Y-90805000D03*
X136398000Y-80645000D03*
X128778000Y-88265000D03*
X136398000Y-83185000D03*
X128778000Y-85725000D03*
X136398000Y-85725000D03*
X128778000Y-83185000D03*
X136398000Y-88265000D03*
X128778000Y-80645000D03*
X136398000Y-90805000D03*
X128778000Y-78105000D03*
X136398000Y-93345000D03*
X128778000Y-75565000D03*
X136398000Y-95885000D03*
D15*
X128778000Y-73025000D03*
D14*
X136398000Y-103505000D03*
X128778000Y-121285000D03*
X136398000Y-106045000D03*
X128778000Y-118745000D03*
X136398000Y-108585000D03*
X128778000Y-116205000D03*
X136398000Y-111125000D03*
X128778000Y-113665000D03*
X136398000Y-113665000D03*
X128778000Y-111125000D03*
X136398000Y-116205000D03*
X128778000Y-108585000D03*
X136398000Y-118745000D03*
X128778000Y-106045000D03*
X136398000Y-121285000D03*
D15*
X128778000Y-103505000D03*
D19*
X123698000Y-90805000D03*
X123698000Y-88265000D03*
X123698000Y-85725000D03*
X123698000Y-83185000D03*
X123698000Y-80645000D03*
X123698000Y-78105000D03*
X123698000Y-75565000D03*
X123698000Y-73025000D03*
D14*
X150368000Y-79375000D03*
X142748000Y-112395000D03*
X150368000Y-81915000D03*
X142748000Y-109855000D03*
X150368000Y-84455000D03*
X142748000Y-107315000D03*
X150368000Y-86995000D03*
X142748000Y-104775000D03*
X150368000Y-89535000D03*
X142748000Y-102235000D03*
X150368000Y-92075000D03*
X142748000Y-99695000D03*
X150368000Y-94615000D03*
X142748000Y-97155000D03*
X150368000Y-97155000D03*
X142748000Y-94615000D03*
X150368000Y-99695000D03*
X142748000Y-92075000D03*
X150368000Y-102235000D03*
X142748000Y-89535000D03*
X150368000Y-104775000D03*
X142748000Y-86995000D03*
X150368000Y-107315000D03*
X142748000Y-84455000D03*
X150368000Y-109855000D03*
X142748000Y-81915000D03*
X150368000Y-112395000D03*
D15*
X142748000Y-79375000D03*
D14*
X164338000Y-102235000D03*
X156718000Y-120015000D03*
X164338000Y-104775000D03*
X156718000Y-117475000D03*
X164338000Y-107315000D03*
X156718000Y-114935000D03*
X164338000Y-109855000D03*
X156718000Y-112395000D03*
X164338000Y-112395000D03*
X156718000Y-109855000D03*
X164338000Y-114935000D03*
X156718000Y-107315000D03*
X164338000Y-117475000D03*
X156718000Y-104775000D03*
X164338000Y-120015000D03*
D15*
X156718000Y-102235000D03*
D14*
X164338000Y-71755000D03*
X156718000Y-94615000D03*
X164338000Y-74295000D03*
X156718000Y-92075000D03*
X164338000Y-76835000D03*
X156718000Y-89535000D03*
X164338000Y-79375000D03*
X156718000Y-86995000D03*
X164338000Y-81915000D03*
X156718000Y-84455000D03*
X164338000Y-84455000D03*
X156718000Y-81915000D03*
X164338000Y-86995000D03*
X156718000Y-79375000D03*
X164338000Y-89535000D03*
X156718000Y-76835000D03*
X164338000Y-92075000D03*
X156718000Y-74295000D03*
X164338000Y-94615000D03*
D15*
X156718000Y-71755000D03*
D20*
X170688000Y-121285000D03*
D13*
X168148000Y-121285000D03*
D18*
X150368000Y-128945000D03*
X150368000Y-131445000D03*
X161798000Y-98425000D03*
X159298000Y-98425000D03*
X168148000Y-70485000D03*
X168148000Y-72985000D03*
X147868000Y-74295000D03*
X150368000Y-74295000D03*
X140208000Y-70485000D03*
X140208000Y-72985000D03*
X131358000Y-99695000D03*
X133858000Y-99695000D03*
D19*
X171958000Y-108585000D03*
X171958000Y-106045000D03*
X171958000Y-103505000D03*
X171958000Y-100965000D03*
X171958000Y-98425000D03*
X171958000Y-95885000D03*
X171958000Y-93345000D03*
X171958000Y-90805000D03*
X171958000Y-85725000D03*
X171958000Y-83185000D03*
X171958000Y-80645000D03*
X171958000Y-78105000D03*
X171958000Y-75565000D03*
X171958000Y-73025000D03*
X123698000Y-117729000D03*
X123698000Y-115189000D03*
X123698000Y-112649000D03*
X123698000Y-110109000D03*
X123698000Y-107569000D03*
X123698000Y-105029000D03*
X123698000Y-102489000D03*
X123698000Y-99949000D03*
X123698000Y-97409000D03*
X123698000Y-94869000D03*
D21*
X171958000Y-116205000D02*
X171958000Y-117475000D01*
X171958000Y-117475000D02*
X170688000Y-118745000D01*
X170688000Y-118745000D02*
X170688000Y-121285000D01*
X141622999Y-127490001D02*
X139378001Y-127490001D01*
X130137992Y-127940010D02*
X119201598Y-127940010D01*
X117557912Y-126296324D02*
X117557912Y-84664912D01*
X139378001Y-127490001D02*
X138793001Y-126905001D01*
X119201598Y-127940010D02*
X117557912Y-126296324D01*
X138793001Y-126905001D02*
X138793001Y-125824999D01*
X142748000Y-126365000D02*
X141622999Y-127490001D01*
X138793001Y-125824999D02*
X138208001Y-125239999D01*
X138208001Y-125239999D02*
X132047999Y-125239999D01*
X132047999Y-125239999D02*
X131462999Y-125824999D01*
X131462999Y-125824999D02*
X131462999Y-126615003D01*
X131462999Y-126615003D02*
X130137992Y-127940010D01*
X117557912Y-84664912D02*
X114808000Y-81915000D01*
X118457936Y-119857756D02*
X119886590Y-121286410D01*
X118457934Y-81285932D02*
X118457934Y-119857754D01*
X118457934Y-81285932D02*
X115372001Y-78199999D01*
X115372001Y-78199999D02*
X114243999Y-78199999D01*
X114243999Y-78199999D02*
X113443001Y-79000997D01*
X113443001Y-79000997D02*
X113443001Y-80739999D01*
X118457934Y-119857754D02*
X119886590Y-121286410D01*
X113443001Y-80739999D02*
X112268000Y-81915000D01*
X123387345Y-124789988D02*
X138632988Y-124789988D01*
X119886590Y-121286410D02*
X119886590Y-121289233D01*
X139408001Y-125565001D02*
X140208000Y-126365000D01*
X119886590Y-121289233D02*
X123387345Y-124789988D01*
X138632988Y-124789988D02*
X139408001Y-125565001D01*
X117107901Y-126482724D02*
X117107901Y-86754901D01*
X117107901Y-86754901D02*
X114808000Y-84455000D01*
X132588000Y-126365000D02*
X130562977Y-128390023D01*
X130562977Y-128390023D02*
X119015200Y-128390023D01*
X119015200Y-128390023D02*
X117107901Y-126482724D01*
X111092999Y-85630001D02*
X111092999Y-90099001D01*
X111092999Y-90099001D02*
X111893997Y-90899999D01*
X115372001Y-90899999D02*
X116207879Y-91735877D01*
X111893997Y-90899999D02*
X115372001Y-90899999D01*
X116207879Y-91735877D02*
X116207879Y-126855527D01*
X112268000Y-84455000D02*
X111092999Y-85630001D01*
X118707363Y-129355011D02*
X142297989Y-129355011D01*
X142297989Y-129355011D02*
X144488001Y-127164999D01*
X144488001Y-127164999D02*
X145288000Y-126365000D01*
X116207879Y-126855527D02*
X118707363Y-129355011D01*
X118007923Y-83375921D02*
X115372001Y-80739999D01*
X118007923Y-126109924D02*
X118007923Y-83375921D01*
X119388000Y-127490001D02*
X118007923Y-126109924D01*
X130048000Y-126365000D02*
X128922999Y-127490001D01*
X115372001Y-80739999D02*
X114243999Y-80739999D01*
X113632999Y-81350999D02*
X113632999Y-85819999D01*
X128922999Y-127490001D02*
X119388000Y-127490001D01*
X114243999Y-80739999D02*
X113632999Y-81350999D01*
X113632999Y-85819999D02*
X113958001Y-86145001D01*
X113958001Y-86145001D02*
X114808000Y-86995000D01*
X133118044Y-128374956D02*
X134328001Y-127164999D01*
X134328001Y-127164999D02*
X135128000Y-126365000D01*
X115182003Y-88170001D02*
X116657890Y-89645888D01*
X112268000Y-86995000D02*
X113443001Y-88170001D01*
X132588000Y-128905000D02*
X134328001Y-127164999D01*
X116657890Y-89645888D02*
X116657890Y-126669127D01*
X113443001Y-88170001D02*
X115182003Y-88170001D01*
X116657890Y-126669127D02*
X118893763Y-128905000D01*
X118893763Y-128905000D02*
X132588000Y-128905000D01*
X113632999Y-128199001D02*
X114338998Y-128905000D01*
X112268000Y-120015000D02*
X113632999Y-121379999D01*
X113632999Y-121379999D02*
X113632999Y-128199001D01*
X118520963Y-129805021D02*
X120788021Y-129805021D01*
X114338998Y-128905000D02*
X117620942Y-128905000D01*
X117620942Y-128905000D02*
X118520963Y-129805021D01*
X122428000Y-131445000D02*
X122428000Y-133985000D01*
X120788021Y-129805021D02*
X122428000Y-131445000D01*
X169623012Y-77747588D02*
X169623012Y-85930012D01*
X171805600Y-75565000D02*
X169623012Y-77747588D01*
X171958000Y-75565000D02*
X171805600Y-75565000D01*
X169623012Y-85930012D02*
X169623012Y-85367588D01*
X164338000Y-112395000D02*
X165913012Y-110819988D01*
X165913012Y-110819988D02*
X165913012Y-104083401D01*
X165913012Y-104083401D02*
X169623012Y-100373401D01*
X169623012Y-100373401D02*
X169623012Y-85930012D01*
X171805600Y-78105000D02*
X171958000Y-78105000D01*
X170616990Y-79293610D02*
X171805600Y-78105000D01*
X170616990Y-100015834D02*
X170616990Y-79293610D01*
X166363023Y-104269801D02*
X170616990Y-100015834D01*
X166363023Y-112909977D02*
X166363023Y-104269801D01*
X164338000Y-114935000D02*
X166363023Y-112909977D01*
X171805600Y-83185000D02*
X171958000Y-83185000D01*
X137197999Y-74765001D02*
X136398000Y-75565000D01*
X137197999Y-74329999D02*
X137197999Y-74765001D01*
X139772998Y-71755000D02*
X137197999Y-74329999D01*
X156718000Y-71755000D02*
X139772998Y-71755000D01*
X156467997Y-88409999D02*
X158132999Y-88409999D01*
X158132999Y-88409999D02*
X163538001Y-93815001D01*
X163538001Y-93815001D02*
X164338000Y-94615000D01*
X172110400Y-80645000D02*
X171958000Y-80645000D01*
X151167999Y-83110001D02*
X156467997Y-88409999D01*
X151167999Y-82714999D02*
X151167999Y-83110001D01*
X150368000Y-81915000D02*
X151167999Y-82714999D01*
X135128000Y-112395000D02*
X136398000Y-112395000D01*
X136793002Y-112395000D02*
X135128000Y-112395000D01*
X137957948Y-111230054D02*
X136793002Y-112395000D01*
X137957950Y-103182097D02*
X137957948Y-111230054D01*
X150368000Y-102235000D02*
X147008011Y-98875011D01*
X147008011Y-98875011D02*
X147008011Y-92130009D01*
X147008011Y-92130009D02*
X143143002Y-88265000D01*
X143143002Y-88265000D02*
X141478000Y-88265000D01*
X141478000Y-88265000D02*
X137957950Y-91785050D01*
X137957950Y-91785050D02*
X137957950Y-103182097D01*
X123850400Y-97409000D02*
X125140610Y-98699210D01*
X125140610Y-98699210D02*
X125140610Y-111297610D01*
X123698000Y-97409000D02*
X123850400Y-97409000D01*
X125140610Y-111297610D02*
X126238000Y-112395000D01*
X126238000Y-112395000D02*
X135128000Y-112395000D01*
X149114746Y-128021723D02*
X149114746Y-116586074D01*
X143873001Y-132859999D02*
X143873005Y-132859995D01*
X144276475Y-132859994D02*
X149114746Y-128021723D01*
X141882997Y-133185001D02*
X142207999Y-132859999D01*
X149114746Y-116586074D02*
X152908000Y-112792822D01*
X151167999Y-105574999D02*
X150368000Y-104775000D01*
X152908000Y-107315000D02*
X151167999Y-105574999D01*
X141007999Y-133185001D02*
X141882997Y-133185001D01*
X142207999Y-132859999D02*
X143873001Y-132859999D01*
X143873005Y-132859995D02*
X144276475Y-132859994D01*
X140208000Y-133985000D02*
X141007999Y-133185001D01*
X152908000Y-112792822D02*
X152908000Y-107315000D01*
X138407961Y-93875039D02*
X138407958Y-96653629D01*
X136793002Y-114935000D02*
X125892780Y-114935000D01*
X146558000Y-94219998D02*
X143288001Y-90949999D01*
X150368000Y-104775000D02*
X146558000Y-100965000D01*
X123545600Y-94869000D02*
X123698000Y-94869000D01*
X146558000Y-100965000D02*
X146558000Y-94219998D01*
X143288001Y-90949999D02*
X141333001Y-90949999D01*
X141333001Y-90949999D02*
X138407961Y-93875039D01*
X138407958Y-96653629D02*
X138407958Y-113320044D01*
X138407958Y-113320044D02*
X136793002Y-114935000D01*
X125892780Y-114935000D02*
X124795390Y-113837610D01*
X124795390Y-113837610D02*
X122648665Y-113837610D01*
X122648665Y-113837610D02*
X122138053Y-113326998D01*
X122138053Y-113326998D02*
X122138053Y-96276547D01*
X122138053Y-96276547D02*
X123545600Y-94869000D01*
X141478000Y-94219998D02*
X141915499Y-93782499D01*
X139227945Y-132425055D02*
X137668000Y-133985000D01*
X142006529Y-132425055D02*
X139227945Y-132425055D01*
X142021599Y-132409985D02*
X142006529Y-132425055D01*
X144090074Y-132409985D02*
X142021599Y-132409985D01*
X148664732Y-127835328D02*
X144090074Y-132409985D01*
X148664735Y-127201735D02*
X148664732Y-127835328D01*
X152457989Y-112606422D02*
X148664735Y-116399674D01*
X148664735Y-116399674D02*
X148664735Y-127201735D01*
X152457989Y-109404989D02*
X152457989Y-112606422D01*
X150368000Y-107315000D02*
X152457989Y-109404989D01*
X142352998Y-93345000D02*
X141915499Y-93782499D01*
X143143002Y-93345000D02*
X142352998Y-93345000D01*
X146107989Y-96309987D02*
X143143002Y-93345000D01*
X146107989Y-103054989D02*
X146107989Y-96309987D01*
X150368000Y-107315000D02*
X146107989Y-103054989D01*
X122600610Y-116377610D02*
X125140610Y-116377610D01*
X125140610Y-116377610D02*
X126238000Y-117475000D01*
X123698000Y-91918600D02*
X121688042Y-93928558D01*
X123698000Y-90805000D02*
X123698000Y-91918600D01*
X121688042Y-93928558D02*
X121688042Y-115465042D01*
X138857969Y-96840029D02*
X141915499Y-93782499D01*
X137668000Y-117475000D02*
X138857969Y-116285031D01*
X138857969Y-116285031D02*
X138857969Y-96840029D01*
X121688042Y-115465042D02*
X122600610Y-116377610D01*
X126238000Y-117475000D02*
X137668000Y-117475000D01*
X150368000Y-109855000D02*
X151638000Y-111125000D01*
X152007978Y-112420022D02*
X152007978Y-111494978D01*
X151167999Y-110654999D02*
X150368000Y-109855000D01*
X152007978Y-111494978D02*
X151167999Y-110654999D01*
X148214724Y-116213274D02*
X152007978Y-112420022D01*
X148214724Y-127648927D02*
X148214724Y-116213274D01*
X143903674Y-131959977D02*
X148214724Y-127648927D01*
X141835199Y-131959977D02*
X143903674Y-131959977D01*
X137137956Y-131975044D02*
X141820132Y-131975044D01*
X135128000Y-133985000D02*
X137137956Y-131975044D01*
X141820132Y-131975044D02*
X141835199Y-131959977D01*
X139307980Y-117500022D02*
X136793002Y-120015000D01*
X142352998Y-95885000D02*
X139307980Y-98930018D01*
X121238031Y-90572569D02*
X123545600Y-88265000D01*
X123698000Y-120015000D02*
X121238031Y-117555031D01*
X150368000Y-109855000D02*
X145288000Y-104775000D01*
X145288000Y-98029998D02*
X143143002Y-95885000D01*
X139307980Y-98930018D02*
X139307980Y-117500022D01*
X123545600Y-88265000D02*
X123698000Y-88265000D01*
X136793002Y-120015000D02*
X123698000Y-120015000D01*
X121238031Y-117555031D02*
X121238031Y-90572569D01*
X145288000Y-104775000D02*
X145288000Y-98029998D01*
X143143002Y-95885000D02*
X142352998Y-95885000D01*
X141648799Y-131509966D02*
X141633732Y-131525033D01*
X150368000Y-112395000D02*
X147764713Y-114998287D01*
X141633732Y-131525033D02*
X135047967Y-131525033D01*
X135047967Y-131525033D02*
X133387999Y-133185001D01*
X133387999Y-133185001D02*
X132588000Y-133985000D01*
X143717274Y-131509966D02*
X141648799Y-131509966D01*
X147764713Y-127462527D02*
X143717274Y-131509966D01*
X147764713Y-114998287D02*
X147764713Y-127462527D01*
X136703012Y-122860012D02*
X137360168Y-122860012D01*
X137360169Y-122860012D02*
X139822955Y-120397226D01*
X136703012Y-122860012D02*
X137360169Y-122860012D01*
X139822955Y-102858632D02*
X139838020Y-102843567D01*
X139822955Y-120397226D02*
X139822955Y-102858632D01*
X139822955Y-100955043D02*
X139822955Y-102858632D01*
X142207999Y-98569999D02*
X139822955Y-100955043D01*
X143288001Y-98569999D02*
X142207999Y-98569999D01*
X144837989Y-100119987D02*
X143288001Y-98569999D01*
X150368000Y-112395000D02*
X144837989Y-106864989D01*
X144837989Y-106864989D02*
X144837989Y-100119987D01*
X123698000Y-85725000D02*
X123545600Y-85725000D01*
X120338010Y-88932590D02*
X121081800Y-88188800D01*
X120338010Y-119192177D02*
X120338010Y-88932590D01*
X123545600Y-85725000D02*
X121081800Y-88188800D01*
X136703012Y-122860012D02*
X124003012Y-122860012D01*
X124003012Y-122860012D02*
X122428001Y-121285001D01*
X122428001Y-121285001D02*
X122428000Y-121282167D01*
X121081800Y-88188800D02*
X120788020Y-88482580D01*
X122428000Y-121282167D02*
X120338010Y-119192177D01*
X141447332Y-131075022D02*
X141462399Y-131059955D01*
X143530874Y-131059955D02*
X147314702Y-127276127D01*
X147314702Y-127276127D02*
X147314702Y-114421702D01*
X141462399Y-131059955D02*
X143530874Y-131059955D01*
X147314702Y-114421702D02*
X143547999Y-110654999D01*
X143547999Y-110654999D02*
X142748000Y-109855000D01*
X132957978Y-131075022D02*
X141447332Y-131075022D01*
X130048000Y-133985000D02*
X132957978Y-131075022D01*
X142748000Y-109855000D02*
X144323012Y-108279988D01*
X119888000Y-86842600D02*
X123545600Y-83185000D01*
X144323012Y-108279988D02*
X144323012Y-102145010D01*
X144323012Y-102145010D02*
X143143002Y-100965000D01*
X143143002Y-100965000D02*
X142352998Y-100965000D01*
X140272966Y-120583626D02*
X137546569Y-123310023D01*
X137546569Y-123310023D02*
X123816612Y-123310023D01*
X123816612Y-123310023D02*
X121977991Y-121471401D01*
X121977991Y-121471401D02*
X121977991Y-121468568D01*
X121977991Y-121468568D02*
X119888000Y-119378577D01*
X119888000Y-119378577D02*
X119888000Y-86842600D01*
X140272966Y-103045032D02*
X140272966Y-120583626D01*
X142352998Y-100965000D02*
X140272966Y-103045032D01*
X123545600Y-83185000D02*
X123698000Y-83185000D01*
X146863010Y-125638600D02*
X146863009Y-127091409D01*
X130867989Y-130625011D02*
X128307999Y-133185001D01*
X128307999Y-133185001D02*
X127508000Y-133985000D01*
X141260932Y-130625011D02*
X130867989Y-130625011D01*
X141275999Y-130609944D02*
X141260932Y-130625011D01*
X143344474Y-130609944D02*
X141275999Y-130609944D01*
X146863009Y-127091409D02*
X143344474Y-130609944D01*
X141622999Y-110395001D02*
X142352998Y-111125000D01*
X142748000Y-107315000D02*
X142748000Y-108189998D01*
X142352998Y-111125000D02*
X143143002Y-111125000D01*
X143143002Y-111125000D02*
X146863009Y-114845007D01*
X141622999Y-109314999D02*
X141622999Y-110395001D01*
X142748000Y-108189998D02*
X141622999Y-109314999D01*
X146863009Y-114845007D02*
X146863009Y-127091409D01*
X119357955Y-102765045D02*
X119357958Y-102765042D01*
X119357958Y-84832642D02*
X119357956Y-84832644D01*
X120523002Y-120649998D02*
X119357958Y-119484954D01*
X119357956Y-84832644D02*
X119357956Y-119484952D01*
X119357956Y-119484952D02*
X120523002Y-120649998D01*
X143873001Y-104234999D02*
X143143002Y-103505000D01*
X142352998Y-103505000D02*
X140722980Y-105135018D01*
X140722980Y-120770020D02*
X137732966Y-123760034D01*
X143143002Y-103505000D02*
X142352998Y-103505000D01*
X121527980Y-121654976D02*
X120523002Y-120649998D01*
X143873001Y-106189999D02*
X143873001Y-104234999D01*
X121527980Y-121657801D02*
X121527980Y-121654976D01*
X137732966Y-123760034D02*
X123630212Y-123760034D01*
X123630212Y-123760034D02*
X121527980Y-121657801D01*
X142748000Y-107315000D02*
X143873001Y-106189999D01*
X140722980Y-105135018D02*
X140722980Y-120770020D01*
X123545600Y-75565000D02*
X123698000Y-75565000D01*
X119357958Y-79752642D02*
X123545600Y-75565000D01*
X119357958Y-84832642D02*
X119357958Y-79752642D01*
X142748000Y-105417053D02*
X142748000Y-104775000D01*
X140658011Y-121605079D02*
X138053045Y-124210045D01*
X128697967Y-130255033D02*
X124968000Y-133985000D01*
X144798047Y-124210045D02*
X146120501Y-125532499D01*
X138053045Y-124210045D02*
X144798047Y-124210045D01*
X146120501Y-125532499D02*
X145828001Y-125239999D01*
X125767999Y-133185001D02*
X124968000Y-133985000D01*
X128778000Y-130175000D02*
X125767999Y-133185001D01*
X141074532Y-130175000D02*
X128778000Y-130175000D01*
X143158075Y-130159933D02*
X141089599Y-130159933D01*
X146413001Y-125824999D02*
X146413001Y-126905007D01*
X146120501Y-125532499D02*
X146413001Y-125824999D01*
X146413001Y-126905007D02*
X143158075Y-130159933D01*
X141089599Y-130159933D02*
X141074532Y-130175000D01*
X141172991Y-121090099D02*
X138053045Y-124210045D01*
X141172991Y-106350009D02*
X141172991Y-121090099D01*
X142748000Y-104775000D02*
X141172991Y-106350009D01*
X118907945Y-119671355D02*
X120072991Y-120836401D01*
X121077969Y-121841380D02*
X121077969Y-121844201D01*
X121077969Y-121844201D02*
X123443813Y-124210045D01*
X123443813Y-124210045D02*
X138053045Y-124210045D01*
X118907945Y-119671355D02*
X121077969Y-121841380D01*
X118907945Y-119671355D02*
X118907945Y-76545055D01*
X122428000Y-73025000D02*
X123698000Y-73025000D01*
X118907945Y-76545055D02*
X122428000Y-73025000D01*
X123850400Y-80645000D02*
X126238000Y-83032600D01*
X123698000Y-80645000D02*
X123850400Y-80645000D01*
X126238000Y-107710002D02*
X128382998Y-109855000D01*
X126238000Y-83032600D02*
X126238000Y-107710002D01*
X135128000Y-109855000D02*
X136398000Y-111125000D01*
X128382998Y-109855000D02*
X135128000Y-109855000D01*
X168148000Y-86875000D02*
X168148000Y-85725000D01*
X166958031Y-88064969D02*
X168148000Y-86875000D01*
X166958031Y-101916384D02*
X166958031Y-88064969D01*
X165463001Y-103411411D02*
X166958031Y-101916384D01*
X165463001Y-108729999D02*
X165463001Y-103411411D01*
X164338000Y-109855000D02*
X165463001Y-108729999D01*
X135598001Y-105245001D02*
X136398000Y-106045000D01*
X135272999Y-104919999D02*
X135598001Y-105245001D01*
X135272999Y-79230001D02*
X135272999Y-104919999D01*
X136398000Y-78105000D02*
X135272999Y-79230001D01*
X146558000Y-78105000D02*
X157113002Y-78105000D01*
X142748000Y-81915000D02*
X146558000Y-78105000D01*
X163538001Y-86195001D02*
X164338000Y-86995000D01*
X158293012Y-80950012D02*
X163538001Y-86195001D01*
X158293012Y-79285010D02*
X158293012Y-80950012D01*
X157113002Y-78105000D02*
X158293012Y-79285010D01*
X164338000Y-103900002D02*
X164338000Y-104775000D01*
X166508022Y-101729980D02*
X164338000Y-103900002D01*
X166508022Y-79005022D02*
X166508022Y-101729980D01*
X164338000Y-76835000D02*
X166508022Y-79005022D01*
X156718000Y-101185000D02*
X156718000Y-102235000D01*
X155448000Y-99915000D02*
X156718000Y-101185000D01*
X155448000Y-94615000D02*
X155448000Y-99915000D01*
X150368000Y-89535000D02*
X155448000Y-94615000D01*
X163068000Y-80645000D02*
X164338000Y-79375000D01*
X156718000Y-102235000D02*
X160528000Y-102235000D01*
X160528000Y-102235000D02*
X165608000Y-97155000D01*
X165608000Y-97155000D02*
X165608000Y-86599998D01*
X165608000Y-86599998D02*
X164588003Y-85580001D01*
X163068000Y-84850002D02*
X163068000Y-80645000D01*
X164588003Y-85580001D02*
X163797999Y-85580001D01*
X163797999Y-85580001D02*
X163068000Y-84850002D01*
X166058011Y-97974989D02*
X156718000Y-107315000D01*
X166058011Y-86175011D02*
X164338000Y-84455000D01*
X166058011Y-97974989D02*
X166058011Y-86175011D01*
X150368000Y-92075000D02*
X154178000Y-95885000D01*
X154628011Y-105225011D02*
X154628011Y-96335011D01*
X156718000Y-107315000D02*
X154628011Y-105225011D01*
X154628011Y-96335011D02*
X150368000Y-92075000D01*
X168148000Y-107315000D02*
X169418000Y-108585000D01*
X168148000Y-118745000D02*
X168148000Y-121285000D01*
X169418000Y-117475000D02*
X168148000Y-118745000D01*
X169418000Y-108585000D02*
X169418000Y-117475000D01*
X163867999Y-133185001D02*
X163068000Y-133985000D01*
X167022999Y-130030001D02*
X163867999Y-133185001D01*
X167022999Y-123560001D02*
X167022999Y-130030001D01*
X168148000Y-122435000D02*
X167022999Y-123560001D01*
X168148000Y-121285000D02*
X168148000Y-122435000D01*
X162268001Y-133185001D02*
X163068000Y-133985000D01*
X159402999Y-130319999D02*
X162268001Y-133185001D01*
X159402999Y-118494997D02*
X159402999Y-130319999D01*
X156968003Y-116060001D02*
X159402999Y-118494997D01*
X156177999Y-116060001D02*
X156968003Y-116060001D01*
X154178000Y-114060002D02*
X156177999Y-116060001D01*
X154178000Y-103505000D02*
X154178000Y-114060002D01*
X150368000Y-99695000D02*
X154178000Y-103505000D01*
X160528000Y-88265000D02*
X164338000Y-92075000D01*
X150368000Y-99695000D02*
X147908033Y-97235033D01*
X147908033Y-82709965D02*
X149972998Y-80645000D01*
X149972998Y-80645000D02*
X157113002Y-80645000D01*
X147908033Y-97235033D02*
X147908033Y-82709965D01*
X157113002Y-80645000D02*
X160528000Y-84059998D01*
X160528000Y-84059998D02*
X160528000Y-88265000D01*
X126234000Y-76835000D02*
X137668000Y-76835000D01*
X140208000Y-79375000D02*
X140208000Y-83580002D01*
X137668000Y-76835000D02*
X140208000Y-79375000D01*
X124964000Y-78105000D02*
X126234000Y-76835000D01*
X140208000Y-83580002D02*
X142497997Y-85869999D01*
X142497997Y-85869999D02*
X143288001Y-85869999D01*
X123698000Y-78105000D02*
X124964000Y-78105000D01*
X147458022Y-90040020D02*
X146755501Y-89337499D01*
X147458022Y-98450024D02*
X147458022Y-90040020D01*
X150117997Y-101109999D02*
X147458022Y-98450024D01*
X143288001Y-85869999D02*
X146755501Y-89337499D01*
X155448000Y-126365000D02*
X153358008Y-124275008D01*
X153358008Y-124275008D02*
X153358008Y-103560006D01*
X146755501Y-89337499D02*
X147377989Y-89959987D01*
X153358008Y-103560006D02*
X150908001Y-101109999D01*
X150908001Y-101109999D02*
X150117997Y-101109999D01*
M02*
