M48
; DRILL file {KiCad (6.0.5)} date Wed Jun 29 15:53:20 2022
; FORMAT={-:-/ absolute / metric / decimal}
; #@! TF.CreationDate,2022-06-29T15:53:20+12:00
; #@! TF.GenerationSoftware,Kicad,Pcbnew,(6.0.5)
; #@! TF.FileFunction,Plated,1,4,PTH
FMAT,2
METRIC
; #@! TA.AperFunction,Plated,PTH,ComponentDrill
T1C0.700
; #@! TA.AperFunction,Plated,PTH,ComponentDrill
T2C0.800
; #@! TA.AperFunction,Plated,PTH,ComponentDrill
T3C0.900
; #@! TA.AperFunction,Plated,PTH,ComponentDrill
T4C1.000
; #@! TA.AperFunction,Plated,PTH,ComponentDrill
T5C1.016
%
G90
G05
T1
X163.068Y-117.475
X163.068Y-122.555
X166.878Y-116.205
X168.148Y-92.075
X168.148Y-97.155
X168.148Y-99.695
X168.148Y-104.775
X168.148Y-107.315
X168.148Y-112.395
X171.958Y-116.205
T2
X121.158Y-126.365
X121.158Y-133.985
X123.698Y-126.365
X123.698Y-133.985
X126.238Y-126.365
X126.238Y-133.985
X128.778Y-73.025
X128.778Y-75.565
X128.778Y-78.105
X128.778Y-80.645
X128.778Y-83.185
X128.778Y-85.725
X128.778Y-88.265
X128.778Y-90.805
X128.778Y-93.345
X128.778Y-95.885
X128.778Y-99.695
X128.778Y-102.235
X128.778Y-104.775
X128.778Y-107.315
X128.778Y-109.855
X128.778Y-112.395
X128.778Y-114.935
X128.778Y-117.475
X128.778Y-120.015
X128.778Y-122.555
X128.778Y-126.365
X128.778Y-133.985
X131.318Y-126.365
X131.318Y-133.985
X133.858Y-126.365
X133.858Y-133.985
X136.398Y-73.025
X136.398Y-75.565
X136.398Y-78.105
X136.398Y-80.645
X136.398Y-83.185
X136.398Y-85.725
X136.398Y-88.265
X136.398Y-90.805
X136.398Y-93.345
X136.398Y-95.885
X136.398Y-99.695
X136.398Y-102.235
X136.398Y-104.775
X136.398Y-107.315
X136.398Y-109.855
X136.398Y-112.395
X136.398Y-114.935
X136.398Y-117.475
X136.398Y-120.015
X136.398Y-122.555
X136.398Y-126.365
X136.398Y-133.985
X138.938Y-70.525
X138.938Y-73.025
X138.938Y-97.195
X138.938Y-99.695
X138.938Y-126.365
X138.938Y-133.985
X141.478Y-126.365
X141.478Y-133.985
X142.748Y-75.565
X142.748Y-78.105
X142.748Y-80.645
X142.748Y-83.185
X142.748Y-85.725
X142.748Y-88.265
X142.748Y-90.805
X142.748Y-93.345
X142.748Y-102.235
X142.748Y-104.775
X142.748Y-107.315
X142.748Y-109.855
X142.748Y-112.395
X142.748Y-114.935
X142.748Y-117.475
X142.748Y-120.015
X144.018Y-126.365
X144.018Y-133.985
X146.558Y-125.135
X146.558Y-127.635
X146.558Y-131.485
X146.558Y-133.985
X147.868Y-73.025
X147.868Y-99.695
X149.098Y-126.365
X149.098Y-133.985
X150.368Y-73.025
X150.368Y-75.565
X150.368Y-78.105
X150.368Y-80.645
X150.368Y-83.185
X150.368Y-85.725
X150.368Y-88.265
X150.368Y-90.805
X150.368Y-93.345
X150.368Y-99.695
X150.368Y-102.235
X150.368Y-104.775
X150.368Y-107.315
X150.368Y-109.855
X150.368Y-112.395
X150.368Y-114.935
X150.368Y-117.475
X150.368Y-120.015
X151.638Y-126.365
X151.638Y-133.985
X154.178Y-126.365
X154.178Y-133.985
X155.448Y-76.835
X155.448Y-79.375
X155.448Y-81.915
X155.448Y-84.455
X155.448Y-86.995
X155.448Y-89.535
X155.448Y-92.075
X155.448Y-94.615
X155.448Y-97.155
X155.448Y-99.695
X155.448Y-102.235
X155.448Y-104.775
X155.448Y-107.315
X155.448Y-109.855
X155.448Y-112.395
X155.448Y-114.935
X155.448Y-117.475
X156.718Y-126.365
X156.718Y-133.985
X157.948Y-117.475
X159.258Y-126.365
X159.258Y-133.985
X161.798Y-126.365
X161.798Y-133.985
X163.068Y-76.835
X163.068Y-79.375
X163.068Y-81.915
X163.068Y-84.455
X163.068Y-86.995
X163.068Y-89.535
X163.068Y-92.075
X163.068Y-94.615
X163.068Y-97.155
X163.068Y-99.695
X163.068Y-102.235
X163.068Y-104.775
X163.068Y-107.315
X163.068Y-109.855
X163.068Y-112.395
X163.068Y-114.935
X164.338Y-126.365
X164.338Y-133.985
X166.878Y-126.365
X166.878Y-133.985
X167.998Y-81.745
X167.998Y-89.365
X169.418Y-126.365
X169.418Y-133.985
X171.958Y-126.365
X171.958Y-133.985
T3
X169.418Y-121.285
X171.958Y-121.285
T4
X112.268Y-76.835
X112.268Y-79.375
X112.268Y-81.915
X112.268Y-84.455
X112.268Y-86.995
X112.268Y-89.535
X112.268Y-92.075
X112.268Y-94.615
X112.268Y-97.155
X112.268Y-99.695
X112.268Y-102.235
X112.268Y-104.775
X112.268Y-107.315
X112.268Y-109.855
X112.268Y-112.395
X112.268Y-114.935
X112.268Y-117.475
X112.268Y-120.015
X112.268Y-122.555
X112.268Y-125.095
X112.268Y-127.635
X112.268Y-130.175
X114.808Y-76.835
X114.808Y-79.375
X114.808Y-81.915
X114.808Y-84.455
X114.808Y-86.995
X114.808Y-89.535
X114.808Y-92.075
X114.808Y-94.615
X114.808Y-97.155
X114.808Y-99.695
X114.808Y-102.235
X114.808Y-104.775
X114.808Y-107.315
X114.808Y-109.855
X114.808Y-112.395
X114.808Y-114.935
X114.808Y-117.475
X114.808Y-120.015
X114.808Y-122.555
X114.808Y-125.095
X114.808Y-127.635
X114.808Y-130.175
T5
X123.698Y-73.025
X123.698Y-75.565
X123.698Y-78.105
X123.698Y-80.645
X123.698Y-83.185
X123.698Y-85.725
X123.698Y-88.265
X123.698Y-90.805
X123.698Y-94.869
X123.698Y-97.409
X123.698Y-99.949
X123.698Y-102.489
X123.698Y-105.029
X123.698Y-107.569
X123.698Y-110.109
X123.698Y-112.649
X123.698Y-115.189
X123.698Y-117.729
X171.958Y-73.025
X171.958Y-75.565
X171.958Y-78.105
X171.958Y-80.645
X171.958Y-83.185
X171.958Y-85.725
X171.958Y-90.805
X171.958Y-93.345
X171.958Y-95.885
X171.958Y-98.425
X171.958Y-100.965
X171.958Y-103.505
X171.958Y-106.045
X171.958Y-108.585
T0
M30
