M48
; DRILL file {KiCad (5.1.2)-2} date 8/02/2020 13:07:36
; FORMAT={-:-/ absolute / metric / decimal}
; #@! TF.CreationDate,2020-02-08T13:07:36+13:00
; #@! TF.GenerationSoftware,Kicad,Pcbnew,(5.1.2)-2
; #@! TF.FileFunction,Plated,1,4,PTH
FMAT,2
METRIC
T1C0.700
T2C0.800
T3C0.900
T4C1.000
T5C1.016
%
G90
G05
T1
X168.148Y-112.395
X168.148Y-92.075
X168.148Y-97.155
X168.148Y-99.695
X168.148Y-104.775
X166.878Y-116.205
X171.958Y-116.205
X168.148Y-107.315
T2
X168.148Y-70.485
X168.148Y-72.985
X122.428Y-126.365
X122.428Y-133.985
X124.968Y-126.365
X124.968Y-133.985
X127.508Y-126.365
X127.508Y-133.985
X130.048Y-126.365
X130.048Y-133.985
X132.588Y-126.365
X132.588Y-133.985
X135.128Y-126.365
X135.128Y-133.985
X137.668Y-126.365
X137.668Y-133.985
X140.208Y-126.365
X140.208Y-133.985
X142.748Y-126.365
X142.748Y-133.985
X145.288Y-126.365
X145.288Y-133.985
X156.718Y-71.755
X156.718Y-74.295
X156.718Y-76.835
X156.718Y-79.375
X156.718Y-81.915
X156.718Y-84.455
X156.718Y-86.995
X156.718Y-89.535
X156.718Y-92.075
X156.718Y-94.615
X164.338Y-71.755
X164.338Y-74.295
X164.338Y-76.835
X164.338Y-79.375
X164.338Y-81.915
X164.338Y-84.455
X164.338Y-86.995
X164.338Y-89.535
X164.338Y-92.075
X164.338Y-94.615
X128.778Y-73.025
X128.778Y-75.565
X128.778Y-78.105
X128.778Y-80.645
X128.778Y-83.185
X128.778Y-85.725
X128.778Y-88.265
X128.778Y-90.805
X128.778Y-93.345
X128.778Y-95.885
X136.398Y-73.025
X136.398Y-75.565
X136.398Y-78.105
X136.398Y-80.645
X136.398Y-83.185
X136.398Y-85.725
X136.398Y-88.265
X136.398Y-90.805
X136.398Y-93.345
X136.398Y-95.885
X119.888Y-123.825
X119.888Y-126.325
X131.358Y-99.695
X133.858Y-99.695
X147.868Y-74.295
X150.368Y-74.295
X150.368Y-128.945
X150.368Y-131.445
X128.778Y-103.505
X128.778Y-106.045
X128.778Y-108.585
X128.778Y-111.125
X128.778Y-113.665
X128.778Y-116.205
X128.778Y-118.745
X128.778Y-121.285
X136.398Y-103.505
X136.398Y-106.045
X136.398Y-108.585
X136.398Y-111.125
X136.398Y-113.665
X136.398Y-116.205
X136.398Y-118.745
X136.398Y-121.285
X156.718Y-102.235
X156.718Y-104.775
X156.718Y-107.315
X156.718Y-109.855
X156.718Y-112.395
X156.718Y-114.935
X156.718Y-117.475
X156.718Y-120.015
X164.338Y-102.235
X164.338Y-104.775
X164.338Y-107.315
X164.338Y-109.855
X164.338Y-112.395
X164.338Y-114.935
X164.338Y-117.475
X164.338Y-120.015
X140.208Y-70.485
X140.208Y-72.985
X152.908Y-126.365
X152.908Y-133.985
X155.448Y-126.365
X155.448Y-133.985
X157.988Y-126.365
X157.988Y-133.985
X160.528Y-126.365
X160.528Y-133.985
X163.068Y-126.365
X163.068Y-133.985
X165.608Y-126.365
X165.608Y-133.985
X168.148Y-126.365
X168.148Y-133.985
X170.688Y-126.365
X170.688Y-133.985
X159.298Y-98.425
X161.798Y-98.425
X142.748Y-79.375
X142.748Y-81.915
X142.748Y-84.455
X142.748Y-86.995
X142.748Y-89.535
X142.748Y-92.075
X142.748Y-94.615
X142.748Y-97.155
X142.748Y-99.695
X142.748Y-102.235
X142.748Y-104.775
X142.748Y-107.315
X142.748Y-109.855
X142.748Y-112.395
X150.368Y-79.375
X150.368Y-81.915
X150.368Y-84.455
X150.368Y-86.995
X150.368Y-89.535
X150.368Y-92.075
X150.368Y-94.615
X150.368Y-97.155
X150.368Y-99.695
X150.368Y-102.235
X150.368Y-104.775
X150.368Y-107.315
X150.368Y-109.855
X150.368Y-112.395
T3
X168.148Y-80.645
X168.148Y-85.725
X168.148Y-121.285
X170.688Y-121.285
T4
X112.268Y-76.835
X112.268Y-79.375
X112.268Y-81.915
X112.268Y-84.455
X112.268Y-86.995
X112.268Y-89.535
X112.268Y-92.075
X112.268Y-94.615
X112.268Y-97.155
X112.268Y-99.695
X112.268Y-102.235
X112.268Y-104.775
X112.268Y-107.315
X112.268Y-109.855
X112.268Y-112.395
X112.268Y-114.935
X112.268Y-117.475
X112.268Y-120.015
X112.268Y-122.555
X112.268Y-125.095
X112.268Y-127.635
X112.268Y-130.175
X114.808Y-76.835
X114.808Y-79.375
X114.808Y-81.915
X114.808Y-84.455
X114.808Y-86.995
X114.808Y-89.535
X114.808Y-92.075
X114.808Y-94.615
X114.808Y-97.155
X114.808Y-99.695
X114.808Y-102.235
X114.808Y-104.775
X114.808Y-107.315
X114.808Y-109.855
X114.808Y-112.395
X114.808Y-114.935
X114.808Y-117.475
X114.808Y-120.015
X114.808Y-122.555
X114.808Y-125.095
X114.808Y-127.635
X114.808Y-130.175
T5
X171.958Y-90.805
X171.958Y-93.345
X171.958Y-95.885
X171.958Y-98.425
X171.958Y-100.965
X171.958Y-103.505
X171.958Y-106.045
X171.958Y-108.585
X123.698Y-73.025
X123.698Y-75.565
X123.698Y-78.105
X123.698Y-80.645
X123.698Y-83.185
X123.698Y-85.725
X123.698Y-88.265
X123.698Y-90.805
X171.958Y-73.025
X171.958Y-75.565
X171.958Y-78.105
X171.958Y-80.645
X171.958Y-83.185
X171.958Y-85.725
X123.698Y-94.869
X123.698Y-97.409
X123.698Y-99.949
X123.698Y-102.489
X123.698Y-105.029
X123.698Y-107.569
X123.698Y-110.109
X123.698Y-112.649
X123.698Y-115.189
X123.698Y-117.729
T0
M30
