G04 #@! TF.GenerationSoftware,KiCad,Pcbnew,(5.1.2)-2*
G04 #@! TF.CreationDate,2019-07-26T21:41:05+12:00*
G04 #@! TF.ProjectId,APEDSK-AU,41504544-534b-42d4-9155-2e6b69636164,rev?*
G04 #@! TF.SameCoordinates,Original*
G04 #@! TF.FileFunction,Copper,L2,Inr*
G04 #@! TF.FilePolarity,Positive*
%FSLAX46Y46*%
G04 Gerber Fmt 4.6, Leading zero omitted, Abs format (unit mm)*
G04 Created by KiCad (PCBNEW (5.1.2)-2) date 2019-07-26 21:41:05*
%MOMM*%
%LPD*%
G04 APERTURE LIST*
%ADD10O,1.600000X1.600000*%
%ADD11R,1.600000X1.600000*%
%ADD12O,1.400000X1.400000*%
%ADD13C,1.400000*%
%ADD14O,1.700000X1.700000*%
%ADD15R,1.700000X1.700000*%
%ADD16O,2.032000X1.727200*%
%ADD17C,1.800000*%
%ADD18R,1.800000X1.800000*%
%ADD19C,1.600000*%
%ADD20C,1.000000*%
%ADD21C,0.250000*%
G04 APERTURE END LIST*
D10*
X122428000Y-126365000D03*
X145288000Y-133985000D03*
X124968000Y-126365000D03*
X142748000Y-133985000D03*
X127508000Y-126365000D03*
X140208000Y-133985000D03*
X130048000Y-126365000D03*
X137668000Y-133985000D03*
X132588000Y-126365000D03*
X135128000Y-133985000D03*
X135128000Y-126365000D03*
X132588000Y-133985000D03*
X137668000Y-126365000D03*
X130048000Y-133985000D03*
X140208000Y-126365000D03*
X127508000Y-133985000D03*
X142748000Y-126365000D03*
X124968000Y-133985000D03*
X145288000Y-126365000D03*
D11*
X122428000Y-133985000D03*
D12*
X168148000Y-76835000D03*
D13*
X168148000Y-81915000D03*
D14*
X114808000Y-76835000D03*
X112268000Y-76835000D03*
X114808000Y-79375000D03*
X112268000Y-79375000D03*
X114808000Y-81915000D03*
X112268000Y-81915000D03*
X114808000Y-84455000D03*
X112268000Y-84455000D03*
X114808000Y-86995000D03*
X112268000Y-86995000D03*
X114808000Y-89535000D03*
X112268000Y-89535000D03*
X114808000Y-92075000D03*
X112268000Y-92075000D03*
X114808000Y-94615000D03*
X112268000Y-94615000D03*
X114808000Y-97155000D03*
X112268000Y-97155000D03*
X114808000Y-99695000D03*
X112268000Y-99695000D03*
X114808000Y-102235000D03*
X112268000Y-102235000D03*
X114808000Y-104775000D03*
X112268000Y-104775000D03*
X114808000Y-107315000D03*
X112268000Y-107315000D03*
X114808000Y-109855000D03*
X112268000Y-109855000D03*
X114808000Y-112395000D03*
X112268000Y-112395000D03*
X114808000Y-114935000D03*
X112268000Y-114935000D03*
X114808000Y-117475000D03*
X112268000Y-117475000D03*
X114808000Y-120015000D03*
X112268000Y-120015000D03*
X114808000Y-122555000D03*
X112268000Y-122555000D03*
X114808000Y-125095000D03*
X112268000Y-125095000D03*
X114808000Y-127635000D03*
X112268000Y-127635000D03*
X114808000Y-130175000D03*
D15*
X112268000Y-130175000D03*
D10*
X136398000Y-73025000D03*
X128778000Y-95885000D03*
X136398000Y-75565000D03*
X128778000Y-93345000D03*
X136398000Y-78105000D03*
X128778000Y-90805000D03*
X136398000Y-80645000D03*
X128778000Y-88265000D03*
X136398000Y-83185000D03*
X128778000Y-85725000D03*
X136398000Y-85725000D03*
X128778000Y-83185000D03*
X136398000Y-88265000D03*
X128778000Y-80645000D03*
X136398000Y-90805000D03*
X128778000Y-78105000D03*
X136398000Y-93345000D03*
X128778000Y-75565000D03*
X136398000Y-95885000D03*
D11*
X128778000Y-73025000D03*
D10*
X136398000Y-103505000D03*
X128778000Y-121285000D03*
X136398000Y-106045000D03*
X128778000Y-118745000D03*
X136398000Y-108585000D03*
X128778000Y-116205000D03*
X136398000Y-111125000D03*
X128778000Y-113665000D03*
X136398000Y-113665000D03*
X128778000Y-111125000D03*
X136398000Y-116205000D03*
X128778000Y-108585000D03*
X136398000Y-118745000D03*
X128778000Y-106045000D03*
X136398000Y-121285000D03*
D11*
X128778000Y-103505000D03*
D10*
X152908000Y-126365000D03*
X170688000Y-133985000D03*
X155448000Y-126365000D03*
X168148000Y-133985000D03*
X157988000Y-126365000D03*
X165608000Y-133985000D03*
X160528000Y-126365000D03*
X163068000Y-133985000D03*
X163068000Y-126365000D03*
X160528000Y-133985000D03*
X165608000Y-126365000D03*
X157988000Y-133985000D03*
X168148000Y-126365000D03*
X155448000Y-133985000D03*
X170688000Y-126365000D03*
D11*
X152908000Y-133985000D03*
D16*
X123698000Y-90805000D03*
X123698000Y-88265000D03*
X123698000Y-85725000D03*
X123698000Y-83185000D03*
X123698000Y-80645000D03*
X123698000Y-78105000D03*
X123698000Y-75565000D03*
X123698000Y-73025000D03*
D10*
X150368000Y-79375000D03*
X142748000Y-112395000D03*
X150368000Y-81915000D03*
X142748000Y-109855000D03*
X150368000Y-84455000D03*
X142748000Y-107315000D03*
X150368000Y-86995000D03*
X142748000Y-104775000D03*
X150368000Y-89535000D03*
X142748000Y-102235000D03*
X150368000Y-92075000D03*
X142748000Y-99695000D03*
X150368000Y-94615000D03*
X142748000Y-97155000D03*
X150368000Y-97155000D03*
X142748000Y-94615000D03*
X150368000Y-99695000D03*
X142748000Y-92075000D03*
X150368000Y-102235000D03*
X142748000Y-89535000D03*
X150368000Y-104775000D03*
X142748000Y-86995000D03*
X150368000Y-107315000D03*
X142748000Y-84455000D03*
X150368000Y-109855000D03*
X142748000Y-81915000D03*
X150368000Y-112395000D03*
D11*
X142748000Y-79375000D03*
D10*
X164338000Y-102235000D03*
X156718000Y-120015000D03*
X164338000Y-104775000D03*
X156718000Y-117475000D03*
X164338000Y-107315000D03*
X156718000Y-114935000D03*
X164338000Y-109855000D03*
X156718000Y-112395000D03*
X164338000Y-112395000D03*
X156718000Y-109855000D03*
X164338000Y-114935000D03*
X156718000Y-107315000D03*
X164338000Y-117475000D03*
X156718000Y-104775000D03*
X164338000Y-120015000D03*
D11*
X156718000Y-102235000D03*
D10*
X164338000Y-71755000D03*
X156718000Y-94615000D03*
X164338000Y-74295000D03*
X156718000Y-92075000D03*
X164338000Y-76835000D03*
X156718000Y-89535000D03*
X164338000Y-79375000D03*
X156718000Y-86995000D03*
X164338000Y-81915000D03*
X156718000Y-84455000D03*
X164338000Y-84455000D03*
X156718000Y-81915000D03*
X164338000Y-86995000D03*
X156718000Y-79375000D03*
X164338000Y-89535000D03*
X156718000Y-76835000D03*
X164338000Y-92075000D03*
X156718000Y-74295000D03*
X164338000Y-94615000D03*
D11*
X156718000Y-71755000D03*
D12*
X171958000Y-116205000D03*
D13*
X166878000Y-116205000D03*
D12*
X168148000Y-107315000D03*
D13*
X168148000Y-112395000D03*
D12*
X168148000Y-99695000D03*
D13*
X168148000Y-104775000D03*
D12*
X168148000Y-97155000D03*
D13*
X168148000Y-92075000D03*
D12*
X168148000Y-84455000D03*
D13*
X168148000Y-89535000D03*
D17*
X170688000Y-121285000D03*
D18*
X168148000Y-121285000D03*
D19*
X150368000Y-128945000D03*
X150368000Y-131445000D03*
X161798000Y-98425000D03*
X159298000Y-98425000D03*
X168148000Y-70485000D03*
X168148000Y-72985000D03*
X147868000Y-74295000D03*
X150368000Y-74295000D03*
X140208000Y-70485000D03*
X140208000Y-72985000D03*
X119888000Y-123825000D03*
X119888000Y-126325000D03*
X131358000Y-99695000D03*
X133858000Y-99695000D03*
D16*
X171958000Y-108585000D03*
X171958000Y-106045000D03*
X171958000Y-103505000D03*
X171958000Y-100965000D03*
X171958000Y-98425000D03*
X171958000Y-95885000D03*
X171958000Y-93345000D03*
X171958000Y-90805000D03*
X171958000Y-85725000D03*
X171958000Y-83185000D03*
X171958000Y-80645000D03*
X171958000Y-78105000D03*
X171958000Y-75565000D03*
X171958000Y-73025000D03*
X123698000Y-117729000D03*
X123698000Y-115189000D03*
X123698000Y-112649000D03*
X123698000Y-110109000D03*
X123698000Y-107569000D03*
X123698000Y-105029000D03*
X123698000Y-102489000D03*
X123698000Y-99949000D03*
X123698000Y-97409000D03*
X123698000Y-94869000D03*
D20*
X131318000Y-123825000D02*
X136398000Y-118745000D01*
X122428000Y-126365000D02*
X124968000Y-123825000D01*
X124968000Y-123825000D02*
X131318000Y-123825000D01*
X139888002Y-118745000D02*
X136398000Y-118745000D01*
X166878000Y-104775000D02*
X164338000Y-102235000D01*
X168148000Y-104775000D02*
X166878000Y-104775000D01*
X168148000Y-92075000D02*
X168148000Y-89535000D01*
X136398000Y-102235000D02*
X133858000Y-99695000D01*
X136398000Y-103505000D02*
X136398000Y-102235000D01*
X139888002Y-106995002D02*
X136398000Y-103505000D01*
X163538001Y-70955001D02*
X164338000Y-71755000D01*
X162837999Y-70254999D02*
X163538001Y-70955001D01*
X153138001Y-70254999D02*
X162837999Y-70254999D01*
X166918000Y-71755000D02*
X168148000Y-72985000D01*
X164338000Y-71755000D02*
X166918000Y-71755000D01*
X145128001Y-123984999D02*
X139888002Y-118745000D01*
X151957998Y-115885002D02*
X139888002Y-115885002D01*
X139888002Y-115885002D02*
X139888002Y-106995002D01*
X139888002Y-118745000D02*
X139888002Y-115885002D01*
X159298000Y-98425000D02*
X155448000Y-98425000D01*
X155448000Y-98425000D02*
X154178000Y-99695000D01*
X154178000Y-99695000D02*
X154178000Y-113665000D01*
X154178000Y-113665000D02*
X151957998Y-115885002D01*
X166747999Y-88134999D02*
X168148000Y-89535000D01*
X166747999Y-74385001D02*
X166747999Y-88134999D01*
X168148000Y-72985000D02*
X166747999Y-74385001D01*
X150368000Y-79375000D02*
X149098000Y-79375000D01*
X149098000Y-79375000D02*
X147828000Y-80645000D01*
X147828000Y-80645000D02*
X147828000Y-83185000D01*
X147828000Y-83185000D02*
X149098000Y-84455000D01*
X149098000Y-84455000D02*
X150368000Y-84455000D01*
X164338000Y-71755000D02*
X163068000Y-71755000D01*
X163068000Y-71755000D02*
X160528000Y-74295000D01*
X160528000Y-97195000D02*
X159298000Y-98425000D01*
X160528000Y-74295000D02*
X160528000Y-97195000D01*
X159298000Y-101005000D02*
X159298000Y-98425000D01*
X164338000Y-102235000D02*
X160528000Y-102235000D01*
X160528000Y-102235000D02*
X159298000Y-101005000D01*
X171958000Y-98425000D02*
X171805600Y-98425000D01*
X152908000Y-128905000D02*
X150368000Y-131445000D01*
X152908000Y-126365000D02*
X152908000Y-128905000D01*
X150527999Y-123984999D02*
X152908000Y-126365000D01*
X145128001Y-123984999D02*
X150527999Y-123984999D01*
X119888000Y-123825000D02*
X122428000Y-126365000D01*
X141478000Y-73025000D02*
X136398000Y-73025000D01*
X142748000Y-71755000D02*
X141478000Y-73025000D01*
X151638000Y-71755000D02*
X142748000Y-71755000D01*
X150368000Y-79375000D02*
X150368000Y-73025000D01*
X150368000Y-73025000D02*
X151638000Y-71755000D01*
X151638000Y-71755000D02*
X153138001Y-70254999D01*
X168148000Y-112395000D02*
X166747999Y-110994999D01*
X166747999Y-106175001D02*
X168148000Y-104775000D01*
X166747999Y-110994999D02*
X166747999Y-106175001D01*
X166878000Y-113665000D02*
X168148000Y-112395000D01*
X166878000Y-116205000D02*
X166878000Y-113665000D01*
X165608000Y-117475000D02*
X166878000Y-116205000D01*
X164338000Y-117475000D02*
X165608000Y-117475000D01*
X171958000Y-98281257D02*
X171958000Y-98425000D01*
X168148000Y-92075000D02*
X169998012Y-93925012D01*
X169998012Y-96321269D02*
X171958000Y-98281257D01*
X169998012Y-93925012D02*
X169998012Y-96321269D01*
D21*
X126573390Y-93680390D02*
X128778000Y-95885000D01*
X122092610Y-93680390D02*
X126573390Y-93680390D01*
X115983001Y-105339001D02*
X115983001Y-99789999D01*
X113443001Y-106940997D02*
X114243999Y-106139999D01*
X113443001Y-107879001D02*
X113443001Y-106940997D01*
X114243999Y-106139999D02*
X115182003Y-106139999D01*
X112268000Y-97155000D02*
X112268000Y-105414233D01*
X112268000Y-105414233D02*
X111078033Y-106604200D01*
X115983001Y-99789999D02*
X122092610Y-93680390D01*
X111078033Y-106604200D02*
X111078033Y-107864035D01*
X111078033Y-107864035D02*
X111703999Y-108490001D01*
X115182003Y-106139999D02*
X115983001Y-105339001D01*
X111703999Y-108490001D02*
X112832001Y-108490001D01*
X112832001Y-108490001D02*
X113443001Y-107879001D01*
X164338000Y-125095000D02*
X168148000Y-121285000D01*
X160528000Y-133985000D02*
X164338000Y-130175000D01*
X164338000Y-130175000D02*
X164338000Y-125095000D01*
X163068000Y-93345000D02*
X163538001Y-92874999D01*
X163538001Y-92874999D02*
X164338000Y-92075000D01*
X169173001Y-108340001D02*
X168148000Y-107315000D01*
X169173001Y-112887001D02*
X169173001Y-108340001D01*
X168148000Y-121285000D02*
X168148000Y-113912002D01*
X168148000Y-113912002D02*
X169173001Y-112887001D01*
X163068000Y-97155000D02*
X163068000Y-98425000D01*
X163068000Y-97155000D02*
X163068000Y-93345000D01*
X168148000Y-106292002D02*
X168148000Y-107315000D01*
X163068000Y-97155000D02*
X163068000Y-99299998D01*
X167518001Y-103749999D02*
X168640001Y-103749999D01*
X168640001Y-103749999D02*
X169173001Y-104282999D01*
X169173001Y-104282999D02*
X169173001Y-105267001D01*
X163068000Y-99299998D02*
X167518001Y-103749999D01*
X169173001Y-105267001D02*
X168148000Y-106292002D01*
X111092999Y-83090001D02*
X112268000Y-81915000D01*
X117428033Y-127081444D02*
X117428033Y-115575009D01*
X113443001Y-86430999D02*
X112737002Y-85725000D01*
X117428033Y-115575009D02*
X115423025Y-113570001D01*
X112737002Y-85725000D02*
X111798998Y-85725000D01*
X120971600Y-130625011D02*
X117428033Y-127081444D01*
X132588000Y-126365000D02*
X128327989Y-130625011D01*
X128327989Y-130625011D02*
X120971600Y-130625011D01*
X111703999Y-113570001D02*
X109277989Y-111143991D01*
X109277989Y-111143991D02*
X109277989Y-90786009D01*
X109277989Y-90786009D02*
X111703999Y-88359999D01*
X111703999Y-88359999D02*
X112642003Y-88359999D01*
X112642003Y-88359999D02*
X113443001Y-87559001D01*
X115423025Y-113570001D02*
X111703999Y-113570001D01*
X111798998Y-85725000D02*
X111092999Y-85019001D01*
X113443001Y-87559001D02*
X113443001Y-86430999D01*
X111092999Y-85019001D02*
X111092999Y-83090001D01*
X115983001Y-86430999D02*
X115372001Y-85819999D01*
X115983001Y-90099001D02*
X115983001Y-86430999D01*
X111798998Y-90805000D02*
X115277002Y-90805000D01*
X109728000Y-92875998D02*
X111798998Y-90805000D01*
X109728000Y-109054002D02*
X109728000Y-92875998D01*
X115277002Y-90805000D02*
X115983001Y-90099001D01*
X111893997Y-111219999D02*
X109728000Y-109054002D01*
X115372001Y-85819999D02*
X113632999Y-85819999D01*
X121158000Y-130175000D02*
X117878044Y-126895044D01*
X113632999Y-85819999D02*
X112268000Y-84455000D01*
X117878044Y-126895044D02*
X117878044Y-112925044D01*
X117878044Y-112925044D02*
X116172999Y-111219999D01*
X123698000Y-130175000D02*
X121158000Y-130175000D01*
X127508000Y-126365000D02*
X123698000Y-130175000D01*
X116172999Y-111219999D02*
X111893997Y-111219999D01*
X108827978Y-90435022D02*
X112268000Y-86995000D01*
X111798998Y-116205000D02*
X108827978Y-113233980D01*
X108827978Y-113233980D02*
X108827978Y-90435022D01*
X115508357Y-116274589D02*
X111868587Y-116274589D01*
X116978022Y-117744254D02*
X115508357Y-116274589D01*
X116978022Y-127267844D02*
X116978022Y-117744254D01*
X120785200Y-131075022D02*
X116978022Y-127267844D01*
X132957978Y-131075022D02*
X120785200Y-131075022D01*
X137668000Y-126365000D02*
X132957978Y-131075022D01*
X155918001Y-90334999D02*
X156718000Y-89535000D01*
X155142988Y-91110012D02*
X155918001Y-90334999D01*
X155142988Y-94045013D02*
X155142988Y-91110012D01*
X150763002Y-98425000D02*
X155142988Y-94045013D01*
X141478000Y-98425000D02*
X150763002Y-98425000D01*
X116078000Y-97155000D02*
X121158000Y-92075000D01*
X121158000Y-92075000D02*
X136793002Y-92075000D01*
X136793002Y-92075000D02*
X137668000Y-92949998D01*
X137668000Y-92949998D02*
X137668000Y-94615000D01*
X114808000Y-97155000D02*
X116078000Y-97155000D01*
X137668000Y-94615000D02*
X141478000Y-98425000D01*
X137668000Y-97155000D02*
X137668000Y-95489998D01*
X137668000Y-95489998D02*
X136793002Y-94615000D01*
X155592999Y-93200001D02*
X155592999Y-96135003D01*
X128382998Y-94615000D02*
X126662989Y-92894991D01*
X141622999Y-101109999D02*
X137668000Y-97155000D01*
X126662989Y-92894991D02*
X121608009Y-92894991D01*
X155592999Y-96135003D02*
X150618003Y-101109999D01*
X115657999Y-98845001D02*
X114808000Y-99695000D01*
X121608009Y-92894991D02*
X115657999Y-98845001D01*
X150618003Y-101109999D02*
X141622999Y-101109999D01*
X136793002Y-94615000D02*
X128382998Y-94615000D01*
X156718000Y-92075000D02*
X155592999Y-93200001D01*
X155918001Y-87794999D02*
X156718000Y-86995000D01*
X136793002Y-89535000D02*
X140603002Y-93345000D01*
X113632999Y-105950001D02*
X113632999Y-96590999D01*
X155918001Y-88190001D02*
X155918001Y-87794999D01*
X113632999Y-96590999D02*
X114338998Y-95885000D01*
X112268000Y-107315000D02*
X113632999Y-105950001D01*
X114338998Y-95885000D02*
X116078000Y-95885000D01*
X116078000Y-95885000D02*
X122428000Y-89535000D01*
X150763002Y-93345000D02*
X155918001Y-88190001D01*
X122428000Y-89535000D02*
X136793002Y-89535000D01*
X140603002Y-93345000D02*
X150763002Y-93345000D01*
X155918001Y-85254999D02*
X156718000Y-84455000D01*
X155918001Y-85650001D02*
X155918001Y-85254999D01*
X150763002Y-90805000D02*
X155918001Y-85650001D01*
X136874392Y-87076390D02*
X140603002Y-90805000D01*
X112268000Y-117475000D02*
X108377967Y-113584967D01*
X140603002Y-90805000D02*
X150763002Y-90805000D01*
X108377967Y-113584967D02*
X108377967Y-84066031D01*
X108377967Y-84066031D02*
X111798998Y-80645000D01*
X111798998Y-80645000D02*
X116784652Y-80645000D01*
X116784652Y-80645000D02*
X123216042Y-87076390D01*
X123216042Y-87076390D02*
X136874392Y-87076390D01*
X113117999Y-120864999D02*
X112268000Y-120015000D01*
X113443001Y-121190001D02*
X113117999Y-120864999D01*
X115182003Y-121190001D02*
X113443001Y-121190001D01*
X116078000Y-122085998D02*
X115182003Y-121190001D01*
X116078000Y-129705998D02*
X116078000Y-122085998D01*
X120357002Y-133985000D02*
X116078000Y-129705998D01*
X122428000Y-133985000D02*
X120357002Y-133985000D01*
X150763002Y-88265000D02*
X155918001Y-83110001D01*
X140603002Y-88265000D02*
X150763002Y-88265000D01*
X136874392Y-84536390D02*
X140603002Y-88265000D01*
X123216042Y-84536390D02*
X136874392Y-84536390D01*
X116784652Y-78105000D02*
X123216042Y-84536390D01*
X114808000Y-122555000D02*
X113538000Y-123825000D01*
X155918001Y-83110001D02*
X155918001Y-82714999D01*
X113538000Y-123825000D02*
X111798998Y-123825000D01*
X155918001Y-82714999D02*
X156718000Y-81915000D01*
X107927956Y-119953958D02*
X107927956Y-81976042D01*
X107927956Y-81976042D02*
X111798998Y-78105000D01*
X111798998Y-123825000D02*
X107927956Y-119953958D01*
X111798998Y-78105000D02*
X116784652Y-78105000D01*
X140603002Y-85725000D02*
X150763002Y-85725000D01*
X115277002Y-75565000D02*
X121627002Y-81915000D01*
X136793002Y-81915000D02*
X140603002Y-85725000D01*
X113538000Y-126365000D02*
X111798998Y-126365000D01*
X114808000Y-125095000D02*
X113538000Y-126365000D01*
X111798998Y-126365000D02*
X107477945Y-122043947D01*
X107477945Y-122043947D02*
X107477945Y-79886053D01*
X107477945Y-79886053D02*
X111798998Y-75565000D01*
X121627002Y-81915000D02*
X136793002Y-81915000D01*
X111798998Y-75565000D02*
X115277002Y-75565000D01*
X155918001Y-80174999D02*
X156718000Y-79375000D01*
X155918001Y-80570001D02*
X155918001Y-80174999D01*
X150763002Y-85725000D02*
X155918001Y-80570001D01*
X133858000Y-73025000D02*
X136398000Y-75565000D01*
X128778000Y-73025000D02*
X133858000Y-73025000D01*
X128778000Y-73025000D02*
X130048000Y-73025000D01*
X166878000Y-97155000D02*
X164338000Y-94615000D01*
X168148000Y-97155000D02*
X166878000Y-97155000D01*
X166878000Y-130175000D02*
X163068000Y-133985000D01*
X166878000Y-125095000D02*
X166878000Y-130175000D01*
X169462999Y-122510001D02*
X166878000Y-125095000D01*
X169462999Y-113233413D02*
X169462999Y-122510001D01*
X169623011Y-113073401D02*
X169462999Y-113233413D01*
X169623010Y-111716598D02*
X169623011Y-113073401D01*
X169623011Y-103710011D02*
X169623011Y-112395000D01*
X164338000Y-94615000D02*
X164338000Y-98425000D01*
X164338000Y-98425000D02*
X169623011Y-103710011D01*
X144018000Y-108585000D02*
X150368000Y-102235000D01*
X142352998Y-108585000D02*
X144018000Y-108585000D01*
X141478000Y-107710002D02*
X142352998Y-108585000D01*
X141478000Y-103505000D02*
X141478000Y-107710002D01*
X135382000Y-97409000D02*
X141478000Y-103505000D01*
X123698000Y-97409000D02*
X135382000Y-97409000D01*
X141027989Y-109799991D02*
X142352998Y-111125000D01*
X141027989Y-103691399D02*
X141027989Y-109799991D01*
X144018000Y-111125000D02*
X150368000Y-104775000D01*
X135761590Y-98425000D02*
X141027989Y-103691399D01*
X123698000Y-94869000D02*
X123545600Y-94869000D01*
X142352998Y-111125000D02*
X144018000Y-111125000D01*
X123545600Y-94869000D02*
X122356990Y-96057610D01*
X122356990Y-96057610D02*
X122356990Y-97901338D01*
X122356990Y-97901338D02*
X123053262Y-98597610D01*
X123053262Y-98597610D02*
X124342738Y-98597610D01*
X124515348Y-98425000D02*
X135761590Y-98425000D01*
X124342738Y-98597610D02*
X124515348Y-98425000D01*
X172363012Y-127229988D02*
X165608000Y-133985000D01*
X172363012Y-118127014D02*
X172363012Y-127229988D01*
X170073021Y-115837023D02*
X172363012Y-118127014D01*
X164338000Y-89535000D02*
X165608000Y-90805000D01*
X165608000Y-90805000D02*
X165608000Y-93097998D01*
X165608000Y-93097998D02*
X169418000Y-96907998D01*
X169418000Y-102868590D02*
X170073022Y-103523611D01*
X169418000Y-96907998D02*
X169418000Y-102868590D01*
X170073022Y-103523611D02*
X170073021Y-115837023D01*
X163538001Y-108114999D02*
X164338000Y-107315000D01*
X161942999Y-109710001D02*
X163538001Y-108114999D01*
X161942999Y-128760001D02*
X161942999Y-126220001D01*
X161942999Y-126615003D02*
X161942999Y-126220001D01*
X161942999Y-126220001D02*
X161942999Y-109710001D01*
X158132999Y-132570001D02*
X159258000Y-131445000D01*
X159258000Y-131445000D02*
X161942999Y-128760001D01*
X157988000Y-132715000D02*
X159258000Y-131445000D01*
X151638000Y-132715000D02*
X157988000Y-132715000D01*
X138938000Y-126760002D02*
X139812998Y-127635000D01*
X138938000Y-123825000D02*
X138938000Y-126760002D01*
X136398000Y-121285000D02*
X138938000Y-123825000D01*
X138938000Y-126760002D02*
X144892998Y-132715000D01*
X144892998Y-132715000D02*
X152908000Y-132715000D01*
M02*
