G04 #@! TF.GenerationSoftware,KiCad,Pcbnew,(5.1.2)-2*
G04 #@! TF.CreationDate,2019-08-10T21:31:32+12:00*
G04 #@! TF.ProjectId,APEDSK-AU,41504544-534b-42d4-9155-2e6b69636164,rev?*
G04 #@! TF.SameCoordinates,Original*
G04 #@! TF.FileFunction,Copper,L3,Inr*
G04 #@! TF.FilePolarity,Positive*
%FSLAX46Y46*%
G04 Gerber Fmt 4.6, Leading zero omitted, Abs format (unit mm)*
G04 Created by KiCad (PCBNEW (5.1.2)-2) date 2019-08-10 21:31:32*
%MOMM*%
%LPD*%
G04 APERTURE LIST*
%ADD10O,1.600000X1.600000*%
%ADD11R,1.600000X1.600000*%
%ADD12O,1.700000X1.700000*%
%ADD13R,1.700000X1.700000*%
%ADD14C,1.600000*%
%ADD15O,1.400000X1.400000*%
%ADD16C,1.400000*%
%ADD17O,2.032000X1.727200*%
%ADD18C,1.800000*%
%ADD19R,1.800000X1.800000*%
%ADD20C,0.250000*%
G04 APERTURE END LIST*
D10*
X152908000Y-126365000D03*
X170688000Y-133985000D03*
X155448000Y-126365000D03*
X168148000Y-133985000D03*
X157988000Y-126365000D03*
X165608000Y-133985000D03*
X160528000Y-126365000D03*
X163068000Y-133985000D03*
X163068000Y-126365000D03*
X160528000Y-133985000D03*
X165608000Y-126365000D03*
X157988000Y-133985000D03*
X168148000Y-126365000D03*
X155448000Y-133985000D03*
X170688000Y-126365000D03*
D11*
X152908000Y-133985000D03*
D12*
X114808000Y-76835000D03*
X112268000Y-76835000D03*
X114808000Y-79375000D03*
X112268000Y-79375000D03*
X114808000Y-81915000D03*
X112268000Y-81915000D03*
X114808000Y-84455000D03*
X112268000Y-84455000D03*
X114808000Y-86995000D03*
X112268000Y-86995000D03*
X114808000Y-89535000D03*
X112268000Y-89535000D03*
X114808000Y-92075000D03*
X112268000Y-92075000D03*
X114808000Y-94615000D03*
X112268000Y-94615000D03*
X114808000Y-97155000D03*
X112268000Y-97155000D03*
X114808000Y-99695000D03*
X112268000Y-99695000D03*
X114808000Y-102235000D03*
X112268000Y-102235000D03*
X114808000Y-104775000D03*
X112268000Y-104775000D03*
X114808000Y-107315000D03*
X112268000Y-107315000D03*
X114808000Y-109855000D03*
X112268000Y-109855000D03*
X114808000Y-112395000D03*
X112268000Y-112395000D03*
X114808000Y-114935000D03*
X112268000Y-114935000D03*
X114808000Y-117475000D03*
X112268000Y-117475000D03*
X114808000Y-120015000D03*
X112268000Y-120015000D03*
X114808000Y-122555000D03*
X112268000Y-122555000D03*
X114808000Y-125095000D03*
X112268000Y-125095000D03*
X114808000Y-127635000D03*
X112268000Y-127635000D03*
X114808000Y-130175000D03*
D13*
X112268000Y-130175000D03*
D10*
X122428000Y-126365000D03*
X145288000Y-133985000D03*
X124968000Y-126365000D03*
X142748000Y-133985000D03*
X127508000Y-126365000D03*
X140208000Y-133985000D03*
X130048000Y-126365000D03*
X137668000Y-133985000D03*
X132588000Y-126365000D03*
X135128000Y-133985000D03*
X135128000Y-126365000D03*
X132588000Y-133985000D03*
X137668000Y-126365000D03*
X130048000Y-133985000D03*
X140208000Y-126365000D03*
X127508000Y-133985000D03*
X142748000Y-126365000D03*
X124968000Y-133985000D03*
X145288000Y-126365000D03*
D11*
X122428000Y-133985000D03*
D14*
X119888000Y-123825000D03*
X119888000Y-126325000D03*
D15*
X168148000Y-76835000D03*
D16*
X168148000Y-81915000D03*
D10*
X136398000Y-73025000D03*
X128778000Y-95885000D03*
X136398000Y-75565000D03*
X128778000Y-93345000D03*
X136398000Y-78105000D03*
X128778000Y-90805000D03*
X136398000Y-80645000D03*
X128778000Y-88265000D03*
X136398000Y-83185000D03*
X128778000Y-85725000D03*
X136398000Y-85725000D03*
X128778000Y-83185000D03*
X136398000Y-88265000D03*
X128778000Y-80645000D03*
X136398000Y-90805000D03*
X128778000Y-78105000D03*
X136398000Y-93345000D03*
X128778000Y-75565000D03*
X136398000Y-95885000D03*
D11*
X128778000Y-73025000D03*
D10*
X136398000Y-103505000D03*
X128778000Y-121285000D03*
X136398000Y-106045000D03*
X128778000Y-118745000D03*
X136398000Y-108585000D03*
X128778000Y-116205000D03*
X136398000Y-111125000D03*
X128778000Y-113665000D03*
X136398000Y-113665000D03*
X128778000Y-111125000D03*
X136398000Y-116205000D03*
X128778000Y-108585000D03*
X136398000Y-118745000D03*
X128778000Y-106045000D03*
X136398000Y-121285000D03*
D11*
X128778000Y-103505000D03*
D17*
X123698000Y-90805000D03*
X123698000Y-88265000D03*
X123698000Y-85725000D03*
X123698000Y-83185000D03*
X123698000Y-80645000D03*
X123698000Y-78105000D03*
X123698000Y-75565000D03*
X123698000Y-73025000D03*
D10*
X150368000Y-79375000D03*
X142748000Y-112395000D03*
X150368000Y-81915000D03*
X142748000Y-109855000D03*
X150368000Y-84455000D03*
X142748000Y-107315000D03*
X150368000Y-86995000D03*
X142748000Y-104775000D03*
X150368000Y-89535000D03*
X142748000Y-102235000D03*
X150368000Y-92075000D03*
X142748000Y-99695000D03*
X150368000Y-94615000D03*
X142748000Y-97155000D03*
X150368000Y-97155000D03*
X142748000Y-94615000D03*
X150368000Y-99695000D03*
X142748000Y-92075000D03*
X150368000Y-102235000D03*
X142748000Y-89535000D03*
X150368000Y-104775000D03*
X142748000Y-86995000D03*
X150368000Y-107315000D03*
X142748000Y-84455000D03*
X150368000Y-109855000D03*
X142748000Y-81915000D03*
X150368000Y-112395000D03*
D11*
X142748000Y-79375000D03*
D10*
X164338000Y-102235000D03*
X156718000Y-120015000D03*
X164338000Y-104775000D03*
X156718000Y-117475000D03*
X164338000Y-107315000D03*
X156718000Y-114935000D03*
X164338000Y-109855000D03*
X156718000Y-112395000D03*
X164338000Y-112395000D03*
X156718000Y-109855000D03*
X164338000Y-114935000D03*
X156718000Y-107315000D03*
X164338000Y-117475000D03*
X156718000Y-104775000D03*
X164338000Y-120015000D03*
D11*
X156718000Y-102235000D03*
D10*
X164338000Y-71755000D03*
X156718000Y-94615000D03*
X164338000Y-74295000D03*
X156718000Y-92075000D03*
X164338000Y-76835000D03*
X156718000Y-89535000D03*
X164338000Y-79375000D03*
X156718000Y-86995000D03*
X164338000Y-81915000D03*
X156718000Y-84455000D03*
X164338000Y-84455000D03*
X156718000Y-81915000D03*
X164338000Y-86995000D03*
X156718000Y-79375000D03*
X164338000Y-89535000D03*
X156718000Y-76835000D03*
X164338000Y-92075000D03*
X156718000Y-74295000D03*
X164338000Y-94615000D03*
D11*
X156718000Y-71755000D03*
D15*
X171958000Y-116205000D03*
D16*
X166878000Y-116205000D03*
D15*
X168148000Y-107315000D03*
D16*
X168148000Y-112395000D03*
D15*
X168148000Y-99695000D03*
D16*
X168148000Y-104775000D03*
D15*
X168148000Y-97155000D03*
D16*
X168148000Y-92075000D03*
D15*
X168148000Y-84455000D03*
D16*
X168148000Y-89535000D03*
D18*
X170688000Y-121285000D03*
D19*
X168148000Y-121285000D03*
D14*
X150368000Y-128945000D03*
X150368000Y-131445000D03*
X161798000Y-98425000D03*
X159298000Y-98425000D03*
X168148000Y-70485000D03*
X168148000Y-72985000D03*
X147868000Y-74295000D03*
X150368000Y-74295000D03*
X140208000Y-70485000D03*
X140208000Y-72985000D03*
X131358000Y-99695000D03*
X133858000Y-99695000D03*
D17*
X171958000Y-108585000D03*
X171958000Y-106045000D03*
X171958000Y-103505000D03*
X171958000Y-100965000D03*
X171958000Y-98425000D03*
X171958000Y-95885000D03*
X171958000Y-93345000D03*
X171958000Y-90805000D03*
X171958000Y-85725000D03*
X171958000Y-83185000D03*
X171958000Y-80645000D03*
X171958000Y-78105000D03*
X171958000Y-75565000D03*
X171958000Y-73025000D03*
X123698000Y-117729000D03*
X123698000Y-115189000D03*
X123698000Y-112649000D03*
X123698000Y-110109000D03*
X123698000Y-107569000D03*
X123698000Y-105029000D03*
X123698000Y-102489000D03*
X123698000Y-99949000D03*
X123698000Y-97409000D03*
X123698000Y-94869000D03*
D20*
X139667999Y-70669999D02*
X140748001Y-70669999D01*
X125062999Y-128810001D02*
X126708001Y-127164999D01*
X114808000Y-89535000D02*
X113538000Y-90805000D01*
X113538000Y-90805000D02*
X113538000Y-102704002D01*
X113538000Y-102704002D02*
X112642003Y-103599999D01*
X112642003Y-103599999D02*
X111703999Y-103599999D01*
X110998000Y-128104002D02*
X111703999Y-128810001D01*
X126708001Y-127164999D02*
X127508000Y-126365000D01*
X111703999Y-128810001D02*
X125062999Y-128810001D01*
X110998000Y-111761411D02*
X110998000Y-112395000D01*
X110998000Y-112395000D02*
X110998000Y-128104002D01*
X110642988Y-104661010D02*
X110642988Y-110769988D01*
X111703999Y-103599999D02*
X110642988Y-104661010D01*
X110998000Y-111125000D02*
X110998000Y-112395000D01*
X110642988Y-110769988D02*
X110998000Y-111125000D01*
X117348000Y-76835000D02*
X117348000Y-97155000D01*
X122428000Y-71755000D02*
X117348000Y-76835000D01*
X157988000Y-90805000D02*
X157988000Y-73899998D01*
X156718000Y-92075000D02*
X157988000Y-90805000D01*
X157988000Y-73899998D02*
X157113002Y-73025000D01*
X155448000Y-73025000D02*
X154178000Y-71755000D01*
X117348000Y-97155000D02*
X114808000Y-99695000D01*
X157113002Y-73025000D02*
X155448000Y-73025000D01*
X154178000Y-71755000D02*
X122428000Y-71755000D01*
X119068011Y-83441641D02*
X119068011Y-105594989D01*
X125842998Y-79375000D02*
X123134652Y-79375000D01*
X128382998Y-76835000D02*
X125842998Y-79375000D01*
X129173002Y-76835000D02*
X128382998Y-76835000D01*
X131768011Y-79430009D02*
X129173002Y-76835000D01*
X123134652Y-79375000D02*
X119068011Y-83441641D01*
X128778000Y-90805000D02*
X127652999Y-91930001D01*
X127652999Y-91930001D02*
X127652999Y-96425001D01*
X127652999Y-96425001D02*
X128237999Y-97010001D01*
X128237999Y-97010001D02*
X129318001Y-97010001D01*
X119068011Y-105594989D02*
X114808000Y-109855000D01*
X129318001Y-97010001D02*
X131768011Y-94559991D01*
X131768011Y-94559991D02*
X131768011Y-79430009D01*
X111092999Y-108679999D02*
X112268000Y-109855000D01*
X111092999Y-106750999D02*
X111092999Y-108679999D01*
X117798011Y-103523991D02*
X115182003Y-106139999D01*
X117798011Y-79631641D02*
X117798011Y-103523991D01*
X115182003Y-106139999D02*
X111703999Y-106139999D01*
X123134652Y-74295000D02*
X117798011Y-79631641D01*
X111703999Y-106139999D02*
X111092999Y-106750999D01*
X153105501Y-74295000D02*
X151980500Y-73169999D01*
X132233002Y-74295000D02*
X123134652Y-74295000D01*
X151980500Y-73169999D02*
X141688003Y-73169999D01*
X141688003Y-73169999D02*
X138023002Y-76835000D01*
X156718000Y-74295000D02*
X153105501Y-74295000D01*
X138023002Y-76835000D02*
X134773002Y-76835000D01*
X134773002Y-76835000D02*
X132233002Y-74295000D01*
X115657999Y-114085001D02*
X114808000Y-114935000D01*
X123134652Y-86995000D02*
X120418044Y-89711608D01*
X124261348Y-86995000D02*
X123134652Y-86995000D01*
X127652999Y-83603349D02*
X124261348Y-86995000D01*
X129173002Y-81915000D02*
X128382998Y-81915000D01*
X128382998Y-81915000D02*
X127652999Y-82644999D01*
X131318000Y-90805000D02*
X131318000Y-84059998D01*
X128778000Y-93345000D02*
X131318000Y-90805000D01*
X131318000Y-84059998D02*
X129173002Y-81915000D01*
X120418044Y-109324956D02*
X115657999Y-114085001D01*
X127652999Y-82644999D02*
X127652999Y-83603349D01*
X120418044Y-89711608D02*
X120418044Y-109324956D01*
X113958001Y-118324999D02*
X114808000Y-117475000D01*
X113538000Y-118745000D02*
X113958001Y-118324999D01*
X168517978Y-117844978D02*
X168517978Y-117893610D01*
X169716968Y-116645988D02*
X168517978Y-117844978D01*
X166672988Y-100883489D02*
X169716968Y-103927469D01*
X166672988Y-78310012D02*
X166672988Y-100883489D01*
X168517978Y-117893610D02*
X166427988Y-119983599D01*
X169716968Y-103927469D02*
X169716968Y-116645988D01*
X166427988Y-121098601D02*
X162881598Y-124644991D01*
X162881598Y-124644991D02*
X120733011Y-124644991D01*
X120178003Y-125199999D02*
X116442003Y-125199999D01*
X168148000Y-76835000D02*
X166672988Y-78310012D01*
X120733011Y-124644991D02*
X120178003Y-125199999D01*
X116442003Y-125199999D02*
X115372001Y-126270001D01*
X115372001Y-126270001D02*
X114243999Y-126270001D01*
X166427988Y-119983599D02*
X166427988Y-121098601D01*
X114243999Y-126270001D02*
X113538000Y-125564002D01*
X113538000Y-125564002D02*
X113538000Y-118745000D01*
X113117999Y-116625001D02*
X112268000Y-117475000D01*
X113538000Y-116205000D02*
X113117999Y-116625001D01*
X115444410Y-116205000D02*
X113538000Y-116205000D01*
X120868055Y-110781355D02*
X115444410Y-116205000D01*
X128778000Y-83185000D02*
X127652999Y-84310001D01*
X127652999Y-84310001D02*
X127652999Y-86143349D01*
X127652999Y-86143349D02*
X124179958Y-89616390D01*
X124179958Y-89616390D02*
X122346610Y-89616390D01*
X122346610Y-89616390D02*
X120868055Y-91094945D01*
X120868055Y-91094945D02*
X120868055Y-110781355D01*
X114808000Y-122555000D02*
X121318066Y-116044934D01*
X121318066Y-116044934D02*
X121318066Y-94775066D01*
X121318066Y-94775066D02*
X121322175Y-94775066D01*
X121318066Y-94775066D02*
X121318066Y-93184934D01*
X121318066Y-93184934D02*
X122428000Y-92075000D01*
X127978001Y-86524999D02*
X128778000Y-85725000D01*
X127652999Y-86850001D02*
X127978001Y-86524999D01*
X127652999Y-88683349D02*
X127652999Y-86850001D01*
X124261348Y-92075000D02*
X127652999Y-88683349D01*
X122428000Y-92075000D02*
X124261348Y-92075000D01*
X121768077Y-118134923D02*
X121768077Y-94965575D01*
X114808000Y-125095000D02*
X121768077Y-118134923D01*
X121768077Y-94965575D02*
X123388652Y-93345000D01*
X123388652Y-93345000D02*
X123698000Y-93345000D01*
X123698000Y-93345000D02*
X128778000Y-88265000D01*
X171571413Y-78105000D02*
X171958000Y-78105000D01*
X168826401Y-75359988D02*
X171571413Y-78105000D01*
X167469599Y-75359988D02*
X168826401Y-75359988D01*
X164579588Y-78249999D02*
X167469599Y-75359988D01*
X159258000Y-95885000D02*
X162762988Y-92380011D01*
X136398000Y-108585000D02*
X141478000Y-103505000D01*
X141478000Y-103505000D02*
X141478000Y-101839998D01*
X142207999Y-101109999D02*
X142998003Y-101109999D01*
X163797999Y-78249999D02*
X164579588Y-78249999D01*
X142998003Y-101109999D02*
X148223002Y-95885000D01*
X141478000Y-101839998D02*
X142207999Y-101109999D01*
X148223002Y-95885000D02*
X159258000Y-95885000D01*
X162762988Y-92380011D02*
X162762988Y-79285010D01*
X162762988Y-79285010D02*
X163797999Y-78249999D01*
X136398000Y-113665000D02*
X163068000Y-113665000D01*
X163068000Y-113665000D02*
X164338000Y-112395000D01*
X171958000Y-75565000D02*
X171805600Y-75565000D01*
X163538001Y-115734999D02*
X164338000Y-114935000D01*
X163068000Y-116205000D02*
X163538001Y-115734999D01*
X136398000Y-116205000D02*
X163068000Y-116205000D01*
X167125002Y-74295000D02*
X164338000Y-74295000D01*
X173299010Y-81996390D02*
X172110400Y-83185000D01*
X173299010Y-77612662D02*
X173299010Y-81996390D01*
X172602738Y-76916390D02*
X173299010Y-77612662D01*
X172110400Y-83185000D02*
X171958000Y-83185000D01*
X171124392Y-76916390D02*
X172602738Y-76916390D01*
X168503002Y-74295000D02*
X171124392Y-76916390D01*
X164338000Y-74295000D02*
X168503002Y-74295000D01*
X156718000Y-71755000D02*
X161798000Y-71755000D01*
X161798000Y-71755000D02*
X164338000Y-74295000D01*
X171805600Y-83185000D02*
X171958000Y-83185000D01*
X167122999Y-87867601D02*
X171805600Y-83185000D01*
X167122999Y-98669999D02*
X167122999Y-87867601D01*
X168148000Y-99695000D02*
X167122999Y-98669999D01*
X126093001Y-125239999D02*
X125767999Y-125565001D01*
X162923000Y-125239999D02*
X126093001Y-125239999D01*
X166877999Y-121284999D02*
X162923000Y-125239999D01*
X166877999Y-120169999D02*
X166877999Y-121284999D01*
X170166979Y-116881019D02*
X166877999Y-120169999D01*
X170166979Y-101713979D02*
X170166979Y-116881019D01*
X168148000Y-99695000D02*
X170166979Y-101713979D01*
X125767999Y-125565001D02*
X124968000Y-126365000D01*
X171958000Y-80645000D02*
X170692000Y-80645000D01*
X165463001Y-93489999D02*
X165137999Y-93815001D01*
X167655999Y-75809999D02*
X165463001Y-78002997D01*
X170692000Y-80645000D02*
X169173001Y-79126001D01*
X169173001Y-79126001D02*
X169173001Y-76342999D01*
X165463001Y-78002997D02*
X165463001Y-93489999D01*
X169173001Y-76342999D02*
X168640001Y-75809999D01*
X165137999Y-93815001D02*
X164338000Y-94615000D01*
X168640001Y-75809999D02*
X167655999Y-75809999D01*
X168847999Y-97854999D02*
X168148000Y-97155000D01*
X170616990Y-99623990D02*
X168847999Y-97854999D01*
X170616990Y-119543008D02*
X169418000Y-120741998D01*
X170616990Y-112466010D02*
X170616990Y-119543008D01*
X170616990Y-112715833D02*
X170616990Y-112466010D01*
X170616990Y-112466010D02*
X170616990Y-99623990D01*
X169418000Y-120741998D02*
X169418000Y-125095000D01*
X169418000Y-126760002D02*
X169418000Y-123825000D01*
X164733002Y-131445000D02*
X169418000Y-126760002D01*
X163068000Y-131445000D02*
X164733002Y-131445000D01*
X160528000Y-133985000D02*
X163068000Y-131445000D01*
X123850400Y-94869000D02*
X123698000Y-94869000D01*
X163068000Y-111125000D02*
X164338000Y-109855000D01*
X136398000Y-111125000D02*
X163068000Y-111125000D01*
X146638033Y-88184967D02*
X146638033Y-78827088D01*
X138857967Y-85805033D02*
X136398000Y-88265000D01*
X146638033Y-78827088D02*
X144621012Y-76810067D01*
X144621012Y-76810067D02*
X141218698Y-76810067D01*
X141218698Y-76810067D02*
X138857967Y-79170798D01*
X142748000Y-92075000D02*
X146638033Y-88184967D01*
X138857967Y-79170798D02*
X138857967Y-85805033D01*
X128778000Y-111125000D02*
X133327956Y-106575044D01*
X133327956Y-106575044D02*
X133327957Y-102364397D01*
X135047967Y-100644389D02*
X135047967Y-98984200D01*
X133327957Y-102364397D02*
X135047967Y-100644389D01*
X135047967Y-97472790D02*
X135047967Y-100644389D01*
X134372979Y-96797802D02*
X135047967Y-97472790D01*
X134372977Y-95129977D02*
X134372979Y-96797802D01*
X136398000Y-88265000D02*
X134372977Y-90290023D01*
X134372977Y-90290023D02*
X134372977Y-95129977D01*
X139307978Y-87895022D02*
X136398000Y-90805000D01*
X146188022Y-86094978D02*
X146188022Y-79013487D01*
X142748000Y-89535000D02*
X146188022Y-86094978D01*
X144434613Y-77260078D02*
X141405098Y-77260078D01*
X146188022Y-79013487D02*
X144434613Y-77260078D01*
X141405098Y-77260078D02*
X139307978Y-79357198D01*
X139307978Y-79357198D02*
X139307978Y-87895022D01*
X133777967Y-108665033D02*
X128778000Y-113665000D01*
X134822988Y-92380012D02*
X134822988Y-96611401D01*
X136398000Y-90805000D02*
X134822988Y-92380012D01*
X134822988Y-96611401D02*
X135497978Y-97286391D01*
X135497978Y-97286391D02*
X135497978Y-100830789D01*
X135497978Y-100830789D02*
X133777967Y-102550798D01*
X133777967Y-102550798D02*
X133777967Y-108665033D01*
X143547999Y-98895001D02*
X142748000Y-99695000D01*
X147988066Y-94454934D02*
X143547999Y-98895001D01*
X136398000Y-80645000D02*
X137197999Y-79845001D01*
X137197999Y-79845001D02*
X137197999Y-78921535D01*
X140659500Y-75460034D02*
X145180212Y-75460034D01*
X145180212Y-75460034D02*
X147988066Y-78267888D01*
X137197999Y-78921535D02*
X140659500Y-75460034D01*
X147988066Y-78267888D02*
X147988066Y-94454934D01*
X128778000Y-98186413D02*
X128778000Y-103505000D01*
X132218022Y-94746392D02*
X128778000Y-98186413D01*
X132218022Y-84824978D02*
X132218022Y-94746392D01*
X136398000Y-80645000D02*
X132218022Y-84824978D01*
X129577999Y-115405001D02*
X128778000Y-116205000D01*
X134372977Y-110610023D02*
X129577999Y-115405001D01*
X134372977Y-110212199D02*
X134372977Y-110610023D01*
X134372977Y-106800023D02*
X134372977Y-110610023D01*
X134372977Y-106800023D02*
X134372977Y-106957801D01*
X139757989Y-89985011D02*
X136398000Y-93345000D01*
X145738011Y-84004989D02*
X145738011Y-79199887D01*
X142748000Y-86995000D02*
X145738011Y-84004989D01*
X145738011Y-79199887D02*
X144248213Y-77710089D01*
X144248213Y-77710089D02*
X141591498Y-77710089D01*
X141591498Y-77710089D02*
X139757989Y-79543598D01*
X139757989Y-79543598D02*
X139757989Y-89985011D01*
X134372977Y-102592199D02*
X134372977Y-106800023D01*
X135947989Y-101017188D02*
X134372977Y-102592199D01*
X135947989Y-97099991D02*
X135947989Y-101017188D01*
X135272999Y-96425001D02*
X135947989Y-97099991D01*
X135272999Y-94470001D02*
X135272999Y-96425001D01*
X136398000Y-93345000D02*
X135272999Y-94470001D01*
X136398000Y-83185000D02*
X137957945Y-81625055D01*
X137957945Y-81625055D02*
X137957945Y-78797999D01*
X137957945Y-78797999D02*
X140845899Y-75910045D01*
X140845899Y-75910045D02*
X144993812Y-75910045D01*
X144993812Y-75910045D02*
X147538055Y-78454288D01*
X143547999Y-96355001D02*
X142748000Y-97155000D01*
X147377990Y-92525010D02*
X145288000Y-94615000D01*
X147538055Y-92364945D02*
X144018000Y-95885000D01*
X147538055Y-89824945D02*
X147538055Y-92364945D01*
X144018000Y-95885000D02*
X143547999Y-96355001D01*
X145738011Y-94164989D02*
X144018000Y-95885000D01*
X147538055Y-78454288D02*
X147538055Y-89824945D01*
X147538055Y-89824945D02*
X147538055Y-90694299D01*
X129903001Y-104919999D02*
X128778000Y-106045000D01*
X129903001Y-98572821D02*
X129903001Y-104919999D01*
X132668033Y-95807789D02*
X129903001Y-98572821D01*
X132668033Y-86914967D02*
X132668033Y-95807789D01*
X136398000Y-83185000D02*
X132668033Y-86914967D01*
X134822988Y-112700012D02*
X129577999Y-117945001D01*
X134822988Y-110398599D02*
X134822988Y-112700012D01*
X129577999Y-117945001D02*
X128778000Y-118745000D01*
X134822988Y-106350012D02*
X134822989Y-110819989D01*
X134822988Y-106350012D02*
X134822988Y-106771401D01*
X143547999Y-83655001D02*
X142748000Y-84455000D01*
X143873001Y-83329999D02*
X143547999Y-83655001D01*
X140208000Y-92075000D02*
X140208000Y-82789998D01*
X136398000Y-95885000D02*
X140208000Y-92075000D01*
X140208000Y-82789998D02*
X142352998Y-80645000D01*
X142352998Y-80645000D02*
X143143002Y-80645000D01*
X143143002Y-80645000D02*
X143873001Y-81374999D01*
X143873001Y-81374999D02*
X143873001Y-83329999D01*
X136398000Y-101203587D02*
X134822988Y-102778599D01*
X136398000Y-95885000D02*
X136398000Y-101203587D01*
X134822988Y-102778599D02*
X134822988Y-106350012D01*
X147088044Y-90274956D02*
X142748000Y-94615000D01*
X136398000Y-85725000D02*
X138407956Y-83715044D01*
X138407956Y-83715044D02*
X138407956Y-78984398D01*
X141032298Y-76360056D02*
X144807412Y-76360056D01*
X138407956Y-78984398D02*
X141032298Y-76360056D01*
X144807412Y-76360056D02*
X147088044Y-78640688D01*
X147088044Y-78640688D02*
X147088044Y-90274956D01*
X133407991Y-96965777D02*
X132668033Y-97705735D01*
X132668033Y-97705735D02*
X132668033Y-104694967D01*
X132668033Y-104694967D02*
X129577999Y-107785001D01*
X133407991Y-88715009D02*
X133407991Y-96965777D01*
X136398000Y-85725000D02*
X133407991Y-88715009D01*
X129577999Y-107785001D02*
X128778000Y-108585000D01*
X155448000Y-108585000D02*
X156718000Y-109855000D01*
X136938001Y-109710001D02*
X138063002Y-108585000D01*
X141478000Y-83185000D02*
X141478000Y-96759998D01*
X138063002Y-108585000D02*
X155448000Y-108585000D01*
X142748000Y-81915000D02*
X141478000Y-83185000D01*
X141478000Y-96759998D02*
X135272999Y-102964999D01*
X135272999Y-102964999D02*
X135272999Y-109125001D01*
X135272999Y-109125001D02*
X135857999Y-109710001D01*
X135857999Y-109710001D02*
X136938001Y-109710001D01*
X149568001Y-87794999D02*
X150368000Y-86995000D01*
X149242999Y-88120001D02*
X149568001Y-87794999D01*
X164338000Y-76835000D02*
X162312979Y-78860021D01*
X162312979Y-78860021D02*
X162312979Y-91560021D01*
X162312979Y-91560021D02*
X160528000Y-93345000D01*
X160528000Y-93345000D02*
X149972998Y-93345000D01*
X149972998Y-93345000D02*
X149242999Y-92615001D01*
X149242999Y-92615001D02*
X149242999Y-88120001D01*
X150368000Y-97155000D02*
X152908000Y-99695000D01*
X152908000Y-100965000D02*
X156718000Y-104775000D01*
X152908000Y-99695000D02*
X152908000Y-100965000D01*
X163212999Y-92566411D02*
X163068000Y-92711410D01*
X164338000Y-81915000D02*
X163212999Y-83040001D01*
X157849370Y-104775000D02*
X156718000Y-104775000D01*
X163068000Y-99556370D02*
X157849370Y-104775000D01*
X163212999Y-83040001D02*
X163212999Y-92566411D01*
X163068000Y-92711410D02*
X163068000Y-99556370D01*
X137197999Y-120485001D02*
X136398000Y-121285000D01*
X138793001Y-118889999D02*
X137197999Y-120485001D01*
X164588003Y-118889999D02*
X138793001Y-118889999D01*
X165608000Y-117870002D02*
X164588003Y-118889999D01*
X165608000Y-108585000D02*
X165608000Y-117870002D01*
X164338000Y-107315000D02*
X165608000Y-108585000D01*
X127508000Y-76835000D02*
X128778000Y-75565000D01*
X123134652Y-76835000D02*
X127508000Y-76835000D01*
X118618000Y-81351652D02*
X123134652Y-76835000D01*
X118618000Y-105244002D02*
X118618000Y-81351652D01*
X112268000Y-107315000D02*
X113538000Y-108585000D01*
X115277002Y-108585000D02*
X118618000Y-105244002D01*
X113538000Y-108585000D02*
X115277002Y-108585000D01*
X119518022Y-107684978D02*
X114808000Y-112395000D01*
X119518022Y-85531630D02*
X119518022Y-107684978D01*
X123216042Y-81833610D02*
X119518022Y-85531630D01*
X125049390Y-81833610D02*
X123216042Y-81833610D01*
X128778000Y-78105000D02*
X125049390Y-81833610D01*
X113117999Y-113244999D02*
X112268000Y-112395000D01*
X128778000Y-80645000D02*
X124968000Y-84455000D01*
X124968000Y-84455000D02*
X123134652Y-84455000D01*
X123134652Y-84455000D02*
X119968033Y-87621619D01*
X119968033Y-87621619D02*
X119968033Y-108973969D01*
X119968033Y-108973969D02*
X115277002Y-113665000D01*
X113538000Y-113665000D02*
X113117999Y-113244999D01*
X115277002Y-113665000D02*
X113538000Y-113665000D01*
M02*
