G04 #@! TF.GenerationSoftware,KiCad,Pcbnew,(5.1.2)-2*
G04 #@! TF.CreationDate,2020-11-11T13:09:37+13:00*
G04 #@! TF.ProjectId,APEDSK-AU,41504544-534b-42d4-9155-2e6b69636164,rev?*
G04 #@! TF.SameCoordinates,Original*
G04 #@! TF.FileFunction,Copper,L3,Inr*
G04 #@! TF.FilePolarity,Positive*
%FSLAX46Y46*%
G04 Gerber Fmt 4.6, Leading zero omitted, Abs format (unit mm)*
G04 Created by KiCad (PCBNEW (5.1.2)-2) date 2020-11-11 13:09:37*
%MOMM*%
%LPD*%
G04 APERTURE LIST*
%ADD10O,1.600000X1.600000*%
%ADD11R,1.600000X1.600000*%
%ADD12C,1.600000*%
%ADD13O,1.800000X1.800000*%
%ADD14R,1.800000X1.800000*%
%ADD15O,1.400000X1.400000*%
%ADD16C,1.400000*%
%ADD17O,1.700000X1.700000*%
%ADD18R,1.700000X1.700000*%
%ADD19O,2.032000X1.727200*%
%ADD20C,1.800000*%
%ADD21C,0.250000*%
G04 APERTURE END LIST*
D10*
X149098000Y-126365000D03*
X171958000Y-133985000D03*
X151638000Y-126365000D03*
X169418000Y-133985000D03*
X154178000Y-126365000D03*
X166878000Y-133985000D03*
X156718000Y-126365000D03*
X164338000Y-133985000D03*
X159258000Y-126365000D03*
X161798000Y-133985000D03*
X161798000Y-126365000D03*
X159258000Y-133985000D03*
X164338000Y-126365000D03*
X156718000Y-133985000D03*
X166878000Y-126365000D03*
X154178000Y-133985000D03*
X169418000Y-126365000D03*
X151638000Y-133985000D03*
X171958000Y-126365000D03*
D11*
X149098000Y-133985000D03*
D12*
X157948000Y-117475000D03*
X155448000Y-117475000D03*
X147868000Y-99695000D03*
X150368000Y-99695000D03*
D10*
X150368000Y-75565000D03*
X142748000Y-93345000D03*
X150368000Y-78105000D03*
X142748000Y-90805000D03*
X150368000Y-80645000D03*
X142748000Y-88265000D03*
X150368000Y-83185000D03*
X142748000Y-85725000D03*
X150368000Y-85725000D03*
X142748000Y-83185000D03*
X150368000Y-88265000D03*
X142748000Y-80645000D03*
X150368000Y-90805000D03*
X142748000Y-78105000D03*
X150368000Y-93345000D03*
D11*
X142748000Y-75565000D03*
D13*
X168148000Y-84455000D03*
D14*
X168148000Y-89535000D03*
D10*
X155448000Y-114935000D03*
X163068000Y-76835000D03*
X155448000Y-112395000D03*
X163068000Y-79375000D03*
X155448000Y-109855000D03*
X163068000Y-81915000D03*
X155448000Y-107315000D03*
X163068000Y-84455000D03*
X155448000Y-104775000D03*
X163068000Y-86995000D03*
X155448000Y-102235000D03*
X163068000Y-89535000D03*
X155448000Y-99695000D03*
X163068000Y-92075000D03*
X155448000Y-97155000D03*
X163068000Y-94615000D03*
X155448000Y-94615000D03*
X163068000Y-97155000D03*
X155448000Y-92075000D03*
X163068000Y-99695000D03*
X155448000Y-89535000D03*
X163068000Y-102235000D03*
X155448000Y-86995000D03*
X163068000Y-104775000D03*
X155448000Y-84455000D03*
X163068000Y-107315000D03*
X155448000Y-81915000D03*
X163068000Y-109855000D03*
X155448000Y-79375000D03*
X163068000Y-112395000D03*
X155448000Y-76835000D03*
D11*
X163068000Y-114935000D03*
D12*
X147868000Y-73025000D03*
X150368000Y-73025000D03*
D15*
X168148000Y-76835000D03*
D16*
X168148000Y-81915000D03*
D15*
X163068000Y-122555000D03*
D16*
X163068000Y-117475000D03*
D15*
X171958000Y-116205000D03*
D16*
X166878000Y-116205000D03*
D15*
X168148000Y-107315000D03*
D16*
X168148000Y-112395000D03*
D15*
X168148000Y-99695000D03*
D16*
X168148000Y-104775000D03*
D15*
X168148000Y-97155000D03*
D16*
X168148000Y-92075000D03*
D17*
X114808000Y-76835000D03*
X112268000Y-76835000D03*
X114808000Y-79375000D03*
X112268000Y-79375000D03*
X114808000Y-81915000D03*
X112268000Y-81915000D03*
X114808000Y-84455000D03*
X112268000Y-84455000D03*
X114808000Y-86995000D03*
X112268000Y-86995000D03*
X114808000Y-89535000D03*
X112268000Y-89535000D03*
X114808000Y-92075000D03*
X112268000Y-92075000D03*
X114808000Y-94615000D03*
X112268000Y-94615000D03*
X114808000Y-97155000D03*
X112268000Y-97155000D03*
X114808000Y-99695000D03*
X112268000Y-99695000D03*
X114808000Y-102235000D03*
X112268000Y-102235000D03*
X114808000Y-104775000D03*
X112268000Y-104775000D03*
X114808000Y-107315000D03*
X112268000Y-107315000D03*
X114808000Y-109855000D03*
X112268000Y-109855000D03*
X114808000Y-112395000D03*
X112268000Y-112395000D03*
X114808000Y-114935000D03*
X112268000Y-114935000D03*
X114808000Y-117475000D03*
X112268000Y-117475000D03*
X114808000Y-120015000D03*
X112268000Y-120015000D03*
X114808000Y-122555000D03*
X112268000Y-122555000D03*
X114808000Y-125095000D03*
X112268000Y-125095000D03*
X114808000Y-127635000D03*
X112268000Y-127635000D03*
X114808000Y-130175000D03*
D18*
X112268000Y-130175000D03*
D10*
X144018000Y-133985000D03*
X121158000Y-126365000D03*
X141478000Y-133985000D03*
X123698000Y-126365000D03*
X138938000Y-133985000D03*
X126238000Y-126365000D03*
X136398000Y-133985000D03*
X128778000Y-126365000D03*
X133858000Y-133985000D03*
X131318000Y-126365000D03*
X131318000Y-133985000D03*
X133858000Y-126365000D03*
X128778000Y-133985000D03*
X136398000Y-126365000D03*
X126238000Y-133985000D03*
X138938000Y-126365000D03*
X123698000Y-133985000D03*
X141478000Y-126365000D03*
X121158000Y-133985000D03*
D11*
X144018000Y-126365000D03*
D12*
X146558000Y-131485000D03*
X146558000Y-133985000D03*
D10*
X136398000Y-99695000D03*
X128778000Y-122555000D03*
X136398000Y-102235000D03*
X128778000Y-120015000D03*
X136398000Y-104775000D03*
X128778000Y-117475000D03*
X136398000Y-107315000D03*
X128778000Y-114935000D03*
X136398000Y-109855000D03*
X128778000Y-112395000D03*
X136398000Y-112395000D03*
X128778000Y-109855000D03*
X136398000Y-114935000D03*
X128778000Y-107315000D03*
X136398000Y-117475000D03*
X128778000Y-104775000D03*
X136398000Y-120015000D03*
X128778000Y-102235000D03*
X136398000Y-122555000D03*
D11*
X128778000Y-99695000D03*
D10*
X150368000Y-102235000D03*
X142748000Y-120015000D03*
X150368000Y-104775000D03*
X142748000Y-117475000D03*
X150368000Y-107315000D03*
X142748000Y-114935000D03*
X150368000Y-109855000D03*
X142748000Y-112395000D03*
X150368000Y-112395000D03*
X142748000Y-109855000D03*
X150368000Y-114935000D03*
X142748000Y-107315000D03*
X150368000Y-117475000D03*
X142748000Y-104775000D03*
X150368000Y-120015000D03*
D11*
X142748000Y-102235000D03*
D19*
X123698000Y-90805000D03*
X123698000Y-88265000D03*
X123698000Y-85725000D03*
X123698000Y-83185000D03*
X123698000Y-80645000D03*
X123698000Y-78105000D03*
X123698000Y-75565000D03*
X123698000Y-73025000D03*
D10*
X136398000Y-73025000D03*
X128778000Y-95885000D03*
X136398000Y-75565000D03*
X128778000Y-93345000D03*
X136398000Y-78105000D03*
X128778000Y-90805000D03*
X136398000Y-80645000D03*
X128778000Y-88265000D03*
X136398000Y-83185000D03*
X128778000Y-85725000D03*
X136398000Y-85725000D03*
X128778000Y-83185000D03*
X136398000Y-88265000D03*
X128778000Y-80645000D03*
X136398000Y-90805000D03*
X128778000Y-78105000D03*
X136398000Y-93345000D03*
X128778000Y-75565000D03*
X136398000Y-95885000D03*
D11*
X128778000Y-73025000D03*
D20*
X171958000Y-121285000D03*
D14*
X169418000Y-121285000D03*
D12*
X146558000Y-125135000D03*
X146558000Y-127635000D03*
X138938000Y-70525000D03*
X138938000Y-73025000D03*
X138938000Y-97195000D03*
X138938000Y-99695000D03*
D19*
X171958000Y-108585000D03*
X171958000Y-106045000D03*
X171958000Y-103505000D03*
X171958000Y-100965000D03*
X171958000Y-98425000D03*
X171958000Y-95885000D03*
X171958000Y-93345000D03*
X171958000Y-90805000D03*
X171958000Y-85725000D03*
X171958000Y-83185000D03*
X171958000Y-80645000D03*
X171958000Y-78105000D03*
X171958000Y-75565000D03*
X171958000Y-73025000D03*
X123698000Y-117729000D03*
X123698000Y-115189000D03*
X123698000Y-112649000D03*
X123698000Y-110109000D03*
X123698000Y-107569000D03*
X123698000Y-105029000D03*
X123698000Y-102489000D03*
X123698000Y-99949000D03*
X123698000Y-97409000D03*
X123698000Y-94869000D03*
D21*
X127652999Y-84599999D02*
X128778000Y-85725000D01*
X127652999Y-80104999D02*
X127652999Y-84599999D01*
X132137989Y-82339987D02*
X129318001Y-79519999D01*
X129318001Y-79519999D02*
X128237999Y-79519999D01*
X111703999Y-128810001D02*
X113188003Y-128810001D01*
X128237999Y-79519999D02*
X127652999Y-80104999D01*
X110998000Y-128104002D02*
X111703999Y-128810001D01*
X132588000Y-127635000D02*
X132588000Y-122955645D01*
X110998000Y-122085998D02*
X110998000Y-128104002D01*
X113632999Y-121190001D02*
X111893997Y-121190001D01*
X111893997Y-121190001D02*
X110998000Y-122085998D01*
X114808000Y-120015000D02*
X113632999Y-121190001D01*
X113188003Y-128810001D02*
X113443001Y-129064999D01*
X132137989Y-122505635D02*
X132137989Y-82339987D01*
X113443001Y-130549003D02*
X114338998Y-131445000D01*
X114338998Y-131445000D02*
X115277002Y-131445000D01*
X132588000Y-122955645D02*
X132137989Y-122505635D01*
X113443001Y-129064999D02*
X113443001Y-130549003D01*
X115277002Y-131445000D02*
X116547002Y-130175000D01*
X116547002Y-130175000D02*
X130048000Y-130175000D01*
X130048000Y-130175000D02*
X132588000Y-127635000D01*
X127057991Y-79825009D02*
X127978001Y-78904999D01*
X127978001Y-78904999D02*
X128778000Y-78105000D01*
X111418001Y-93765001D02*
X112268000Y-94615000D01*
X111092999Y-93439999D02*
X111418001Y-93765001D01*
X111092999Y-91510999D02*
X111092999Y-93439999D01*
X115182003Y-90899999D02*
X111703999Y-90899999D01*
X116465612Y-89616390D02*
X115182003Y-90899999D01*
X124179958Y-89616390D02*
X116465612Y-89616390D01*
X127057991Y-79825009D02*
X127057991Y-86738357D01*
X111703999Y-90899999D02*
X111092999Y-91510999D01*
X127057991Y-86738357D02*
X124179958Y-89616390D01*
X127652999Y-114394999D02*
X127652999Y-116349999D01*
X127652999Y-116349999D02*
X128778000Y-117475000D01*
X128237999Y-113809999D02*
X127652999Y-114394999D01*
X129903001Y-112883591D02*
X128976593Y-113809999D01*
X129318001Y-106189999D02*
X129903001Y-106774999D01*
X128237999Y-106189999D02*
X129318001Y-106189999D01*
X125507608Y-108920390D02*
X128237999Y-106189999D01*
X129903001Y-106774999D02*
X129903001Y-112883591D01*
X118282610Y-108920390D02*
X125507608Y-108920390D01*
X117348000Y-109855000D02*
X118282610Y-108920390D01*
X128976593Y-113809999D02*
X128237999Y-113809999D01*
X114808000Y-109855000D02*
X117348000Y-109855000D01*
X111418001Y-109005001D02*
X112268000Y-109855000D01*
X110903001Y-88359999D02*
X109728000Y-89535000D01*
X109728000Y-107315000D02*
X111418001Y-109005001D01*
X115182003Y-88359999D02*
X110903001Y-88359999D01*
X116465612Y-87076390D02*
X115182003Y-88359999D01*
X124179958Y-87076390D02*
X116465612Y-87076390D01*
X126607980Y-84648368D02*
X124179958Y-87076390D01*
X109728000Y-89535000D02*
X109728000Y-107315000D01*
X126607980Y-78523831D02*
X126607980Y-84648368D01*
X127978001Y-77153810D02*
X126607980Y-78523831D01*
X127978001Y-76364999D02*
X127978001Y-77153810D01*
X128778000Y-75565000D02*
X127978001Y-76364999D01*
X119888000Y-120015000D02*
X114808000Y-114935000D01*
X128778000Y-120015000D02*
X119888000Y-120015000D01*
X112268000Y-117475000D02*
X113632999Y-116110001D01*
X114808000Y-113665000D02*
X122880652Y-113665000D01*
X124795390Y-113837610D02*
X127978001Y-110654999D01*
X127978001Y-110654999D02*
X128778000Y-109855000D01*
X122880652Y-113665000D02*
X123053262Y-113837610D01*
X114808000Y-113665000D02*
X116078000Y-113665000D01*
X123053262Y-113837610D02*
X124795390Y-113837610D01*
X113632999Y-116110001D02*
X113632999Y-114370999D01*
X113632999Y-114370999D02*
X114338998Y-113665000D01*
X114338998Y-113665000D02*
X114808000Y-113665000D01*
X144018000Y-127415000D02*
X144018000Y-126365000D01*
X139537989Y-131895011D02*
X144018000Y-127415000D01*
X110811600Y-131895011D02*
X139537989Y-131895011D01*
X109728000Y-130811411D02*
X110811600Y-131895011D01*
X109728000Y-122555000D02*
X109728000Y-130811411D01*
X112268000Y-120015000D02*
X109728000Y-122555000D01*
X127202988Y-117564990D02*
X128382998Y-118745000D01*
X128778000Y-112395000D02*
X127202988Y-113970012D01*
X127202988Y-113970012D02*
X127202988Y-117564990D01*
X129173002Y-118745000D02*
X129903001Y-119474999D01*
X129903001Y-120555001D02*
X129173002Y-121285000D01*
X129903001Y-119474999D02*
X129903001Y-120555001D01*
X128382998Y-118745000D02*
X129173002Y-118745000D01*
X115657999Y-121705001D02*
X114808000Y-122555000D01*
X116078000Y-121285000D02*
X115657999Y-121705001D01*
X129173002Y-121285000D02*
X116078000Y-121285000D01*
X130948022Y-85355022D02*
X128778000Y-83185000D01*
X130948022Y-102495789D02*
X130948022Y-85355022D01*
X130948022Y-102495789D02*
X130948023Y-106945023D01*
X118167989Y-124275011D02*
X130234400Y-124275011D01*
X130948022Y-123561389D02*
X130948022Y-106179212D01*
X114243999Y-126270001D02*
X116172999Y-126270001D01*
X112268000Y-122555000D02*
X113443001Y-123730001D01*
X130234400Y-124275011D02*
X130948022Y-123561389D01*
X116172999Y-126270001D02*
X118167989Y-124275011D01*
X113443001Y-123730001D02*
X113443001Y-125469003D01*
X113443001Y-125469003D02*
X114243999Y-126270001D01*
X128778000Y-114935000D02*
X128778000Y-115571411D01*
X130498011Y-116655011D02*
X128778000Y-114935000D01*
X130498011Y-123374989D02*
X130498011Y-116655011D01*
X130048000Y-123825000D02*
X130498011Y-123374989D01*
X114808000Y-125095000D02*
X116078000Y-123825000D01*
X116078000Y-123825000D02*
X130048000Y-123825000D01*
X129903001Y-125242821D02*
X131398033Y-123747789D01*
X114338998Y-128905000D02*
X127903002Y-128905000D01*
X129577999Y-81444999D02*
X128778000Y-80645000D01*
X127903002Y-128905000D02*
X129903001Y-126905001D01*
X129903001Y-126905001D02*
X129903001Y-125242821D01*
X131398033Y-123747789D02*
X131398033Y-83265033D01*
X113632999Y-128199001D02*
X114338998Y-128905000D01*
X131398033Y-83265033D02*
X129577999Y-81444999D01*
X112268000Y-125095000D02*
X113632999Y-126459999D01*
X113632999Y-126459999D02*
X113632999Y-128199001D01*
X165608000Y-75565000D02*
X165608000Y-85845000D01*
X164482999Y-74439999D02*
X165608000Y-75565000D01*
X168148000Y-88385000D02*
X168148000Y-89535000D01*
X144035804Y-73394978D02*
X145080823Y-74439999D01*
X141460198Y-73394978D02*
X144035804Y-73394978D01*
X123698000Y-80645000D02*
X123850400Y-80645000D01*
X165608000Y-85845000D02*
X168148000Y-88385000D01*
X123850400Y-80645000D02*
X126238000Y-78257400D01*
X126238000Y-78257400D02*
X126238000Y-76439998D01*
X126238000Y-76439998D02*
X128382998Y-74295000D01*
X128382998Y-74295000D02*
X140560177Y-74295000D01*
X140560177Y-74295000D02*
X141460198Y-73394978D01*
X152908000Y-76835000D02*
X155303001Y-74439999D01*
X152908000Y-80645000D02*
X152908000Y-76835000D01*
X150368000Y-83185000D02*
X152908000Y-80645000D01*
X145080823Y-74439999D02*
X155303001Y-74439999D01*
X155303001Y-74439999D02*
X164482999Y-74439999D01*
X137668000Y-114935000D02*
X142748000Y-109855000D01*
X136398000Y-114935000D02*
X137668000Y-114935000D01*
X149242999Y-116349999D02*
X150908001Y-116349999D01*
X142748000Y-109855000D02*
X149242999Y-116349999D01*
X159997956Y-118641455D02*
X159997956Y-100225044D01*
X150908001Y-116349999D02*
X152007977Y-117449975D01*
X152007977Y-117449975D02*
X152007977Y-119117799D01*
X159997956Y-100225044D02*
X163068000Y-97155000D01*
X152007977Y-119117799D02*
X153805200Y-120915022D01*
X157724389Y-120915022D02*
X159997956Y-118641455D01*
X153805200Y-120915022D02*
X157724389Y-120915022D01*
X158458001Y-133185001D02*
X159258000Y-133985000D01*
X145372699Y-122924978D02*
X154942980Y-122924978D01*
X144617676Y-123680001D02*
X145372699Y-122924978D01*
X135857999Y-123680001D02*
X144617676Y-123680001D01*
X133938032Y-121760034D02*
X135857999Y-123680001D01*
X133938032Y-107234968D02*
X133938032Y-121760034D01*
X136398000Y-104775000D02*
X133938032Y-107234968D01*
X154942980Y-122924978D02*
X158132999Y-126114997D01*
X158132999Y-126114997D02*
X158132999Y-132859999D01*
X158132999Y-132859999D02*
X158458001Y-133185001D01*
X137668000Y-117475000D02*
X142748000Y-112395000D01*
X136398000Y-117475000D02*
X137668000Y-117475000D01*
X160447967Y-102315033D02*
X163068000Y-99695000D01*
X142748000Y-112395000D02*
X149242999Y-118889999D01*
X151143766Y-118889999D02*
X153618800Y-121365033D01*
X149242999Y-118889999D02*
X151143766Y-118889999D01*
X153618800Y-121365033D02*
X157910789Y-121365033D01*
X157910789Y-121365033D02*
X160447967Y-118827855D01*
X160447967Y-118827855D02*
X160447967Y-102315033D01*
X137668000Y-107315000D02*
X142748000Y-102235000D01*
X136398000Y-107315000D02*
X137668000Y-107315000D01*
X150908001Y-108729999D02*
X154322999Y-112144997D01*
X154322999Y-112144997D02*
X154322999Y-112935001D01*
X154907999Y-113520001D02*
X155988001Y-113520001D01*
X155988001Y-113520001D02*
X158647923Y-110860079D01*
X162268001Y-90334999D02*
X163068000Y-89535000D01*
X149242999Y-108729999D02*
X150908001Y-108729999D01*
X158647923Y-93955077D02*
X162268001Y-90334999D01*
X142748000Y-102235000D02*
X149242999Y-108729999D01*
X158647923Y-110860079D02*
X158647923Y-93955077D01*
X154322999Y-112935001D02*
X154907999Y-113520001D01*
X137668000Y-120015000D02*
X142748000Y-114935000D01*
X136398000Y-120015000D02*
X137668000Y-120015000D01*
X149628044Y-121815044D02*
X147828000Y-120015000D01*
X153647956Y-121815044D02*
X149628044Y-121815044D01*
X147828000Y-120015000D02*
X149098000Y-121285000D01*
X142748000Y-114935000D02*
X147828000Y-120015000D01*
X153647956Y-121815044D02*
X153432400Y-121815044D01*
X160897978Y-104405022D02*
X163068000Y-102235000D01*
X160897978Y-119014255D02*
X160897978Y-104405022D01*
X153647956Y-121815044D02*
X158097189Y-121815044D01*
X158097189Y-121815044D02*
X160897978Y-119014255D01*
X137668000Y-109855000D02*
X142748000Y-104775000D01*
X136398000Y-109855000D02*
X137668000Y-109855000D01*
X162268001Y-92874999D02*
X163068000Y-92075000D01*
X159097934Y-112950068D02*
X159097934Y-96045066D01*
X149242999Y-111269999D02*
X151782999Y-111269999D01*
X142748000Y-104775000D02*
X149242999Y-111269999D01*
X151782999Y-111269999D02*
X154322999Y-113809999D01*
X159097934Y-96045066D02*
X163068000Y-92075000D01*
X155988001Y-116060001D02*
X159097934Y-112950068D01*
X154322999Y-113809999D02*
X154322999Y-115475001D01*
X154322999Y-115475001D02*
X154907999Y-116060001D01*
X154907999Y-116060001D02*
X155988001Y-116060001D01*
X137668000Y-122555000D02*
X142748000Y-117475000D01*
X136398000Y-122555000D02*
X137668000Y-122555000D01*
X161347989Y-106495011D02*
X163068000Y-104775000D01*
X161347989Y-119200655D02*
X161347989Y-106495011D01*
X158283590Y-122265054D02*
X161347989Y-119200655D01*
X142748000Y-117475000D02*
X147538054Y-122265054D01*
X147538054Y-122265054D02*
X158283590Y-122265054D01*
X137668000Y-112395000D02*
X142748000Y-107315000D01*
X136398000Y-112395000D02*
X137668000Y-112395000D01*
X149242999Y-113809999D02*
X142748000Y-107315000D01*
X150908001Y-113809999D02*
X149242999Y-113809999D01*
X159547945Y-98135055D02*
X159547945Y-118455055D01*
X163068000Y-94615000D02*
X159547945Y-98135055D01*
X159547945Y-118455055D02*
X157988000Y-120015000D01*
X157988000Y-120015000D02*
X155448000Y-120015000D01*
X155448000Y-120015000D02*
X152470501Y-117037501D01*
X152470501Y-115372499D02*
X150908001Y-113809999D01*
X152470501Y-117037501D02*
X152470501Y-115372499D01*
X137668000Y-88265000D02*
X142748000Y-83185000D01*
X136398000Y-88265000D02*
X137668000Y-88265000D01*
X150618003Y-76690001D02*
X146694414Y-76690001D01*
X141646598Y-73844989D02*
X138656587Y-76835000D01*
X148728022Y-91473438D02*
X148728022Y-80619976D01*
X138656587Y-76835000D02*
X136002998Y-76835000D01*
X143849404Y-73844989D02*
X141646598Y-73844989D01*
X151493001Y-91634999D02*
X150908001Y-92219999D01*
X135128000Y-77709998D02*
X135128000Y-86995000D01*
X135128000Y-86995000D02*
X135598001Y-87465001D01*
X150908001Y-79230001D02*
X151493001Y-78645001D01*
X151493001Y-77564999D02*
X150618003Y-76690001D01*
X151493001Y-78645001D02*
X151493001Y-77564999D01*
X150117997Y-79230001D02*
X150908001Y-79230001D01*
X148728022Y-80619976D02*
X150117997Y-79230001D01*
X149474583Y-92219999D02*
X148728022Y-91473438D01*
X150908001Y-92219999D02*
X149474583Y-92219999D01*
X151493001Y-89284997D02*
X151493001Y-91634999D01*
X155197997Y-85580001D02*
X151493001Y-89284997D01*
X163318003Y-85580001D02*
X155197997Y-85580001D01*
X165608000Y-87869998D02*
X163318003Y-85580001D01*
X165608000Y-104775000D02*
X165608000Y-87869998D01*
X163068000Y-107315000D02*
X165608000Y-104775000D01*
X146694414Y-76690001D02*
X143849404Y-73844989D01*
X135598001Y-87465001D02*
X136398000Y-88265000D01*
X136002998Y-76835000D02*
X135128000Y-77709998D01*
X157168011Y-89590009D02*
X155988001Y-88409999D01*
X157168011Y-100514989D02*
X157168011Y-89590009D01*
X155988001Y-88409999D02*
X154907999Y-88409999D01*
X152908000Y-90409998D02*
X152908000Y-93106411D01*
X155448000Y-102235000D02*
X157168011Y-100514989D01*
X154907999Y-88409999D02*
X152908000Y-90409998D01*
X152908000Y-93106411D02*
X151109466Y-94904945D01*
X151109466Y-94904945D02*
X150029995Y-94904945D01*
X150029995Y-94904945D02*
X148278011Y-93152959D01*
X148278011Y-93152959D02*
X148278011Y-80194989D01*
X148278011Y-80194989D02*
X149568001Y-78904999D01*
X149568001Y-78904999D02*
X150368000Y-78105000D01*
X147473002Y-78105000D02*
X150368000Y-78105000D01*
X143663004Y-74295000D02*
X147473002Y-78105000D01*
X141832998Y-74295000D02*
X143663004Y-74295000D01*
X138022998Y-78105000D02*
X141832998Y-74295000D01*
X136398000Y-78105000D02*
X138022998Y-78105000D01*
X137668000Y-80645000D02*
X142748000Y-75565000D01*
X136398000Y-80645000D02*
X137668000Y-80645000D01*
X147828000Y-79595000D02*
X143798000Y-75565000D01*
X147828000Y-93339359D02*
X147828000Y-79595000D01*
X155448000Y-99695000D02*
X156573001Y-98569999D01*
X143798000Y-75565000D02*
X142748000Y-75565000D01*
X151295866Y-95354956D02*
X149843594Y-95354955D01*
X149843594Y-95354955D02*
X147828000Y-93339359D01*
X156573001Y-98569999D02*
X156573001Y-91534999D01*
X153358011Y-93292811D02*
X151295866Y-95354956D01*
X156573001Y-91534999D02*
X155988001Y-90949999D01*
X154669412Y-90949999D02*
X153358011Y-92261400D01*
X155988001Y-90949999D02*
X154669412Y-90949999D01*
X153358011Y-92261400D02*
X153358011Y-93292811D01*
X137668000Y-83185000D02*
X142748000Y-78105000D01*
X136398000Y-83185000D02*
X137668000Y-83185000D01*
X145207967Y-80564967D02*
X143547999Y-78904999D01*
X149657197Y-95804967D02*
X145207967Y-91355736D01*
X143547999Y-78904999D02*
X142748000Y-78105000D01*
X145207967Y-91355736D02*
X145207967Y-80564967D01*
X151718033Y-95804967D02*
X149657197Y-95804967D01*
X155448000Y-92075000D02*
X151718033Y-95804967D01*
X137668000Y-85725000D02*
X142748000Y-80645000D01*
X136398000Y-85725000D02*
X137668000Y-85725000D01*
X154648001Y-96355001D02*
X155448000Y-97155000D01*
X149470798Y-96254978D02*
X154547978Y-96254978D01*
X154547978Y-96254978D02*
X154648001Y-96355001D01*
X144757956Y-91542135D02*
X149470798Y-96254978D01*
X142748000Y-80645000D02*
X144757956Y-82654956D01*
X144757956Y-82654956D02*
X144757956Y-91542135D01*
X128778000Y-102235000D02*
X127843390Y-101300390D01*
X115573779Y-105950001D02*
X120223390Y-101300390D01*
X113632999Y-105950001D02*
X115573779Y-105950001D01*
X112268000Y-107315000D02*
X113632999Y-105950001D01*
X127843390Y-101300390D02*
X120223390Y-101300390D01*
X127172610Y-106380390D02*
X127978001Y-105574999D01*
X127978001Y-105574999D02*
X128778000Y-104775000D01*
X114243999Y-108679999D02*
X115983001Y-108679999D01*
X113443001Y-110419001D02*
X113443001Y-109480997D01*
X113443001Y-109480997D02*
X114243999Y-108679999D01*
X112642003Y-111219999D02*
X113443001Y-110419001D01*
X113632999Y-113570001D02*
X111703999Y-113570001D01*
X114808000Y-112395000D02*
X113632999Y-113570001D01*
X111092999Y-112959001D02*
X111092999Y-111830999D01*
X111703999Y-113570001D02*
X111092999Y-112959001D01*
X111092999Y-111830999D02*
X111703999Y-111219999D01*
X118282610Y-106380390D02*
X127172610Y-106380390D01*
X115983001Y-108679999D02*
X118282610Y-106380390D01*
X111703999Y-111219999D02*
X112642003Y-111219999D01*
X112268000Y-112395000D02*
X113538000Y-111125000D01*
X123053262Y-111297610D02*
X124795390Y-111297610D01*
X122880652Y-111125000D02*
X123053262Y-111297610D01*
X124795390Y-111297610D02*
X128778000Y-107315000D01*
X113538000Y-111125000D02*
X122880652Y-111125000D01*
X168271501Y-117475000D02*
X163068000Y-117475000D01*
X123850400Y-78105000D02*
X126238000Y-75717400D01*
X123698000Y-78105000D02*
X123850400Y-78105000D01*
X126238000Y-75717400D02*
X126238000Y-73167020D01*
X169418000Y-75441499D02*
X169418000Y-116328501D01*
X126238000Y-73167020D02*
X127650020Y-71755000D01*
X127650020Y-71755000D02*
X165731501Y-71755000D01*
X169418000Y-116328501D02*
X168271501Y-117475000D01*
X165731501Y-71755000D02*
X169418000Y-75441499D01*
X127978001Y-92545001D02*
X128778000Y-93345000D01*
X127508000Y-92075000D02*
X127978001Y-92545001D01*
X116547002Y-92075000D02*
X127508000Y-92075000D01*
X115372001Y-93250001D02*
X116547002Y-92075000D01*
X113443001Y-93250001D02*
X115372001Y-93250001D01*
X112268000Y-92075000D02*
X113443001Y-93250001D01*
X114808000Y-94615000D02*
X115742610Y-93680390D01*
X129903001Y-91930001D02*
X128778000Y-90805000D01*
X129903001Y-93885001D02*
X129903001Y-91930001D01*
X127363001Y-94470001D02*
X126573390Y-93680390D01*
X129318001Y-94470001D02*
X127363001Y-94470001D01*
X129903001Y-93885001D02*
X129318001Y-94470001D01*
X115742610Y-93680390D02*
X126573390Y-93680390D01*
X114808000Y-107315000D02*
X116078000Y-107315000D01*
X130498009Y-102179993D02*
X130498009Y-89985009D01*
X116078000Y-107315000D02*
X119552610Y-103840390D01*
X130498009Y-89985009D02*
X128778000Y-88265000D01*
X119552610Y-103840390D02*
X128047608Y-103840390D01*
X128047608Y-103840390D02*
X128527997Y-103360001D01*
X128527997Y-103360001D02*
X129318001Y-103360001D01*
X129318001Y-103360001D02*
X130498009Y-102179993D01*
X137668000Y-90805000D02*
X142748000Y-85725000D01*
X136398000Y-90805000D02*
X137668000Y-90805000D01*
X154648001Y-103975001D02*
X155448000Y-104775000D01*
X154322999Y-101109999D02*
X154322999Y-103649999D01*
X149917989Y-96704989D02*
X154322999Y-101109999D01*
X149284400Y-96704989D02*
X149917989Y-96704989D01*
X154322999Y-103649999D02*
X154648001Y-103975001D01*
X144307945Y-87284945D02*
X144307945Y-91728534D01*
X142748000Y-85725000D02*
X144307945Y-87284945D01*
X144307945Y-91728534D02*
X149284400Y-96704989D01*
X151638000Y-131049998D02*
X151638000Y-133985000D01*
X146267997Y-126509999D02*
X147098001Y-126509999D01*
X144788032Y-125030034D02*
X146267997Y-126509999D01*
X132588000Y-122319235D02*
X135298799Y-125030034D01*
X135298799Y-125030034D02*
X144788032Y-125030034D01*
X147098001Y-126509999D02*
X151638000Y-131049998D01*
X136398000Y-90805000D02*
X132588000Y-94615000D01*
X132588000Y-94615000D02*
X132588000Y-122319235D01*
X137668000Y-93345000D02*
X142748000Y-88265000D01*
X136398000Y-93345000D02*
X137668000Y-93345000D01*
X154977999Y-134784999D02*
X154178000Y-133985000D01*
X161798000Y-111125000D02*
X161798000Y-119387055D01*
X155448000Y-135255000D02*
X154977999Y-134784999D01*
X163068000Y-109855000D02*
X161798000Y-111125000D01*
X161798000Y-119387055D02*
X160528000Y-120657054D01*
X160528000Y-120657054D02*
X160528000Y-134380002D01*
X160528000Y-134380002D02*
X159653002Y-135255000D01*
X159653002Y-135255000D02*
X155448000Y-135255000D01*
X153378001Y-133185001D02*
X154178000Y-133985000D01*
X153052999Y-132859999D02*
X153378001Y-133185001D01*
X153052999Y-126114997D02*
X153052999Y-132859999D01*
X145745499Y-123825000D02*
X150763002Y-123825000D01*
X150763002Y-123825000D02*
X153052999Y-126114997D01*
X133038010Y-122132834D02*
X135485199Y-124580023D01*
X133038010Y-96704990D02*
X133038010Y-122132834D01*
X136398000Y-93345000D02*
X133038010Y-96704990D01*
X144990476Y-124580023D02*
X145745499Y-123825000D01*
X135485199Y-124580023D02*
X144990476Y-124580023D01*
X137668000Y-95885000D02*
X142748000Y-90805000D01*
X136398000Y-95885000D02*
X137668000Y-95885000D01*
X153872988Y-110819988D02*
X154648001Y-111595001D01*
X154648001Y-111595001D02*
X155448000Y-112395000D01*
X153872988Y-101296398D02*
X153872988Y-110819988D01*
X149731590Y-97155000D02*
X153872988Y-101296398D01*
X149098000Y-97155000D02*
X149731590Y-97155000D01*
X142748000Y-90805000D02*
X149098000Y-97155000D01*
X133488021Y-121946434D02*
X135671599Y-124130012D01*
X135671599Y-124130012D02*
X144804077Y-124130012D01*
X133488021Y-98794979D02*
X133488021Y-121946434D01*
X144804077Y-124130012D02*
X145559099Y-123374989D01*
X136398000Y-95885000D02*
X133488021Y-98794979D01*
X155918001Y-133185001D02*
X156718000Y-133985000D01*
X155592999Y-132859999D02*
X155918001Y-133185001D01*
X155592999Y-126114997D02*
X155592999Y-132859999D01*
X150818011Y-123374989D02*
X152852991Y-123374989D01*
X150818011Y-123374989D02*
X150949402Y-123374989D01*
X152852991Y-123374989D02*
X155592999Y-126114997D01*
X145559099Y-123374989D02*
X150818011Y-123374989D01*
M02*
