G04 #@! TF.GenerationSoftware,KiCad,Pcbnew,(5.1.2)-2*
G04 #@! TF.CreationDate,2020-11-11T13:09:37+13:00*
G04 #@! TF.ProjectId,APEDSK-AU,41504544-534b-42d4-9155-2e6b69636164,rev?*
G04 #@! TF.SameCoordinates,Original*
G04 #@! TF.FileFunction,Other,Fab,Top*
%FSLAX46Y46*%
G04 Gerber Fmt 4.6, Leading zero omitted, Abs format (unit mm)*
G04 Created by KiCad (PCBNEW (5.1.2)-2) date 2020-11-11 13:09:37*
%MOMM*%
%LPD*%
G04 APERTURE LIST*
%ADD10C,0.100000*%
%ADD11C,0.150000*%
%ADD12C,0.090000*%
G04 APERTURE END LIST*
D10*
X148828000Y-133350000D02*
X147828000Y-132350000D01*
X173228000Y-133350000D02*
X148828000Y-133350000D01*
X173228000Y-127000000D02*
X173228000Y-133350000D01*
X147828000Y-127000000D02*
X173228000Y-127000000D01*
X147828000Y-132350000D02*
X147828000Y-127000000D01*
X158198000Y-116675000D02*
X155198000Y-116675000D01*
X158198000Y-118275000D02*
X158198000Y-116675000D01*
X155198000Y-118275000D02*
X158198000Y-118275000D01*
X155198000Y-116675000D02*
X155198000Y-118275000D01*
X147618000Y-100495000D02*
X150618000Y-100495000D01*
X147618000Y-98895000D02*
X147618000Y-100495000D01*
X150618000Y-98895000D02*
X147618000Y-98895000D01*
X150618000Y-100495000D02*
X150618000Y-98895000D01*
X143383000Y-75295000D02*
X144383000Y-74295000D01*
X143383000Y-94615000D02*
X143383000Y-75295000D01*
X149733000Y-94615000D02*
X143383000Y-94615000D01*
X149733000Y-74295000D02*
X149733000Y-94615000D01*
X144383000Y-74295000D02*
X149733000Y-74295000D01*
X168148000Y-89535000D02*
X168148000Y-84455000D01*
X169498000Y-89535000D02*
G75*
G03X169498000Y-89535000I-1350000J0D01*
G01*
X162813000Y-115205000D02*
X161813000Y-116205000D01*
X162813000Y-75565000D02*
X162813000Y-115205000D01*
X155703000Y-75565000D02*
X162813000Y-75565000D01*
X155703000Y-116205000D02*
X155703000Y-75565000D01*
X161813000Y-116205000D02*
X155703000Y-116205000D01*
X147618000Y-73825000D02*
X150618000Y-73825000D01*
X147618000Y-72225000D02*
X147618000Y-73825000D01*
X150618000Y-72225000D02*
X147618000Y-72225000D01*
X150618000Y-73825000D02*
X150618000Y-72225000D01*
X168148000Y-81915000D02*
X168148000Y-76835000D01*
X168948000Y-81915000D02*
G75*
G03X168948000Y-81915000I-800000J0D01*
G01*
X163068000Y-117475000D02*
X163068000Y-122555000D01*
X163868000Y-117475000D02*
G75*
G03X163868000Y-117475000I-800000J0D01*
G01*
X166878000Y-116205000D02*
X171958000Y-116205000D01*
X167678000Y-116205000D02*
G75*
G03X167678000Y-116205000I-800000J0D01*
G01*
X168148000Y-112395000D02*
X168148000Y-107315000D01*
X168948000Y-112395000D02*
G75*
G03X168948000Y-112395000I-800000J0D01*
G01*
X168148000Y-104775000D02*
X168148000Y-99695000D01*
X168948000Y-104775000D02*
G75*
G03X168948000Y-104775000I-800000J0D01*
G01*
X168148000Y-92075000D02*
X168148000Y-97155000D01*
X168948000Y-92075000D02*
G75*
G03X168948000Y-92075000I-800000J0D01*
G01*
X144288000Y-127000000D02*
X145288000Y-128000000D01*
X119888000Y-127000000D02*
X144288000Y-127000000D01*
X119888000Y-133350000D02*
X119888000Y-127000000D01*
X145288000Y-133350000D02*
X119888000Y-133350000D01*
X145288000Y-128000000D02*
X145288000Y-133350000D01*
X145758000Y-131235000D02*
X145758000Y-134235000D01*
X147358000Y-131235000D02*
X145758000Y-131235000D01*
X147358000Y-134235000D02*
X147358000Y-131235000D01*
X145758000Y-134235000D02*
X147358000Y-134235000D01*
X129413000Y-99425000D02*
X130413000Y-98425000D01*
X129413000Y-123825000D02*
X129413000Y-99425000D01*
X135763000Y-123825000D02*
X129413000Y-123825000D01*
X135763000Y-98425000D02*
X135763000Y-123825000D01*
X130413000Y-98425000D02*
X135763000Y-98425000D01*
X143383000Y-101965000D02*
X144383000Y-100965000D01*
X143383000Y-121285000D02*
X143383000Y-101965000D01*
X149733000Y-121285000D02*
X143383000Y-121285000D01*
X149733000Y-100965000D02*
X149733000Y-121285000D01*
X144383000Y-100965000D02*
X149733000Y-100965000D01*
X129413000Y-72755000D02*
X130413000Y-71755000D01*
X129413000Y-97155000D02*
X129413000Y-72755000D01*
X135763000Y-97155000D02*
X129413000Y-97155000D01*
X135763000Y-71755000D02*
X135763000Y-97155000D01*
X130413000Y-71755000D02*
X135763000Y-71755000D01*
X172338000Y-120085000D02*
X169038000Y-120085000D01*
X172338000Y-122485000D02*
X172338000Y-120085000D01*
X169038000Y-122485000D02*
X172338000Y-122485000D01*
X169038000Y-120085000D02*
X169038000Y-122485000D01*
X171588000Y-121285000D02*
G75*
G03X171588000Y-121285000I-900000J0D01*
G01*
X145758000Y-124885000D02*
X145758000Y-127885000D01*
X147358000Y-124885000D02*
X145758000Y-124885000D01*
X147358000Y-127885000D02*
X147358000Y-124885000D01*
X145758000Y-127885000D02*
X147358000Y-127885000D01*
X138138000Y-70275000D02*
X138138000Y-73275000D01*
X139738000Y-70275000D02*
X138138000Y-70275000D01*
X139738000Y-73275000D02*
X139738000Y-70275000D01*
X138138000Y-73275000D02*
X139738000Y-73275000D01*
X138138000Y-96945000D02*
X138138000Y-99945000D01*
X139738000Y-96945000D02*
X138138000Y-96945000D01*
X139738000Y-99945000D02*
X139738000Y-96945000D01*
X138138000Y-99945000D02*
X139738000Y-99945000D01*
D11*
X173788000Y-132603571D02*
X173740380Y-132698809D01*
X173740380Y-132841666D01*
X173788000Y-132984523D01*
X173883238Y-133079761D01*
X173978476Y-133127380D01*
X174168952Y-133175000D01*
X174311809Y-133175000D01*
X174502285Y-133127380D01*
X174597523Y-133079761D01*
X174692761Y-132984523D01*
X174740380Y-132841666D01*
X174740380Y-132746428D01*
X174692761Y-132603571D01*
X174645142Y-132555952D01*
X174311809Y-132555952D01*
X174311809Y-132746428D01*
X174454666Y-132175000D02*
X174454666Y-131698809D01*
X174740380Y-132270238D02*
X173740380Y-131936904D01*
X174740380Y-131603571D01*
X174740380Y-130794047D02*
X174740380Y-131270238D01*
X173740380Y-131270238D01*
X174740380Y-129936904D02*
X174740380Y-130508333D01*
X174740380Y-130222619D02*
X173740380Y-130222619D01*
X173883238Y-130317857D01*
X173978476Y-130413095D01*
X174026095Y-130508333D01*
X173740380Y-129079761D02*
X173740380Y-129270238D01*
X173788000Y-129365476D01*
X173835619Y-129413095D01*
X173978476Y-129508333D01*
X174168952Y-129555952D01*
X174549904Y-129555952D01*
X174645142Y-129508333D01*
X174692761Y-129460714D01*
X174740380Y-129365476D01*
X174740380Y-129175000D01*
X174692761Y-129079761D01*
X174645142Y-129032142D01*
X174549904Y-128984523D01*
X174311809Y-128984523D01*
X174216571Y-129032142D01*
X174168952Y-129079761D01*
X174121333Y-129175000D01*
X174121333Y-129365476D01*
X174168952Y-129460714D01*
X174216571Y-129508333D01*
X174311809Y-129555952D01*
X173740380Y-128698809D02*
X174740380Y-128365476D01*
X173740380Y-128032142D01*
X174168952Y-127555952D02*
X174121333Y-127651190D01*
X174073714Y-127698809D01*
X173978476Y-127746428D01*
X173930857Y-127746428D01*
X173835619Y-127698809D01*
X173788000Y-127651190D01*
X173740380Y-127555952D01*
X173740380Y-127365476D01*
X173788000Y-127270238D01*
X173835619Y-127222619D01*
X173930857Y-127175000D01*
X173978476Y-127175000D01*
X174073714Y-127222619D01*
X174121333Y-127270238D01*
X174168952Y-127365476D01*
X174168952Y-127555952D01*
X174216571Y-127651190D01*
X174264190Y-127698809D01*
X174359428Y-127746428D01*
X174549904Y-127746428D01*
X174645142Y-127698809D01*
X174692761Y-127651190D01*
X174740380Y-127555952D01*
X174740380Y-127365476D01*
X174692761Y-127270238D01*
X174645142Y-127222619D01*
X174549904Y-127175000D01*
X174359428Y-127175000D01*
X174264190Y-127222619D01*
X174216571Y-127270238D01*
X174168952Y-127365476D01*
X159980380Y-130936904D02*
X160789904Y-130936904D01*
X160885142Y-130889285D01*
X160932761Y-130841666D01*
X160980380Y-130746428D01*
X160980380Y-130555952D01*
X160932761Y-130460714D01*
X160885142Y-130413095D01*
X160789904Y-130365476D01*
X159980380Y-130365476D01*
X160313714Y-129460714D02*
X160980380Y-129460714D01*
X159932761Y-129698809D02*
X160647047Y-129936904D01*
X160647047Y-129317857D01*
X155507523Y-119977380D02*
X154936095Y-119977380D01*
X155221809Y-119977380D02*
X155221809Y-118977380D01*
X155126571Y-119120238D01*
X155031333Y-119215476D01*
X154936095Y-119263095D01*
X156126571Y-118977380D02*
X156221809Y-118977380D01*
X156317047Y-119025000D01*
X156364666Y-119072619D01*
X156412285Y-119167857D01*
X156459904Y-119358333D01*
X156459904Y-119596428D01*
X156412285Y-119786904D01*
X156364666Y-119882142D01*
X156317047Y-119929761D01*
X156221809Y-119977380D01*
X156126571Y-119977380D01*
X156031333Y-119929761D01*
X155983714Y-119882142D01*
X155936095Y-119786904D01*
X155888476Y-119596428D01*
X155888476Y-119358333D01*
X155936095Y-119167857D01*
X155983714Y-119072619D01*
X156031333Y-119025000D01*
X156126571Y-118977380D01*
X157078952Y-118977380D02*
X157174190Y-118977380D01*
X157269428Y-119025000D01*
X157317047Y-119072619D01*
X157364666Y-119167857D01*
X157412285Y-119358333D01*
X157412285Y-119596428D01*
X157364666Y-119786904D01*
X157317047Y-119882142D01*
X157269428Y-119929761D01*
X157174190Y-119977380D01*
X157078952Y-119977380D01*
X156983714Y-119929761D01*
X156936095Y-119882142D01*
X156888476Y-119786904D01*
X156840857Y-119596428D01*
X156840857Y-119358333D01*
X156888476Y-119167857D01*
X156936095Y-119072619D01*
X156983714Y-119025000D01*
X157078952Y-118977380D01*
X157840857Y-119977380D02*
X157840857Y-118977380D01*
X158412285Y-119977380D01*
X158412285Y-118977380D01*
D12*
X156598000Y-117689285D02*
X156569428Y-117717857D01*
X156483714Y-117746428D01*
X156426571Y-117746428D01*
X156340857Y-117717857D01*
X156283714Y-117660714D01*
X156255142Y-117603571D01*
X156226571Y-117489285D01*
X156226571Y-117403571D01*
X156255142Y-117289285D01*
X156283714Y-117232142D01*
X156340857Y-117175000D01*
X156426571Y-117146428D01*
X156483714Y-117146428D01*
X156569428Y-117175000D01*
X156598000Y-117203571D01*
X156798000Y-117146428D02*
X157198000Y-117146428D01*
X156940857Y-117746428D01*
D11*
X147927523Y-98097380D02*
X147356095Y-98097380D01*
X147641809Y-98097380D02*
X147641809Y-97097380D01*
X147546571Y-97240238D01*
X147451333Y-97335476D01*
X147356095Y-97383095D01*
X148546571Y-97097380D02*
X148641809Y-97097380D01*
X148737047Y-97145000D01*
X148784666Y-97192619D01*
X148832285Y-97287857D01*
X148879904Y-97478333D01*
X148879904Y-97716428D01*
X148832285Y-97906904D01*
X148784666Y-98002142D01*
X148737047Y-98049761D01*
X148641809Y-98097380D01*
X148546571Y-98097380D01*
X148451333Y-98049761D01*
X148403714Y-98002142D01*
X148356095Y-97906904D01*
X148308476Y-97716428D01*
X148308476Y-97478333D01*
X148356095Y-97287857D01*
X148403714Y-97192619D01*
X148451333Y-97145000D01*
X148546571Y-97097380D01*
X149498952Y-97097380D02*
X149594190Y-97097380D01*
X149689428Y-97145000D01*
X149737047Y-97192619D01*
X149784666Y-97287857D01*
X149832285Y-97478333D01*
X149832285Y-97716428D01*
X149784666Y-97906904D01*
X149737047Y-98002142D01*
X149689428Y-98049761D01*
X149594190Y-98097380D01*
X149498952Y-98097380D01*
X149403714Y-98049761D01*
X149356095Y-98002142D01*
X149308476Y-97906904D01*
X149260857Y-97716428D01*
X149260857Y-97478333D01*
X149308476Y-97287857D01*
X149356095Y-97192619D01*
X149403714Y-97145000D01*
X149498952Y-97097380D01*
X150260857Y-98097380D02*
X150260857Y-97097380D01*
X150832285Y-98097380D01*
X150832285Y-97097380D01*
D12*
X149018000Y-99909285D02*
X148989428Y-99937857D01*
X148903714Y-99966428D01*
X148846571Y-99966428D01*
X148760857Y-99937857D01*
X148703714Y-99880714D01*
X148675142Y-99823571D01*
X148646571Y-99709285D01*
X148646571Y-99623571D01*
X148675142Y-99509285D01*
X148703714Y-99452142D01*
X148760857Y-99395000D01*
X148846571Y-99366428D01*
X148903714Y-99366428D01*
X148989428Y-99395000D01*
X149018000Y-99423571D01*
X149560857Y-99366428D02*
X149275142Y-99366428D01*
X149246571Y-99652142D01*
X149275142Y-99623571D01*
X149332285Y-99595000D01*
X149475142Y-99595000D01*
X149532285Y-99623571D01*
X149560857Y-99652142D01*
X149589428Y-99709285D01*
X149589428Y-99852142D01*
X149560857Y-99909285D01*
X149532285Y-99937857D01*
X149475142Y-99966428D01*
X149332285Y-99966428D01*
X149275142Y-99937857D01*
X149246571Y-99909285D01*
D11*
X143296095Y-95127380D02*
X143962761Y-95127380D01*
X143534190Y-96127380D01*
X144772285Y-95460714D02*
X144772285Y-96127380D01*
X144534190Y-95079761D02*
X144296095Y-95794047D01*
X144915142Y-95794047D01*
X145296095Y-96127380D02*
X145296095Y-95127380D01*
X145296095Y-95603571D02*
X145867523Y-95603571D01*
X145867523Y-96127380D02*
X145867523Y-95127380D01*
X146915142Y-96032142D02*
X146867523Y-96079761D01*
X146724666Y-96127380D01*
X146629428Y-96127380D01*
X146486571Y-96079761D01*
X146391333Y-95984523D01*
X146343714Y-95889285D01*
X146296095Y-95698809D01*
X146296095Y-95555952D01*
X146343714Y-95365476D01*
X146391333Y-95270238D01*
X146486571Y-95175000D01*
X146629428Y-95127380D01*
X146724666Y-95127380D01*
X146867523Y-95175000D01*
X146915142Y-95222619D01*
X147819904Y-95127380D02*
X147343714Y-95127380D01*
X147296095Y-95603571D01*
X147343714Y-95555952D01*
X147438952Y-95508333D01*
X147677047Y-95508333D01*
X147772285Y-95555952D01*
X147819904Y-95603571D01*
X147867523Y-95698809D01*
X147867523Y-95936904D01*
X147819904Y-96032142D01*
X147772285Y-96079761D01*
X147677047Y-96127380D01*
X147438952Y-96127380D01*
X147343714Y-96079761D01*
X147296095Y-96032142D01*
X148343714Y-96127380D02*
X148534190Y-96127380D01*
X148629428Y-96079761D01*
X148677047Y-96032142D01*
X148772285Y-95889285D01*
X148819904Y-95698809D01*
X148819904Y-95317857D01*
X148772285Y-95222619D01*
X148724666Y-95175000D01*
X148629428Y-95127380D01*
X148438952Y-95127380D01*
X148343714Y-95175000D01*
X148296095Y-95222619D01*
X148248476Y-95317857D01*
X148248476Y-95555952D01*
X148296095Y-95651190D01*
X148343714Y-95698809D01*
X148438952Y-95746428D01*
X148629428Y-95746428D01*
X148724666Y-95698809D01*
X148772285Y-95651190D01*
X148819904Y-95555952D01*
X149724666Y-95127380D02*
X149248476Y-95127380D01*
X149200857Y-95603571D01*
X149248476Y-95555952D01*
X149343714Y-95508333D01*
X149581809Y-95508333D01*
X149677047Y-95555952D01*
X149724666Y-95603571D01*
X149772285Y-95698809D01*
X149772285Y-95936904D01*
X149724666Y-96032142D01*
X149677047Y-96079761D01*
X149581809Y-96127380D01*
X149343714Y-96127380D01*
X149248476Y-96079761D01*
X149200857Y-96032142D01*
X145796095Y-83907380D02*
X145796095Y-84716904D01*
X145843714Y-84812142D01*
X145891333Y-84859761D01*
X145986571Y-84907380D01*
X146177047Y-84907380D01*
X146272285Y-84859761D01*
X146319904Y-84812142D01*
X146367523Y-84716904D01*
X146367523Y-83907380D01*
X147272285Y-83907380D02*
X147081809Y-83907380D01*
X146986571Y-83955000D01*
X146938952Y-84002619D01*
X146843714Y-84145476D01*
X146796095Y-84335952D01*
X146796095Y-84716904D01*
X146843714Y-84812142D01*
X146891333Y-84859761D01*
X146986571Y-84907380D01*
X147177047Y-84907380D01*
X147272285Y-84859761D01*
X147319904Y-84812142D01*
X147367523Y-84716904D01*
X147367523Y-84478809D01*
X147319904Y-84383571D01*
X147272285Y-84335952D01*
X147177047Y-84288333D01*
X146986571Y-84288333D01*
X146891333Y-84335952D01*
X146843714Y-84383571D01*
X146796095Y-84478809D01*
X171070380Y-89137857D02*
X171070380Y-89709285D01*
X171070380Y-89423571D02*
X170070380Y-89423571D01*
X170213238Y-89518809D01*
X170308476Y-89614047D01*
X170356095Y-89709285D01*
X171070380Y-88709285D02*
X170070380Y-88709285D01*
X171070380Y-88137857D01*
X170070380Y-88137857D01*
X170403714Y-87233095D02*
X171070380Y-87233095D01*
X170022761Y-87471190D02*
X170737047Y-87709285D01*
X170737047Y-87090238D01*
X171070380Y-86185476D02*
X171070380Y-86756904D01*
X171070380Y-86471190D02*
X170070380Y-86471190D01*
X170213238Y-86566428D01*
X170308476Y-86661666D01*
X170356095Y-86756904D01*
X170403714Y-85328333D02*
X171070380Y-85328333D01*
X170022761Y-85566428D02*
X170737047Y-85804523D01*
X170737047Y-85185476D01*
X170498952Y-84661666D02*
X170451333Y-84756904D01*
X170403714Y-84804523D01*
X170308476Y-84852142D01*
X170260857Y-84852142D01*
X170165619Y-84804523D01*
X170118000Y-84756904D01*
X170070380Y-84661666D01*
X170070380Y-84471190D01*
X170118000Y-84375952D01*
X170165619Y-84328333D01*
X170260857Y-84280714D01*
X170308476Y-84280714D01*
X170403714Y-84328333D01*
X170451333Y-84375952D01*
X170498952Y-84471190D01*
X170498952Y-84661666D01*
X170546571Y-84756904D01*
X170594190Y-84804523D01*
X170689428Y-84852142D01*
X170879904Y-84852142D01*
X170975142Y-84804523D01*
X171022761Y-84756904D01*
X171070380Y-84661666D01*
X171070380Y-84471190D01*
X171022761Y-84375952D01*
X170975142Y-84328333D01*
X170879904Y-84280714D01*
X170689428Y-84280714D01*
X170594190Y-84328333D01*
X170546571Y-84375952D01*
X170498952Y-84471190D01*
X169214666Y-86293095D02*
X169214666Y-85816904D01*
X169500380Y-86388333D02*
X168500380Y-86055000D01*
X169500380Y-85721666D01*
X166130380Y-87733095D02*
X165130380Y-87733095D01*
X165130380Y-87495000D01*
X165178000Y-87352142D01*
X165273238Y-87256904D01*
X165368476Y-87209285D01*
X165558952Y-87161666D01*
X165701809Y-87161666D01*
X165892285Y-87209285D01*
X165987523Y-87256904D01*
X166082761Y-87352142D01*
X166130380Y-87495000D01*
X166130380Y-87733095D01*
X165225619Y-86780714D02*
X165178000Y-86733095D01*
X165130380Y-86637857D01*
X165130380Y-86399761D01*
X165178000Y-86304523D01*
X165225619Y-86256904D01*
X165320857Y-86209285D01*
X165416095Y-86209285D01*
X165558952Y-86256904D01*
X166130380Y-86828333D01*
X166130380Y-86209285D01*
X153758000Y-74897380D02*
X153758000Y-73897380D01*
X154186571Y-74849761D02*
X154329428Y-74897380D01*
X154567523Y-74897380D01*
X154662761Y-74849761D01*
X154710380Y-74802142D01*
X154758000Y-74706904D01*
X154758000Y-74611666D01*
X154710380Y-74516428D01*
X154662761Y-74468809D01*
X154567523Y-74421190D01*
X154377047Y-74373571D01*
X154281809Y-74325952D01*
X154234190Y-74278333D01*
X154186571Y-74183095D01*
X154186571Y-74087857D01*
X154234190Y-73992619D01*
X154281809Y-73945000D01*
X154377047Y-73897380D01*
X154615142Y-73897380D01*
X154758000Y-73945000D01*
X155615142Y-73897380D02*
X155424666Y-73897380D01*
X155329428Y-73945000D01*
X155281809Y-73992619D01*
X155186571Y-74135476D01*
X155138952Y-74325952D01*
X155138952Y-74706904D01*
X155186571Y-74802142D01*
X155234190Y-74849761D01*
X155329428Y-74897380D01*
X155519904Y-74897380D01*
X155615142Y-74849761D01*
X155662761Y-74802142D01*
X155710380Y-74706904D01*
X155710380Y-74468809D01*
X155662761Y-74373571D01*
X155615142Y-74325952D01*
X155519904Y-74278333D01*
X155329428Y-74278333D01*
X155234190Y-74325952D01*
X155186571Y-74373571D01*
X155138952Y-74468809D01*
X156662761Y-74897380D02*
X156091333Y-74897380D01*
X156377047Y-74897380D02*
X156377047Y-73897380D01*
X156281809Y-74040238D01*
X156186571Y-74135476D01*
X156091333Y-74183095D01*
X157662761Y-74802142D02*
X157615142Y-74849761D01*
X157472285Y-74897380D01*
X157377047Y-74897380D01*
X157234190Y-74849761D01*
X157138952Y-74754523D01*
X157091333Y-74659285D01*
X157043714Y-74468809D01*
X157043714Y-74325952D01*
X157091333Y-74135476D01*
X157138952Y-74040238D01*
X157234190Y-73945000D01*
X157377047Y-73897380D01*
X157472285Y-73897380D01*
X157615142Y-73945000D01*
X157662761Y-73992619D01*
X158567523Y-73897380D02*
X158091333Y-73897380D01*
X158043714Y-74373571D01*
X158091333Y-74325952D01*
X158186571Y-74278333D01*
X158424666Y-74278333D01*
X158519904Y-74325952D01*
X158567523Y-74373571D01*
X158615142Y-74468809D01*
X158615142Y-74706904D01*
X158567523Y-74802142D01*
X158519904Y-74849761D01*
X158424666Y-74897380D01*
X158186571Y-74897380D01*
X158091333Y-74849761D01*
X158043714Y-74802142D01*
X159567523Y-74897380D02*
X158996095Y-74897380D01*
X159281809Y-74897380D02*
X159281809Y-73897380D01*
X159186571Y-74040238D01*
X159091333Y-74135476D01*
X158996095Y-74183095D01*
X159948476Y-73992619D02*
X159996095Y-73945000D01*
X160091333Y-73897380D01*
X160329428Y-73897380D01*
X160424666Y-73945000D01*
X160472285Y-73992619D01*
X160519904Y-74087857D01*
X160519904Y-74183095D01*
X160472285Y-74325952D01*
X159900857Y-74897380D01*
X160519904Y-74897380D01*
X160948476Y-74516428D02*
X161710380Y-74516428D01*
X162138952Y-73992619D02*
X162186571Y-73945000D01*
X162281809Y-73897380D01*
X162519904Y-73897380D01*
X162615142Y-73945000D01*
X162662761Y-73992619D01*
X162710380Y-74087857D01*
X162710380Y-74183095D01*
X162662761Y-74325952D01*
X162091333Y-74897380D01*
X162710380Y-74897380D01*
X163329428Y-73897380D02*
X163424666Y-73897380D01*
X163519904Y-73945000D01*
X163567523Y-73992619D01*
X163615142Y-74087857D01*
X163662761Y-74278333D01*
X163662761Y-74516428D01*
X163615142Y-74706904D01*
X163567523Y-74802142D01*
X163519904Y-74849761D01*
X163424666Y-74897380D01*
X163329428Y-74897380D01*
X163234190Y-74849761D01*
X163186571Y-74802142D01*
X163138952Y-74706904D01*
X163091333Y-74516428D01*
X163091333Y-74278333D01*
X163138952Y-74087857D01*
X163186571Y-73992619D01*
X163234190Y-73945000D01*
X163329428Y-73897380D01*
X164091333Y-74897380D02*
X164091333Y-73897380D01*
X164424666Y-74611666D01*
X164758000Y-73897380D01*
X164758000Y-74897380D01*
X158496095Y-95337380D02*
X158496095Y-96146904D01*
X158543714Y-96242142D01*
X158591333Y-96289761D01*
X158686571Y-96337380D01*
X158877047Y-96337380D01*
X158972285Y-96289761D01*
X159019904Y-96242142D01*
X159067523Y-96146904D01*
X159067523Y-95337380D01*
X159448476Y-95337380D02*
X160115142Y-95337380D01*
X159686571Y-96337380D01*
X147927523Y-71427380D02*
X147356095Y-71427380D01*
X147641809Y-71427380D02*
X147641809Y-70427380D01*
X147546571Y-70570238D01*
X147451333Y-70665476D01*
X147356095Y-70713095D01*
X148546571Y-70427380D02*
X148641809Y-70427380D01*
X148737047Y-70475000D01*
X148784666Y-70522619D01*
X148832285Y-70617857D01*
X148879904Y-70808333D01*
X148879904Y-71046428D01*
X148832285Y-71236904D01*
X148784666Y-71332142D01*
X148737047Y-71379761D01*
X148641809Y-71427380D01*
X148546571Y-71427380D01*
X148451333Y-71379761D01*
X148403714Y-71332142D01*
X148356095Y-71236904D01*
X148308476Y-71046428D01*
X148308476Y-70808333D01*
X148356095Y-70617857D01*
X148403714Y-70522619D01*
X148451333Y-70475000D01*
X148546571Y-70427380D01*
X149498952Y-70427380D02*
X149594190Y-70427380D01*
X149689428Y-70475000D01*
X149737047Y-70522619D01*
X149784666Y-70617857D01*
X149832285Y-70808333D01*
X149832285Y-71046428D01*
X149784666Y-71236904D01*
X149737047Y-71332142D01*
X149689428Y-71379761D01*
X149594190Y-71427380D01*
X149498952Y-71427380D01*
X149403714Y-71379761D01*
X149356095Y-71332142D01*
X149308476Y-71236904D01*
X149260857Y-71046428D01*
X149260857Y-70808333D01*
X149308476Y-70617857D01*
X149356095Y-70522619D01*
X149403714Y-70475000D01*
X149498952Y-70427380D01*
X150260857Y-71427380D02*
X150260857Y-70427380D01*
X150832285Y-71427380D01*
X150832285Y-70427380D01*
D12*
X149018000Y-73239285D02*
X148989428Y-73267857D01*
X148903714Y-73296428D01*
X148846571Y-73296428D01*
X148760857Y-73267857D01*
X148703714Y-73210714D01*
X148675142Y-73153571D01*
X148646571Y-73039285D01*
X148646571Y-72953571D01*
X148675142Y-72839285D01*
X148703714Y-72782142D01*
X148760857Y-72725000D01*
X148846571Y-72696428D01*
X148903714Y-72696428D01*
X148989428Y-72725000D01*
X149018000Y-72753571D01*
X149532285Y-72696428D02*
X149418000Y-72696428D01*
X149360857Y-72725000D01*
X149332285Y-72753571D01*
X149275142Y-72839285D01*
X149246571Y-72953571D01*
X149246571Y-73182142D01*
X149275142Y-73239285D01*
X149303714Y-73267857D01*
X149360857Y-73296428D01*
X149475142Y-73296428D01*
X149532285Y-73267857D01*
X149560857Y-73239285D01*
X149589428Y-73182142D01*
X149589428Y-73039285D01*
X149560857Y-72982142D01*
X149532285Y-72953571D01*
X149475142Y-72925000D01*
X149360857Y-72925000D01*
X149303714Y-72953571D01*
X149275142Y-72982142D01*
X149246571Y-73039285D01*
D11*
X170520380Y-79589285D02*
X170520380Y-80160714D01*
X170520380Y-79875000D02*
X169520380Y-79875000D01*
X169663238Y-79970238D01*
X169758476Y-80065476D01*
X169806095Y-80160714D01*
X170520380Y-79160714D02*
X169520380Y-79160714D01*
X170520380Y-78589285D02*
X169948952Y-79017857D01*
X169520380Y-78589285D02*
X170091809Y-79160714D01*
X166680380Y-79541666D02*
X166204190Y-79875000D01*
X166680380Y-80113095D02*
X165680380Y-80113095D01*
X165680380Y-79732142D01*
X165728000Y-79636904D01*
X165775619Y-79589285D01*
X165870857Y-79541666D01*
X166013714Y-79541666D01*
X166108952Y-79589285D01*
X166156571Y-79636904D01*
X166204190Y-79732142D01*
X166204190Y-80113095D01*
X165680380Y-78684523D02*
X165680380Y-78875000D01*
X165728000Y-78970238D01*
X165775619Y-79017857D01*
X165918476Y-79113095D01*
X166108952Y-79160714D01*
X166489904Y-79160714D01*
X166585142Y-79113095D01*
X166632761Y-79065476D01*
X166680380Y-78970238D01*
X166680380Y-78779761D01*
X166632761Y-78684523D01*
X166585142Y-78636904D01*
X166489904Y-78589285D01*
X166251809Y-78589285D01*
X166156571Y-78636904D01*
X166108952Y-78684523D01*
X166061333Y-78779761D01*
X166061333Y-78970238D01*
X166108952Y-79065476D01*
X166156571Y-79113095D01*
X166251809Y-79160714D01*
X161600380Y-120229285D02*
X161600380Y-120800714D01*
X161600380Y-120515000D02*
X160600380Y-120515000D01*
X160743238Y-120610238D01*
X160838476Y-120705476D01*
X160886095Y-120800714D01*
X161600380Y-119800714D02*
X160600380Y-119800714D01*
X161600380Y-119229285D02*
X161028952Y-119657857D01*
X160600380Y-119229285D02*
X161171809Y-119800714D01*
X165440380Y-120181666D02*
X164964190Y-120515000D01*
X165440380Y-120753095D02*
X164440380Y-120753095D01*
X164440380Y-120372142D01*
X164488000Y-120276904D01*
X164535619Y-120229285D01*
X164630857Y-120181666D01*
X164773714Y-120181666D01*
X164868952Y-120229285D01*
X164916571Y-120276904D01*
X164964190Y-120372142D01*
X164964190Y-120753095D01*
X164440380Y-119276904D02*
X164440380Y-119753095D01*
X164916571Y-119800714D01*
X164868952Y-119753095D01*
X164821333Y-119657857D01*
X164821333Y-119419761D01*
X164868952Y-119324523D01*
X164916571Y-119276904D01*
X165011809Y-119229285D01*
X165249904Y-119229285D01*
X165345142Y-119276904D01*
X165392761Y-119324523D01*
X165440380Y-119419761D01*
X165440380Y-119657857D01*
X165392761Y-119753095D01*
X165345142Y-119800714D01*
X167632285Y-117577380D02*
X168251333Y-117577380D01*
X167918000Y-117958333D01*
X168060857Y-117958333D01*
X168156095Y-118005952D01*
X168203714Y-118053571D01*
X168251333Y-118148809D01*
X168251333Y-118386904D01*
X168203714Y-118482142D01*
X168156095Y-118529761D01*
X168060857Y-118577380D01*
X167775142Y-118577380D01*
X167679904Y-118529761D01*
X167632285Y-118482142D01*
X168584666Y-117577380D02*
X169203714Y-117577380D01*
X168870380Y-117958333D01*
X169013238Y-117958333D01*
X169108476Y-118005952D01*
X169156095Y-118053571D01*
X169203714Y-118148809D01*
X169203714Y-118386904D01*
X169156095Y-118482142D01*
X169108476Y-118529761D01*
X169013238Y-118577380D01*
X168727523Y-118577380D01*
X168632285Y-118529761D01*
X168584666Y-118482142D01*
X169822761Y-117577380D02*
X169918000Y-117577380D01*
X170013238Y-117625000D01*
X170060857Y-117672619D01*
X170108476Y-117767857D01*
X170156095Y-117958333D01*
X170156095Y-118196428D01*
X170108476Y-118386904D01*
X170060857Y-118482142D01*
X170013238Y-118529761D01*
X169918000Y-118577380D01*
X169822761Y-118577380D01*
X169727523Y-118529761D01*
X169679904Y-118482142D01*
X169632285Y-118386904D01*
X169584666Y-118196428D01*
X169584666Y-117958333D01*
X169632285Y-117767857D01*
X169679904Y-117672619D01*
X169727523Y-117625000D01*
X169822761Y-117577380D01*
X171156095Y-118577380D02*
X170822761Y-118101190D01*
X170584666Y-118577380D02*
X170584666Y-117577380D01*
X170965619Y-117577380D01*
X171060857Y-117625000D01*
X171108476Y-117672619D01*
X171156095Y-117767857D01*
X171156095Y-117910714D01*
X171108476Y-118005952D01*
X171060857Y-118053571D01*
X170965619Y-118101190D01*
X170584666Y-118101190D01*
X169251333Y-114737380D02*
X168918000Y-114261190D01*
X168679904Y-114737380D02*
X168679904Y-113737380D01*
X169060857Y-113737380D01*
X169156095Y-113785000D01*
X169203714Y-113832619D01*
X169251333Y-113927857D01*
X169251333Y-114070714D01*
X169203714Y-114165952D01*
X169156095Y-114213571D01*
X169060857Y-114261190D01*
X168679904Y-114261190D01*
X170108476Y-114070714D02*
X170108476Y-114737380D01*
X169870380Y-113689761D02*
X169632285Y-114404047D01*
X170251333Y-114404047D01*
X169520380Y-110831190D02*
X169520380Y-111307380D01*
X169996571Y-111355000D01*
X169948952Y-111307380D01*
X169901333Y-111212142D01*
X169901333Y-110974047D01*
X169948952Y-110878809D01*
X169996571Y-110831190D01*
X170091809Y-110783571D01*
X170329904Y-110783571D01*
X170425142Y-110831190D01*
X170472761Y-110878809D01*
X170520380Y-110974047D01*
X170520380Y-111212142D01*
X170472761Y-111307380D01*
X170425142Y-111355000D01*
X170425142Y-110355000D02*
X170472761Y-110307380D01*
X170520380Y-110355000D01*
X170472761Y-110402619D01*
X170425142Y-110355000D01*
X170520380Y-110355000D01*
X170520380Y-109355000D02*
X170520380Y-109926428D01*
X170520380Y-109640714D02*
X169520380Y-109640714D01*
X169663238Y-109735952D01*
X169758476Y-109831190D01*
X169806095Y-109926428D01*
X170520380Y-108926428D02*
X169520380Y-108926428D01*
X170520380Y-108355000D02*
X169948952Y-108783571D01*
X169520380Y-108355000D02*
X170091809Y-108926428D01*
X166680380Y-110021666D02*
X166204190Y-110355000D01*
X166680380Y-110593095D02*
X165680380Y-110593095D01*
X165680380Y-110212142D01*
X165728000Y-110116904D01*
X165775619Y-110069285D01*
X165870857Y-110021666D01*
X166013714Y-110021666D01*
X166108952Y-110069285D01*
X166156571Y-110116904D01*
X166204190Y-110212142D01*
X166204190Y-110593095D01*
X165680380Y-109688333D02*
X165680380Y-109069285D01*
X166061333Y-109402619D01*
X166061333Y-109259761D01*
X166108952Y-109164523D01*
X166156571Y-109116904D01*
X166251809Y-109069285D01*
X166489904Y-109069285D01*
X166585142Y-109116904D01*
X166632761Y-109164523D01*
X166680380Y-109259761D01*
X166680380Y-109545476D01*
X166632761Y-109640714D01*
X166585142Y-109688333D01*
X169520380Y-103211190D02*
X169520380Y-103687380D01*
X169996571Y-103735000D01*
X169948952Y-103687380D01*
X169901333Y-103592142D01*
X169901333Y-103354047D01*
X169948952Y-103258809D01*
X169996571Y-103211190D01*
X170091809Y-103163571D01*
X170329904Y-103163571D01*
X170425142Y-103211190D01*
X170472761Y-103258809D01*
X170520380Y-103354047D01*
X170520380Y-103592142D01*
X170472761Y-103687380D01*
X170425142Y-103735000D01*
X170425142Y-102735000D02*
X170472761Y-102687380D01*
X170520380Y-102735000D01*
X170472761Y-102782619D01*
X170425142Y-102735000D01*
X170520380Y-102735000D01*
X170520380Y-101735000D02*
X170520380Y-102306428D01*
X170520380Y-102020714D02*
X169520380Y-102020714D01*
X169663238Y-102115952D01*
X169758476Y-102211190D01*
X169806095Y-102306428D01*
X170520380Y-101306428D02*
X169520380Y-101306428D01*
X170520380Y-100735000D02*
X169948952Y-101163571D01*
X169520380Y-100735000D02*
X170091809Y-101306428D01*
X166680380Y-102401666D02*
X166204190Y-102735000D01*
X166680380Y-102973095D02*
X165680380Y-102973095D01*
X165680380Y-102592142D01*
X165728000Y-102496904D01*
X165775619Y-102449285D01*
X165870857Y-102401666D01*
X166013714Y-102401666D01*
X166108952Y-102449285D01*
X166156571Y-102496904D01*
X166204190Y-102592142D01*
X166204190Y-102973095D01*
X165775619Y-102020714D02*
X165728000Y-101973095D01*
X165680380Y-101877857D01*
X165680380Y-101639761D01*
X165728000Y-101544523D01*
X165775619Y-101496904D01*
X165870857Y-101449285D01*
X165966095Y-101449285D01*
X166108952Y-101496904D01*
X166680380Y-102068333D01*
X166680380Y-101449285D01*
X165680380Y-95591190D02*
X165680380Y-96067380D01*
X166156571Y-96115000D01*
X166108952Y-96067380D01*
X166061333Y-95972142D01*
X166061333Y-95734047D01*
X166108952Y-95638809D01*
X166156571Y-95591190D01*
X166251809Y-95543571D01*
X166489904Y-95543571D01*
X166585142Y-95591190D01*
X166632761Y-95638809D01*
X166680380Y-95734047D01*
X166680380Y-95972142D01*
X166632761Y-96067380D01*
X166585142Y-96115000D01*
X166585142Y-95115000D02*
X166632761Y-95067380D01*
X166680380Y-95115000D01*
X166632761Y-95162619D01*
X166585142Y-95115000D01*
X166680380Y-95115000D01*
X166680380Y-94115000D02*
X166680380Y-94686428D01*
X166680380Y-94400714D02*
X165680380Y-94400714D01*
X165823238Y-94495952D01*
X165918476Y-94591190D01*
X165966095Y-94686428D01*
X166680380Y-93686428D02*
X165680380Y-93686428D01*
X166680380Y-93115000D02*
X166108952Y-93543571D01*
X165680380Y-93115000D02*
X166251809Y-93686428D01*
X170520380Y-94781666D02*
X170044190Y-95115000D01*
X170520380Y-95353095D02*
X169520380Y-95353095D01*
X169520380Y-94972142D01*
X169568000Y-94876904D01*
X169615619Y-94829285D01*
X169710857Y-94781666D01*
X169853714Y-94781666D01*
X169948952Y-94829285D01*
X169996571Y-94876904D01*
X170044190Y-94972142D01*
X170044190Y-95353095D01*
X170520380Y-93829285D02*
X170520380Y-94400714D01*
X170520380Y-94115000D02*
X169520380Y-94115000D01*
X169663238Y-94210238D01*
X169758476Y-94305476D01*
X169806095Y-94400714D01*
X118280380Y-133294047D02*
X118280380Y-132627380D01*
X119280380Y-133055952D01*
X118613714Y-131817857D02*
X119280380Y-131817857D01*
X118232761Y-132055952D02*
X118947047Y-132294047D01*
X118947047Y-131675000D01*
X119280380Y-130817857D02*
X119280380Y-131294047D01*
X118280380Y-131294047D01*
X119232761Y-130532142D02*
X119280380Y-130389285D01*
X119280380Y-130151190D01*
X119232761Y-130055952D01*
X119185142Y-130008333D01*
X119089904Y-129960714D01*
X118994666Y-129960714D01*
X118899428Y-130008333D01*
X118851809Y-130055952D01*
X118804190Y-130151190D01*
X118756571Y-130341666D01*
X118708952Y-130436904D01*
X118661333Y-130484523D01*
X118566095Y-130532142D01*
X118470857Y-130532142D01*
X118375619Y-130484523D01*
X118328000Y-130436904D01*
X118280380Y-130341666D01*
X118280380Y-130103571D01*
X118328000Y-129960714D01*
X118375619Y-129579761D02*
X118328000Y-129532142D01*
X118280380Y-129436904D01*
X118280380Y-129198809D01*
X118328000Y-129103571D01*
X118375619Y-129055952D01*
X118470857Y-129008333D01*
X118566095Y-129008333D01*
X118708952Y-129055952D01*
X119280380Y-129627380D01*
X119280380Y-129008333D01*
X118613714Y-128151190D02*
X119280380Y-128151190D01*
X118232761Y-128389285D02*
X118947047Y-128627380D01*
X118947047Y-128008333D01*
X118280380Y-127151190D02*
X118280380Y-127627380D01*
X118756571Y-127675000D01*
X118708952Y-127627380D01*
X118661333Y-127532142D01*
X118661333Y-127294047D01*
X118708952Y-127198809D01*
X118756571Y-127151190D01*
X118851809Y-127103571D01*
X119089904Y-127103571D01*
X119185142Y-127151190D01*
X119232761Y-127198809D01*
X119280380Y-127294047D01*
X119280380Y-127532142D01*
X119232761Y-127627380D01*
X119185142Y-127675000D01*
X132040380Y-130936904D02*
X132849904Y-130936904D01*
X132945142Y-130889285D01*
X132992761Y-130841666D01*
X133040380Y-130746428D01*
X133040380Y-130555952D01*
X132992761Y-130460714D01*
X132945142Y-130413095D01*
X132849904Y-130365476D01*
X132040380Y-130365476D01*
X133040380Y-129365476D02*
X133040380Y-129936904D01*
X133040380Y-129651190D02*
X132040380Y-129651190D01*
X132183238Y-129746428D01*
X132278476Y-129841666D01*
X132326095Y-129936904D01*
X149060380Y-133925476D02*
X149060380Y-134496904D01*
X149060380Y-134211190D02*
X148060380Y-134211190D01*
X148203238Y-134306428D01*
X148298476Y-134401666D01*
X148346095Y-134496904D01*
X148060380Y-133306428D02*
X148060380Y-133211190D01*
X148108000Y-133115952D01*
X148155619Y-133068333D01*
X148250857Y-133020714D01*
X148441333Y-132973095D01*
X148679428Y-132973095D01*
X148869904Y-133020714D01*
X148965142Y-133068333D01*
X149012761Y-133115952D01*
X149060380Y-133211190D01*
X149060380Y-133306428D01*
X149012761Y-133401666D01*
X148965142Y-133449285D01*
X148869904Y-133496904D01*
X148679428Y-133544523D01*
X148441333Y-133544523D01*
X148250857Y-133496904D01*
X148155619Y-133449285D01*
X148108000Y-133401666D01*
X148060380Y-133306428D01*
X148060380Y-132354047D02*
X148060380Y-132258809D01*
X148108000Y-132163571D01*
X148155619Y-132115952D01*
X148250857Y-132068333D01*
X148441333Y-132020714D01*
X148679428Y-132020714D01*
X148869904Y-132068333D01*
X148965142Y-132115952D01*
X149012761Y-132163571D01*
X149060380Y-132258809D01*
X149060380Y-132354047D01*
X149012761Y-132449285D01*
X148965142Y-132496904D01*
X148869904Y-132544523D01*
X148679428Y-132592142D01*
X148441333Y-132592142D01*
X148250857Y-132544523D01*
X148155619Y-132496904D01*
X148108000Y-132449285D01*
X148060380Y-132354047D01*
X149060380Y-131592142D02*
X148060380Y-131592142D01*
X149060380Y-131020714D01*
X148060380Y-131020714D01*
X129468952Y-124337380D02*
X130135619Y-124337380D01*
X129707047Y-125337380D01*
X130945142Y-124670714D02*
X130945142Y-125337380D01*
X130707047Y-124289761D02*
X130468952Y-125004047D01*
X131088000Y-125004047D01*
X131945142Y-125337380D02*
X131468952Y-125337380D01*
X131468952Y-124337380D01*
X132230857Y-125289761D02*
X132373714Y-125337380D01*
X132611809Y-125337380D01*
X132707047Y-125289761D01*
X132754666Y-125242142D01*
X132802285Y-125146904D01*
X132802285Y-125051666D01*
X132754666Y-124956428D01*
X132707047Y-124908809D01*
X132611809Y-124861190D01*
X132421333Y-124813571D01*
X132326095Y-124765952D01*
X132278476Y-124718333D01*
X132230857Y-124623095D01*
X132230857Y-124527857D01*
X132278476Y-124432619D01*
X132326095Y-124385000D01*
X132421333Y-124337380D01*
X132659428Y-124337380D01*
X132802285Y-124385000D01*
X133707047Y-124337380D02*
X133230857Y-124337380D01*
X133183238Y-124813571D01*
X133230857Y-124765952D01*
X133326095Y-124718333D01*
X133564190Y-124718333D01*
X133659428Y-124765952D01*
X133707047Y-124813571D01*
X133754666Y-124908809D01*
X133754666Y-125146904D01*
X133707047Y-125242142D01*
X133659428Y-125289761D01*
X133564190Y-125337380D01*
X133326095Y-125337380D01*
X133230857Y-125289761D01*
X133183238Y-125242142D01*
X134611809Y-124670714D02*
X134611809Y-125337380D01*
X134373714Y-124289761D02*
X134135619Y-125004047D01*
X134754666Y-125004047D01*
X135659428Y-125337380D02*
X135088000Y-125337380D01*
X135373714Y-125337380D02*
X135373714Y-124337380D01*
X135278476Y-124480238D01*
X135183238Y-124575476D01*
X135088000Y-124623095D01*
X131826095Y-110577380D02*
X131826095Y-111386904D01*
X131873714Y-111482142D01*
X131921333Y-111529761D01*
X132016571Y-111577380D01*
X132207047Y-111577380D01*
X132302285Y-111529761D01*
X132349904Y-111482142D01*
X132397523Y-111386904D01*
X132397523Y-110577380D01*
X132826095Y-110672619D02*
X132873714Y-110625000D01*
X132968952Y-110577380D01*
X133207047Y-110577380D01*
X133302285Y-110625000D01*
X133349904Y-110672619D01*
X133397523Y-110767857D01*
X133397523Y-110863095D01*
X133349904Y-111005952D01*
X132778476Y-111577380D01*
X133397523Y-111577380D01*
X143296095Y-121797380D02*
X143962761Y-121797380D01*
X143534190Y-122797380D01*
X144772285Y-122130714D02*
X144772285Y-122797380D01*
X144534190Y-121749761D02*
X144296095Y-122464047D01*
X144915142Y-122464047D01*
X145296095Y-122797380D02*
X145296095Y-121797380D01*
X145296095Y-122273571D02*
X145867523Y-122273571D01*
X145867523Y-122797380D02*
X145867523Y-121797380D01*
X146915142Y-122702142D02*
X146867523Y-122749761D01*
X146724666Y-122797380D01*
X146629428Y-122797380D01*
X146486571Y-122749761D01*
X146391333Y-122654523D01*
X146343714Y-122559285D01*
X146296095Y-122368809D01*
X146296095Y-122225952D01*
X146343714Y-122035476D01*
X146391333Y-121940238D01*
X146486571Y-121845000D01*
X146629428Y-121797380D01*
X146724666Y-121797380D01*
X146867523Y-121845000D01*
X146915142Y-121892619D01*
X147819904Y-121797380D02*
X147343714Y-121797380D01*
X147296095Y-122273571D01*
X147343714Y-122225952D01*
X147438952Y-122178333D01*
X147677047Y-122178333D01*
X147772285Y-122225952D01*
X147819904Y-122273571D01*
X147867523Y-122368809D01*
X147867523Y-122606904D01*
X147819904Y-122702142D01*
X147772285Y-122749761D01*
X147677047Y-122797380D01*
X147438952Y-122797380D01*
X147343714Y-122749761D01*
X147296095Y-122702142D01*
X148343714Y-122797380D02*
X148534190Y-122797380D01*
X148629428Y-122749761D01*
X148677047Y-122702142D01*
X148772285Y-122559285D01*
X148819904Y-122368809D01*
X148819904Y-121987857D01*
X148772285Y-121892619D01*
X148724666Y-121845000D01*
X148629428Y-121797380D01*
X148438952Y-121797380D01*
X148343714Y-121845000D01*
X148296095Y-121892619D01*
X148248476Y-121987857D01*
X148248476Y-122225952D01*
X148296095Y-122321190D01*
X148343714Y-122368809D01*
X148438952Y-122416428D01*
X148629428Y-122416428D01*
X148724666Y-122368809D01*
X148772285Y-122321190D01*
X148819904Y-122225952D01*
X149724666Y-121797380D02*
X149248476Y-121797380D01*
X149200857Y-122273571D01*
X149248476Y-122225952D01*
X149343714Y-122178333D01*
X149581809Y-122178333D01*
X149677047Y-122225952D01*
X149724666Y-122273571D01*
X149772285Y-122368809D01*
X149772285Y-122606904D01*
X149724666Y-122702142D01*
X149677047Y-122749761D01*
X149581809Y-122797380D01*
X149343714Y-122797380D01*
X149248476Y-122749761D01*
X149200857Y-122702142D01*
X145796095Y-110577380D02*
X145796095Y-111386904D01*
X145843714Y-111482142D01*
X145891333Y-111529761D01*
X145986571Y-111577380D01*
X146177047Y-111577380D01*
X146272285Y-111529761D01*
X146319904Y-111482142D01*
X146367523Y-111386904D01*
X146367523Y-110577380D01*
X147319904Y-110577380D02*
X146843714Y-110577380D01*
X146796095Y-111053571D01*
X146843714Y-111005952D01*
X146938952Y-110958333D01*
X147177047Y-110958333D01*
X147272285Y-111005952D01*
X147319904Y-111053571D01*
X147367523Y-111148809D01*
X147367523Y-111386904D01*
X147319904Y-111482142D01*
X147272285Y-111529761D01*
X147177047Y-111577380D01*
X146938952Y-111577380D01*
X146843714Y-111529761D01*
X146796095Y-111482142D01*
X128468380Y-84105476D02*
X127468380Y-84105476D01*
X127468380Y-83867380D01*
X127516000Y-83724523D01*
X127611238Y-83629285D01*
X127706476Y-83581666D01*
X127896952Y-83534047D01*
X128039809Y-83534047D01*
X128230285Y-83581666D01*
X128325523Y-83629285D01*
X128420761Y-83724523D01*
X128468380Y-83867380D01*
X128468380Y-84105476D01*
X128468380Y-83105476D02*
X127801714Y-83105476D01*
X127468380Y-83105476D02*
X127516000Y-83153095D01*
X127563619Y-83105476D01*
X127516000Y-83057857D01*
X127468380Y-83105476D01*
X127563619Y-83105476D01*
X127801714Y-82200714D02*
X128611238Y-82200714D01*
X128706476Y-82248333D01*
X128754095Y-82295952D01*
X128801714Y-82391190D01*
X128801714Y-82534047D01*
X128754095Y-82629285D01*
X128420761Y-82200714D02*
X128468380Y-82295952D01*
X128468380Y-82486428D01*
X128420761Y-82581666D01*
X128373142Y-82629285D01*
X128277904Y-82676904D01*
X127992190Y-82676904D01*
X127896952Y-82629285D01*
X127849333Y-82581666D01*
X127801714Y-82486428D01*
X127801714Y-82295952D01*
X127849333Y-82200714D01*
X128468380Y-81724523D02*
X127801714Y-81724523D01*
X127468380Y-81724523D02*
X127516000Y-81772142D01*
X127563619Y-81724523D01*
X127516000Y-81676904D01*
X127468380Y-81724523D01*
X127563619Y-81724523D01*
X127801714Y-81391190D02*
X127801714Y-81010238D01*
X127468380Y-81248333D02*
X128325523Y-81248333D01*
X128420761Y-81200714D01*
X128468380Y-81105476D01*
X128468380Y-81010238D01*
X128468380Y-80248333D02*
X127944571Y-80248333D01*
X127849333Y-80295952D01*
X127801714Y-80391190D01*
X127801714Y-80581666D01*
X127849333Y-80676904D01*
X128420761Y-80248333D02*
X128468380Y-80343571D01*
X128468380Y-80581666D01*
X128420761Y-80676904D01*
X128325523Y-80724523D01*
X128230285Y-80724523D01*
X128135047Y-80676904D01*
X128087428Y-80581666D01*
X128087428Y-80343571D01*
X128039809Y-80248333D01*
X128468380Y-79629285D02*
X128420761Y-79724523D01*
X128325523Y-79772142D01*
X127468380Y-79772142D01*
X129468952Y-97667380D02*
X130135619Y-97667380D01*
X129707047Y-98667380D01*
X130945142Y-98000714D02*
X130945142Y-98667380D01*
X130707047Y-97619761D02*
X130468952Y-98334047D01*
X131088000Y-98334047D01*
X131945142Y-98667380D02*
X131468952Y-98667380D01*
X131468952Y-97667380D01*
X132230857Y-98619761D02*
X132373714Y-98667380D01*
X132611809Y-98667380D01*
X132707047Y-98619761D01*
X132754666Y-98572142D01*
X132802285Y-98476904D01*
X132802285Y-98381666D01*
X132754666Y-98286428D01*
X132707047Y-98238809D01*
X132611809Y-98191190D01*
X132421333Y-98143571D01*
X132326095Y-98095952D01*
X132278476Y-98048333D01*
X132230857Y-97953095D01*
X132230857Y-97857857D01*
X132278476Y-97762619D01*
X132326095Y-97715000D01*
X132421333Y-97667380D01*
X132659428Y-97667380D01*
X132802285Y-97715000D01*
X133707047Y-97667380D02*
X133230857Y-97667380D01*
X133183238Y-98143571D01*
X133230857Y-98095952D01*
X133326095Y-98048333D01*
X133564190Y-98048333D01*
X133659428Y-98095952D01*
X133707047Y-98143571D01*
X133754666Y-98238809D01*
X133754666Y-98476904D01*
X133707047Y-98572142D01*
X133659428Y-98619761D01*
X133564190Y-98667380D01*
X133326095Y-98667380D01*
X133230857Y-98619761D01*
X133183238Y-98572142D01*
X134611809Y-98000714D02*
X134611809Y-98667380D01*
X134373714Y-97619761D02*
X134135619Y-98334047D01*
X134754666Y-98334047D01*
X135659428Y-98667380D02*
X135088000Y-98667380D01*
X135373714Y-98667380D02*
X135373714Y-97667380D01*
X135278476Y-97810238D01*
X135183238Y-97905476D01*
X135088000Y-97953095D01*
X131826095Y-83907380D02*
X131826095Y-84716904D01*
X131873714Y-84812142D01*
X131921333Y-84859761D01*
X132016571Y-84907380D01*
X132207047Y-84907380D01*
X132302285Y-84859761D01*
X132349904Y-84812142D01*
X132397523Y-84716904D01*
X132397523Y-83907380D01*
X132778476Y-83907380D02*
X133397523Y-83907380D01*
X133064190Y-84288333D01*
X133207047Y-84288333D01*
X133302285Y-84335952D01*
X133349904Y-84383571D01*
X133397523Y-84478809D01*
X133397523Y-84716904D01*
X133349904Y-84812142D01*
X133302285Y-84859761D01*
X133207047Y-84907380D01*
X132921333Y-84907380D01*
X132826095Y-84859761D01*
X132778476Y-84812142D01*
X169735619Y-122630000D02*
X170735619Y-122630000D01*
X170545142Y-123902142D02*
X170497523Y-123949761D01*
X170354666Y-123997380D01*
X170259428Y-123997380D01*
X170116571Y-123949761D01*
X170021333Y-123854523D01*
X169973714Y-123759285D01*
X169926095Y-123568809D01*
X169926095Y-123425952D01*
X169973714Y-123235476D01*
X170021333Y-123140238D01*
X170116571Y-123045000D01*
X170259428Y-122997380D01*
X170354666Y-122997380D01*
X170497523Y-123045000D01*
X170545142Y-123092619D01*
X170735619Y-122630000D02*
X171640380Y-122630000D01*
X170973714Y-123473571D02*
X171307047Y-123473571D01*
X171449904Y-123997380D02*
X170973714Y-123997380D01*
X170973714Y-122997380D01*
X171449904Y-122997380D01*
X149060380Y-127575476D02*
X149060380Y-128146904D01*
X149060380Y-127861190D02*
X148060380Y-127861190D01*
X148203238Y-127956428D01*
X148298476Y-128051666D01*
X148346095Y-128146904D01*
X148060380Y-126956428D02*
X148060380Y-126861190D01*
X148108000Y-126765952D01*
X148155619Y-126718333D01*
X148250857Y-126670714D01*
X148441333Y-126623095D01*
X148679428Y-126623095D01*
X148869904Y-126670714D01*
X148965142Y-126718333D01*
X149012761Y-126765952D01*
X149060380Y-126861190D01*
X149060380Y-126956428D01*
X149012761Y-127051666D01*
X148965142Y-127099285D01*
X148869904Y-127146904D01*
X148679428Y-127194523D01*
X148441333Y-127194523D01*
X148250857Y-127146904D01*
X148155619Y-127099285D01*
X148108000Y-127051666D01*
X148060380Y-126956428D01*
X148060380Y-126004047D02*
X148060380Y-125908809D01*
X148108000Y-125813571D01*
X148155619Y-125765952D01*
X148250857Y-125718333D01*
X148441333Y-125670714D01*
X148679428Y-125670714D01*
X148869904Y-125718333D01*
X148965142Y-125765952D01*
X149012761Y-125813571D01*
X149060380Y-125908809D01*
X149060380Y-126004047D01*
X149012761Y-126099285D01*
X148965142Y-126146904D01*
X148869904Y-126194523D01*
X148679428Y-126242142D01*
X148441333Y-126242142D01*
X148250857Y-126194523D01*
X148155619Y-126146904D01*
X148108000Y-126099285D01*
X148060380Y-126004047D01*
X149060380Y-125242142D02*
X148060380Y-125242142D01*
X149060380Y-124670714D01*
X148060380Y-124670714D01*
D12*
X146772285Y-126485000D02*
X146800857Y-126513571D01*
X146829428Y-126599285D01*
X146829428Y-126656428D01*
X146800857Y-126742142D01*
X146743714Y-126799285D01*
X146686571Y-126827857D01*
X146572285Y-126856428D01*
X146486571Y-126856428D01*
X146372285Y-126827857D01*
X146315142Y-126799285D01*
X146258000Y-126742142D01*
X146229428Y-126656428D01*
X146229428Y-126599285D01*
X146258000Y-126513571D01*
X146286571Y-126485000D01*
X146429428Y-125970714D02*
X146829428Y-125970714D01*
X146200857Y-126113571D02*
X146629428Y-126256428D01*
X146629428Y-125885000D01*
D11*
X141440380Y-72965476D02*
X141440380Y-73536904D01*
X141440380Y-73251190D02*
X140440380Y-73251190D01*
X140583238Y-73346428D01*
X140678476Y-73441666D01*
X140726095Y-73536904D01*
X140440380Y-72346428D02*
X140440380Y-72251190D01*
X140488000Y-72155952D01*
X140535619Y-72108333D01*
X140630857Y-72060714D01*
X140821333Y-72013095D01*
X141059428Y-72013095D01*
X141249904Y-72060714D01*
X141345142Y-72108333D01*
X141392761Y-72155952D01*
X141440380Y-72251190D01*
X141440380Y-72346428D01*
X141392761Y-72441666D01*
X141345142Y-72489285D01*
X141249904Y-72536904D01*
X141059428Y-72584523D01*
X140821333Y-72584523D01*
X140630857Y-72536904D01*
X140535619Y-72489285D01*
X140488000Y-72441666D01*
X140440380Y-72346428D01*
X140440380Y-71394047D02*
X140440380Y-71298809D01*
X140488000Y-71203571D01*
X140535619Y-71155952D01*
X140630857Y-71108333D01*
X140821333Y-71060714D01*
X141059428Y-71060714D01*
X141249904Y-71108333D01*
X141345142Y-71155952D01*
X141392761Y-71203571D01*
X141440380Y-71298809D01*
X141440380Y-71394047D01*
X141392761Y-71489285D01*
X141345142Y-71536904D01*
X141249904Y-71584523D01*
X141059428Y-71632142D01*
X140821333Y-71632142D01*
X140630857Y-71584523D01*
X140535619Y-71536904D01*
X140488000Y-71489285D01*
X140440380Y-71394047D01*
X141440380Y-70632142D02*
X140440380Y-70632142D01*
X141440380Y-70060714D01*
X140440380Y-70060714D01*
D12*
X139152285Y-71875000D02*
X139180857Y-71903571D01*
X139209428Y-71989285D01*
X139209428Y-72046428D01*
X139180857Y-72132142D01*
X139123714Y-72189285D01*
X139066571Y-72217857D01*
X138952285Y-72246428D01*
X138866571Y-72246428D01*
X138752285Y-72217857D01*
X138695142Y-72189285D01*
X138638000Y-72132142D01*
X138609428Y-72046428D01*
X138609428Y-71989285D01*
X138638000Y-71903571D01*
X138666571Y-71875000D01*
X138609428Y-71675000D02*
X138609428Y-71303571D01*
X138838000Y-71503571D01*
X138838000Y-71417857D01*
X138866571Y-71360714D01*
X138895142Y-71332142D01*
X138952285Y-71303571D01*
X139095142Y-71303571D01*
X139152285Y-71332142D01*
X139180857Y-71360714D01*
X139209428Y-71417857D01*
X139209428Y-71589285D01*
X139180857Y-71646428D01*
X139152285Y-71675000D01*
D11*
X141440380Y-99635476D02*
X141440380Y-100206904D01*
X141440380Y-99921190D02*
X140440380Y-99921190D01*
X140583238Y-100016428D01*
X140678476Y-100111666D01*
X140726095Y-100206904D01*
X140440380Y-99016428D02*
X140440380Y-98921190D01*
X140488000Y-98825952D01*
X140535619Y-98778333D01*
X140630857Y-98730714D01*
X140821333Y-98683095D01*
X141059428Y-98683095D01*
X141249904Y-98730714D01*
X141345142Y-98778333D01*
X141392761Y-98825952D01*
X141440380Y-98921190D01*
X141440380Y-99016428D01*
X141392761Y-99111666D01*
X141345142Y-99159285D01*
X141249904Y-99206904D01*
X141059428Y-99254523D01*
X140821333Y-99254523D01*
X140630857Y-99206904D01*
X140535619Y-99159285D01*
X140488000Y-99111666D01*
X140440380Y-99016428D01*
X140440380Y-98064047D02*
X140440380Y-97968809D01*
X140488000Y-97873571D01*
X140535619Y-97825952D01*
X140630857Y-97778333D01*
X140821333Y-97730714D01*
X141059428Y-97730714D01*
X141249904Y-97778333D01*
X141345142Y-97825952D01*
X141392761Y-97873571D01*
X141440380Y-97968809D01*
X141440380Y-98064047D01*
X141392761Y-98159285D01*
X141345142Y-98206904D01*
X141249904Y-98254523D01*
X141059428Y-98302142D01*
X140821333Y-98302142D01*
X140630857Y-98254523D01*
X140535619Y-98206904D01*
X140488000Y-98159285D01*
X140440380Y-98064047D01*
X141440380Y-97302142D02*
X140440380Y-97302142D01*
X141440380Y-96730714D01*
X140440380Y-96730714D01*
D12*
X139152285Y-98545000D02*
X139180857Y-98573571D01*
X139209428Y-98659285D01*
X139209428Y-98716428D01*
X139180857Y-98802142D01*
X139123714Y-98859285D01*
X139066571Y-98887857D01*
X138952285Y-98916428D01*
X138866571Y-98916428D01*
X138752285Y-98887857D01*
X138695142Y-98859285D01*
X138638000Y-98802142D01*
X138609428Y-98716428D01*
X138609428Y-98659285D01*
X138638000Y-98573571D01*
X138666571Y-98545000D01*
X138666571Y-98316428D02*
X138638000Y-98287857D01*
X138609428Y-98230714D01*
X138609428Y-98087857D01*
X138638000Y-98030714D01*
X138666571Y-98002142D01*
X138723714Y-97973571D01*
X138780857Y-97973571D01*
X138866571Y-98002142D01*
X139209428Y-98345000D01*
X139209428Y-97973571D01*
D11*
X168346380Y-101671190D02*
X167346380Y-101671190D01*
X167346380Y-101290238D01*
X167394000Y-101195000D01*
X167441619Y-101147380D01*
X167536857Y-101099761D01*
X167679714Y-101099761D01*
X167774952Y-101147380D01*
X167822571Y-101195000D01*
X167870190Y-101290238D01*
X167870190Y-101671190D01*
X168346380Y-100528333D02*
X168298761Y-100623571D01*
X168251142Y-100671190D01*
X168155904Y-100718809D01*
X167870190Y-100718809D01*
X167774952Y-100671190D01*
X167727333Y-100623571D01*
X167679714Y-100528333D01*
X167679714Y-100385476D01*
X167727333Y-100290238D01*
X167774952Y-100242619D01*
X167870190Y-100195000D01*
X168155904Y-100195000D01*
X168251142Y-100242619D01*
X168298761Y-100290238D01*
X168346380Y-100385476D01*
X168346380Y-100528333D01*
X167679714Y-99861666D02*
X168346380Y-99671190D01*
X167870190Y-99480714D01*
X168346380Y-99290238D01*
X167679714Y-99099761D01*
X168298761Y-98337857D02*
X168346380Y-98433095D01*
X168346380Y-98623571D01*
X168298761Y-98718809D01*
X168203523Y-98766428D01*
X167822571Y-98766428D01*
X167727333Y-98718809D01*
X167679714Y-98623571D01*
X167679714Y-98433095D01*
X167727333Y-98337857D01*
X167822571Y-98290238D01*
X167917809Y-98290238D01*
X168013047Y-98766428D01*
X168346380Y-97861666D02*
X167679714Y-97861666D01*
X167870190Y-97861666D02*
X167774952Y-97814047D01*
X167727333Y-97766428D01*
X167679714Y-97671190D01*
X167679714Y-97575952D01*
X168060666Y-81430523D02*
X168060666Y-80954333D01*
X168346380Y-81525761D02*
X167346380Y-81192428D01*
X168346380Y-80859095D01*
X167679714Y-80525761D02*
X168346380Y-80525761D01*
X167774952Y-80525761D02*
X167727333Y-80478142D01*
X167679714Y-80382904D01*
X167679714Y-80240047D01*
X167727333Y-80144809D01*
X167822571Y-80097190D01*
X168346380Y-80097190D01*
X168346380Y-79192428D02*
X167822571Y-79192428D01*
X167727333Y-79240047D01*
X167679714Y-79335285D01*
X167679714Y-79525761D01*
X167727333Y-79621000D01*
X168298761Y-79192428D02*
X168346380Y-79287666D01*
X168346380Y-79525761D01*
X168298761Y-79621000D01*
X168203523Y-79668619D01*
X168108285Y-79668619D01*
X168013047Y-79621000D01*
X167965428Y-79525761D01*
X167965428Y-79287666D01*
X167917809Y-79192428D01*
X168346380Y-78573380D02*
X168298761Y-78668619D01*
X168203523Y-78716238D01*
X167346380Y-78716238D01*
X168346380Y-78049571D02*
X168298761Y-78144809D01*
X168251142Y-78192428D01*
X168155904Y-78240047D01*
X167870190Y-78240047D01*
X167774952Y-78192428D01*
X167727333Y-78144809D01*
X167679714Y-78049571D01*
X167679714Y-77906714D01*
X167727333Y-77811476D01*
X167774952Y-77763857D01*
X167870190Y-77716238D01*
X168155904Y-77716238D01*
X168251142Y-77763857D01*
X168298761Y-77811476D01*
X168346380Y-77906714D01*
X168346380Y-78049571D01*
X167679714Y-76859095D02*
X168489238Y-76859095D01*
X168584476Y-76906714D01*
X168632095Y-76954333D01*
X168679714Y-77049571D01*
X168679714Y-77192428D01*
X168632095Y-77287666D01*
X168298761Y-76859095D02*
X168346380Y-76954333D01*
X168346380Y-77144809D01*
X168298761Y-77240047D01*
X168251142Y-77287666D01*
X168155904Y-77335285D01*
X167870190Y-77335285D01*
X167774952Y-77287666D01*
X167727333Y-77240047D01*
X167679714Y-77144809D01*
X167679714Y-76954333D01*
X167727333Y-76859095D01*
X128468380Y-108489476D02*
X127468380Y-108489476D01*
X127468380Y-108251380D01*
X127516000Y-108108523D01*
X127611238Y-108013285D01*
X127706476Y-107965666D01*
X127896952Y-107918047D01*
X128039809Y-107918047D01*
X128230285Y-107965666D01*
X128325523Y-108013285D01*
X128420761Y-108108523D01*
X128468380Y-108251380D01*
X128468380Y-108489476D01*
X128468380Y-107489476D02*
X127801714Y-107489476D01*
X127468380Y-107489476D02*
X127516000Y-107537095D01*
X127563619Y-107489476D01*
X127516000Y-107441857D01*
X127468380Y-107489476D01*
X127563619Y-107489476D01*
X127801714Y-106584714D02*
X128611238Y-106584714D01*
X128706476Y-106632333D01*
X128754095Y-106679952D01*
X128801714Y-106775190D01*
X128801714Y-106918047D01*
X128754095Y-107013285D01*
X128420761Y-106584714D02*
X128468380Y-106679952D01*
X128468380Y-106870428D01*
X128420761Y-106965666D01*
X128373142Y-107013285D01*
X128277904Y-107060904D01*
X127992190Y-107060904D01*
X127896952Y-107013285D01*
X127849333Y-106965666D01*
X127801714Y-106870428D01*
X127801714Y-106679952D01*
X127849333Y-106584714D01*
X128468380Y-106108523D02*
X127801714Y-106108523D01*
X127468380Y-106108523D02*
X127516000Y-106156142D01*
X127563619Y-106108523D01*
X127516000Y-106060904D01*
X127468380Y-106108523D01*
X127563619Y-106108523D01*
X127801714Y-105775190D02*
X127801714Y-105394238D01*
X127468380Y-105632333D02*
X128325523Y-105632333D01*
X128420761Y-105584714D01*
X128468380Y-105489476D01*
X128468380Y-105394238D01*
X128468380Y-104632333D02*
X127944571Y-104632333D01*
X127849333Y-104679952D01*
X127801714Y-104775190D01*
X127801714Y-104965666D01*
X127849333Y-105060904D01*
X128420761Y-104632333D02*
X128468380Y-104727571D01*
X128468380Y-104965666D01*
X128420761Y-105060904D01*
X128325523Y-105108523D01*
X128230285Y-105108523D01*
X128135047Y-105060904D01*
X128087428Y-104965666D01*
X128087428Y-104727571D01*
X128039809Y-104632333D01*
X128468380Y-104013285D02*
X128420761Y-104108523D01*
X128325523Y-104156142D01*
X127468380Y-104156142D01*
M02*
