G04 #@! TF.GenerationSoftware,KiCad,Pcbnew,(5.1.2)-2*
G04 #@! TF.CreationDate,2020-02-02T16:06:22+13:00*
G04 #@! TF.ProjectId,APEDSK-AU,41504544-534b-42d4-9155-2e6b69636164,rev?*
G04 #@! TF.SameCoordinates,Original*
G04 #@! TF.FileFunction,Legend,Top*
G04 #@! TF.FilePolarity,Positive*
%FSLAX46Y46*%
G04 Gerber Fmt 4.6, Leading zero omitted, Abs format (unit mm)*
G04 Created by KiCad (PCBNEW (5.1.2)-2) date 2020-02-02 16:06:22*
%MOMM*%
%LPD*%
G04 APERTURE LIST*
%ADD10C,0.150000*%
%ADD11C,0.120000*%
G04 APERTURE END LIST*
D10*
X139738000Y-123138333D02*
X139704666Y-123105000D01*
X139638000Y-123005000D01*
X139604666Y-122938333D01*
X139571333Y-122838333D01*
X139538000Y-122671666D01*
X139538000Y-122538333D01*
X139571333Y-122371666D01*
X139604666Y-122271666D01*
X139638000Y-122205000D01*
X139704666Y-122105000D01*
X139738000Y-122071666D01*
X140304666Y-122838333D02*
X140238000Y-122871666D01*
X140104666Y-122871666D01*
X140038000Y-122838333D01*
X140004666Y-122805000D01*
X139971333Y-122738333D01*
X139971333Y-122538333D01*
X140004666Y-122471666D01*
X140038000Y-122438333D01*
X140104666Y-122405000D01*
X140238000Y-122405000D01*
X140304666Y-122438333D01*
X140538000Y-123138333D02*
X140571333Y-123105000D01*
X140638000Y-123005000D01*
X140671333Y-122938333D01*
X140704666Y-122838333D01*
X140738000Y-122671666D01*
X140738000Y-122538333D01*
X140704666Y-122371666D01*
X140671333Y-122271666D01*
X140638000Y-122205000D01*
X140571333Y-122105000D01*
X140538000Y-122071666D01*
X141571333Y-122238333D02*
X141604666Y-122205000D01*
X141671333Y-122171666D01*
X141838000Y-122171666D01*
X141904666Y-122205000D01*
X141938000Y-122238333D01*
X141971333Y-122305000D01*
X141971333Y-122371666D01*
X141938000Y-122471666D01*
X141538000Y-122871666D01*
X141971333Y-122871666D01*
X142404666Y-122171666D02*
X142471333Y-122171666D01*
X142538000Y-122205000D01*
X142571333Y-122238333D01*
X142604666Y-122305000D01*
X142638000Y-122438333D01*
X142638000Y-122605000D01*
X142604666Y-122738333D01*
X142571333Y-122805000D01*
X142538000Y-122838333D01*
X142471333Y-122871666D01*
X142404666Y-122871666D01*
X142338000Y-122838333D01*
X142304666Y-122805000D01*
X142271333Y-122738333D01*
X142238000Y-122605000D01*
X142238000Y-122438333D01*
X142271333Y-122305000D01*
X142304666Y-122238333D01*
X142338000Y-122205000D01*
X142404666Y-122171666D01*
X142904666Y-122238333D02*
X142938000Y-122205000D01*
X143004666Y-122171666D01*
X143171333Y-122171666D01*
X143238000Y-122205000D01*
X143271333Y-122238333D01*
X143304666Y-122305000D01*
X143304666Y-122371666D01*
X143271333Y-122471666D01*
X142871333Y-122871666D01*
X143304666Y-122871666D01*
X143738000Y-122171666D02*
X143804666Y-122171666D01*
X143871333Y-122205000D01*
X143904666Y-122238333D01*
X143938000Y-122305000D01*
X143971333Y-122438333D01*
X143971333Y-122605000D01*
X143938000Y-122738333D01*
X143904666Y-122805000D01*
X143871333Y-122838333D01*
X143804666Y-122871666D01*
X143738000Y-122871666D01*
X143671333Y-122838333D01*
X143638000Y-122805000D01*
X143604666Y-122738333D01*
X143571333Y-122605000D01*
X143571333Y-122438333D01*
X143604666Y-122305000D01*
X143638000Y-122238333D01*
X143671333Y-122205000D01*
X143738000Y-122171666D01*
X145004666Y-122171666D02*
X145004666Y-122671666D01*
X144971333Y-122771666D01*
X144904666Y-122838333D01*
X144804666Y-122871666D01*
X144738000Y-122871666D01*
X145438000Y-122871666D02*
X145371333Y-122838333D01*
X145338000Y-122805000D01*
X145304666Y-122738333D01*
X145304666Y-122538333D01*
X145338000Y-122471666D01*
X145371333Y-122438333D01*
X145438000Y-122405000D01*
X145538000Y-122405000D01*
X145604666Y-122438333D01*
X145638000Y-122471666D01*
X145671333Y-122538333D01*
X145671333Y-122738333D01*
X145638000Y-122805000D01*
X145604666Y-122838333D01*
X145538000Y-122871666D01*
X145438000Y-122871666D01*
X146271333Y-122838333D02*
X146204666Y-122871666D01*
X146071333Y-122871666D01*
X146004666Y-122838333D01*
X145971333Y-122805000D01*
X145938000Y-122738333D01*
X145938000Y-122538333D01*
X145971333Y-122471666D01*
X146004666Y-122438333D01*
X146071333Y-122405000D01*
X146204666Y-122405000D01*
X146271333Y-122438333D01*
X146571333Y-122871666D02*
X146571333Y-122171666D01*
X146871333Y-122871666D02*
X146871333Y-122505000D01*
X146838000Y-122438333D01*
X146771333Y-122405000D01*
X146671333Y-122405000D01*
X146604666Y-122438333D01*
X146571333Y-122471666D01*
X147471333Y-122838333D02*
X147404666Y-122871666D01*
X147271333Y-122871666D01*
X147204666Y-122838333D01*
X147171333Y-122771666D01*
X147171333Y-122505000D01*
X147204666Y-122438333D01*
X147271333Y-122405000D01*
X147404666Y-122405000D01*
X147471333Y-122438333D01*
X147504666Y-122505000D01*
X147504666Y-122571666D01*
X147171333Y-122638333D01*
X147804666Y-122405000D02*
X147804666Y-122871666D01*
X147804666Y-122471666D02*
X147838000Y-122438333D01*
X147904666Y-122405000D01*
X148004666Y-122405000D01*
X148071333Y-122438333D01*
X148104666Y-122505000D01*
X148104666Y-122871666D01*
X149204666Y-122505000D02*
X149304666Y-122538333D01*
X149338000Y-122571666D01*
X149371333Y-122638333D01*
X149371333Y-122738333D01*
X149338000Y-122805000D01*
X149304666Y-122838333D01*
X149238000Y-122871666D01*
X148971333Y-122871666D01*
X148971333Y-122171666D01*
X149204666Y-122171666D01*
X149271333Y-122205000D01*
X149304666Y-122238333D01*
X149338000Y-122305000D01*
X149338000Y-122371666D01*
X149304666Y-122438333D01*
X149271333Y-122471666D01*
X149204666Y-122505000D01*
X148971333Y-122505000D01*
X149971333Y-122405000D02*
X149971333Y-122871666D01*
X149671333Y-122405000D02*
X149671333Y-122771666D01*
X149704666Y-122838333D01*
X149771333Y-122871666D01*
X149871333Y-122871666D01*
X149938000Y-122838333D01*
X149971333Y-122805000D01*
X150604666Y-122405000D02*
X150604666Y-122871666D01*
X150304666Y-122405000D02*
X150304666Y-122771666D01*
X150338000Y-122838333D01*
X150404666Y-122871666D01*
X150504666Y-122871666D01*
X150571333Y-122838333D01*
X150604666Y-122805000D01*
X150938000Y-122871666D02*
X150938000Y-122405000D01*
X150938000Y-122538333D02*
X150971333Y-122471666D01*
X151004666Y-122438333D01*
X151071333Y-122405000D01*
X151138000Y-122405000D01*
X142938952Y-116816666D02*
X143415142Y-116816666D01*
X142843714Y-117102380D02*
X143177047Y-116102380D01*
X143510380Y-117102380D01*
X143843714Y-117102380D02*
X143843714Y-116102380D01*
X144224666Y-116102380D01*
X144319904Y-116150000D01*
X144367523Y-116197619D01*
X144415142Y-116292857D01*
X144415142Y-116435714D01*
X144367523Y-116530952D01*
X144319904Y-116578571D01*
X144224666Y-116626190D01*
X143843714Y-116626190D01*
X144843714Y-116578571D02*
X145177047Y-116578571D01*
X145319904Y-117102380D02*
X144843714Y-117102380D01*
X144843714Y-116102380D01*
X145319904Y-116102380D01*
X145748476Y-117102380D02*
X145748476Y-116102380D01*
X145986571Y-116102380D01*
X146129428Y-116150000D01*
X146224666Y-116245238D01*
X146272285Y-116340476D01*
X146319904Y-116530952D01*
X146319904Y-116673809D01*
X146272285Y-116864285D01*
X146224666Y-116959523D01*
X146129428Y-117054761D01*
X145986571Y-117102380D01*
X145748476Y-117102380D01*
X146700857Y-117054761D02*
X146843714Y-117102380D01*
X147081809Y-117102380D01*
X147177047Y-117054761D01*
X147224666Y-117007142D01*
X147272285Y-116911904D01*
X147272285Y-116816666D01*
X147224666Y-116721428D01*
X147177047Y-116673809D01*
X147081809Y-116626190D01*
X146891333Y-116578571D01*
X146796095Y-116530952D01*
X146748476Y-116483333D01*
X146700857Y-116388095D01*
X146700857Y-116292857D01*
X146748476Y-116197619D01*
X146796095Y-116150000D01*
X146891333Y-116102380D01*
X147129428Y-116102380D01*
X147272285Y-116150000D01*
X147700857Y-117102380D02*
X147700857Y-116102380D01*
X148272285Y-117102380D02*
X147843714Y-116530952D01*
X148272285Y-116102380D02*
X147700857Y-116673809D01*
X148748476Y-117102380D02*
X148938952Y-117102380D01*
X149034190Y-117054761D01*
X149081809Y-117007142D01*
X149177047Y-116864285D01*
X149224666Y-116673809D01*
X149224666Y-116292857D01*
X149177047Y-116197619D01*
X149129428Y-116150000D01*
X149034190Y-116102380D01*
X148843714Y-116102380D01*
X148748476Y-116150000D01*
X148700857Y-116197619D01*
X148653238Y-116292857D01*
X148653238Y-116530952D01*
X148700857Y-116626190D01*
X148748476Y-116673809D01*
X148843714Y-116721428D01*
X149034190Y-116721428D01*
X149129428Y-116673809D01*
X149177047Y-116626190D01*
X149224666Y-116530952D01*
X149700857Y-117102380D02*
X149891333Y-117102380D01*
X149986571Y-117054761D01*
X150034190Y-117007142D01*
X150129428Y-116864285D01*
X150177047Y-116673809D01*
X150177047Y-116292857D01*
X150129428Y-116197619D01*
X150081809Y-116150000D01*
X149986571Y-116102380D01*
X149796095Y-116102380D01*
X149700857Y-116150000D01*
X149653238Y-116197619D01*
X149605619Y-116292857D01*
X149605619Y-116530952D01*
X149653238Y-116626190D01*
X149700857Y-116673809D01*
X149796095Y-116721428D01*
X149986571Y-116721428D01*
X150081809Y-116673809D01*
X150129428Y-116626190D01*
X150177047Y-116530952D01*
X144367523Y-118085714D02*
X144605619Y-118752380D01*
X144843714Y-118085714D01*
X145415142Y-117752380D02*
X145510380Y-117752380D01*
X145605619Y-117800000D01*
X145653238Y-117847619D01*
X145700857Y-117942857D01*
X145748476Y-118133333D01*
X145748476Y-118371428D01*
X145700857Y-118561904D01*
X145653238Y-118657142D01*
X145605619Y-118704761D01*
X145510380Y-118752380D01*
X145415142Y-118752380D01*
X145319904Y-118704761D01*
X145272285Y-118657142D01*
X145224666Y-118561904D01*
X145177047Y-118371428D01*
X145177047Y-118133333D01*
X145224666Y-117942857D01*
X145272285Y-117847619D01*
X145319904Y-117800000D01*
X145415142Y-117752380D01*
X146177047Y-118657142D02*
X146224666Y-118704761D01*
X146177047Y-118752380D01*
X146129428Y-118704761D01*
X146177047Y-118657142D01*
X146177047Y-118752380D01*
X147177047Y-118752380D02*
X146605619Y-118752380D01*
X146891333Y-118752380D02*
X146891333Y-117752380D01*
X146796095Y-117895238D01*
X146700857Y-117990476D01*
X146605619Y-118038095D01*
X147558000Y-117847619D02*
X147605619Y-117800000D01*
X147700857Y-117752380D01*
X147938952Y-117752380D01*
X148034190Y-117800000D01*
X148081809Y-117847619D01*
X148129428Y-117942857D01*
X148129428Y-118038095D01*
X148081809Y-118180952D01*
X147510380Y-118752380D01*
X148129428Y-118752380D01*
X148558000Y-118752380D02*
X148558000Y-118085714D01*
X148558000Y-118180952D02*
X148605619Y-118133333D01*
X148700857Y-118085714D01*
X148843714Y-118085714D01*
X148938952Y-118133333D01*
X148986571Y-118228571D01*
X148986571Y-118752380D01*
X148986571Y-118228571D02*
X149034190Y-118133333D01*
X149129428Y-118085714D01*
X149272285Y-118085714D01*
X149367523Y-118133333D01*
X149415142Y-118228571D01*
X149415142Y-118752380D01*
X139894666Y-123675000D02*
X139894666Y-124241666D01*
X139861333Y-124308333D01*
X139828000Y-124341666D01*
X139761333Y-124375000D01*
X139661333Y-124375000D01*
X139594666Y-124341666D01*
X139894666Y-124108333D02*
X139828000Y-124141666D01*
X139694666Y-124141666D01*
X139628000Y-124108333D01*
X139594666Y-124075000D01*
X139561333Y-124008333D01*
X139561333Y-123808333D01*
X139594666Y-123741666D01*
X139628000Y-123708333D01*
X139694666Y-123675000D01*
X139828000Y-123675000D01*
X139894666Y-123708333D01*
X140228000Y-124141666D02*
X140228000Y-123675000D01*
X140228000Y-123441666D02*
X140194666Y-123475000D01*
X140228000Y-123508333D01*
X140261333Y-123475000D01*
X140228000Y-123441666D01*
X140228000Y-123508333D01*
X140461333Y-123675000D02*
X140728000Y-123675000D01*
X140561333Y-123441666D02*
X140561333Y-124041666D01*
X140594666Y-124108333D01*
X140661333Y-124141666D01*
X140728000Y-124141666D01*
X140961333Y-124141666D02*
X140961333Y-123441666D01*
X141261333Y-124141666D02*
X141261333Y-123775000D01*
X141228000Y-123708333D01*
X141161333Y-123675000D01*
X141061333Y-123675000D01*
X140994666Y-123708333D01*
X140961333Y-123741666D01*
X141894666Y-123675000D02*
X141894666Y-124141666D01*
X141594666Y-123675000D02*
X141594666Y-124041666D01*
X141628000Y-124108333D01*
X141694666Y-124141666D01*
X141794666Y-124141666D01*
X141861333Y-124108333D01*
X141894666Y-124075000D01*
X142228000Y-124141666D02*
X142228000Y-123441666D01*
X142228000Y-123708333D02*
X142294666Y-123675000D01*
X142428000Y-123675000D01*
X142494666Y-123708333D01*
X142528000Y-123741666D01*
X142561333Y-123808333D01*
X142561333Y-124008333D01*
X142528000Y-124075000D01*
X142494666Y-124108333D01*
X142428000Y-124141666D01*
X142294666Y-124141666D01*
X142228000Y-124108333D01*
X142861333Y-124075000D02*
X142894666Y-124108333D01*
X142861333Y-124141666D01*
X142828000Y-124108333D01*
X142861333Y-124075000D01*
X142861333Y-124141666D01*
X143494666Y-124108333D02*
X143428000Y-124141666D01*
X143294666Y-124141666D01*
X143228000Y-124108333D01*
X143194666Y-124075000D01*
X143161333Y-124008333D01*
X143161333Y-123808333D01*
X143194666Y-123741666D01*
X143228000Y-123708333D01*
X143294666Y-123675000D01*
X143428000Y-123675000D01*
X143494666Y-123708333D01*
X143894666Y-124141666D02*
X143828000Y-124108333D01*
X143794666Y-124075000D01*
X143761333Y-124008333D01*
X143761333Y-123808333D01*
X143794666Y-123741666D01*
X143828000Y-123708333D01*
X143894666Y-123675000D01*
X143994666Y-123675000D01*
X144061333Y-123708333D01*
X144094666Y-123741666D01*
X144128000Y-123808333D01*
X144128000Y-124008333D01*
X144094666Y-124075000D01*
X144061333Y-124108333D01*
X143994666Y-124141666D01*
X143894666Y-124141666D01*
X144428000Y-124141666D02*
X144428000Y-123675000D01*
X144428000Y-123741666D02*
X144461333Y-123708333D01*
X144528000Y-123675000D01*
X144628000Y-123675000D01*
X144694666Y-123708333D01*
X144728000Y-123775000D01*
X144728000Y-124141666D01*
X144728000Y-123775000D02*
X144761333Y-123708333D01*
X144828000Y-123675000D01*
X144928000Y-123675000D01*
X144994666Y-123708333D01*
X145028000Y-123775000D01*
X145028000Y-124141666D01*
X145861333Y-123408333D02*
X145261333Y-124308333D01*
X146094666Y-123675000D02*
X146094666Y-124275000D01*
X146061333Y-124341666D01*
X145994666Y-124375000D01*
X145961333Y-124375000D01*
X146094666Y-123441666D02*
X146061333Y-123475000D01*
X146094666Y-123508333D01*
X146128000Y-123475000D01*
X146094666Y-123441666D01*
X146094666Y-123508333D01*
X146728000Y-124141666D02*
X146728000Y-123775000D01*
X146694666Y-123708333D01*
X146628000Y-123675000D01*
X146494666Y-123675000D01*
X146428000Y-123708333D01*
X146728000Y-124108333D02*
X146661333Y-124141666D01*
X146494666Y-124141666D01*
X146428000Y-124108333D01*
X146394666Y-124041666D01*
X146394666Y-123975000D01*
X146428000Y-123908333D01*
X146494666Y-123875000D01*
X146661333Y-123875000D01*
X146728000Y-123841666D01*
X147061333Y-124141666D02*
X147061333Y-123675000D01*
X147061333Y-123741666D02*
X147094666Y-123708333D01*
X147161333Y-123675000D01*
X147261333Y-123675000D01*
X147328000Y-123708333D01*
X147361333Y-123775000D01*
X147361333Y-124141666D01*
X147361333Y-123775000D02*
X147394666Y-123708333D01*
X147461333Y-123675000D01*
X147561333Y-123675000D01*
X147628000Y-123708333D01*
X147661333Y-123775000D01*
X147661333Y-124141666D01*
X147994666Y-124141666D02*
X147994666Y-123441666D01*
X147994666Y-123708333D02*
X148061333Y-123675000D01*
X148194666Y-123675000D01*
X148261333Y-123708333D01*
X148294666Y-123741666D01*
X148328000Y-123808333D01*
X148328000Y-124008333D01*
X148294666Y-124075000D01*
X148261333Y-124108333D01*
X148194666Y-124141666D01*
X148061333Y-124141666D01*
X147994666Y-124108333D01*
X148928000Y-123675000D02*
X148928000Y-124141666D01*
X148628000Y-123675000D02*
X148628000Y-124041666D01*
X148661333Y-124108333D01*
X148728000Y-124141666D01*
X148828000Y-124141666D01*
X148894666Y-124108333D01*
X148928000Y-124075000D01*
X149561333Y-123675000D02*
X149561333Y-124141666D01*
X149261333Y-123675000D02*
X149261333Y-124041666D01*
X149294666Y-124108333D01*
X149361333Y-124141666D01*
X149461333Y-124141666D01*
X149528000Y-124108333D01*
X149561333Y-124075000D01*
X149894666Y-124141666D02*
X149894666Y-123675000D01*
X149894666Y-123808333D02*
X149928000Y-123741666D01*
X149961333Y-123708333D01*
X150028000Y-123675000D01*
X150094666Y-123675000D01*
X150828000Y-123408333D02*
X150228000Y-124308333D01*
X151028000Y-123941666D02*
X151361333Y-123941666D01*
X150961333Y-124141666D02*
X151194666Y-123441666D01*
X151428000Y-124141666D01*
X151661333Y-124141666D02*
X151661333Y-123441666D01*
X151928000Y-123441666D01*
X151994666Y-123475000D01*
X152028000Y-123508333D01*
X152061333Y-123575000D01*
X152061333Y-123675000D01*
X152028000Y-123741666D01*
X151994666Y-123775000D01*
X151928000Y-123808333D01*
X151661333Y-123808333D01*
X152361333Y-123775000D02*
X152594666Y-123775000D01*
X152694666Y-124141666D02*
X152361333Y-124141666D01*
X152361333Y-123441666D01*
X152694666Y-123441666D01*
X152994666Y-124141666D02*
X152994666Y-123441666D01*
X153161333Y-123441666D01*
X153261333Y-123475000D01*
X153328000Y-123541666D01*
X153361333Y-123608333D01*
X153394666Y-123741666D01*
X153394666Y-123841666D01*
X153361333Y-123975000D01*
X153328000Y-124041666D01*
X153261333Y-124108333D01*
X153161333Y-124141666D01*
X152994666Y-124141666D01*
X153661333Y-124108333D02*
X153761333Y-124141666D01*
X153928000Y-124141666D01*
X153994666Y-124108333D01*
X154028000Y-124075000D01*
X154061333Y-124008333D01*
X154061333Y-123941666D01*
X154028000Y-123875000D01*
X153994666Y-123841666D01*
X153928000Y-123808333D01*
X153794666Y-123775000D01*
X153728000Y-123741666D01*
X153694666Y-123708333D01*
X153661333Y-123641666D01*
X153661333Y-123575000D01*
X153694666Y-123508333D01*
X153728000Y-123475000D01*
X153794666Y-123441666D01*
X153961333Y-123441666D01*
X154061333Y-123475000D01*
X154361333Y-124141666D02*
X154361333Y-123441666D01*
X154761333Y-124141666D02*
X154461333Y-123741666D01*
X154761333Y-123441666D02*
X154361333Y-123841666D01*
X155094666Y-124141666D02*
X155228000Y-124141666D01*
X155294666Y-124108333D01*
X155328000Y-124075000D01*
X155394666Y-123975000D01*
X155428000Y-123841666D01*
X155428000Y-123575000D01*
X155394666Y-123508333D01*
X155361333Y-123475000D01*
X155294666Y-123441666D01*
X155161333Y-123441666D01*
X155094666Y-123475000D01*
X155061333Y-123508333D01*
X155028000Y-123575000D01*
X155028000Y-123741666D01*
X155061333Y-123808333D01*
X155094666Y-123841666D01*
X155161333Y-123875000D01*
X155294666Y-123875000D01*
X155361333Y-123841666D01*
X155394666Y-123808333D01*
X155428000Y-123741666D01*
X155761333Y-124141666D02*
X155894666Y-124141666D01*
X155961333Y-124108333D01*
X155994666Y-124075000D01*
X156061333Y-123975000D01*
X156094666Y-123841666D01*
X156094666Y-123575000D01*
X156061333Y-123508333D01*
X156028000Y-123475000D01*
X155961333Y-123441666D01*
X155828000Y-123441666D01*
X155761333Y-123475000D01*
X155728000Y-123508333D01*
X155694666Y-123575000D01*
X155694666Y-123741666D01*
X155728000Y-123808333D01*
X155761333Y-123841666D01*
X155828000Y-123875000D01*
X155961333Y-123875000D01*
X156028000Y-123841666D01*
X156061333Y-123808333D01*
X156094666Y-123741666D01*
X108458000Y-76835000D02*
X108458000Y-75565000D01*
X108458000Y-76835000D02*
X108458000Y-131445000D01*
X117132687Y-76685000D02*
X117074354Y-77151666D01*
X116999354Y-76418333D02*
X116770187Y-76918333D01*
X117203520Y-76918333D01*
X117799354Y-76685000D02*
X117741020Y-77151666D01*
X117666020Y-76418333D02*
X117436854Y-76918333D01*
X117870187Y-76918333D01*
X109512687Y-76685000D02*
X109454354Y-77151666D01*
X109379354Y-76418333D02*
X109150187Y-76918333D01*
X109583520Y-76918333D01*
X109841854Y-76451666D02*
X110275187Y-76451666D01*
X110008520Y-76718333D01*
X110108520Y-76718333D01*
X110171020Y-76751666D01*
X110200187Y-76785000D01*
X110225187Y-76851666D01*
X110204354Y-77018333D01*
X110162687Y-77085000D01*
X110125187Y-77118333D01*
X110054354Y-77151666D01*
X109854354Y-77151666D01*
X109791854Y-77118333D01*
X109762687Y-77085000D01*
X109854354Y-130491666D02*
X109454354Y-130491666D01*
X109654354Y-130491666D02*
X109741854Y-129791666D01*
X109662687Y-129891666D01*
X109587687Y-129958333D01*
X109516854Y-129991666D01*
X156750380Y-129627380D02*
X157417047Y-129627380D01*
X156988476Y-130627380D01*
X158226571Y-129960714D02*
X158226571Y-130627380D01*
X157988476Y-129579761D02*
X157750380Y-130294047D01*
X158369428Y-130294047D01*
X159226571Y-130627380D02*
X158750380Y-130627380D01*
X158750380Y-129627380D01*
X159512285Y-130579761D02*
X159655142Y-130627380D01*
X159893238Y-130627380D01*
X159988476Y-130579761D01*
X160036095Y-130532142D01*
X160083714Y-130436904D01*
X160083714Y-130341666D01*
X160036095Y-130246428D01*
X159988476Y-130198809D01*
X159893238Y-130151190D01*
X159702761Y-130103571D01*
X159607523Y-130055952D01*
X159559904Y-130008333D01*
X159512285Y-129913095D01*
X159512285Y-129817857D01*
X159559904Y-129722619D01*
X159607523Y-129675000D01*
X159702761Y-129627380D01*
X159940857Y-129627380D01*
X160083714Y-129675000D01*
X161226571Y-129579761D02*
X160369428Y-130865476D01*
X161559904Y-130627380D02*
X161559904Y-129627380D01*
X161559904Y-130103571D02*
X162131333Y-130103571D01*
X162131333Y-130627380D02*
X162131333Y-129627380D01*
X163178952Y-130532142D02*
X163131333Y-130579761D01*
X162988476Y-130627380D01*
X162893238Y-130627380D01*
X162750380Y-130579761D01*
X162655142Y-130484523D01*
X162607523Y-130389285D01*
X162559904Y-130198809D01*
X162559904Y-130055952D01*
X162607523Y-129865476D01*
X162655142Y-129770238D01*
X162750380Y-129675000D01*
X162893238Y-129627380D01*
X162988476Y-129627380D01*
X163131333Y-129675000D01*
X163178952Y-129722619D01*
X163464666Y-129627380D02*
X164036095Y-129627380D01*
X163750380Y-130627380D02*
X163750380Y-129627380D01*
X164893238Y-130627380D02*
X164321809Y-130627380D01*
X164607523Y-130627380D02*
X164607523Y-129627380D01*
X164512285Y-129770238D01*
X164417047Y-129865476D01*
X164321809Y-129913095D01*
X165226571Y-129627380D02*
X165845619Y-129627380D01*
X165512285Y-130008333D01*
X165655142Y-130008333D01*
X165750380Y-130055952D01*
X165798000Y-130103571D01*
X165845619Y-130198809D01*
X165845619Y-130436904D01*
X165798000Y-130532142D01*
X165750380Y-130579761D01*
X165655142Y-130627380D01*
X165369428Y-130627380D01*
X165274190Y-130579761D01*
X165226571Y-130532142D01*
X166417047Y-130055952D02*
X166321809Y-130008333D01*
X166274190Y-129960714D01*
X166226571Y-129865476D01*
X166226571Y-129817857D01*
X166274190Y-129722619D01*
X166321809Y-129675000D01*
X166417047Y-129627380D01*
X166607523Y-129627380D01*
X166702761Y-129675000D01*
X166750380Y-129722619D01*
X166798000Y-129817857D01*
X166798000Y-129865476D01*
X166750380Y-129960714D01*
X166702761Y-130008333D01*
X166607523Y-130055952D01*
X166417047Y-130055952D01*
X166321809Y-130103571D01*
X166274190Y-130151190D01*
X166226571Y-130246428D01*
X166226571Y-130436904D01*
X166274190Y-130532142D01*
X166321809Y-130579761D01*
X166417047Y-130627380D01*
X166607523Y-130627380D01*
X166702761Y-130579761D01*
X166750380Y-130532142D01*
X166798000Y-130436904D01*
X166798000Y-130246428D01*
X166750380Y-130151190D01*
X166702761Y-130103571D01*
X166607523Y-130055952D01*
X133135619Y-109133095D02*
X133135619Y-109799761D01*
X132135619Y-109371190D01*
X132802285Y-110609285D02*
X132135619Y-110609285D01*
X133183238Y-110371190D02*
X132468952Y-110133095D01*
X132468952Y-110752142D01*
X132135619Y-111133095D02*
X133135619Y-111133095D01*
X132659428Y-111133095D02*
X132659428Y-111704523D01*
X132135619Y-111704523D02*
X133135619Y-111704523D01*
X132230857Y-112752142D02*
X132183238Y-112704523D01*
X132135619Y-112561666D01*
X132135619Y-112466428D01*
X132183238Y-112323571D01*
X132278476Y-112228333D01*
X132373714Y-112180714D01*
X132564190Y-112133095D01*
X132707047Y-112133095D01*
X132897523Y-112180714D01*
X132992761Y-112228333D01*
X133088000Y-112323571D01*
X133135619Y-112466428D01*
X133135619Y-112561666D01*
X133088000Y-112704523D01*
X133040380Y-112752142D01*
X133135619Y-113656904D02*
X133135619Y-113180714D01*
X132659428Y-113133095D01*
X132707047Y-113180714D01*
X132754666Y-113275952D01*
X132754666Y-113514047D01*
X132707047Y-113609285D01*
X132659428Y-113656904D01*
X132564190Y-113704523D01*
X132326095Y-113704523D01*
X132230857Y-113656904D01*
X132183238Y-113609285D01*
X132135619Y-113514047D01*
X132135619Y-113275952D01*
X132183238Y-113180714D01*
X132230857Y-113133095D01*
X132135619Y-114180714D02*
X132135619Y-114371190D01*
X132183238Y-114466428D01*
X132230857Y-114514047D01*
X132373714Y-114609285D01*
X132564190Y-114656904D01*
X132945142Y-114656904D01*
X133040380Y-114609285D01*
X133088000Y-114561666D01*
X133135619Y-114466428D01*
X133135619Y-114275952D01*
X133088000Y-114180714D01*
X133040380Y-114133095D01*
X132945142Y-114085476D01*
X132707047Y-114085476D01*
X132611809Y-114133095D01*
X132564190Y-114180714D01*
X132516571Y-114275952D01*
X132516571Y-114466428D01*
X132564190Y-114561666D01*
X132611809Y-114609285D01*
X132707047Y-114656904D01*
X133135619Y-115561666D02*
X133135619Y-115085476D01*
X132659428Y-115037857D01*
X132707047Y-115085476D01*
X132754666Y-115180714D01*
X132754666Y-115418809D01*
X132707047Y-115514047D01*
X132659428Y-115561666D01*
X132564190Y-115609285D01*
X132326095Y-115609285D01*
X132230857Y-115561666D01*
X132183238Y-115514047D01*
X132135619Y-115418809D01*
X132135619Y-115180714D01*
X132183238Y-115085476D01*
X132230857Y-115037857D01*
X161075619Y-107863095D02*
X161075619Y-108529761D01*
X160075619Y-108101190D01*
X160742285Y-109339285D02*
X160075619Y-109339285D01*
X161123238Y-109101190D02*
X160408952Y-108863095D01*
X160408952Y-109482142D01*
X160075619Y-109863095D02*
X161075619Y-109863095D01*
X160599428Y-109863095D02*
X160599428Y-110434523D01*
X160075619Y-110434523D02*
X161075619Y-110434523D01*
X160170857Y-111482142D02*
X160123238Y-111434523D01*
X160075619Y-111291666D01*
X160075619Y-111196428D01*
X160123238Y-111053571D01*
X160218476Y-110958333D01*
X160313714Y-110910714D01*
X160504190Y-110863095D01*
X160647047Y-110863095D01*
X160837523Y-110910714D01*
X160932761Y-110958333D01*
X161028000Y-111053571D01*
X161075619Y-111196428D01*
X161075619Y-111291666D01*
X161028000Y-111434523D01*
X160980380Y-111482142D01*
X161075619Y-112386904D02*
X161075619Y-111910714D01*
X160599428Y-111863095D01*
X160647047Y-111910714D01*
X160694666Y-112005952D01*
X160694666Y-112244047D01*
X160647047Y-112339285D01*
X160599428Y-112386904D01*
X160504190Y-112434523D01*
X160266095Y-112434523D01*
X160170857Y-112386904D01*
X160123238Y-112339285D01*
X160075619Y-112244047D01*
X160075619Y-112005952D01*
X160123238Y-111910714D01*
X160170857Y-111863095D01*
X160075619Y-112910714D02*
X160075619Y-113101190D01*
X160123238Y-113196428D01*
X160170857Y-113244047D01*
X160313714Y-113339285D01*
X160504190Y-113386904D01*
X160885142Y-113386904D01*
X160980380Y-113339285D01*
X161028000Y-113291666D01*
X161075619Y-113196428D01*
X161075619Y-113005952D01*
X161028000Y-112910714D01*
X160980380Y-112863095D01*
X160885142Y-112815476D01*
X160647047Y-112815476D01*
X160551809Y-112863095D01*
X160504190Y-112910714D01*
X160456571Y-113005952D01*
X160456571Y-113196428D01*
X160504190Y-113291666D01*
X160551809Y-113339285D01*
X160647047Y-113386904D01*
X161075619Y-114291666D02*
X161075619Y-113815476D01*
X160599428Y-113767857D01*
X160647047Y-113815476D01*
X160694666Y-113910714D01*
X160694666Y-114148809D01*
X160647047Y-114244047D01*
X160599428Y-114291666D01*
X160504190Y-114339285D01*
X160266095Y-114339285D01*
X160170857Y-114291666D01*
X160123238Y-114244047D01*
X160075619Y-114148809D01*
X160075619Y-113910714D01*
X160123238Y-113815476D01*
X160170857Y-113767857D01*
X161075619Y-76867380D02*
X161075619Y-77534047D01*
X160075619Y-77105476D01*
X160742285Y-78343571D02*
X160075619Y-78343571D01*
X161123238Y-78105476D02*
X160408952Y-77867380D01*
X160408952Y-78486428D01*
X160075619Y-79343571D02*
X160075619Y-78867380D01*
X161075619Y-78867380D01*
X160123238Y-79629285D02*
X160075619Y-79772142D01*
X160075619Y-80010238D01*
X160123238Y-80105476D01*
X160170857Y-80153095D01*
X160266095Y-80200714D01*
X160361333Y-80200714D01*
X160456571Y-80153095D01*
X160504190Y-80105476D01*
X160551809Y-80010238D01*
X160599428Y-79819761D01*
X160647047Y-79724523D01*
X160694666Y-79676904D01*
X160789904Y-79629285D01*
X160885142Y-79629285D01*
X160980380Y-79676904D01*
X161028000Y-79724523D01*
X161075619Y-79819761D01*
X161075619Y-80057857D01*
X161028000Y-80200714D01*
X161123238Y-81343571D02*
X159837523Y-80486428D01*
X160075619Y-81676904D02*
X161075619Y-81676904D01*
X160599428Y-81676904D02*
X160599428Y-82248333D01*
X160075619Y-82248333D02*
X161075619Y-82248333D01*
X160170857Y-83295952D02*
X160123238Y-83248333D01*
X160075619Y-83105476D01*
X160075619Y-83010238D01*
X160123238Y-82867380D01*
X160218476Y-82772142D01*
X160313714Y-82724523D01*
X160504190Y-82676904D01*
X160647047Y-82676904D01*
X160837523Y-82724523D01*
X160932761Y-82772142D01*
X161028000Y-82867380D01*
X161075619Y-83010238D01*
X161075619Y-83105476D01*
X161028000Y-83248333D01*
X160980380Y-83295952D01*
X161075619Y-83581666D02*
X161075619Y-84153095D01*
X160075619Y-83867380D02*
X161075619Y-83867380D01*
X161075619Y-84962619D02*
X161075619Y-84486428D01*
X160599428Y-84438809D01*
X160647047Y-84486428D01*
X160694666Y-84581666D01*
X160694666Y-84819761D01*
X160647047Y-84915000D01*
X160599428Y-84962619D01*
X160504190Y-85010238D01*
X160266095Y-85010238D01*
X160170857Y-84962619D01*
X160123238Y-84915000D01*
X160075619Y-84819761D01*
X160075619Y-84581666D01*
X160123238Y-84486428D01*
X160170857Y-84438809D01*
X160742285Y-85867380D02*
X160075619Y-85867380D01*
X161123238Y-85629285D02*
X160408952Y-85391190D01*
X160408952Y-86010238D01*
X160075619Y-86915000D02*
X160075619Y-86343571D01*
X160075619Y-86629285D02*
X161075619Y-86629285D01*
X160932761Y-86534047D01*
X160837523Y-86438809D01*
X160789904Y-86343571D01*
X146105619Y-91376904D02*
X147105619Y-91376904D01*
X146629428Y-91376904D02*
X146629428Y-91948333D01*
X146105619Y-91948333D02*
X147105619Y-91948333D01*
X146105619Y-92424523D02*
X147105619Y-92424523D01*
X146391333Y-92757857D01*
X147105619Y-93091190D01*
X146105619Y-93091190D01*
X147105619Y-93995952D02*
X147105619Y-93805476D01*
X147058000Y-93710238D01*
X147010380Y-93662619D01*
X146867523Y-93567380D01*
X146677047Y-93519761D01*
X146296095Y-93519761D01*
X146200857Y-93567380D01*
X146153238Y-93615000D01*
X146105619Y-93710238D01*
X146105619Y-93900714D01*
X146153238Y-93995952D01*
X146200857Y-94043571D01*
X146296095Y-94091190D01*
X146534190Y-94091190D01*
X146629428Y-94043571D01*
X146677047Y-93995952D01*
X146724666Y-93900714D01*
X146724666Y-93710238D01*
X146677047Y-93615000D01*
X146629428Y-93567380D01*
X146534190Y-93519761D01*
X147105619Y-94995952D02*
X147105619Y-94519761D01*
X146629428Y-94472142D01*
X146677047Y-94519761D01*
X146724666Y-94615000D01*
X146724666Y-94853095D01*
X146677047Y-94948333D01*
X146629428Y-94995952D01*
X146534190Y-95043571D01*
X146296095Y-95043571D01*
X146200857Y-94995952D01*
X146153238Y-94948333D01*
X146105619Y-94853095D01*
X146105619Y-94615000D01*
X146153238Y-94519761D01*
X146200857Y-94472142D01*
X147105619Y-95376904D02*
X147105619Y-96043571D01*
X146105619Y-95615000D01*
X147105619Y-96853095D02*
X147105619Y-96662619D01*
X147058000Y-96567380D01*
X147010380Y-96519761D01*
X146867523Y-96424523D01*
X146677047Y-96376904D01*
X146296095Y-96376904D01*
X146200857Y-96424523D01*
X146153238Y-96472142D01*
X146105619Y-96567380D01*
X146105619Y-96757857D01*
X146153238Y-96853095D01*
X146200857Y-96900714D01*
X146296095Y-96948333D01*
X146534190Y-96948333D01*
X146629428Y-96900714D01*
X146677047Y-96853095D01*
X146724666Y-96757857D01*
X146724666Y-96567380D01*
X146677047Y-96472142D01*
X146629428Y-96424523D01*
X146534190Y-96376904D01*
X146772285Y-97805476D02*
X146105619Y-97805476D01*
X147153238Y-97567380D02*
X146438952Y-97329285D01*
X146438952Y-97948333D01*
X133135619Y-78137380D02*
X133135619Y-78804047D01*
X132135619Y-78375476D01*
X132802285Y-79613571D02*
X132135619Y-79613571D01*
X133183238Y-79375476D02*
X132468952Y-79137380D01*
X132468952Y-79756428D01*
X132135619Y-80613571D02*
X132135619Y-80137380D01*
X133135619Y-80137380D01*
X132183238Y-80899285D02*
X132135619Y-81042142D01*
X132135619Y-81280238D01*
X132183238Y-81375476D01*
X132230857Y-81423095D01*
X132326095Y-81470714D01*
X132421333Y-81470714D01*
X132516571Y-81423095D01*
X132564190Y-81375476D01*
X132611809Y-81280238D01*
X132659428Y-81089761D01*
X132707047Y-80994523D01*
X132754666Y-80946904D01*
X132849904Y-80899285D01*
X132945142Y-80899285D01*
X133040380Y-80946904D01*
X133088000Y-80994523D01*
X133135619Y-81089761D01*
X133135619Y-81327857D01*
X133088000Y-81470714D01*
X133183238Y-82613571D02*
X131897523Y-81756428D01*
X132135619Y-82946904D02*
X133135619Y-82946904D01*
X132659428Y-82946904D02*
X132659428Y-83518333D01*
X132135619Y-83518333D02*
X133135619Y-83518333D01*
X132230857Y-84565952D02*
X132183238Y-84518333D01*
X132135619Y-84375476D01*
X132135619Y-84280238D01*
X132183238Y-84137380D01*
X132278476Y-84042142D01*
X132373714Y-83994523D01*
X132564190Y-83946904D01*
X132707047Y-83946904D01*
X132897523Y-83994523D01*
X132992761Y-84042142D01*
X133088000Y-84137380D01*
X133135619Y-84280238D01*
X133135619Y-84375476D01*
X133088000Y-84518333D01*
X133040380Y-84565952D01*
X133135619Y-84851666D02*
X133135619Y-85423095D01*
X132135619Y-85137380D02*
X133135619Y-85137380D01*
X133135619Y-86232619D02*
X133135619Y-85756428D01*
X132659428Y-85708809D01*
X132707047Y-85756428D01*
X132754666Y-85851666D01*
X132754666Y-86089761D01*
X132707047Y-86185000D01*
X132659428Y-86232619D01*
X132564190Y-86280238D01*
X132326095Y-86280238D01*
X132230857Y-86232619D01*
X132183238Y-86185000D01*
X132135619Y-86089761D01*
X132135619Y-85851666D01*
X132183238Y-85756428D01*
X132230857Y-85708809D01*
X132802285Y-87137380D02*
X132135619Y-87137380D01*
X133183238Y-86899285D02*
X132468952Y-86661190D01*
X132468952Y-87280238D01*
X132135619Y-88185000D02*
X132135619Y-87613571D01*
X132135619Y-87899285D02*
X133135619Y-87899285D01*
X132992761Y-87804047D01*
X132897523Y-87708809D01*
X132849904Y-87613571D01*
X128810380Y-129627380D02*
X129477047Y-129627380D01*
X129048476Y-130627380D01*
X130286571Y-129960714D02*
X130286571Y-130627380D01*
X130048476Y-129579761D02*
X129810380Y-130294047D01*
X130429428Y-130294047D01*
X131286571Y-130627380D02*
X130810380Y-130627380D01*
X130810380Y-129627380D01*
X131572285Y-130579761D02*
X131715142Y-130627380D01*
X131953238Y-130627380D01*
X132048476Y-130579761D01*
X132096095Y-130532142D01*
X132143714Y-130436904D01*
X132143714Y-130341666D01*
X132096095Y-130246428D01*
X132048476Y-130198809D01*
X131953238Y-130151190D01*
X131762761Y-130103571D01*
X131667523Y-130055952D01*
X131619904Y-130008333D01*
X131572285Y-129913095D01*
X131572285Y-129817857D01*
X131619904Y-129722619D01*
X131667523Y-129675000D01*
X131762761Y-129627380D01*
X132000857Y-129627380D01*
X132143714Y-129675000D01*
X133286571Y-129579761D02*
X132429428Y-130865476D01*
X133619904Y-130627380D02*
X133619904Y-129627380D01*
X133619904Y-130103571D02*
X134191333Y-130103571D01*
X134191333Y-130627380D02*
X134191333Y-129627380D01*
X135238952Y-130532142D02*
X135191333Y-130579761D01*
X135048476Y-130627380D01*
X134953238Y-130627380D01*
X134810380Y-130579761D01*
X134715142Y-130484523D01*
X134667523Y-130389285D01*
X134619904Y-130198809D01*
X134619904Y-130055952D01*
X134667523Y-129865476D01*
X134715142Y-129770238D01*
X134810380Y-129675000D01*
X134953238Y-129627380D01*
X135048476Y-129627380D01*
X135191333Y-129675000D01*
X135238952Y-129722619D01*
X135524666Y-129627380D02*
X136096095Y-129627380D01*
X135810380Y-130627380D02*
X135810380Y-129627380D01*
X136381809Y-129722619D02*
X136429428Y-129675000D01*
X136524666Y-129627380D01*
X136762761Y-129627380D01*
X136858000Y-129675000D01*
X136905619Y-129722619D01*
X136953238Y-129817857D01*
X136953238Y-129913095D01*
X136905619Y-130055952D01*
X136334190Y-130627380D01*
X136953238Y-130627380D01*
X137810380Y-129960714D02*
X137810380Y-130627380D01*
X137572285Y-129579761D02*
X137334190Y-130294047D01*
X137953238Y-130294047D01*
X138810380Y-129627380D02*
X138334190Y-129627380D01*
X138286571Y-130103571D01*
X138334190Y-130055952D01*
X138429428Y-130008333D01*
X138667523Y-130008333D01*
X138762761Y-130055952D01*
X138810380Y-130103571D01*
X138858000Y-130198809D01*
X138858000Y-130436904D01*
X138810380Y-130532142D01*
X138762761Y-130579761D01*
X138667523Y-130627380D01*
X138429428Y-130627380D01*
X138334190Y-130579761D01*
X138286571Y-130532142D01*
X170449904Y-123991666D02*
X170926095Y-123991666D01*
X170354666Y-124277380D02*
X170688000Y-123277380D01*
X171021333Y-124277380D01*
X117153520Y-129858333D02*
X117191020Y-129825000D01*
X117261854Y-129791666D01*
X117428520Y-129791666D01*
X117491020Y-129825000D01*
X117520187Y-129858333D01*
X117545187Y-129925000D01*
X117536854Y-129991666D01*
X117491020Y-130091666D01*
X117041020Y-130491666D01*
X117474354Y-130491666D01*
D11*
X167798000Y-116205000D02*
X170958000Y-116205000D01*
X167798000Y-116205000D02*
G75*
G03X167798000Y-116205000I-920000J0D01*
G01*
X168148000Y-111475000D02*
X168148000Y-108315000D01*
X169068000Y-112395000D02*
G75*
G03X169068000Y-112395000I-920000J0D01*
G01*
X168148000Y-103855000D02*
X168148000Y-100695000D01*
X169068000Y-104775000D02*
G75*
G03X169068000Y-104775000I-920000J0D01*
G01*
X168148000Y-92995000D02*
X168148000Y-96155000D01*
X169068000Y-92075000D02*
G75*
G03X169068000Y-92075000I-920000J0D01*
G01*
X168148000Y-84255000D02*
X168148000Y-81845000D01*
X169618000Y-85725000D02*
G75*
G03X169618000Y-85725000I-1470000J0D01*
G01*
X151578000Y-127525000D02*
X151578000Y-129175000D01*
X172018000Y-127525000D02*
X151578000Y-127525000D01*
X172018000Y-132825000D02*
X172018000Y-127525000D01*
X151578000Y-132825000D02*
X172018000Y-132825000D01*
X151578000Y-131175000D02*
X151578000Y-132825000D01*
X151578000Y-129175000D02*
G75*
G02X151578000Y-131175000I0J-1000000D01*
G01*
X121098000Y-127525000D02*
X121098000Y-129175000D01*
X146618000Y-127525000D02*
X121098000Y-127525000D01*
X146618000Y-132825000D02*
X146618000Y-127525000D01*
X121098000Y-132825000D02*
X146618000Y-132825000D01*
X121098000Y-131175000D02*
X121098000Y-132825000D01*
X121098000Y-129175000D02*
G75*
G02X121098000Y-131175000I0J-1000000D01*
G01*
X120808000Y-125704000D02*
X120808000Y-124446000D01*
X118968000Y-125704000D02*
X118968000Y-124446000D01*
X135238000Y-71695000D02*
X133588000Y-71695000D01*
X135238000Y-97215000D02*
X135238000Y-71695000D01*
X129938000Y-97215000D02*
X135238000Y-97215000D01*
X129938000Y-71695000D02*
X129938000Y-97215000D01*
X131588000Y-71695000D02*
X129938000Y-71695000D01*
X133588000Y-71695000D02*
G75*
G02X131588000Y-71695000I-1000000J0D01*
G01*
X135238000Y-102175000D02*
X133588000Y-102175000D01*
X135238000Y-122615000D02*
X135238000Y-102175000D01*
X129938000Y-122615000D02*
X135238000Y-122615000D01*
X129938000Y-102175000D02*
X129938000Y-122615000D01*
X131588000Y-102175000D02*
X129938000Y-102175000D01*
X133588000Y-102175000D02*
G75*
G02X131588000Y-102175000I-1000000J0D01*
G01*
D10*
X124968000Y-89535000D02*
X124968000Y-71755000D01*
X124968000Y-71755000D02*
X122428000Y-71755000D01*
X122428000Y-71755000D02*
X122428000Y-89535000D01*
X125248000Y-92355000D02*
X125248000Y-90805000D01*
X124968000Y-89535000D02*
X122428000Y-89535000D01*
X122148000Y-90805000D02*
X122148000Y-92355000D01*
X122148000Y-92355000D02*
X125248000Y-92355000D01*
D11*
X149208000Y-78045000D02*
X147558000Y-78045000D01*
X149208000Y-113725000D02*
X149208000Y-78045000D01*
X143908000Y-113725000D02*
X149208000Y-113725000D01*
X143908000Y-78045000D02*
X143908000Y-113725000D01*
X145558000Y-78045000D02*
X143908000Y-78045000D01*
X147558000Y-78045000D02*
G75*
G02X145558000Y-78045000I-1000000J0D01*
G01*
X163178000Y-100905000D02*
X161528000Y-100905000D01*
X163178000Y-121345000D02*
X163178000Y-100905000D01*
X157878000Y-121345000D02*
X163178000Y-121345000D01*
X157878000Y-100905000D02*
X157878000Y-121345000D01*
X159528000Y-100905000D02*
X157878000Y-100905000D01*
X161528000Y-100905000D02*
G75*
G02X159528000Y-100905000I-1000000J0D01*
G01*
X163178000Y-70425000D02*
X161528000Y-70425000D01*
X163178000Y-95945000D02*
X163178000Y-70425000D01*
X157878000Y-95945000D02*
X163178000Y-95945000D01*
X157878000Y-70425000D02*
X157878000Y-95945000D01*
X159528000Y-70425000D02*
X157878000Y-70425000D01*
X161528000Y-70425000D02*
G75*
G02X159528000Y-70425000I-1000000J0D01*
G01*
X167948000Y-122365000D02*
X167948000Y-122545000D01*
X167948000Y-120025000D02*
X167948000Y-120205000D01*
X167828000Y-122365000D02*
X167828000Y-122545000D01*
X167828000Y-120025000D02*
X167828000Y-120205000D01*
X171128000Y-122380000D02*
X171128000Y-122545000D01*
X171128000Y-120025000D02*
X171128000Y-120190000D01*
X167708000Y-122365000D02*
X167708000Y-122545000D01*
X167708000Y-120025000D02*
X167708000Y-120205000D01*
X167708000Y-122545000D02*
X171128000Y-122545000D01*
X167708000Y-120025000D02*
X171128000Y-120025000D01*
X151288000Y-130824000D02*
X151288000Y-129566000D01*
X149448000Y-130824000D02*
X149448000Y-129566000D01*
X159919000Y-99345000D02*
X161177000Y-99345000D01*
X159919000Y-97505000D02*
X161177000Y-97505000D01*
X169068000Y-72364000D02*
X169068000Y-71106000D01*
X167228000Y-72364000D02*
X167228000Y-71106000D01*
X149747000Y-73375000D02*
X148489000Y-73375000D01*
X149747000Y-75215000D02*
X148489000Y-75215000D01*
X141128000Y-72364000D02*
X141128000Y-71106000D01*
X139288000Y-72364000D02*
X139288000Y-71106000D01*
X133237000Y-98775000D02*
X131979000Y-98775000D01*
X133237000Y-100615000D02*
X131979000Y-100615000D01*
D10*
X173228000Y-107315000D02*
X173228000Y-89535000D01*
X173228000Y-89535000D02*
X170688000Y-89535000D01*
X170688000Y-89535000D02*
X170688000Y-107315000D01*
X173508000Y-110135000D02*
X173508000Y-108585000D01*
X173228000Y-107315000D02*
X170688000Y-107315000D01*
X170408000Y-108585000D02*
X170408000Y-110135000D01*
X170408000Y-110135000D02*
X173508000Y-110135000D01*
X173228000Y-84455000D02*
X173228000Y-71755000D01*
X173228000Y-71755000D02*
X170688000Y-71755000D01*
X170688000Y-71755000D02*
X170688000Y-84455000D01*
X173508000Y-87275000D02*
X173508000Y-85725000D01*
X173228000Y-84455000D02*
X170688000Y-84455000D01*
X170408000Y-85725000D02*
X170408000Y-87275000D01*
X170408000Y-87275000D02*
X173508000Y-87275000D01*
X124968000Y-116459000D02*
X124968000Y-93599000D01*
X124968000Y-93599000D02*
X122428000Y-93599000D01*
X122428000Y-93599000D02*
X122428000Y-116459000D01*
X125248000Y-119279000D02*
X125248000Y-117729000D01*
X124968000Y-116459000D02*
X122428000Y-116459000D01*
X122148000Y-117729000D02*
X122148000Y-119279000D01*
X122148000Y-119279000D02*
X125248000Y-119279000D01*
X169251333Y-116657380D02*
X168918000Y-116181190D01*
X168679904Y-116657380D02*
X168679904Y-115657380D01*
X169060857Y-115657380D01*
X169156095Y-115705000D01*
X169203714Y-115752619D01*
X169251333Y-115847857D01*
X169251333Y-115990714D01*
X169203714Y-116085952D01*
X169156095Y-116133571D01*
X169060857Y-116181190D01*
X168679904Y-116181190D01*
X170108476Y-115990714D02*
X170108476Y-116657380D01*
X169870380Y-115609761D02*
X169632285Y-116324047D01*
X170251333Y-116324047D01*
X168600380Y-110021666D02*
X168124190Y-110355000D01*
X168600380Y-110593095D02*
X167600380Y-110593095D01*
X167600380Y-110212142D01*
X167648000Y-110116904D01*
X167695619Y-110069285D01*
X167790857Y-110021666D01*
X167933714Y-110021666D01*
X168028952Y-110069285D01*
X168076571Y-110116904D01*
X168124190Y-110212142D01*
X168124190Y-110593095D01*
X167600380Y-109688333D02*
X167600380Y-109069285D01*
X167981333Y-109402619D01*
X167981333Y-109259761D01*
X168028952Y-109164523D01*
X168076571Y-109116904D01*
X168171809Y-109069285D01*
X168409904Y-109069285D01*
X168505142Y-109116904D01*
X168552761Y-109164523D01*
X168600380Y-109259761D01*
X168600380Y-109545476D01*
X168552761Y-109640714D01*
X168505142Y-109688333D01*
X168600380Y-102401666D02*
X168124190Y-102735000D01*
X168600380Y-102973095D02*
X167600380Y-102973095D01*
X167600380Y-102592142D01*
X167648000Y-102496904D01*
X167695619Y-102449285D01*
X167790857Y-102401666D01*
X167933714Y-102401666D01*
X168028952Y-102449285D01*
X168076571Y-102496904D01*
X168124190Y-102592142D01*
X168124190Y-102973095D01*
X167695619Y-102020714D02*
X167648000Y-101973095D01*
X167600380Y-101877857D01*
X167600380Y-101639761D01*
X167648000Y-101544523D01*
X167695619Y-101496904D01*
X167790857Y-101449285D01*
X167886095Y-101449285D01*
X168028952Y-101496904D01*
X168600380Y-102068333D01*
X168600380Y-101449285D01*
X168600380Y-94781666D02*
X168124190Y-95115000D01*
X168600380Y-95353095D02*
X167600380Y-95353095D01*
X167600380Y-94972142D01*
X167648000Y-94876904D01*
X167695619Y-94829285D01*
X167790857Y-94781666D01*
X167933714Y-94781666D01*
X168028952Y-94829285D01*
X168076571Y-94876904D01*
X168124190Y-94972142D01*
X168124190Y-95353095D01*
X168600380Y-93829285D02*
X168600380Y-94400714D01*
X168600380Y-94115000D02*
X167600380Y-94115000D01*
X167743238Y-94210238D01*
X167838476Y-94305476D01*
X167886095Y-94400714D01*
X168600380Y-83923095D02*
X167600380Y-83923095D01*
X167600380Y-83685000D01*
X167648000Y-83542142D01*
X167743238Y-83446904D01*
X167838476Y-83399285D01*
X168028952Y-83351666D01*
X168171809Y-83351666D01*
X168362285Y-83399285D01*
X168457523Y-83446904D01*
X168552761Y-83542142D01*
X168600380Y-83685000D01*
X168600380Y-83923095D01*
X167695619Y-82970714D02*
X167648000Y-82923095D01*
X167600380Y-82827857D01*
X167600380Y-82589761D01*
X167648000Y-82494523D01*
X167695619Y-82446904D01*
X167790857Y-82399285D01*
X167886095Y-82399285D01*
X168028952Y-82446904D01*
X168600380Y-83018333D01*
X168600380Y-82399285D01*
X169584666Y-79613095D02*
X169584666Y-79136904D01*
X169870380Y-79708333D02*
X168870380Y-79375000D01*
X169870380Y-79041666D01*
X153630380Y-130936904D02*
X154439904Y-130936904D01*
X154535142Y-130889285D01*
X154582761Y-130841666D01*
X154630380Y-130746428D01*
X154630380Y-130555952D01*
X154582761Y-130460714D01*
X154535142Y-130413095D01*
X154439904Y-130365476D01*
X153630380Y-130365476D01*
X153963714Y-129460714D02*
X154630380Y-129460714D01*
X153582761Y-129698809D02*
X154297047Y-129936904D01*
X154297047Y-129317857D01*
X123150380Y-130936904D02*
X123959904Y-130936904D01*
X124055142Y-130889285D01*
X124102761Y-130841666D01*
X124150380Y-130746428D01*
X124150380Y-130555952D01*
X124102761Y-130460714D01*
X124055142Y-130413095D01*
X123959904Y-130365476D01*
X123150380Y-130365476D01*
X124150380Y-129365476D02*
X124150380Y-129936904D01*
X124150380Y-129651190D02*
X123150380Y-129651190D01*
X123293238Y-129746428D01*
X123388476Y-129841666D01*
X123436095Y-129936904D01*
X122261333Y-124182142D02*
X122213714Y-124229761D01*
X122070857Y-124277380D01*
X121975619Y-124277380D01*
X121832761Y-124229761D01*
X121737523Y-124134523D01*
X121689904Y-124039285D01*
X121642285Y-123848809D01*
X121642285Y-123705952D01*
X121689904Y-123515476D01*
X121737523Y-123420238D01*
X121832761Y-123325000D01*
X121975619Y-123277380D01*
X122070857Y-123277380D01*
X122213714Y-123325000D01*
X122261333Y-123372619D01*
X123213714Y-124277380D02*
X122642285Y-124277380D01*
X122928000Y-124277380D02*
X122928000Y-123277380D01*
X122832761Y-123420238D01*
X122737523Y-123515476D01*
X122642285Y-123563095D01*
X131826095Y-73747380D02*
X131826095Y-74556904D01*
X131873714Y-74652142D01*
X131921333Y-74699761D01*
X132016571Y-74747380D01*
X132207047Y-74747380D01*
X132302285Y-74699761D01*
X132349904Y-74652142D01*
X132397523Y-74556904D01*
X132397523Y-73747380D01*
X132826095Y-73842619D02*
X132873714Y-73795000D01*
X132968952Y-73747380D01*
X133207047Y-73747380D01*
X133302285Y-73795000D01*
X133349904Y-73842619D01*
X133397523Y-73937857D01*
X133397523Y-74033095D01*
X133349904Y-74175952D01*
X132778476Y-74747380D01*
X133397523Y-74747380D01*
X131826095Y-104227380D02*
X131826095Y-105036904D01*
X131873714Y-105132142D01*
X131921333Y-105179761D01*
X132016571Y-105227380D01*
X132207047Y-105227380D01*
X132302285Y-105179761D01*
X132349904Y-105132142D01*
X132397523Y-105036904D01*
X132397523Y-104227380D01*
X133349904Y-104227380D02*
X132873714Y-104227380D01*
X132826095Y-104703571D01*
X132873714Y-104655952D01*
X132968952Y-104608333D01*
X133207047Y-104608333D01*
X133302285Y-104655952D01*
X133349904Y-104703571D01*
X133397523Y-104798809D01*
X133397523Y-105036904D01*
X133349904Y-105132142D01*
X133302285Y-105179761D01*
X133207047Y-105227380D01*
X132968952Y-105227380D01*
X132873714Y-105179761D01*
X132826095Y-105132142D01*
X145796095Y-80097380D02*
X145796095Y-80906904D01*
X145843714Y-81002142D01*
X145891333Y-81049761D01*
X145986571Y-81097380D01*
X146177047Y-81097380D01*
X146272285Y-81049761D01*
X146319904Y-81002142D01*
X146367523Y-80906904D01*
X146367523Y-80097380D01*
X146748476Y-80097380D02*
X147415142Y-80097380D01*
X146986571Y-81097380D01*
X159766095Y-102957380D02*
X159766095Y-103766904D01*
X159813714Y-103862142D01*
X159861333Y-103909761D01*
X159956571Y-103957380D01*
X160147047Y-103957380D01*
X160242285Y-103909761D01*
X160289904Y-103862142D01*
X160337523Y-103766904D01*
X160337523Y-102957380D01*
X161242285Y-102957380D02*
X161051809Y-102957380D01*
X160956571Y-103005000D01*
X160908952Y-103052619D01*
X160813714Y-103195476D01*
X160766095Y-103385952D01*
X160766095Y-103766904D01*
X160813714Y-103862142D01*
X160861333Y-103909761D01*
X160956571Y-103957380D01*
X161147047Y-103957380D01*
X161242285Y-103909761D01*
X161289904Y-103862142D01*
X161337523Y-103766904D01*
X161337523Y-103528809D01*
X161289904Y-103433571D01*
X161242285Y-103385952D01*
X161147047Y-103338333D01*
X160956571Y-103338333D01*
X160861333Y-103385952D01*
X160813714Y-103433571D01*
X160766095Y-103528809D01*
X159766095Y-72477380D02*
X159766095Y-73286904D01*
X159813714Y-73382142D01*
X159861333Y-73429761D01*
X159956571Y-73477380D01*
X160147047Y-73477380D01*
X160242285Y-73429761D01*
X160289904Y-73382142D01*
X160337523Y-73286904D01*
X160337523Y-72477380D01*
X160718476Y-72477380D02*
X161337523Y-72477380D01*
X161004190Y-72858333D01*
X161147047Y-72858333D01*
X161242285Y-72905952D01*
X161289904Y-72953571D01*
X161337523Y-73048809D01*
X161337523Y-73286904D01*
X161289904Y-73382142D01*
X161242285Y-73429761D01*
X161147047Y-73477380D01*
X160861333Y-73477380D01*
X160766095Y-73429761D01*
X160718476Y-73382142D01*
X168679904Y-119477380D02*
X168679904Y-118477380D01*
X168918000Y-118477380D01*
X169060857Y-118525000D01*
X169156095Y-118620238D01*
X169203714Y-118715476D01*
X169251333Y-118905952D01*
X169251333Y-119048809D01*
X169203714Y-119239285D01*
X169156095Y-119334523D01*
X169060857Y-119429761D01*
X168918000Y-119477380D01*
X168679904Y-119477380D01*
X170203714Y-119477380D02*
X169632285Y-119477380D01*
X169918000Y-119477380D02*
X169918000Y-118477380D01*
X169822761Y-118620238D01*
X169727523Y-118715476D01*
X169632285Y-118763095D01*
X150201333Y-126722142D02*
X150153714Y-126769761D01*
X150010857Y-126817380D01*
X149915619Y-126817380D01*
X149772761Y-126769761D01*
X149677523Y-126674523D01*
X149629904Y-126579285D01*
X149582285Y-126388809D01*
X149582285Y-126245952D01*
X149629904Y-126055476D01*
X149677523Y-125960238D01*
X149772761Y-125865000D01*
X149915619Y-125817380D01*
X150010857Y-125817380D01*
X150153714Y-125865000D01*
X150201333Y-125912619D01*
X151058476Y-126150714D02*
X151058476Y-126817380D01*
X150820380Y-125769761D02*
X150582285Y-126484047D01*
X151201333Y-126484047D01*
X156551333Y-98782142D02*
X156503714Y-98829761D01*
X156360857Y-98877380D01*
X156265619Y-98877380D01*
X156122761Y-98829761D01*
X156027523Y-98734523D01*
X155979904Y-98639285D01*
X155932285Y-98448809D01*
X155932285Y-98305952D01*
X155979904Y-98115476D01*
X156027523Y-98020238D01*
X156122761Y-97925000D01*
X156265619Y-97877380D01*
X156360857Y-97877380D01*
X156503714Y-97925000D01*
X156551333Y-97972619D01*
X157408476Y-97877380D02*
X157218000Y-97877380D01*
X157122761Y-97925000D01*
X157075142Y-97972619D01*
X156979904Y-98115476D01*
X156932285Y-98305952D01*
X156932285Y-98686904D01*
X156979904Y-98782142D01*
X157027523Y-98829761D01*
X157122761Y-98877380D01*
X157313238Y-98877380D01*
X157408476Y-98829761D01*
X157456095Y-98782142D01*
X157503714Y-98686904D01*
X157503714Y-98448809D01*
X157456095Y-98353571D01*
X157408476Y-98305952D01*
X157313238Y-98258333D01*
X157122761Y-98258333D01*
X157027523Y-98305952D01*
X156979904Y-98353571D01*
X156932285Y-98448809D01*
X165441333Y-69572142D02*
X165393714Y-69619761D01*
X165250857Y-69667380D01*
X165155619Y-69667380D01*
X165012761Y-69619761D01*
X164917523Y-69524523D01*
X164869904Y-69429285D01*
X164822285Y-69238809D01*
X164822285Y-69095952D01*
X164869904Y-68905476D01*
X164917523Y-68810238D01*
X165012761Y-68715000D01*
X165155619Y-68667380D01*
X165250857Y-68667380D01*
X165393714Y-68715000D01*
X165441333Y-68762619D01*
X165774666Y-68667380D02*
X166393714Y-68667380D01*
X166060380Y-69048333D01*
X166203238Y-69048333D01*
X166298476Y-69095952D01*
X166346095Y-69143571D01*
X166393714Y-69238809D01*
X166393714Y-69476904D01*
X166346095Y-69572142D01*
X166298476Y-69619761D01*
X166203238Y-69667380D01*
X165917523Y-69667380D01*
X165822285Y-69619761D01*
X165774666Y-69572142D01*
X148951333Y-72112142D02*
X148903714Y-72159761D01*
X148760857Y-72207380D01*
X148665619Y-72207380D01*
X148522761Y-72159761D01*
X148427523Y-72064523D01*
X148379904Y-71969285D01*
X148332285Y-71778809D01*
X148332285Y-71635952D01*
X148379904Y-71445476D01*
X148427523Y-71350238D01*
X148522761Y-71255000D01*
X148665619Y-71207380D01*
X148760857Y-71207380D01*
X148903714Y-71255000D01*
X148951333Y-71302619D01*
X149284666Y-71207380D02*
X149951333Y-71207380D01*
X149522761Y-72207380D01*
X142581333Y-72112142D02*
X142533714Y-72159761D01*
X142390857Y-72207380D01*
X142295619Y-72207380D01*
X142152761Y-72159761D01*
X142057523Y-72064523D01*
X142009904Y-71969285D01*
X141962285Y-71778809D01*
X141962285Y-71635952D01*
X142009904Y-71445476D01*
X142057523Y-71350238D01*
X142152761Y-71255000D01*
X142295619Y-71207380D01*
X142390857Y-71207380D01*
X142533714Y-71255000D01*
X142581333Y-71302619D01*
X142962285Y-71302619D02*
X143009904Y-71255000D01*
X143105142Y-71207380D01*
X143343238Y-71207380D01*
X143438476Y-71255000D01*
X143486095Y-71302619D01*
X143533714Y-71397857D01*
X143533714Y-71493095D01*
X143486095Y-71635952D01*
X142914666Y-72207380D01*
X143533714Y-72207380D01*
X136231333Y-100052142D02*
X136183714Y-100099761D01*
X136040857Y-100147380D01*
X135945619Y-100147380D01*
X135802761Y-100099761D01*
X135707523Y-100004523D01*
X135659904Y-99909285D01*
X135612285Y-99718809D01*
X135612285Y-99575952D01*
X135659904Y-99385476D01*
X135707523Y-99290238D01*
X135802761Y-99195000D01*
X135945619Y-99147380D01*
X136040857Y-99147380D01*
X136183714Y-99195000D01*
X136231333Y-99242619D01*
X137136095Y-99147380D02*
X136659904Y-99147380D01*
X136612285Y-99623571D01*
X136659904Y-99575952D01*
X136755142Y-99528333D01*
X136993238Y-99528333D01*
X137088476Y-99575952D01*
X137136095Y-99623571D01*
X137183714Y-99718809D01*
X137183714Y-99956904D01*
X137136095Y-100052142D01*
X137088476Y-100099761D01*
X136993238Y-100147380D01*
X136755142Y-100147380D01*
X136659904Y-100099761D01*
X136612285Y-100052142D01*
M02*
