G04 #@! TF.GenerationSoftware,KiCad,Pcbnew,(5.1.2)-2*
G04 #@! TF.CreationDate,2019-07-26T21:41:05+12:00*
G04 #@! TF.ProjectId,APEDSK-AU,41504544-534b-42d4-9155-2e6b69636164,rev?*
G04 #@! TF.SameCoordinates,Original*
G04 #@! TF.FileFunction,Copper,L1,Top*
G04 #@! TF.FilePolarity,Positive*
%FSLAX46Y46*%
G04 Gerber Fmt 4.6, Leading zero omitted, Abs format (unit mm)*
G04 Created by KiCad (PCBNEW (5.1.2)-2) date 2019-07-26 21:41:05*
%MOMM*%
%LPD*%
G04 APERTURE LIST*
%ADD10O,1.600000X1.600000*%
%ADD11R,1.600000X1.600000*%
%ADD12O,1.400000X1.400000*%
%ADD13C,1.400000*%
%ADD14O,1.700000X1.700000*%
%ADD15R,1.700000X1.700000*%
%ADD16O,2.032000X1.727200*%
%ADD17C,1.800000*%
%ADD18R,1.800000X1.800000*%
%ADD19C,1.600000*%
%ADD20C,0.250000*%
G04 APERTURE END LIST*
D10*
X122428000Y-126365000D03*
X145288000Y-133985000D03*
X124968000Y-126365000D03*
X142748000Y-133985000D03*
X127508000Y-126365000D03*
X140208000Y-133985000D03*
X130048000Y-126365000D03*
X137668000Y-133985000D03*
X132588000Y-126365000D03*
X135128000Y-133985000D03*
X135128000Y-126365000D03*
X132588000Y-133985000D03*
X137668000Y-126365000D03*
X130048000Y-133985000D03*
X140208000Y-126365000D03*
X127508000Y-133985000D03*
X142748000Y-126365000D03*
X124968000Y-133985000D03*
X145288000Y-126365000D03*
D11*
X122428000Y-133985000D03*
D12*
X168148000Y-76835000D03*
D13*
X168148000Y-81915000D03*
D14*
X114808000Y-76835000D03*
X112268000Y-76835000D03*
X114808000Y-79375000D03*
X112268000Y-79375000D03*
X114808000Y-81915000D03*
X112268000Y-81915000D03*
X114808000Y-84455000D03*
X112268000Y-84455000D03*
X114808000Y-86995000D03*
X112268000Y-86995000D03*
X114808000Y-89535000D03*
X112268000Y-89535000D03*
X114808000Y-92075000D03*
X112268000Y-92075000D03*
X114808000Y-94615000D03*
X112268000Y-94615000D03*
X114808000Y-97155000D03*
X112268000Y-97155000D03*
X114808000Y-99695000D03*
X112268000Y-99695000D03*
X114808000Y-102235000D03*
X112268000Y-102235000D03*
X114808000Y-104775000D03*
X112268000Y-104775000D03*
X114808000Y-107315000D03*
X112268000Y-107315000D03*
X114808000Y-109855000D03*
X112268000Y-109855000D03*
X114808000Y-112395000D03*
X112268000Y-112395000D03*
X114808000Y-114935000D03*
X112268000Y-114935000D03*
X114808000Y-117475000D03*
X112268000Y-117475000D03*
X114808000Y-120015000D03*
X112268000Y-120015000D03*
X114808000Y-122555000D03*
X112268000Y-122555000D03*
X114808000Y-125095000D03*
X112268000Y-125095000D03*
X114808000Y-127635000D03*
X112268000Y-127635000D03*
X114808000Y-130175000D03*
D15*
X112268000Y-130175000D03*
D10*
X136398000Y-73025000D03*
X128778000Y-95885000D03*
X136398000Y-75565000D03*
X128778000Y-93345000D03*
X136398000Y-78105000D03*
X128778000Y-90805000D03*
X136398000Y-80645000D03*
X128778000Y-88265000D03*
X136398000Y-83185000D03*
X128778000Y-85725000D03*
X136398000Y-85725000D03*
X128778000Y-83185000D03*
X136398000Y-88265000D03*
X128778000Y-80645000D03*
X136398000Y-90805000D03*
X128778000Y-78105000D03*
X136398000Y-93345000D03*
X128778000Y-75565000D03*
X136398000Y-95885000D03*
D11*
X128778000Y-73025000D03*
D10*
X136398000Y-103505000D03*
X128778000Y-121285000D03*
X136398000Y-106045000D03*
X128778000Y-118745000D03*
X136398000Y-108585000D03*
X128778000Y-116205000D03*
X136398000Y-111125000D03*
X128778000Y-113665000D03*
X136398000Y-113665000D03*
X128778000Y-111125000D03*
X136398000Y-116205000D03*
X128778000Y-108585000D03*
X136398000Y-118745000D03*
X128778000Y-106045000D03*
X136398000Y-121285000D03*
D11*
X128778000Y-103505000D03*
D10*
X152908000Y-126365000D03*
X170688000Y-133985000D03*
X155448000Y-126365000D03*
X168148000Y-133985000D03*
X157988000Y-126365000D03*
X165608000Y-133985000D03*
X160528000Y-126365000D03*
X163068000Y-133985000D03*
X163068000Y-126365000D03*
X160528000Y-133985000D03*
X165608000Y-126365000D03*
X157988000Y-133985000D03*
X168148000Y-126365000D03*
X155448000Y-133985000D03*
X170688000Y-126365000D03*
D11*
X152908000Y-133985000D03*
D16*
X123698000Y-90805000D03*
X123698000Y-88265000D03*
X123698000Y-85725000D03*
X123698000Y-83185000D03*
X123698000Y-80645000D03*
X123698000Y-78105000D03*
X123698000Y-75565000D03*
X123698000Y-73025000D03*
D10*
X150368000Y-79375000D03*
X142748000Y-112395000D03*
X150368000Y-81915000D03*
X142748000Y-109855000D03*
X150368000Y-84455000D03*
X142748000Y-107315000D03*
X150368000Y-86995000D03*
X142748000Y-104775000D03*
X150368000Y-89535000D03*
X142748000Y-102235000D03*
X150368000Y-92075000D03*
X142748000Y-99695000D03*
X150368000Y-94615000D03*
X142748000Y-97155000D03*
X150368000Y-97155000D03*
X142748000Y-94615000D03*
X150368000Y-99695000D03*
X142748000Y-92075000D03*
X150368000Y-102235000D03*
X142748000Y-89535000D03*
X150368000Y-104775000D03*
X142748000Y-86995000D03*
X150368000Y-107315000D03*
X142748000Y-84455000D03*
X150368000Y-109855000D03*
X142748000Y-81915000D03*
X150368000Y-112395000D03*
D11*
X142748000Y-79375000D03*
D10*
X164338000Y-102235000D03*
X156718000Y-120015000D03*
X164338000Y-104775000D03*
X156718000Y-117475000D03*
X164338000Y-107315000D03*
X156718000Y-114935000D03*
X164338000Y-109855000D03*
X156718000Y-112395000D03*
X164338000Y-112395000D03*
X156718000Y-109855000D03*
X164338000Y-114935000D03*
X156718000Y-107315000D03*
X164338000Y-117475000D03*
X156718000Y-104775000D03*
X164338000Y-120015000D03*
D11*
X156718000Y-102235000D03*
D10*
X164338000Y-71755000D03*
X156718000Y-94615000D03*
X164338000Y-74295000D03*
X156718000Y-92075000D03*
X164338000Y-76835000D03*
X156718000Y-89535000D03*
X164338000Y-79375000D03*
X156718000Y-86995000D03*
X164338000Y-81915000D03*
X156718000Y-84455000D03*
X164338000Y-84455000D03*
X156718000Y-81915000D03*
X164338000Y-86995000D03*
X156718000Y-79375000D03*
X164338000Y-89535000D03*
X156718000Y-76835000D03*
X164338000Y-92075000D03*
X156718000Y-74295000D03*
X164338000Y-94615000D03*
D11*
X156718000Y-71755000D03*
D12*
X171958000Y-116205000D03*
D13*
X166878000Y-116205000D03*
D12*
X168148000Y-107315000D03*
D13*
X168148000Y-112395000D03*
D12*
X168148000Y-99695000D03*
D13*
X168148000Y-104775000D03*
D12*
X168148000Y-97155000D03*
D13*
X168148000Y-92075000D03*
D12*
X168148000Y-84455000D03*
D13*
X168148000Y-89535000D03*
D17*
X170688000Y-121285000D03*
D18*
X168148000Y-121285000D03*
D19*
X150368000Y-128945000D03*
X150368000Y-131445000D03*
X161798000Y-98425000D03*
X159298000Y-98425000D03*
X168148000Y-70485000D03*
X168148000Y-72985000D03*
X147868000Y-74295000D03*
X150368000Y-74295000D03*
X140208000Y-70485000D03*
X140208000Y-72985000D03*
X119888000Y-123825000D03*
X119888000Y-126325000D03*
X131358000Y-99695000D03*
X133858000Y-99695000D03*
D16*
X171958000Y-108585000D03*
X171958000Y-106045000D03*
X171958000Y-103505000D03*
X171958000Y-100965000D03*
X171958000Y-98425000D03*
X171958000Y-95885000D03*
X171958000Y-93345000D03*
X171958000Y-90805000D03*
X171958000Y-85725000D03*
X171958000Y-83185000D03*
X171958000Y-80645000D03*
X171958000Y-78105000D03*
X171958000Y-75565000D03*
X171958000Y-73025000D03*
X123698000Y-117729000D03*
X123698000Y-115189000D03*
X123698000Y-112649000D03*
X123698000Y-110109000D03*
X123698000Y-107569000D03*
X123698000Y-105029000D03*
X123698000Y-102489000D03*
X123698000Y-99949000D03*
X123698000Y-97409000D03*
X123698000Y-94869000D03*
D20*
X171958000Y-120015000D02*
X170688000Y-121285000D01*
X171958000Y-116205000D02*
X171958000Y-120015000D01*
X150368000Y-99695000D02*
X149098000Y-98425000D01*
X149098000Y-96759998D02*
X149972998Y-95885000D01*
X149098000Y-98425000D02*
X149098000Y-96759998D01*
X153782998Y-95885000D02*
X156322998Y-93345000D01*
X163068000Y-93345000D02*
X164338000Y-92075000D01*
X156322998Y-93345000D02*
X163068000Y-93345000D01*
X163212999Y-93200001D02*
X163212999Y-95155001D01*
X164338000Y-92075000D02*
X163212999Y-93200001D01*
X169804587Y-78105000D02*
X171958000Y-78105000D01*
X163212999Y-95155001D02*
X163942998Y-95885000D01*
X163942998Y-95885000D02*
X164733002Y-95885000D01*
X166672988Y-81236599D02*
X169804587Y-78105000D01*
X164733002Y-95885000D02*
X166672988Y-93945014D01*
X166672988Y-93945014D02*
X166672988Y-81236599D01*
X149972998Y-95885000D02*
X153782998Y-95885000D01*
X133552988Y-127940012D02*
X135128000Y-126365000D01*
X119201599Y-127940012D02*
X133552988Y-127940012D01*
X117428032Y-85805032D02*
X117428032Y-126166445D01*
X115983001Y-84360001D02*
X117428032Y-85805032D01*
X113632999Y-82479001D02*
X114433997Y-83279999D01*
X117428032Y-126166445D02*
X119201599Y-127940012D01*
X114808000Y-79375000D02*
X113632999Y-80550001D01*
X114433997Y-83279999D02*
X115372001Y-83279999D01*
X113632999Y-80550001D02*
X113632999Y-82479001D01*
X115372001Y-83279999D02*
X115983001Y-83890999D01*
X115983001Y-83890999D02*
X115983001Y-84360001D01*
X128922999Y-127490001D02*
X129248001Y-127164999D01*
X114808000Y-81915000D02*
X117878042Y-84985042D01*
X117878042Y-125980044D02*
X119387999Y-127490001D01*
X117878042Y-84985042D02*
X117878042Y-125980044D01*
X129248001Y-127164999D02*
X130048000Y-126365000D01*
X119387999Y-127490001D02*
X128922999Y-127490001D01*
X116978022Y-86625022D02*
X114808000Y-84455000D01*
X116978022Y-126352846D02*
X116978022Y-86625022D01*
X119015199Y-128390023D02*
X116978022Y-126352846D01*
X138182977Y-128390023D02*
X119015199Y-128390023D01*
X140208000Y-126365000D02*
X138182977Y-128390023D01*
X116528011Y-88715011D02*
X114808000Y-86995000D01*
X116528011Y-126539246D02*
X116528011Y-88715011D01*
X118828799Y-128840034D02*
X116528011Y-126539246D01*
X142748000Y-126365000D02*
X140272966Y-128840034D01*
X140272966Y-128840034D02*
X118828799Y-128840034D01*
X118576970Y-129224616D02*
X118642399Y-129290045D01*
X114808000Y-89535000D02*
X114808000Y-90335998D01*
X114808000Y-90335998D02*
X115983001Y-91510999D01*
X118642399Y-129290045D02*
X142362955Y-129290045D01*
X142362955Y-129290045D02*
X145288000Y-126365000D01*
X118642399Y-129290045D02*
X118378789Y-129026434D01*
X115983001Y-91510999D02*
X115983001Y-112300001D01*
X115983001Y-112300001D02*
X116078000Y-112395000D01*
X116078000Y-112395000D02*
X116078002Y-126725647D01*
X116078002Y-126725647D02*
X118437678Y-129085323D01*
X164338000Y-112395000D02*
X165913012Y-110819988D01*
X165913012Y-104083401D02*
X169623012Y-100373401D01*
X165913012Y-110819988D02*
X165913012Y-104083401D01*
X169623012Y-100373401D02*
X169623012Y-85367588D01*
X171805600Y-83185000D02*
X171958000Y-83185000D01*
X169623012Y-85367588D02*
X171805600Y-83185000D01*
X164338000Y-114935000D02*
X166363023Y-112909977D01*
X166363023Y-106559977D02*
X167123000Y-105800001D01*
X170616990Y-88899358D02*
X173299010Y-86217338D01*
X173299010Y-81833610D02*
X172110400Y-80645000D01*
X167123000Y-105800001D02*
X168640001Y-105800001D01*
X166363023Y-112909977D02*
X166363023Y-106559977D01*
X170616990Y-103823012D02*
X170616990Y-88899358D01*
X173299010Y-86217338D02*
X173299010Y-81833610D01*
X168640001Y-105800001D02*
X170616990Y-103823012D01*
X172110400Y-80645000D02*
X171958000Y-80645000D01*
X161798000Y-71755000D02*
X164338000Y-74295000D01*
X156718000Y-71755000D02*
X161798000Y-71755000D01*
X151167999Y-82714999D02*
X150368000Y-81915000D01*
X151493001Y-83040001D02*
X151167999Y-82714999D01*
X164193001Y-83040001D02*
X151493001Y-83040001D01*
X170688000Y-73025000D02*
X171958000Y-73025000D01*
X163797999Y-83040001D02*
X163068000Y-82310002D01*
X164193001Y-83040001D02*
X163797999Y-83040001D01*
X163068000Y-82310002D02*
X163068000Y-76439998D01*
X163068000Y-76439998D02*
X164087997Y-75420001D01*
X164087997Y-75420001D02*
X168292999Y-75420001D01*
X168292999Y-75420001D02*
X170688000Y-73025000D01*
X164588003Y-83040001D02*
X164193001Y-83040001D01*
X165463001Y-83914999D02*
X164588003Y-83040001D01*
X164338000Y-94615000D02*
X165463001Y-93489999D01*
X165463001Y-93489999D02*
X165463001Y-83914999D01*
X150368000Y-102235000D02*
X149693009Y-102909991D01*
X144030156Y-133185001D02*
X152393022Y-124822135D01*
X152393022Y-107675021D02*
X150908001Y-106189999D01*
X149098000Y-105408590D02*
X149098000Y-103505000D01*
X150908001Y-106189999D02*
X149879409Y-106189999D01*
X149879409Y-106189999D02*
X149098000Y-105408590D01*
X149568001Y-103034999D02*
X150368000Y-102235000D01*
X152393022Y-124822135D02*
X152393022Y-107675021D01*
X149098000Y-103505000D02*
X149568001Y-103034999D01*
X142748000Y-133985000D02*
X143547999Y-133185001D01*
X143547999Y-133185001D02*
X144030156Y-133185001D01*
X154033001Y-108440001D02*
X150368000Y-104775000D01*
X154033001Y-126945001D02*
X154033001Y-108440001D01*
X150658003Y-130319999D02*
X154033001Y-126945001D01*
X148900499Y-132622503D02*
X148900499Y-131247499D01*
X140208000Y-133985000D02*
X141333001Y-135110001D01*
X141333001Y-135110001D02*
X146413001Y-135110001D01*
X149827999Y-130319999D02*
X150658003Y-130319999D01*
X148900499Y-131247499D02*
X149827999Y-130319999D01*
X146413001Y-135110001D02*
X148900499Y-132622503D01*
X138407963Y-112709951D02*
X138407963Y-97290035D01*
X138407960Y-121172989D02*
X138407960Y-113137769D01*
X122356990Y-118221338D02*
X126690652Y-122555000D01*
X138407956Y-113137764D02*
X138407963Y-112709951D01*
X123698000Y-91918600D02*
X122356990Y-93259610D01*
X122356990Y-93259610D02*
X122356990Y-118221338D01*
X123698000Y-90805000D02*
X123698000Y-91918600D01*
X138407960Y-113137769D02*
X138407956Y-113137764D01*
X126690652Y-122555000D02*
X137025949Y-122555000D01*
X137025949Y-122555000D02*
X138407964Y-121172985D01*
X151943011Y-108890011D02*
X151167999Y-108114999D01*
X144073658Y-132505088D02*
X151943011Y-124635735D01*
X139147912Y-132505088D02*
X144073658Y-132505088D01*
X151943011Y-124635735D02*
X151943011Y-108890011D01*
X151167999Y-108114999D02*
X150368000Y-107315000D01*
X137668000Y-133985000D02*
X139147912Y-132505088D01*
X138407963Y-97290035D02*
X141915499Y-93782499D01*
X141478000Y-94219998D02*
X141915499Y-93782499D01*
X147575490Y-104522490D02*
X150368000Y-107315000D01*
X147575490Y-97777488D02*
X147575490Y-104522490D01*
X143143002Y-93345000D02*
X147575490Y-97777488D01*
X142352998Y-93345000D02*
X143143002Y-93345000D01*
X141915499Y-93782499D02*
X142352998Y-93345000D01*
X137057923Y-132055077D02*
X143887258Y-132055077D01*
X150287968Y-125654367D02*
X150287970Y-125575681D01*
X143887258Y-132055077D02*
X150287968Y-125654367D01*
X135128000Y-133985000D02*
X137057923Y-132055077D01*
X150368000Y-109855000D02*
X151493000Y-110980000D01*
X151493000Y-124449335D02*
X150287968Y-125654367D01*
X151493000Y-110980000D02*
X151493000Y-124449335D01*
X149568001Y-109055001D02*
X150368000Y-109855000D01*
X146558000Y-106045000D02*
X149568001Y-109055001D01*
X146558000Y-99299998D02*
X146558000Y-106045000D01*
X143143002Y-95885000D02*
X146558000Y-99299998D01*
X123545600Y-88265000D02*
X121906979Y-89903621D01*
X142352998Y-95885000D02*
X143143002Y-95885000D01*
X123698000Y-88265000D02*
X123545600Y-88265000D01*
X121906979Y-89903621D02*
X121906979Y-118407738D01*
X121906979Y-118407738D02*
X126794201Y-123294960D01*
X126794201Y-123294960D02*
X136922399Y-123294960D01*
X138857974Y-99380024D02*
X142352998Y-95885000D01*
X138857974Y-121359385D02*
X138857974Y-99380024D01*
X136922399Y-123294960D02*
X138857974Y-121359385D01*
X121456968Y-87813632D02*
X121456968Y-118594138D01*
X126607801Y-123744971D02*
X137108799Y-123744971D01*
X121456968Y-118594138D02*
X126607801Y-123744971D01*
X137108799Y-123744971D02*
X139307981Y-121545787D01*
X123545600Y-85725000D02*
X121456968Y-87813632D01*
X123698000Y-85725000D02*
X123545600Y-85725000D01*
X139307981Y-121545787D02*
X139307981Y-112764981D01*
X139307981Y-112764981D02*
X139307983Y-112658610D01*
X141478001Y-99299997D02*
X142352998Y-98425000D01*
X134967934Y-131605066D02*
X132588000Y-133985000D01*
X143622175Y-131605066D02*
X134967934Y-131605066D01*
X150368000Y-124859241D02*
X143622175Y-131605066D01*
X150368000Y-112395000D02*
X150368000Y-124859241D01*
X139307983Y-101470015D02*
X142352998Y-98425000D01*
X139307983Y-112658610D02*
X139307983Y-101470015D01*
X149568001Y-111595001D02*
X150368000Y-112395000D01*
X145288000Y-107315000D02*
X149568001Y-111595001D01*
X145288000Y-100569998D02*
X145288000Y-107315000D01*
X142352998Y-98425000D02*
X143143002Y-98425000D01*
X143143002Y-98425000D02*
X145288000Y-100569998D01*
X144323012Y-108279988D02*
X144323012Y-102145010D01*
X144323012Y-102145010D02*
X143143002Y-100965000D01*
X142748000Y-109855000D02*
X144323012Y-108279988D01*
X142352998Y-100965000D02*
X142748000Y-100965000D01*
X143143002Y-100965000D02*
X142352998Y-100965000D01*
X139757992Y-103560006D02*
X142352998Y-100965000D01*
X139757991Y-121732186D02*
X139757992Y-103560006D01*
X123698000Y-83185000D02*
X123545600Y-83185000D01*
X123545600Y-83185000D02*
X121006957Y-85723643D01*
X121006957Y-85723643D02*
X121006957Y-118780538D01*
X121006957Y-118780538D02*
X126421399Y-124194980D01*
X126421399Y-124194980D02*
X137295200Y-124194980D01*
X137295200Y-124194980D02*
X139757991Y-121732186D01*
X130048000Y-133985000D02*
X132877945Y-131155055D01*
X147313023Y-118072782D02*
X147313023Y-114420023D01*
X132877945Y-131155055D02*
X143435775Y-131155055D01*
X147313023Y-114420023D02*
X143547999Y-110654999D01*
X147458022Y-118217781D02*
X147313023Y-118072782D01*
X147458022Y-127132808D02*
X147458022Y-118217781D01*
X143547999Y-110654999D02*
X142748000Y-109855000D01*
X143435775Y-131155055D02*
X147458022Y-127132808D01*
X143873001Y-106189999D02*
X143547999Y-106515001D01*
X143288001Y-103649999D02*
X143873001Y-104234999D01*
X142207999Y-103649999D02*
X143288001Y-103649999D01*
X140208002Y-105649996D02*
X142207999Y-103649999D01*
X143547999Y-106515001D02*
X142748000Y-107315000D01*
X137481602Y-124644989D02*
X140208001Y-121918585D01*
X143873001Y-104234999D02*
X143873001Y-106189999D01*
X123698000Y-80645000D02*
X123698000Y-81351652D01*
X140208001Y-121918585D02*
X140208002Y-105649996D01*
X123698000Y-81351652D02*
X120556946Y-84492706D01*
X120556946Y-84492706D02*
X120556946Y-118966938D01*
X120556946Y-118966938D02*
X126234999Y-124644991D01*
X126234999Y-124644991D02*
X137481600Y-124644991D01*
X137481600Y-124644991D02*
X137481602Y-124644989D01*
X141948001Y-108114999D02*
X142748000Y-107315000D01*
X130787956Y-130705044D02*
X143249375Y-130705044D01*
X127508000Y-133985000D02*
X130787956Y-130705044D01*
X141558031Y-108504969D02*
X141948001Y-108114999D01*
X143249375Y-130705044D02*
X147008011Y-126946408D01*
X147008011Y-118404181D02*
X141558031Y-112954201D01*
X147008011Y-126946408D02*
X147008011Y-118404181D01*
X141558031Y-112954201D02*
X141558031Y-108504969D01*
X155448000Y-105649998D02*
X155448000Y-126365000D01*
X142352998Y-90805000D02*
X143143002Y-90805000D01*
X148025501Y-95687499D02*
X148025501Y-99017503D01*
X123698000Y-78105000D02*
X123850400Y-78105000D01*
X122356990Y-72532662D02*
X123053262Y-71836390D01*
X143143002Y-90805000D02*
X148025501Y-95687499D01*
X125039010Y-76916390D02*
X125039010Y-75072662D01*
X125039010Y-75072662D02*
X124261348Y-74295000D01*
X124261348Y-74295000D02*
X123134652Y-74295000D01*
X148025501Y-99017503D02*
X149827999Y-100820001D01*
X123134652Y-74295000D02*
X122356990Y-73517338D01*
X150618003Y-100820001D02*
X155448000Y-105649998D01*
X149827999Y-100820001D02*
X150618003Y-100820001D01*
X122356990Y-73517338D02*
X122356990Y-72532662D01*
X123053262Y-71836390D02*
X125404388Y-71836390D01*
X138542998Y-86995000D02*
X142352998Y-90805000D01*
X125404388Y-71836390D02*
X127862998Y-74295000D01*
X129173002Y-74295000D02*
X133858000Y-78979998D01*
X127862998Y-74295000D02*
X129173002Y-74295000D01*
X123850400Y-78105000D02*
X125039010Y-76916390D01*
X133858000Y-78979998D02*
X133858000Y-84850002D01*
X133858000Y-84850002D02*
X136002998Y-86995000D01*
X136002998Y-86995000D02*
X138542998Y-86995000D01*
X142748000Y-105417053D02*
X142748000Y-104775000D01*
X124968000Y-133985000D02*
X128697967Y-130255033D01*
X128697967Y-130255033D02*
X141558033Y-130255033D01*
X141558033Y-130255033D02*
X142659501Y-130255033D01*
X123545600Y-75565000D02*
X123698000Y-75565000D01*
X120106935Y-119153338D02*
X120106935Y-79003665D01*
X126050008Y-125096411D02*
X120106935Y-119153338D01*
X137666589Y-125096411D02*
X126050008Y-125096411D01*
X140658011Y-122104989D02*
X137666589Y-125096411D01*
X143062975Y-130255033D02*
X146413001Y-126905007D01*
X141558033Y-130255033D02*
X143062975Y-130255033D01*
X146413001Y-126905007D02*
X146413001Y-125824999D01*
X146413001Y-125824999D02*
X145828001Y-125239999D01*
X120106935Y-79003665D02*
X123545600Y-75565000D01*
X145828001Y-125239999D02*
X143793021Y-125239999D01*
X143793021Y-125239999D02*
X140658011Y-122104989D01*
X140658011Y-106864989D02*
X142748000Y-104775000D01*
X140658011Y-122104989D02*
X140658011Y-106864989D01*
X133858000Y-108585000D02*
X136398000Y-111125000D01*
X169173001Y-100187001D02*
X169173001Y-85480001D01*
X165463001Y-103897001D02*
X169173001Y-100187001D01*
X164338000Y-109855000D02*
X165463001Y-108729999D01*
X168847999Y-85154999D02*
X168148000Y-84455000D01*
X165463001Y-108729999D02*
X165463001Y-103897001D01*
X169173001Y-85480001D02*
X168847999Y-85154999D01*
X168148000Y-84455000D02*
X168148000Y-81915000D01*
X132732999Y-107459999D02*
X136398000Y-111125000D01*
X132732999Y-102090001D02*
X132732999Y-107459999D01*
X132732999Y-102090001D02*
X132732999Y-102379999D01*
X132732999Y-99404997D02*
X132732999Y-102090001D01*
X123850400Y-73025000D02*
X127660400Y-76835000D01*
X123698000Y-73025000D02*
X123850400Y-73025000D01*
X129173002Y-76835000D02*
X132588000Y-80249998D01*
X127660400Y-76835000D02*
X129173002Y-76835000D01*
X132588000Y-80249998D02*
X132588000Y-99259998D01*
X132588000Y-99259998D02*
X132732999Y-99404997D01*
X142748000Y-81915000D02*
X149098000Y-88265000D01*
X163068000Y-88265000D02*
X164338000Y-86995000D01*
X149098000Y-88265000D02*
X163068000Y-88265000D01*
X151638000Y-99695000D02*
X156718000Y-104775000D01*
X151638000Y-98425000D02*
X151638000Y-99695000D01*
X150368000Y-97155000D02*
X151638000Y-98425000D01*
M02*
