G04 #@! TF.GenerationSoftware,KiCad,Pcbnew,(5.1.2)-2*
G04 #@! TF.CreationDate,2019-08-10T21:31:32+12:00*
G04 #@! TF.ProjectId,APEDSK-AU,41504544-534b-42d4-9155-2e6b69636164,rev?*
G04 #@! TF.SameCoordinates,Original*
G04 #@! TF.FileFunction,Copper,L2,Inr*
G04 #@! TF.FilePolarity,Positive*
%FSLAX46Y46*%
G04 Gerber Fmt 4.6, Leading zero omitted, Abs format (unit mm)*
G04 Created by KiCad (PCBNEW (5.1.2)-2) date 2019-08-10 21:31:32*
%MOMM*%
%LPD*%
G04 APERTURE LIST*
%ADD10O,1.600000X1.600000*%
%ADD11R,1.600000X1.600000*%
%ADD12O,1.700000X1.700000*%
%ADD13R,1.700000X1.700000*%
%ADD14C,1.600000*%
%ADD15O,1.400000X1.400000*%
%ADD16C,1.400000*%
%ADD17O,2.032000X1.727200*%
%ADD18C,1.800000*%
%ADD19R,1.800000X1.800000*%
%ADD20C,1.000000*%
%ADD21C,0.250000*%
G04 APERTURE END LIST*
D10*
X152908000Y-126365000D03*
X170688000Y-133985000D03*
X155448000Y-126365000D03*
X168148000Y-133985000D03*
X157988000Y-126365000D03*
X165608000Y-133985000D03*
X160528000Y-126365000D03*
X163068000Y-133985000D03*
X163068000Y-126365000D03*
X160528000Y-133985000D03*
X165608000Y-126365000D03*
X157988000Y-133985000D03*
X168148000Y-126365000D03*
X155448000Y-133985000D03*
X170688000Y-126365000D03*
D11*
X152908000Y-133985000D03*
D12*
X114808000Y-76835000D03*
X112268000Y-76835000D03*
X114808000Y-79375000D03*
X112268000Y-79375000D03*
X114808000Y-81915000D03*
X112268000Y-81915000D03*
X114808000Y-84455000D03*
X112268000Y-84455000D03*
X114808000Y-86995000D03*
X112268000Y-86995000D03*
X114808000Y-89535000D03*
X112268000Y-89535000D03*
X114808000Y-92075000D03*
X112268000Y-92075000D03*
X114808000Y-94615000D03*
X112268000Y-94615000D03*
X114808000Y-97155000D03*
X112268000Y-97155000D03*
X114808000Y-99695000D03*
X112268000Y-99695000D03*
X114808000Y-102235000D03*
X112268000Y-102235000D03*
X114808000Y-104775000D03*
X112268000Y-104775000D03*
X114808000Y-107315000D03*
X112268000Y-107315000D03*
X114808000Y-109855000D03*
X112268000Y-109855000D03*
X114808000Y-112395000D03*
X112268000Y-112395000D03*
X114808000Y-114935000D03*
X112268000Y-114935000D03*
X114808000Y-117475000D03*
X112268000Y-117475000D03*
X114808000Y-120015000D03*
X112268000Y-120015000D03*
X114808000Y-122555000D03*
X112268000Y-122555000D03*
X114808000Y-125095000D03*
X112268000Y-125095000D03*
X114808000Y-127635000D03*
X112268000Y-127635000D03*
X114808000Y-130175000D03*
D13*
X112268000Y-130175000D03*
D10*
X122428000Y-126365000D03*
X145288000Y-133985000D03*
X124968000Y-126365000D03*
X142748000Y-133985000D03*
X127508000Y-126365000D03*
X140208000Y-133985000D03*
X130048000Y-126365000D03*
X137668000Y-133985000D03*
X132588000Y-126365000D03*
X135128000Y-133985000D03*
X135128000Y-126365000D03*
X132588000Y-133985000D03*
X137668000Y-126365000D03*
X130048000Y-133985000D03*
X140208000Y-126365000D03*
X127508000Y-133985000D03*
X142748000Y-126365000D03*
X124968000Y-133985000D03*
X145288000Y-126365000D03*
D11*
X122428000Y-133985000D03*
D14*
X119888000Y-123825000D03*
X119888000Y-126325000D03*
D15*
X168148000Y-76835000D03*
D16*
X168148000Y-81915000D03*
D10*
X136398000Y-73025000D03*
X128778000Y-95885000D03*
X136398000Y-75565000D03*
X128778000Y-93345000D03*
X136398000Y-78105000D03*
X128778000Y-90805000D03*
X136398000Y-80645000D03*
X128778000Y-88265000D03*
X136398000Y-83185000D03*
X128778000Y-85725000D03*
X136398000Y-85725000D03*
X128778000Y-83185000D03*
X136398000Y-88265000D03*
X128778000Y-80645000D03*
X136398000Y-90805000D03*
X128778000Y-78105000D03*
X136398000Y-93345000D03*
X128778000Y-75565000D03*
X136398000Y-95885000D03*
D11*
X128778000Y-73025000D03*
D10*
X136398000Y-103505000D03*
X128778000Y-121285000D03*
X136398000Y-106045000D03*
X128778000Y-118745000D03*
X136398000Y-108585000D03*
X128778000Y-116205000D03*
X136398000Y-111125000D03*
X128778000Y-113665000D03*
X136398000Y-113665000D03*
X128778000Y-111125000D03*
X136398000Y-116205000D03*
X128778000Y-108585000D03*
X136398000Y-118745000D03*
X128778000Y-106045000D03*
X136398000Y-121285000D03*
D11*
X128778000Y-103505000D03*
D17*
X123698000Y-90805000D03*
X123698000Y-88265000D03*
X123698000Y-85725000D03*
X123698000Y-83185000D03*
X123698000Y-80645000D03*
X123698000Y-78105000D03*
X123698000Y-75565000D03*
X123698000Y-73025000D03*
D10*
X150368000Y-79375000D03*
X142748000Y-112395000D03*
X150368000Y-81915000D03*
X142748000Y-109855000D03*
X150368000Y-84455000D03*
X142748000Y-107315000D03*
X150368000Y-86995000D03*
X142748000Y-104775000D03*
X150368000Y-89535000D03*
X142748000Y-102235000D03*
X150368000Y-92075000D03*
X142748000Y-99695000D03*
X150368000Y-94615000D03*
X142748000Y-97155000D03*
X150368000Y-97155000D03*
X142748000Y-94615000D03*
X150368000Y-99695000D03*
X142748000Y-92075000D03*
X150368000Y-102235000D03*
X142748000Y-89535000D03*
X150368000Y-104775000D03*
X142748000Y-86995000D03*
X150368000Y-107315000D03*
X142748000Y-84455000D03*
X150368000Y-109855000D03*
X142748000Y-81915000D03*
X150368000Y-112395000D03*
D11*
X142748000Y-79375000D03*
D10*
X164338000Y-102235000D03*
X156718000Y-120015000D03*
X164338000Y-104775000D03*
X156718000Y-117475000D03*
X164338000Y-107315000D03*
X156718000Y-114935000D03*
X164338000Y-109855000D03*
X156718000Y-112395000D03*
X164338000Y-112395000D03*
X156718000Y-109855000D03*
X164338000Y-114935000D03*
X156718000Y-107315000D03*
X164338000Y-117475000D03*
X156718000Y-104775000D03*
X164338000Y-120015000D03*
D11*
X156718000Y-102235000D03*
D10*
X164338000Y-71755000D03*
X156718000Y-94615000D03*
X164338000Y-74295000D03*
X156718000Y-92075000D03*
X164338000Y-76835000D03*
X156718000Y-89535000D03*
X164338000Y-79375000D03*
X156718000Y-86995000D03*
X164338000Y-81915000D03*
X156718000Y-84455000D03*
X164338000Y-84455000D03*
X156718000Y-81915000D03*
X164338000Y-86995000D03*
X156718000Y-79375000D03*
X164338000Y-89535000D03*
X156718000Y-76835000D03*
X164338000Y-92075000D03*
X156718000Y-74295000D03*
X164338000Y-94615000D03*
D11*
X156718000Y-71755000D03*
D15*
X171958000Y-116205000D03*
D16*
X166878000Y-116205000D03*
D15*
X168148000Y-107315000D03*
D16*
X168148000Y-112395000D03*
D15*
X168148000Y-99695000D03*
D16*
X168148000Y-104775000D03*
D15*
X168148000Y-97155000D03*
D16*
X168148000Y-92075000D03*
D15*
X168148000Y-84455000D03*
D16*
X168148000Y-89535000D03*
D18*
X170688000Y-121285000D03*
D19*
X168148000Y-121285000D03*
D14*
X150368000Y-128945000D03*
X150368000Y-131445000D03*
X161798000Y-98425000D03*
X159298000Y-98425000D03*
X168148000Y-70485000D03*
X168148000Y-72985000D03*
X147868000Y-74295000D03*
X150368000Y-74295000D03*
X140208000Y-70485000D03*
X140208000Y-72985000D03*
X131358000Y-99695000D03*
X133858000Y-99695000D03*
D17*
X171958000Y-108585000D03*
X171958000Y-106045000D03*
X171958000Y-103505000D03*
X171958000Y-100965000D03*
X171958000Y-98425000D03*
X171958000Y-95885000D03*
X171958000Y-93345000D03*
X171958000Y-90805000D03*
X171958000Y-85725000D03*
X171958000Y-83185000D03*
X171958000Y-80645000D03*
X171958000Y-78105000D03*
X171958000Y-75565000D03*
X171958000Y-73025000D03*
X123698000Y-117729000D03*
X123698000Y-115189000D03*
X123698000Y-112649000D03*
X123698000Y-110109000D03*
X123698000Y-107569000D03*
X123698000Y-105029000D03*
X123698000Y-102489000D03*
X123698000Y-99949000D03*
X123698000Y-97409000D03*
X123698000Y-94869000D03*
D20*
X139888002Y-118745000D02*
X136398000Y-118745000D01*
X166878000Y-104775000D02*
X164338000Y-102235000D01*
X168148000Y-104775000D02*
X166878000Y-104775000D01*
X168148000Y-92075000D02*
X168148000Y-89535000D01*
X136398000Y-102235000D02*
X133858000Y-99695000D01*
X136398000Y-103505000D02*
X136398000Y-102235000D01*
X139888002Y-106995002D02*
X136398000Y-103505000D01*
X163538001Y-70955001D02*
X164338000Y-71755000D01*
X162837999Y-70254999D02*
X163538001Y-70955001D01*
X153138001Y-70254999D02*
X162837999Y-70254999D01*
X166918000Y-71755000D02*
X168148000Y-72985000D01*
X164338000Y-71755000D02*
X166918000Y-71755000D01*
X151957998Y-115885002D02*
X139888002Y-115885002D01*
X139888002Y-115885002D02*
X139888002Y-106995002D01*
X139888002Y-118745000D02*
X139888002Y-115885002D01*
X159298000Y-98425000D02*
X155448000Y-98425000D01*
X155448000Y-98425000D02*
X154178000Y-99695000D01*
X154178000Y-99695000D02*
X154178000Y-113665000D01*
X154178000Y-113665000D02*
X151957998Y-115885002D01*
X166747999Y-88134999D02*
X168148000Y-89535000D01*
X166747999Y-74385001D02*
X166747999Y-88134999D01*
X168148000Y-72985000D02*
X166747999Y-74385001D01*
X159298000Y-101005000D02*
X159298000Y-98425000D01*
X164338000Y-102235000D02*
X160528000Y-102235000D01*
X160528000Y-102235000D02*
X159298000Y-101005000D01*
X171958000Y-98425000D02*
X171805600Y-98425000D01*
X152908000Y-128905000D02*
X150368000Y-131445000D01*
X152908000Y-126365000D02*
X152908000Y-128905000D01*
X141478000Y-73025000D02*
X136398000Y-73025000D01*
X142748000Y-71755000D02*
X141478000Y-73025000D01*
X151638000Y-71755000D02*
X142748000Y-71755000D01*
X150368000Y-79375000D02*
X150368000Y-73025000D01*
X150368000Y-73025000D02*
X151638000Y-71755000D01*
X151638000Y-71755000D02*
X153138001Y-70254999D01*
X166878000Y-113665000D02*
X168148000Y-112395000D01*
X166878000Y-116205000D02*
X166878000Y-113665000D01*
X165608000Y-117475000D02*
X166878000Y-116205000D01*
X164338000Y-117475000D02*
X165608000Y-117475000D01*
X171958000Y-98281257D02*
X171958000Y-98425000D01*
X168148000Y-92075000D02*
X169998012Y-93925012D01*
X169998012Y-96321269D02*
X171958000Y-98281257D01*
X169998012Y-93925012D02*
X169998012Y-96321269D01*
X132143011Y-122999989D02*
X135598001Y-119544999D01*
X122428000Y-125233630D02*
X124661641Y-122999989D01*
X135598001Y-119544999D02*
X136398000Y-118745000D01*
X124661641Y-122999989D02*
X132143011Y-122999989D01*
X121019370Y-123825000D02*
X122428000Y-125233630D01*
X122428000Y-125233630D02*
X122428000Y-126365000D01*
X119888000Y-123825000D02*
X121019370Y-123825000D01*
X166052989Y-105703270D02*
X166981259Y-104775000D01*
X166981259Y-104775000D02*
X168148000Y-104775000D01*
X166052989Y-110299989D02*
X166052989Y-105703270D01*
X168148000Y-112395000D02*
X166052989Y-110299989D01*
X152908000Y-126365000D02*
X145288000Y-118745000D01*
X145288000Y-118745000D02*
X139888002Y-118745000D01*
X164338000Y-71755000D02*
X160533020Y-75559980D01*
X160533020Y-97189980D02*
X159298000Y-98425000D01*
X160533020Y-75559980D02*
X160533020Y-97189980D01*
X149568001Y-80174999D02*
X150368000Y-79375000D01*
X148867999Y-80875001D02*
X149568001Y-80174999D01*
X148867999Y-82954999D02*
X148867999Y-80875001D01*
X150368000Y-84455000D02*
X148867999Y-82954999D01*
D21*
X115657999Y-119165001D02*
X114808000Y-120015000D01*
X150763002Y-90805000D02*
X138063002Y-90805000D01*
X151493001Y-90075001D02*
X150763002Y-90805000D01*
X151493001Y-89679999D02*
X151493001Y-90075001D01*
X156718000Y-84455000D02*
X151493001Y-89679999D01*
X136793002Y-89535000D02*
X123134652Y-89535000D01*
X118618000Y-94051652D02*
X118618000Y-116205000D01*
X138063002Y-90805000D02*
X136793002Y-89535000D01*
X118618000Y-116205000D02*
X115657999Y-119165001D01*
X123134652Y-89535000D02*
X118618000Y-94051652D01*
X136868001Y-127164999D02*
X137668000Y-126365000D01*
X111893997Y-128999999D02*
X135033001Y-128999999D01*
X114808000Y-79375000D02*
X113443001Y-80739999D01*
X113443001Y-80739999D02*
X113443001Y-90099001D01*
X113443001Y-90099001D02*
X112642003Y-90899999D01*
X135033001Y-128999999D02*
X136868001Y-127164999D01*
X112642003Y-90899999D02*
X111703999Y-90899999D01*
X111703999Y-90899999D02*
X111092999Y-91510999D01*
X111092999Y-128199001D02*
X111893997Y-128999999D01*
X111092999Y-91510999D02*
X111092999Y-128199001D01*
X154178000Y-82310002D02*
X154178000Y-79375000D01*
X142352998Y-85725000D02*
X150763002Y-85725000D01*
X112268000Y-94615000D02*
X113632999Y-93250001D01*
X141082998Y-84455000D02*
X142352998Y-85725000D01*
X115372001Y-93250001D02*
X117344851Y-91277151D01*
X117344851Y-91277151D02*
X117348000Y-91277151D01*
X154178000Y-79375000D02*
X156718000Y-76835000D01*
X113632999Y-93250001D02*
X115372001Y-93250001D01*
X117348000Y-91277151D02*
X117348000Y-90241652D01*
X150763002Y-85725000D02*
X154178000Y-82310002D01*
X123134652Y-84455000D02*
X141082998Y-84455000D01*
X117348000Y-90241652D02*
X123134652Y-84455000D01*
X159258000Y-86995000D02*
X157517999Y-88735001D01*
X159258000Y-80008590D02*
X159258000Y-86995000D01*
X157499409Y-78249999D02*
X159258000Y-80008590D01*
X154628011Y-84399991D02*
X154628011Y-79799987D01*
X117348000Y-94615000D02*
X117348000Y-92781652D01*
X156177999Y-78249999D02*
X157499409Y-78249999D01*
X114808000Y-97155000D02*
X117348000Y-94615000D01*
X117348000Y-92781652D02*
X123134652Y-86995000D01*
X150618003Y-88409999D02*
X154628011Y-84399991D01*
X123134652Y-86995000D02*
X141082998Y-86995000D01*
X157517999Y-88735001D02*
X156718000Y-89535000D01*
X141082998Y-86995000D02*
X142497997Y-88409999D01*
X154628011Y-79799987D02*
X156177999Y-78249999D01*
X142497997Y-88409999D02*
X150618003Y-88409999D01*
X157113002Y-85725000D02*
X157988000Y-84850002D01*
X156322998Y-85725000D02*
X157113002Y-85725000D01*
X153345499Y-88702499D02*
X156322998Y-85725000D01*
X157988000Y-83185000D02*
X156718000Y-81915000D01*
X150618003Y-93489999D02*
X153345499Y-90762503D01*
X138208001Y-93489999D02*
X150618003Y-93489999D01*
X124658652Y-92075000D02*
X136793002Y-92075000D01*
X157988000Y-84850002D02*
X157988000Y-83185000D01*
X119068011Y-97665641D02*
X124658652Y-92075000D01*
X119068011Y-117493991D02*
X119068011Y-97665641D01*
X136793002Y-92075000D02*
X138208001Y-93489999D01*
X113443001Y-121379999D02*
X115182003Y-121379999D01*
X153345499Y-90762503D02*
X153345499Y-88702499D01*
X115182003Y-121379999D02*
X119068011Y-117493991D01*
X112268000Y-122555000D02*
X113443001Y-121379999D01*
X113443001Y-123919999D02*
X112268000Y-125095000D01*
X154178000Y-90409998D02*
X154178000Y-92470002D01*
X156968003Y-88409999D02*
X156177999Y-88409999D01*
X124342738Y-96057610D02*
X123216042Y-96057610D01*
X156177999Y-88409999D02*
X154178000Y-90409998D01*
X158807989Y-86570013D02*
X156968003Y-88409999D01*
X138063002Y-95885000D02*
X136938001Y-94759999D01*
X158807989Y-81464989D02*
X158807989Y-86570013D01*
X156718000Y-79375000D02*
X158807989Y-81464989D01*
X154178000Y-92470002D02*
X150763002Y-95885000D01*
X150763002Y-95885000D02*
X138063002Y-95885000D01*
X119518022Y-119583980D02*
X115182003Y-123919999D01*
X136938001Y-94759999D02*
X125640349Y-94759999D01*
X125640349Y-94759999D02*
X124342738Y-96057610D01*
X123216042Y-96057610D02*
X119518022Y-99755630D01*
X119518022Y-99755630D02*
X119518022Y-119583980D01*
X115182003Y-123919999D02*
X113443001Y-123919999D01*
X133858000Y-73025000D02*
X136398000Y-75565000D01*
X128778000Y-73025000D02*
X133858000Y-73025000D01*
X128778000Y-73025000D02*
X130048000Y-73025000D01*
X166878000Y-97155000D02*
X164338000Y-94615000D01*
X168148000Y-97155000D02*
X166878000Y-97155000D01*
X123545600Y-97409000D02*
X123698000Y-97409000D01*
X125039010Y-98597610D02*
X125039010Y-103433990D01*
X119532988Y-128549988D02*
X124448014Y-128549988D01*
X124448014Y-128549988D02*
X126382999Y-126615003D01*
X117798011Y-126815011D02*
X119532988Y-128549988D01*
X124632610Y-103840390D02*
X123053262Y-103840390D01*
X123053262Y-103840390D02*
X119968033Y-106925619D01*
X119968033Y-106925619D02*
X119968033Y-119934967D01*
X119968033Y-119934967D02*
X117798011Y-122104989D01*
X141948001Y-133185001D02*
X142748000Y-133985000D01*
X117798011Y-122104989D02*
X117798011Y-126815011D01*
X140748001Y-125239999D02*
X141622999Y-126114997D01*
X141622999Y-132859999D02*
X141948001Y-133185001D01*
X126967999Y-125239999D02*
X140748001Y-125239999D01*
X126382999Y-125824999D02*
X126967999Y-125239999D01*
X125039010Y-103433990D02*
X124632610Y-103840390D01*
X126382999Y-126615003D02*
X126382999Y-125824999D01*
X123698000Y-97409000D02*
X123850400Y-97409000D01*
X123850400Y-97409000D02*
X125039010Y-98597610D01*
X141622999Y-126114997D02*
X141622999Y-132859999D01*
X132588000Y-102235000D02*
X135598001Y-105245001D01*
X135598001Y-105245001D02*
X136398000Y-106045000D01*
X132588000Y-99299998D02*
X132588000Y-102235000D01*
X133318000Y-98569999D02*
X132588000Y-99299998D01*
X139082999Y-98569999D02*
X133318000Y-98569999D01*
X142748000Y-102235000D02*
X139082999Y-98569999D01*
X126382999Y-107170001D02*
X135272999Y-107170001D01*
X124632610Y-108920390D02*
X126382999Y-107170001D01*
X141873002Y-123825000D02*
X125842998Y-123825000D01*
X122092610Y-108920390D02*
X124632610Y-108920390D01*
X144018000Y-125969998D02*
X141873002Y-123825000D01*
X144018000Y-130175000D02*
X144018000Y-125969998D01*
X146702999Y-132859999D02*
X144018000Y-130175000D01*
X135272999Y-107170001D02*
X136398000Y-106045000D01*
X120418044Y-110594956D02*
X122092610Y-108920390D01*
X164482999Y-132859999D02*
X146702999Y-132859999D01*
X125842998Y-123825000D02*
X123698000Y-125969998D01*
X123698000Y-125969998D02*
X123698000Y-126760002D01*
X123698000Y-126760002D02*
X122358025Y-128099977D01*
X122358025Y-128099977D02*
X119719387Y-128099977D01*
X165608000Y-133985000D02*
X164482999Y-132859999D01*
X119719387Y-128099977D02*
X118248022Y-126628612D01*
X118248022Y-126628612D02*
X118248022Y-122291389D01*
X118248022Y-122291389D02*
X120418044Y-120121367D01*
X120418044Y-120121367D02*
X120418044Y-110594956D01*
X165469370Y-92075000D02*
X164338000Y-92075000D01*
X169173001Y-95778631D02*
X165469370Y-92075000D01*
X169173001Y-97473349D02*
X169173001Y-95778631D01*
X171958000Y-86838600D02*
X173299010Y-88179610D01*
X173299010Y-98917338D02*
X172602738Y-99613610D01*
X172602738Y-99613610D02*
X171313262Y-99613610D01*
X171958000Y-85725000D02*
X171958000Y-86838600D01*
X171313262Y-99613610D02*
X169173001Y-97473349D01*
X173299010Y-88179610D02*
X173299010Y-98917338D01*
M02*
