G04 #@! TF.GenerationSoftware,KiCad,Pcbnew,(6.0.5)*
G04 #@! TF.CreationDate,2022-06-29T15:53:13+12:00*
G04 #@! TF.ProjectId,APEDSK-AU,41504544-534b-42d4-9155-2e6b69636164,rev?*
G04 #@! TF.SameCoordinates,Original*
G04 #@! TF.FileFunction,Legend,Top*
G04 #@! TF.FilePolarity,Positive*
%FSLAX46Y46*%
G04 Gerber Fmt 4.6, Leading zero omitted, Abs format (unit mm)*
G04 Created by KiCad (PCBNEW (6.0.5)) date 2022-06-29 15:53:13*
%MOMM*%
%LPD*%
G01*
G04 APERTURE LIST*
%ADD10C,0.150000*%
%ADD11C,0.120000*%
%ADD12O,2.032000X1.727200*%
G04 APERTURE END LIST*
D10*
X108458000Y-76835000D02*
X108458000Y-75565000D01*
X108458000Y-76835000D02*
X108458000Y-131445000D01*
X133135619Y-104807380D02*
X133135619Y-105474047D01*
X132135619Y-105045476D01*
X132802285Y-106283571D02*
X132135619Y-106283571D01*
X133183238Y-106045476D02*
X132468952Y-105807380D01*
X132468952Y-106426428D01*
X132135619Y-107283571D02*
X132135619Y-106807380D01*
X133135619Y-106807380D01*
X132183238Y-107569285D02*
X132135619Y-107712142D01*
X132135619Y-107950238D01*
X132183238Y-108045476D01*
X132230857Y-108093095D01*
X132326095Y-108140714D01*
X132421333Y-108140714D01*
X132516571Y-108093095D01*
X132564190Y-108045476D01*
X132611809Y-107950238D01*
X132659428Y-107759761D01*
X132707047Y-107664523D01*
X132754666Y-107616904D01*
X132849904Y-107569285D01*
X132945142Y-107569285D01*
X133040380Y-107616904D01*
X133088000Y-107664523D01*
X133135619Y-107759761D01*
X133135619Y-107997857D01*
X133088000Y-108140714D01*
X133183238Y-109283571D02*
X131897523Y-108426428D01*
X132135619Y-109616904D02*
X133135619Y-109616904D01*
X132659428Y-109616904D02*
X132659428Y-110188333D01*
X132135619Y-110188333D02*
X133135619Y-110188333D01*
X132230857Y-111235952D02*
X132183238Y-111188333D01*
X132135619Y-111045476D01*
X132135619Y-110950238D01*
X132183238Y-110807380D01*
X132278476Y-110712142D01*
X132373714Y-110664523D01*
X132564190Y-110616904D01*
X132707047Y-110616904D01*
X132897523Y-110664523D01*
X132992761Y-110712142D01*
X133088000Y-110807380D01*
X133135619Y-110950238D01*
X133135619Y-111045476D01*
X133088000Y-111188333D01*
X133040380Y-111235952D01*
X133135619Y-111521666D02*
X133135619Y-112093095D01*
X132135619Y-111807380D02*
X133135619Y-111807380D01*
X133135619Y-112902619D02*
X133135619Y-112426428D01*
X132659428Y-112378809D01*
X132707047Y-112426428D01*
X132754666Y-112521666D01*
X132754666Y-112759761D01*
X132707047Y-112855000D01*
X132659428Y-112902619D01*
X132564190Y-112950238D01*
X132326095Y-112950238D01*
X132230857Y-112902619D01*
X132183238Y-112855000D01*
X132135619Y-112759761D01*
X132135619Y-112521666D01*
X132183238Y-112426428D01*
X132230857Y-112378809D01*
X132802285Y-113807380D02*
X132135619Y-113807380D01*
X133183238Y-113569285D02*
X132468952Y-113331190D01*
X132468952Y-113950238D01*
X132135619Y-114855000D02*
X132135619Y-114283571D01*
X132135619Y-114569285D02*
X133135619Y-114569285D01*
X132992761Y-114474047D01*
X132897523Y-114378809D01*
X132849904Y-114283571D01*
X133135619Y-78137380D02*
X133135619Y-78804047D01*
X132135619Y-78375476D01*
X132802285Y-79613571D02*
X132135619Y-79613571D01*
X133183238Y-79375476D02*
X132468952Y-79137380D01*
X132468952Y-79756428D01*
X132135619Y-80613571D02*
X132135619Y-80137380D01*
X133135619Y-80137380D01*
X132183238Y-80899285D02*
X132135619Y-81042142D01*
X132135619Y-81280238D01*
X132183238Y-81375476D01*
X132230857Y-81423095D01*
X132326095Y-81470714D01*
X132421333Y-81470714D01*
X132516571Y-81423095D01*
X132564190Y-81375476D01*
X132611809Y-81280238D01*
X132659428Y-81089761D01*
X132707047Y-80994523D01*
X132754666Y-80946904D01*
X132849904Y-80899285D01*
X132945142Y-80899285D01*
X133040380Y-80946904D01*
X133088000Y-80994523D01*
X133135619Y-81089761D01*
X133135619Y-81327857D01*
X133088000Y-81470714D01*
X133183238Y-82613571D02*
X131897523Y-81756428D01*
X132135619Y-82946904D02*
X133135619Y-82946904D01*
X132659428Y-82946904D02*
X132659428Y-83518333D01*
X132135619Y-83518333D02*
X133135619Y-83518333D01*
X132230857Y-84565952D02*
X132183238Y-84518333D01*
X132135619Y-84375476D01*
X132135619Y-84280238D01*
X132183238Y-84137380D01*
X132278476Y-84042142D01*
X132373714Y-83994523D01*
X132564190Y-83946904D01*
X132707047Y-83946904D01*
X132897523Y-83994523D01*
X132992761Y-84042142D01*
X133088000Y-84137380D01*
X133135619Y-84280238D01*
X133135619Y-84375476D01*
X133088000Y-84518333D01*
X133040380Y-84565952D01*
X133135619Y-84851666D02*
X133135619Y-85423095D01*
X132135619Y-85137380D02*
X133135619Y-85137380D01*
X133135619Y-86232619D02*
X133135619Y-85756428D01*
X132659428Y-85708809D01*
X132707047Y-85756428D01*
X132754666Y-85851666D01*
X132754666Y-86089761D01*
X132707047Y-86185000D01*
X132659428Y-86232619D01*
X132564190Y-86280238D01*
X132326095Y-86280238D01*
X132230857Y-86232619D01*
X132183238Y-86185000D01*
X132135619Y-86089761D01*
X132135619Y-85851666D01*
X132183238Y-85756428D01*
X132230857Y-85708809D01*
X132802285Y-87137380D02*
X132135619Y-87137380D01*
X133183238Y-86899285D02*
X132468952Y-86661190D01*
X132468952Y-87280238D01*
X132135619Y-88185000D02*
X132135619Y-87613571D01*
X132135619Y-87899285D02*
X133135619Y-87899285D01*
X132992761Y-87804047D01*
X132897523Y-87708809D01*
X132849904Y-87613571D01*
X159369428Y-129675000D02*
X159274190Y-129627380D01*
X159131333Y-129627380D01*
X158988476Y-129675000D01*
X158893238Y-129770238D01*
X158845619Y-129865476D01*
X158798000Y-130055952D01*
X158798000Y-130198809D01*
X158845619Y-130389285D01*
X158893238Y-130484523D01*
X158988476Y-130579761D01*
X159131333Y-130627380D01*
X159226571Y-130627380D01*
X159369428Y-130579761D01*
X159417047Y-130532142D01*
X159417047Y-130198809D01*
X159226571Y-130198809D01*
X159798000Y-130341666D02*
X160274190Y-130341666D01*
X159702761Y-130627380D02*
X160036095Y-129627380D01*
X160369428Y-130627380D01*
X161178952Y-130627380D02*
X160702761Y-130627380D01*
X160702761Y-129627380D01*
X162036095Y-130627380D02*
X161464666Y-130627380D01*
X161750380Y-130627380D02*
X161750380Y-129627380D01*
X161655142Y-129770238D01*
X161559904Y-129865476D01*
X161464666Y-129913095D01*
X162893238Y-129627380D02*
X162702761Y-129627380D01*
X162607523Y-129675000D01*
X162559904Y-129722619D01*
X162464666Y-129865476D01*
X162417047Y-130055952D01*
X162417047Y-130436904D01*
X162464666Y-130532142D01*
X162512285Y-130579761D01*
X162607523Y-130627380D01*
X162798000Y-130627380D01*
X162893238Y-130579761D01*
X162940857Y-130532142D01*
X162988476Y-130436904D01*
X162988476Y-130198809D01*
X162940857Y-130103571D01*
X162893238Y-130055952D01*
X162798000Y-130008333D01*
X162607523Y-130008333D01*
X162512285Y-130055952D01*
X162464666Y-130103571D01*
X162417047Y-130198809D01*
X163274190Y-129627380D02*
X163607523Y-130627380D01*
X163940857Y-129627380D01*
X164417047Y-130055952D02*
X164321809Y-130008333D01*
X164274190Y-129960714D01*
X164226571Y-129865476D01*
X164226571Y-129817857D01*
X164274190Y-129722619D01*
X164321809Y-129675000D01*
X164417047Y-129627380D01*
X164607523Y-129627380D01*
X164702761Y-129675000D01*
X164750380Y-129722619D01*
X164798000Y-129817857D01*
X164798000Y-129865476D01*
X164750380Y-129960714D01*
X164702761Y-130008333D01*
X164607523Y-130055952D01*
X164417047Y-130055952D01*
X164321809Y-130103571D01*
X164274190Y-130151190D01*
X164226571Y-130246428D01*
X164226571Y-130436904D01*
X164274190Y-130532142D01*
X164321809Y-130579761D01*
X164417047Y-130627380D01*
X164607523Y-130627380D01*
X164702761Y-130579761D01*
X164750380Y-130532142D01*
X164798000Y-130436904D01*
X164798000Y-130246428D01*
X164750380Y-130151190D01*
X164702761Y-130103571D01*
X164607523Y-130055952D01*
X158805619Y-91257857D02*
X159805619Y-91257857D01*
X158853238Y-91686428D02*
X158805619Y-91829285D01*
X158805619Y-92067380D01*
X158853238Y-92162619D01*
X158900857Y-92210238D01*
X158996095Y-92257857D01*
X159091333Y-92257857D01*
X159186571Y-92210238D01*
X159234190Y-92162619D01*
X159281809Y-92067380D01*
X159329428Y-91876904D01*
X159377047Y-91781666D01*
X159424666Y-91734047D01*
X159519904Y-91686428D01*
X159615142Y-91686428D01*
X159710380Y-91734047D01*
X159758000Y-91781666D01*
X159805619Y-91876904D01*
X159805619Y-92115000D01*
X159758000Y-92257857D01*
X159805619Y-93115000D02*
X159805619Y-92924523D01*
X159758000Y-92829285D01*
X159710380Y-92781666D01*
X159567523Y-92686428D01*
X159377047Y-92638809D01*
X158996095Y-92638809D01*
X158900857Y-92686428D01*
X158853238Y-92734047D01*
X158805619Y-92829285D01*
X158805619Y-93019761D01*
X158853238Y-93115000D01*
X158900857Y-93162619D01*
X158996095Y-93210238D01*
X159234190Y-93210238D01*
X159329428Y-93162619D01*
X159377047Y-93115000D01*
X159424666Y-93019761D01*
X159424666Y-92829285D01*
X159377047Y-92734047D01*
X159329428Y-92686428D01*
X159234190Y-92638809D01*
X158805619Y-94162619D02*
X158805619Y-93591190D01*
X158805619Y-93876904D02*
X159805619Y-93876904D01*
X159662761Y-93781666D01*
X159567523Y-93686428D01*
X159519904Y-93591190D01*
X158900857Y-95162619D02*
X158853238Y-95115000D01*
X158805619Y-94972142D01*
X158805619Y-94876904D01*
X158853238Y-94734047D01*
X158948476Y-94638809D01*
X159043714Y-94591190D01*
X159234190Y-94543571D01*
X159377047Y-94543571D01*
X159567523Y-94591190D01*
X159662761Y-94638809D01*
X159758000Y-94734047D01*
X159805619Y-94876904D01*
X159805619Y-94972142D01*
X159758000Y-95115000D01*
X159710380Y-95162619D01*
X159805619Y-96067380D02*
X159805619Y-95591190D01*
X159329428Y-95543571D01*
X159377047Y-95591190D01*
X159424666Y-95686428D01*
X159424666Y-95924523D01*
X159377047Y-96019761D01*
X159329428Y-96067380D01*
X159234190Y-96115000D01*
X158996095Y-96115000D01*
X158900857Y-96067380D01*
X158853238Y-96019761D01*
X158805619Y-95924523D01*
X158805619Y-95686428D01*
X158853238Y-95591190D01*
X158900857Y-95543571D01*
X158805619Y-97067380D02*
X158805619Y-96495952D01*
X158805619Y-96781666D02*
X159805619Y-96781666D01*
X159662761Y-96686428D01*
X159567523Y-96591190D01*
X159519904Y-96495952D01*
X159710380Y-97448333D02*
X159758000Y-97495952D01*
X159805619Y-97591190D01*
X159805619Y-97829285D01*
X159758000Y-97924523D01*
X159710380Y-97972142D01*
X159615142Y-98019761D01*
X159519904Y-98019761D01*
X159377047Y-97972142D01*
X158805619Y-97400714D01*
X158805619Y-98019761D01*
X144582166Y-70335000D02*
X144582166Y-70901666D01*
X144548833Y-70968333D01*
X144515500Y-71001666D01*
X144448833Y-71035000D01*
X144348833Y-71035000D01*
X144282166Y-71001666D01*
X144582166Y-70768333D02*
X144515500Y-70801666D01*
X144382166Y-70801666D01*
X144315500Y-70768333D01*
X144282166Y-70735000D01*
X144248833Y-70668333D01*
X144248833Y-70468333D01*
X144282166Y-70401666D01*
X144315500Y-70368333D01*
X144382166Y-70335000D01*
X144515500Y-70335000D01*
X144582166Y-70368333D01*
X144915500Y-70801666D02*
X144915500Y-70335000D01*
X144915500Y-70101666D02*
X144882166Y-70135000D01*
X144915500Y-70168333D01*
X144948833Y-70135000D01*
X144915500Y-70101666D01*
X144915500Y-70168333D01*
X145148833Y-70335000D02*
X145415500Y-70335000D01*
X145248833Y-70101666D02*
X145248833Y-70701666D01*
X145282166Y-70768333D01*
X145348833Y-70801666D01*
X145415500Y-70801666D01*
X145648833Y-70801666D02*
X145648833Y-70101666D01*
X145948833Y-70801666D02*
X145948833Y-70435000D01*
X145915500Y-70368333D01*
X145848833Y-70335000D01*
X145748833Y-70335000D01*
X145682166Y-70368333D01*
X145648833Y-70401666D01*
X146582166Y-70335000D02*
X146582166Y-70801666D01*
X146282166Y-70335000D02*
X146282166Y-70701666D01*
X146315500Y-70768333D01*
X146382166Y-70801666D01*
X146482166Y-70801666D01*
X146548833Y-70768333D01*
X146582166Y-70735000D01*
X146915500Y-70801666D02*
X146915500Y-70101666D01*
X146915500Y-70368333D02*
X146982166Y-70335000D01*
X147115500Y-70335000D01*
X147182166Y-70368333D01*
X147215500Y-70401666D01*
X147248833Y-70468333D01*
X147248833Y-70668333D01*
X147215500Y-70735000D01*
X147182166Y-70768333D01*
X147115500Y-70801666D01*
X146982166Y-70801666D01*
X146915500Y-70768333D01*
X147548833Y-70735000D02*
X147582166Y-70768333D01*
X147548833Y-70801666D01*
X147515500Y-70768333D01*
X147548833Y-70735000D01*
X147548833Y-70801666D01*
X148182166Y-70768333D02*
X148115500Y-70801666D01*
X147982166Y-70801666D01*
X147915500Y-70768333D01*
X147882166Y-70735000D01*
X147848833Y-70668333D01*
X147848833Y-70468333D01*
X147882166Y-70401666D01*
X147915500Y-70368333D01*
X147982166Y-70335000D01*
X148115500Y-70335000D01*
X148182166Y-70368333D01*
X148582166Y-70801666D02*
X148515500Y-70768333D01*
X148482166Y-70735000D01*
X148448833Y-70668333D01*
X148448833Y-70468333D01*
X148482166Y-70401666D01*
X148515500Y-70368333D01*
X148582166Y-70335000D01*
X148682166Y-70335000D01*
X148748833Y-70368333D01*
X148782166Y-70401666D01*
X148815500Y-70468333D01*
X148815500Y-70668333D01*
X148782166Y-70735000D01*
X148748833Y-70768333D01*
X148682166Y-70801666D01*
X148582166Y-70801666D01*
X149115500Y-70801666D02*
X149115500Y-70335000D01*
X149115500Y-70401666D02*
X149148833Y-70368333D01*
X149215500Y-70335000D01*
X149315500Y-70335000D01*
X149382166Y-70368333D01*
X149415500Y-70435000D01*
X149415500Y-70801666D01*
X149415500Y-70435000D02*
X149448833Y-70368333D01*
X149515500Y-70335000D01*
X149615500Y-70335000D01*
X149682166Y-70368333D01*
X149715500Y-70435000D01*
X149715500Y-70801666D01*
X150548833Y-70068333D02*
X149948833Y-70968333D01*
X150782166Y-70335000D02*
X150782166Y-70935000D01*
X150748833Y-71001666D01*
X150682166Y-71035000D01*
X150648833Y-71035000D01*
X150782166Y-70101666D02*
X150748833Y-70135000D01*
X150782166Y-70168333D01*
X150815500Y-70135000D01*
X150782166Y-70101666D01*
X150782166Y-70168333D01*
X151415500Y-70801666D02*
X151415500Y-70435000D01*
X151382166Y-70368333D01*
X151315500Y-70335000D01*
X151182166Y-70335000D01*
X151115500Y-70368333D01*
X151415500Y-70768333D02*
X151348833Y-70801666D01*
X151182166Y-70801666D01*
X151115500Y-70768333D01*
X151082166Y-70701666D01*
X151082166Y-70635000D01*
X151115500Y-70568333D01*
X151182166Y-70535000D01*
X151348833Y-70535000D01*
X151415500Y-70501666D01*
X151748833Y-70801666D02*
X151748833Y-70335000D01*
X151748833Y-70401666D02*
X151782166Y-70368333D01*
X151848833Y-70335000D01*
X151948833Y-70335000D01*
X152015500Y-70368333D01*
X152048833Y-70435000D01*
X152048833Y-70801666D01*
X152048833Y-70435000D02*
X152082166Y-70368333D01*
X152148833Y-70335000D01*
X152248833Y-70335000D01*
X152315500Y-70368333D01*
X152348833Y-70435000D01*
X152348833Y-70801666D01*
X152682166Y-70801666D02*
X152682166Y-70101666D01*
X152682166Y-70368333D02*
X152748833Y-70335000D01*
X152882166Y-70335000D01*
X152948833Y-70368333D01*
X152982166Y-70401666D01*
X153015500Y-70468333D01*
X153015500Y-70668333D01*
X152982166Y-70735000D01*
X152948833Y-70768333D01*
X152882166Y-70801666D01*
X152748833Y-70801666D01*
X152682166Y-70768333D01*
X153615500Y-70335000D02*
X153615500Y-70801666D01*
X153315500Y-70335000D02*
X153315500Y-70701666D01*
X153348833Y-70768333D01*
X153415500Y-70801666D01*
X153515500Y-70801666D01*
X153582166Y-70768333D01*
X153615500Y-70735000D01*
X154248833Y-70335000D02*
X154248833Y-70801666D01*
X153948833Y-70335000D02*
X153948833Y-70701666D01*
X153982166Y-70768333D01*
X154048833Y-70801666D01*
X154148833Y-70801666D01*
X154215500Y-70768333D01*
X154248833Y-70735000D01*
X154582166Y-70801666D02*
X154582166Y-70335000D01*
X154582166Y-70468333D02*
X154615500Y-70401666D01*
X154648833Y-70368333D01*
X154715500Y-70335000D01*
X154782166Y-70335000D01*
X155515500Y-70068333D02*
X154915500Y-70968333D01*
X155715500Y-70601666D02*
X156048833Y-70601666D01*
X155648833Y-70801666D02*
X155882166Y-70101666D01*
X156115500Y-70801666D01*
X156348833Y-70801666D02*
X156348833Y-70101666D01*
X156615500Y-70101666D01*
X156682166Y-70135000D01*
X156715500Y-70168333D01*
X156748833Y-70235000D01*
X156748833Y-70335000D01*
X156715500Y-70401666D01*
X156682166Y-70435000D01*
X156615500Y-70468333D01*
X156348833Y-70468333D01*
X157048833Y-70435000D02*
X157282166Y-70435000D01*
X157382166Y-70801666D02*
X157048833Y-70801666D01*
X157048833Y-70101666D01*
X157382166Y-70101666D01*
X157682166Y-70801666D02*
X157682166Y-70101666D01*
X157848833Y-70101666D01*
X157948833Y-70135000D01*
X158015500Y-70201666D01*
X158048833Y-70268333D01*
X158082166Y-70401666D01*
X158082166Y-70501666D01*
X158048833Y-70635000D01*
X158015500Y-70701666D01*
X157948833Y-70768333D01*
X157848833Y-70801666D01*
X157682166Y-70801666D01*
X158348833Y-70768333D02*
X158448833Y-70801666D01*
X158615500Y-70801666D01*
X158682166Y-70768333D01*
X158715500Y-70735000D01*
X158748833Y-70668333D01*
X158748833Y-70601666D01*
X158715500Y-70535000D01*
X158682166Y-70501666D01*
X158615500Y-70468333D01*
X158482166Y-70435000D01*
X158415500Y-70401666D01*
X158382166Y-70368333D01*
X158348833Y-70301666D01*
X158348833Y-70235000D01*
X158382166Y-70168333D01*
X158415500Y-70135000D01*
X158482166Y-70101666D01*
X158648833Y-70101666D01*
X158748833Y-70135000D01*
X159048833Y-70801666D02*
X159048833Y-70101666D01*
X159448833Y-70801666D02*
X159148833Y-70401666D01*
X159448833Y-70101666D02*
X159048833Y-70501666D01*
X159782166Y-70801666D02*
X159915500Y-70801666D01*
X159982166Y-70768333D01*
X160015500Y-70735000D01*
X160082166Y-70635000D01*
X160115500Y-70501666D01*
X160115500Y-70235000D01*
X160082166Y-70168333D01*
X160048833Y-70135000D01*
X159982166Y-70101666D01*
X159848833Y-70101666D01*
X159782166Y-70135000D01*
X159748833Y-70168333D01*
X159715500Y-70235000D01*
X159715500Y-70401666D01*
X159748833Y-70468333D01*
X159782166Y-70501666D01*
X159848833Y-70535000D01*
X159982166Y-70535000D01*
X160048833Y-70501666D01*
X160082166Y-70468333D01*
X160115500Y-70401666D01*
X160448833Y-70801666D02*
X160582166Y-70801666D01*
X160648833Y-70768333D01*
X160682166Y-70735000D01*
X160748833Y-70635000D01*
X160782166Y-70501666D01*
X160782166Y-70235000D01*
X160748833Y-70168333D01*
X160715500Y-70135000D01*
X160648833Y-70101666D01*
X160515500Y-70101666D01*
X160448833Y-70135000D01*
X160415500Y-70168333D01*
X160382166Y-70235000D01*
X160382166Y-70401666D01*
X160415500Y-70468333D01*
X160448833Y-70501666D01*
X160515500Y-70535000D01*
X160648833Y-70535000D01*
X160715500Y-70501666D01*
X160748833Y-70468333D01*
X160782166Y-70401666D01*
X147105619Y-80812142D02*
X147105619Y-81478809D01*
X146105619Y-81050238D01*
X146772285Y-82288333D02*
X146105619Y-82288333D01*
X147153238Y-82050238D02*
X146438952Y-81812142D01*
X146438952Y-82431190D01*
X146105619Y-82812142D02*
X147105619Y-82812142D01*
X146629428Y-82812142D02*
X146629428Y-83383571D01*
X146105619Y-83383571D02*
X147105619Y-83383571D01*
X146200857Y-84431190D02*
X146153238Y-84383571D01*
X146105619Y-84240714D01*
X146105619Y-84145476D01*
X146153238Y-84002619D01*
X146248476Y-83907380D01*
X146343714Y-83859761D01*
X146534190Y-83812142D01*
X146677047Y-83812142D01*
X146867523Y-83859761D01*
X146962761Y-83907380D01*
X147058000Y-84002619D01*
X147105619Y-84145476D01*
X147105619Y-84240714D01*
X147058000Y-84383571D01*
X147010380Y-84431190D01*
X147105619Y-84716904D02*
X147105619Y-85288333D01*
X146105619Y-85002619D02*
X147105619Y-85002619D01*
X147105619Y-86097857D02*
X147105619Y-85621666D01*
X146629428Y-85574047D01*
X146677047Y-85621666D01*
X146724666Y-85716904D01*
X146724666Y-85955000D01*
X146677047Y-86050238D01*
X146629428Y-86097857D01*
X146534190Y-86145476D01*
X146296095Y-86145476D01*
X146200857Y-86097857D01*
X146153238Y-86050238D01*
X146105619Y-85955000D01*
X146105619Y-85716904D01*
X146153238Y-85621666D01*
X146200857Y-85574047D01*
X146105619Y-86621666D02*
X146105619Y-86812142D01*
X146153238Y-86907380D01*
X146200857Y-86955000D01*
X146343714Y-87050238D01*
X146534190Y-87097857D01*
X146915142Y-87097857D01*
X147010380Y-87050238D01*
X147058000Y-87002619D01*
X147105619Y-86907380D01*
X147105619Y-86716904D01*
X147058000Y-86621666D01*
X147010380Y-86574047D01*
X146915142Y-86526428D01*
X146677047Y-86526428D01*
X146581809Y-86574047D01*
X146534190Y-86621666D01*
X146486571Y-86716904D01*
X146486571Y-86907380D01*
X146534190Y-87002619D01*
X146581809Y-87050238D01*
X146677047Y-87097857D01*
X147105619Y-88002619D02*
X147105619Y-87526428D01*
X146629428Y-87478809D01*
X146677047Y-87526428D01*
X146724666Y-87621666D01*
X146724666Y-87859761D01*
X146677047Y-87955000D01*
X146629428Y-88002619D01*
X146534190Y-88050238D01*
X146296095Y-88050238D01*
X146200857Y-88002619D01*
X146153238Y-87955000D01*
X146105619Y-87859761D01*
X146105619Y-87621666D01*
X146153238Y-87526428D01*
X146200857Y-87478809D01*
X147105619Y-107863095D02*
X147105619Y-108529761D01*
X146105619Y-108101190D01*
X146772285Y-109339285D02*
X146105619Y-109339285D01*
X147153238Y-109101190D02*
X146438952Y-108863095D01*
X146438952Y-109482142D01*
X146105619Y-109863095D02*
X147105619Y-109863095D01*
X146629428Y-109863095D02*
X146629428Y-110434523D01*
X146105619Y-110434523D02*
X147105619Y-110434523D01*
X146200857Y-111482142D02*
X146153238Y-111434523D01*
X146105619Y-111291666D01*
X146105619Y-111196428D01*
X146153238Y-111053571D01*
X146248476Y-110958333D01*
X146343714Y-110910714D01*
X146534190Y-110863095D01*
X146677047Y-110863095D01*
X146867523Y-110910714D01*
X146962761Y-110958333D01*
X147058000Y-111053571D01*
X147105619Y-111196428D01*
X147105619Y-111291666D01*
X147058000Y-111434523D01*
X147010380Y-111482142D01*
X147105619Y-112386904D02*
X147105619Y-111910714D01*
X146629428Y-111863095D01*
X146677047Y-111910714D01*
X146724666Y-112005952D01*
X146724666Y-112244047D01*
X146677047Y-112339285D01*
X146629428Y-112386904D01*
X146534190Y-112434523D01*
X146296095Y-112434523D01*
X146200857Y-112386904D01*
X146153238Y-112339285D01*
X146105619Y-112244047D01*
X146105619Y-112005952D01*
X146153238Y-111910714D01*
X146200857Y-111863095D01*
X146105619Y-112910714D02*
X146105619Y-113101190D01*
X146153238Y-113196428D01*
X146200857Y-113244047D01*
X146343714Y-113339285D01*
X146534190Y-113386904D01*
X146915142Y-113386904D01*
X147010380Y-113339285D01*
X147058000Y-113291666D01*
X147105619Y-113196428D01*
X147105619Y-113005952D01*
X147058000Y-112910714D01*
X147010380Y-112863095D01*
X146915142Y-112815476D01*
X146677047Y-112815476D01*
X146581809Y-112863095D01*
X146534190Y-112910714D01*
X146486571Y-113005952D01*
X146486571Y-113196428D01*
X146534190Y-113291666D01*
X146581809Y-113339285D01*
X146677047Y-113386904D01*
X147105619Y-114291666D02*
X147105619Y-113815476D01*
X146629428Y-113767857D01*
X146677047Y-113815476D01*
X146724666Y-113910714D01*
X146724666Y-114148809D01*
X146677047Y-114244047D01*
X146629428Y-114291666D01*
X146534190Y-114339285D01*
X146296095Y-114339285D01*
X146200857Y-114291666D01*
X146153238Y-114244047D01*
X146105619Y-114148809D01*
X146105619Y-113910714D01*
X146153238Y-113815476D01*
X146200857Y-113767857D01*
X117140062Y-76685000D02*
X117081729Y-77151666D01*
X117006729Y-76418333D02*
X116777562Y-76918333D01*
X117210895Y-76918333D01*
X117806729Y-76685000D02*
X117748395Y-77151666D01*
X117673395Y-76418333D02*
X117444229Y-76918333D01*
X117877562Y-76918333D01*
X172989904Y-121451666D02*
X173466095Y-121451666D01*
X172894666Y-121737380D02*
X173228000Y-120737380D01*
X173561333Y-121737380D01*
X144278000Y-69331666D02*
X144611333Y-69331666D01*
X144186333Y-69531666D02*
X144507166Y-68831666D01*
X144653000Y-69531666D01*
X144886333Y-69531666D02*
X144973833Y-68831666D01*
X145240500Y-68831666D01*
X145303000Y-68865000D01*
X145332166Y-68898333D01*
X145357166Y-68965000D01*
X145344666Y-69065000D01*
X145303000Y-69131666D01*
X145265500Y-69165000D01*
X145194666Y-69198333D01*
X144928000Y-69198333D01*
X145632166Y-69165000D02*
X145865500Y-69165000D01*
X145919666Y-69531666D02*
X145586333Y-69531666D01*
X145673833Y-68831666D01*
X146007166Y-68831666D01*
X146219666Y-69531666D02*
X146307166Y-68831666D01*
X146473833Y-68831666D01*
X146569666Y-68865000D01*
X146628000Y-68931666D01*
X146653000Y-68998333D01*
X146669666Y-69131666D01*
X146657166Y-69231666D01*
X146607166Y-69365000D01*
X146565500Y-69431666D01*
X146490500Y-69498333D01*
X146386333Y-69531666D01*
X146219666Y-69531666D01*
X146890500Y-69498333D02*
X146986333Y-69531666D01*
X147153000Y-69531666D01*
X147223833Y-69498333D01*
X147261333Y-69465000D01*
X147303000Y-69398333D01*
X147311333Y-69331666D01*
X147286333Y-69265000D01*
X147257166Y-69231666D01*
X147194666Y-69198333D01*
X147065500Y-69165000D01*
X147003000Y-69131666D01*
X146973833Y-69098333D01*
X146948833Y-69031666D01*
X146957166Y-68965000D01*
X146998833Y-68898333D01*
X147036333Y-68865000D01*
X147107166Y-68831666D01*
X147273833Y-68831666D01*
X147369666Y-68865000D01*
X147586333Y-69531666D02*
X147673833Y-68831666D01*
X147986333Y-69531666D02*
X147736333Y-69131666D01*
X148073833Y-68831666D02*
X147623833Y-69231666D01*
X148319666Y-69531666D02*
X148453000Y-69531666D01*
X148523833Y-69498333D01*
X148561333Y-69465000D01*
X148640500Y-69365000D01*
X148690500Y-69231666D01*
X148723833Y-68965000D01*
X148698833Y-68898333D01*
X148669666Y-68865000D01*
X148607166Y-68831666D01*
X148473833Y-68831666D01*
X148403000Y-68865000D01*
X148365500Y-68898333D01*
X148323833Y-68965000D01*
X148303000Y-69131666D01*
X148328000Y-69198333D01*
X148357166Y-69231666D01*
X148419666Y-69265000D01*
X148553000Y-69265000D01*
X148623833Y-69231666D01*
X148661333Y-69198333D01*
X148703000Y-69131666D01*
X148986333Y-69531666D02*
X149119666Y-69531666D01*
X149190500Y-69498333D01*
X149228000Y-69465000D01*
X149307166Y-69365000D01*
X149357166Y-69231666D01*
X149390500Y-68965000D01*
X149365500Y-68898333D01*
X149336333Y-68865000D01*
X149273833Y-68831666D01*
X149140500Y-68831666D01*
X149069666Y-68865000D01*
X149032166Y-68898333D01*
X148990500Y-68965000D01*
X148969666Y-69131666D01*
X148994666Y-69198333D01*
X149023833Y-69231666D01*
X149086333Y-69265000D01*
X149219666Y-69265000D01*
X149290500Y-69231666D01*
X149328000Y-69198333D01*
X149369666Y-69131666D01*
X150144666Y-69065000D02*
X150253000Y-69531666D01*
X150478000Y-69065000D01*
X150907166Y-68831666D02*
X150973833Y-68831666D01*
X151036333Y-68865000D01*
X151065500Y-68898333D01*
X151090500Y-68965000D01*
X151107166Y-69098333D01*
X151086333Y-69265000D01*
X151036333Y-69398333D01*
X150994666Y-69465000D01*
X150957166Y-69498333D01*
X150886333Y-69531666D01*
X150819666Y-69531666D01*
X150757166Y-69498333D01*
X150728000Y-69465000D01*
X150703000Y-69398333D01*
X150686333Y-69265000D01*
X150707166Y-69098333D01*
X150757166Y-68965000D01*
X150798833Y-68898333D01*
X150836333Y-68865000D01*
X150907166Y-68831666D01*
X151361333Y-69465000D02*
X151390500Y-69498333D01*
X151353000Y-69531666D01*
X151323833Y-69498333D01*
X151361333Y-69465000D01*
X151353000Y-69531666D01*
X152053000Y-69531666D02*
X151653000Y-69531666D01*
X151853000Y-69531666D02*
X151940500Y-68831666D01*
X151861333Y-68931666D01*
X151786333Y-68998333D01*
X151715500Y-69031666D01*
X152398833Y-68898333D02*
X152436333Y-68865000D01*
X152507166Y-68831666D01*
X152673833Y-68831666D01*
X152736333Y-68865000D01*
X152765500Y-68898333D01*
X152790500Y-68965000D01*
X152782166Y-69031666D01*
X152736333Y-69131666D01*
X152286333Y-69531666D01*
X152719666Y-69531666D01*
X153078000Y-69065000D02*
X152990500Y-69765000D01*
X153073833Y-69098333D02*
X153144666Y-69065000D01*
X153278000Y-69065000D01*
X153340500Y-69098333D01*
X153369666Y-69131666D01*
X153394666Y-69198333D01*
X153369666Y-69398333D01*
X153328000Y-69465000D01*
X153290500Y-69498333D01*
X153219666Y-69531666D01*
X153086333Y-69531666D01*
X153023833Y-69498333D01*
X154219666Y-69265000D02*
X154753000Y-69265000D01*
X155753000Y-69798333D02*
X155723833Y-69765000D01*
X155669666Y-69665000D01*
X155644666Y-69598333D01*
X155623833Y-69498333D01*
X155611333Y-69331666D01*
X155628000Y-69198333D01*
X155682166Y-69031666D01*
X155728000Y-68931666D01*
X155769666Y-68865000D01*
X155848833Y-68765000D01*
X155886333Y-68731666D01*
X156357166Y-69498333D02*
X156286333Y-69531666D01*
X156153000Y-69531666D01*
X156090500Y-69498333D01*
X156061333Y-69465000D01*
X156036333Y-69398333D01*
X156061333Y-69198333D01*
X156103000Y-69131666D01*
X156140500Y-69098333D01*
X156211333Y-69065000D01*
X156344666Y-69065000D01*
X156407166Y-69098333D01*
X156553000Y-69798333D02*
X156590500Y-69765000D01*
X156669666Y-69665000D01*
X156711333Y-69598333D01*
X156757166Y-69498333D01*
X156811333Y-69331666D01*
X156828000Y-69198333D01*
X156815500Y-69031666D01*
X156794666Y-68931666D01*
X156769666Y-68865000D01*
X156715500Y-68765000D01*
X156686333Y-68731666D01*
X157698833Y-68898333D02*
X157736333Y-68865000D01*
X157807166Y-68831666D01*
X157973833Y-68831666D01*
X158036333Y-68865000D01*
X158065500Y-68898333D01*
X158090500Y-68965000D01*
X158082166Y-69031666D01*
X158036333Y-69131666D01*
X157586333Y-69531666D01*
X158019666Y-69531666D01*
X158540500Y-68831666D02*
X158607166Y-68831666D01*
X158669666Y-68865000D01*
X158698833Y-68898333D01*
X158723833Y-68965000D01*
X158740500Y-69098333D01*
X158719666Y-69265000D01*
X158669666Y-69398333D01*
X158628000Y-69465000D01*
X158590500Y-69498333D01*
X158519666Y-69531666D01*
X158453000Y-69531666D01*
X158390500Y-69498333D01*
X158361333Y-69465000D01*
X158336333Y-69398333D01*
X158319666Y-69265000D01*
X158340500Y-69098333D01*
X158390500Y-68965000D01*
X158432166Y-68898333D01*
X158469666Y-68865000D01*
X158540500Y-68831666D01*
X159032166Y-68898333D02*
X159069666Y-68865000D01*
X159140500Y-68831666D01*
X159307166Y-68831666D01*
X159369666Y-68865000D01*
X159398833Y-68898333D01*
X159423833Y-68965000D01*
X159415500Y-69031666D01*
X159369666Y-69131666D01*
X158919666Y-69531666D01*
X159353000Y-69531666D01*
X159698833Y-68898333D02*
X159736333Y-68865000D01*
X159807166Y-68831666D01*
X159973833Y-68831666D01*
X160036333Y-68865000D01*
X160065500Y-68898333D01*
X160090500Y-68965000D01*
X160082166Y-69031666D01*
X160036333Y-69131666D01*
X159586333Y-69531666D01*
X160019666Y-69531666D01*
X161140500Y-68831666D02*
X161078000Y-69331666D01*
X161032166Y-69431666D01*
X160957166Y-69498333D01*
X160853000Y-69531666D01*
X160786333Y-69531666D01*
X161486333Y-69531666D02*
X161423833Y-69498333D01*
X161394666Y-69465000D01*
X161369666Y-69398333D01*
X161394666Y-69198333D01*
X161436333Y-69131666D01*
X161473833Y-69098333D01*
X161544666Y-69065000D01*
X161644666Y-69065000D01*
X161707166Y-69098333D01*
X161736333Y-69131666D01*
X161761333Y-69198333D01*
X161736333Y-69398333D01*
X161694666Y-69465000D01*
X161657166Y-69498333D01*
X161586333Y-69531666D01*
X161486333Y-69531666D01*
X162323833Y-69498333D02*
X162253000Y-69531666D01*
X162119666Y-69531666D01*
X162057166Y-69498333D01*
X162028000Y-69465000D01*
X162003000Y-69398333D01*
X162028000Y-69198333D01*
X162069666Y-69131666D01*
X162107166Y-69098333D01*
X162178000Y-69065000D01*
X162311333Y-69065000D01*
X162373833Y-69098333D01*
X162619666Y-69531666D02*
X162707166Y-68831666D01*
X162919666Y-69531666D02*
X162965500Y-69165000D01*
X162940500Y-69098333D01*
X162878000Y-69065000D01*
X162778000Y-69065000D01*
X162707166Y-69098333D01*
X162669666Y-69131666D01*
X163523833Y-69498333D02*
X163453000Y-69531666D01*
X163319666Y-69531666D01*
X163257166Y-69498333D01*
X163232166Y-69431666D01*
X163265500Y-69165000D01*
X163307166Y-69098333D01*
X163378000Y-69065000D01*
X163511333Y-69065000D01*
X163573833Y-69098333D01*
X163598833Y-69165000D01*
X163590500Y-69231666D01*
X163248833Y-69298333D01*
X163911333Y-69065000D02*
X163853000Y-69531666D01*
X163903000Y-69131666D02*
X163940500Y-69098333D01*
X164011333Y-69065000D01*
X164111333Y-69065000D01*
X164173833Y-69098333D01*
X164198833Y-69165000D01*
X164153000Y-69531666D01*
X165298833Y-69165000D02*
X165394666Y-69198333D01*
X165423833Y-69231666D01*
X165448833Y-69298333D01*
X165436333Y-69398333D01*
X165394666Y-69465000D01*
X165357166Y-69498333D01*
X165286333Y-69531666D01*
X165019666Y-69531666D01*
X165107166Y-68831666D01*
X165340500Y-68831666D01*
X165403000Y-68865000D01*
X165432166Y-68898333D01*
X165457166Y-68965000D01*
X165448833Y-69031666D01*
X165407166Y-69098333D01*
X165369666Y-69131666D01*
X165298833Y-69165000D01*
X165065500Y-69165000D01*
X166078000Y-69065000D02*
X166019666Y-69531666D01*
X165778000Y-69065000D02*
X165732166Y-69431666D01*
X165757166Y-69498333D01*
X165819666Y-69531666D01*
X165919666Y-69531666D01*
X165990500Y-69498333D01*
X166028000Y-69465000D01*
X166711333Y-69065000D02*
X166653000Y-69531666D01*
X166411333Y-69065000D02*
X166365500Y-69431666D01*
X166390500Y-69498333D01*
X166453000Y-69531666D01*
X166553000Y-69531666D01*
X166623833Y-69498333D01*
X166661333Y-69465000D01*
X166986333Y-69531666D02*
X167044666Y-69065000D01*
X167028000Y-69198333D02*
X167069666Y-69131666D01*
X167107166Y-69098333D01*
X167178000Y-69065000D01*
X167244666Y-69065000D01*
X127540380Y-129627380D02*
X128207047Y-129627380D01*
X127778476Y-130627380D01*
X129016571Y-129960714D02*
X129016571Y-130627380D01*
X128778476Y-129579761D02*
X128540380Y-130294047D01*
X129159428Y-130294047D01*
X130016571Y-130627380D02*
X129540380Y-130627380D01*
X129540380Y-129627380D01*
X130302285Y-130579761D02*
X130445142Y-130627380D01*
X130683238Y-130627380D01*
X130778476Y-130579761D01*
X130826095Y-130532142D01*
X130873714Y-130436904D01*
X130873714Y-130341666D01*
X130826095Y-130246428D01*
X130778476Y-130198809D01*
X130683238Y-130151190D01*
X130492761Y-130103571D01*
X130397523Y-130055952D01*
X130349904Y-130008333D01*
X130302285Y-129913095D01*
X130302285Y-129817857D01*
X130349904Y-129722619D01*
X130397523Y-129675000D01*
X130492761Y-129627380D01*
X130730857Y-129627380D01*
X130873714Y-129675000D01*
X132016571Y-129579761D02*
X131159428Y-130865476D01*
X132349904Y-130627380D02*
X132349904Y-129627380D01*
X132349904Y-130103571D02*
X132921333Y-130103571D01*
X132921333Y-130627380D02*
X132921333Y-129627380D01*
X133968952Y-130532142D02*
X133921333Y-130579761D01*
X133778476Y-130627380D01*
X133683238Y-130627380D01*
X133540380Y-130579761D01*
X133445142Y-130484523D01*
X133397523Y-130389285D01*
X133349904Y-130198809D01*
X133349904Y-130055952D01*
X133397523Y-129865476D01*
X133445142Y-129770238D01*
X133540380Y-129675000D01*
X133683238Y-129627380D01*
X133778476Y-129627380D01*
X133921333Y-129675000D01*
X133968952Y-129722619D01*
X134254666Y-129627380D02*
X134826095Y-129627380D01*
X134540380Y-130627380D02*
X134540380Y-129627380D01*
X135111809Y-129722619D02*
X135159428Y-129675000D01*
X135254666Y-129627380D01*
X135492761Y-129627380D01*
X135588000Y-129675000D01*
X135635619Y-129722619D01*
X135683238Y-129817857D01*
X135683238Y-129913095D01*
X135635619Y-130055952D01*
X135064190Y-130627380D01*
X135683238Y-130627380D01*
X136540380Y-129960714D02*
X136540380Y-130627380D01*
X136302285Y-129579761D02*
X136064190Y-130294047D01*
X136683238Y-130294047D01*
X137540380Y-129627380D02*
X137064190Y-129627380D01*
X137016571Y-130103571D01*
X137064190Y-130055952D01*
X137159428Y-130008333D01*
X137397523Y-130008333D01*
X137492761Y-130055952D01*
X137540380Y-130103571D01*
X137588000Y-130198809D01*
X137588000Y-130436904D01*
X137540380Y-130532142D01*
X137492761Y-130579761D01*
X137397523Y-130627380D01*
X137159428Y-130627380D01*
X137064190Y-130579761D01*
X137016571Y-130532142D01*
X109520062Y-76685000D02*
X109461729Y-77151666D01*
X109386729Y-76418333D02*
X109157562Y-76918333D01*
X109590895Y-76918333D01*
X109849229Y-76451666D02*
X110282562Y-76451666D01*
X110015895Y-76718333D01*
X110115895Y-76718333D01*
X110178395Y-76751666D01*
X110207562Y-76785000D01*
X110232562Y-76851666D01*
X110211729Y-77018333D01*
X110170062Y-77085000D01*
X110132562Y-77118333D01*
X110061729Y-77151666D01*
X109861729Y-77151666D01*
X109799229Y-77118333D01*
X109770062Y-77085000D01*
X117160895Y-129858333D02*
X117198395Y-129825000D01*
X117269229Y-129791666D01*
X117435895Y-129791666D01*
X117498395Y-129825000D01*
X117527562Y-129858333D01*
X117552562Y-129925000D01*
X117544229Y-129991666D01*
X117498395Y-130091666D01*
X117048395Y-130491666D01*
X117481729Y-130491666D01*
X109861729Y-130491666D02*
X109461729Y-130491666D01*
X109661729Y-130491666D02*
X109749229Y-129791666D01*
X109670062Y-129891666D01*
X109595062Y-129958333D01*
X109524229Y-129991666D01*
X141311333Y-98782142D02*
X141263714Y-98829761D01*
X141120857Y-98877380D01*
X141025619Y-98877380D01*
X140882761Y-98829761D01*
X140787523Y-98734523D01*
X140739904Y-98639285D01*
X140692285Y-98448809D01*
X140692285Y-98305952D01*
X140739904Y-98115476D01*
X140787523Y-98020238D01*
X140882761Y-97925000D01*
X141025619Y-97877380D01*
X141120857Y-97877380D01*
X141263714Y-97925000D01*
X141311333Y-97972619D01*
X141692285Y-97972619D02*
X141739904Y-97925000D01*
X141835142Y-97877380D01*
X142073238Y-97877380D01*
X142168476Y-97925000D01*
X142216095Y-97972619D01*
X142263714Y-98067857D01*
X142263714Y-98163095D01*
X142216095Y-98305952D01*
X141644666Y-98877380D01*
X142263714Y-98877380D01*
X169949904Y-119477380D02*
X169949904Y-118477380D01*
X170188000Y-118477380D01*
X170330857Y-118525000D01*
X170426095Y-118620238D01*
X170473714Y-118715476D01*
X170521333Y-118905952D01*
X170521333Y-119048809D01*
X170473714Y-119239285D01*
X170426095Y-119334523D01*
X170330857Y-119429761D01*
X170188000Y-119477380D01*
X169949904Y-119477380D01*
X171473714Y-119477380D02*
X170902285Y-119477380D01*
X171188000Y-119477380D02*
X171188000Y-118477380D01*
X171092761Y-118620238D01*
X170997523Y-118715476D01*
X170902285Y-118763095D01*
X167981333Y-95067380D02*
X167648000Y-94591190D01*
X167409904Y-95067380D02*
X167409904Y-94067380D01*
X167790857Y-94067380D01*
X167886095Y-94115000D01*
X167933714Y-94162619D01*
X167981333Y-94257857D01*
X167981333Y-94400714D01*
X167933714Y-94495952D01*
X167886095Y-94543571D01*
X167790857Y-94591190D01*
X167409904Y-94591190D01*
X168933714Y-95067380D02*
X168362285Y-95067380D01*
X168648000Y-95067380D02*
X168648000Y-94067380D01*
X168552761Y-94210238D01*
X168457523Y-94305476D01*
X168362285Y-94353095D01*
X167981333Y-110307380D02*
X167648000Y-109831190D01*
X167409904Y-110307380D02*
X167409904Y-109307380D01*
X167790857Y-109307380D01*
X167886095Y-109355000D01*
X167933714Y-109402619D01*
X167981333Y-109497857D01*
X167981333Y-109640714D01*
X167933714Y-109735952D01*
X167886095Y-109783571D01*
X167790857Y-109831190D01*
X167409904Y-109831190D01*
X168314666Y-109307380D02*
X168933714Y-109307380D01*
X168600380Y-109688333D01*
X168743238Y-109688333D01*
X168838476Y-109735952D01*
X168886095Y-109783571D01*
X168933714Y-109878809D01*
X168933714Y-110116904D01*
X168886095Y-110212142D01*
X168838476Y-110259761D01*
X168743238Y-110307380D01*
X168457523Y-110307380D01*
X168362285Y-110259761D01*
X168314666Y-110212142D01*
X169251333Y-116657380D02*
X168918000Y-116181190D01*
X168679904Y-116657380D02*
X168679904Y-115657380D01*
X169060857Y-115657380D01*
X169156095Y-115705000D01*
X169203714Y-115752619D01*
X169251333Y-115847857D01*
X169251333Y-115990714D01*
X169203714Y-116085952D01*
X169156095Y-116133571D01*
X169060857Y-116181190D01*
X168679904Y-116181190D01*
X170108476Y-115990714D02*
X170108476Y-116657380D01*
X169870380Y-115609761D02*
X169632285Y-116324047D01*
X170251333Y-116324047D01*
X146391333Y-130532142D02*
X146343714Y-130579761D01*
X146200857Y-130627380D01*
X146105619Y-130627380D01*
X145962761Y-130579761D01*
X145867523Y-130484523D01*
X145819904Y-130389285D01*
X145772285Y-130198809D01*
X145772285Y-130055952D01*
X145819904Y-129865476D01*
X145867523Y-129770238D01*
X145962761Y-129675000D01*
X146105619Y-129627380D01*
X146200857Y-129627380D01*
X146343714Y-129675000D01*
X146391333Y-129722619D01*
X147343714Y-130627380D02*
X146772285Y-130627380D01*
X147058000Y-130627380D02*
X147058000Y-129627380D01*
X146962761Y-129770238D01*
X146867523Y-129865476D01*
X146772285Y-129913095D01*
X139446095Y-129627380D02*
X139446095Y-130436904D01*
X139493714Y-130532142D01*
X139541333Y-130579761D01*
X139636571Y-130627380D01*
X139827047Y-130627380D01*
X139922285Y-130579761D01*
X139969904Y-130532142D01*
X140017523Y-130436904D01*
X140017523Y-129627380D01*
X141017523Y-130627380D02*
X140446095Y-130627380D01*
X140731809Y-130627380D02*
X140731809Y-129627380D01*
X140636571Y-129770238D01*
X140541333Y-129865476D01*
X140446095Y-129913095D01*
X146391333Y-122912142D02*
X146343714Y-122959761D01*
X146200857Y-123007380D01*
X146105619Y-123007380D01*
X145962761Y-122959761D01*
X145867523Y-122864523D01*
X145819904Y-122769285D01*
X145772285Y-122578809D01*
X145772285Y-122435952D01*
X145819904Y-122245476D01*
X145867523Y-122150238D01*
X145962761Y-122055000D01*
X146105619Y-122007380D01*
X146200857Y-122007380D01*
X146343714Y-122055000D01*
X146391333Y-122102619D01*
X147248476Y-122340714D02*
X147248476Y-123007380D01*
X147010380Y-121959761D02*
X146772285Y-122674047D01*
X147391333Y-122674047D01*
X167981333Y-102687380D02*
X167648000Y-102211190D01*
X167409904Y-102687380D02*
X167409904Y-101687380D01*
X167790857Y-101687380D01*
X167886095Y-101735000D01*
X167933714Y-101782619D01*
X167981333Y-101877857D01*
X167981333Y-102020714D01*
X167933714Y-102115952D01*
X167886095Y-102163571D01*
X167790857Y-102211190D01*
X167409904Y-102211190D01*
X168362285Y-101782619D02*
X168409904Y-101735000D01*
X168505142Y-101687380D01*
X168743238Y-101687380D01*
X168838476Y-101735000D01*
X168886095Y-101782619D01*
X168933714Y-101877857D01*
X168933714Y-101973095D01*
X168886095Y-102115952D01*
X168314666Y-102687380D01*
X168933714Y-102687380D01*
X162901333Y-120467380D02*
X162568000Y-119991190D01*
X162329904Y-120467380D02*
X162329904Y-119467380D01*
X162710857Y-119467380D01*
X162806095Y-119515000D01*
X162853714Y-119562619D01*
X162901333Y-119657857D01*
X162901333Y-119800714D01*
X162853714Y-119895952D01*
X162806095Y-119943571D01*
X162710857Y-119991190D01*
X162329904Y-119991190D01*
X163806095Y-119467380D02*
X163329904Y-119467380D01*
X163282285Y-119943571D01*
X163329904Y-119895952D01*
X163425142Y-119848333D01*
X163663238Y-119848333D01*
X163758476Y-119895952D01*
X163806095Y-119943571D01*
X163853714Y-120038809D01*
X163853714Y-120276904D01*
X163806095Y-120372142D01*
X163758476Y-120419761D01*
X163663238Y-120467380D01*
X163425142Y-120467380D01*
X163329904Y-120419761D01*
X163282285Y-120372142D01*
X153416095Y-129627380D02*
X153416095Y-130436904D01*
X153463714Y-130532142D01*
X153511333Y-130579761D01*
X153606571Y-130627380D01*
X153797047Y-130627380D01*
X153892285Y-130579761D01*
X153939904Y-130532142D01*
X153987523Y-130436904D01*
X153987523Y-129627380D01*
X154892285Y-129960714D02*
X154892285Y-130627380D01*
X154654190Y-129579761D02*
X154416095Y-130294047D01*
X155035142Y-130294047D01*
X158496095Y-110577380D02*
X158496095Y-111386904D01*
X158543714Y-111482142D01*
X158591333Y-111529761D01*
X158686571Y-111577380D01*
X158877047Y-111577380D01*
X158972285Y-111529761D01*
X159019904Y-111482142D01*
X159067523Y-111386904D01*
X159067523Y-110577380D01*
X159448476Y-110577380D02*
X160115142Y-110577380D01*
X159686571Y-111577380D01*
X141311333Y-72112142D02*
X141263714Y-72159761D01*
X141120857Y-72207380D01*
X141025619Y-72207380D01*
X140882761Y-72159761D01*
X140787523Y-72064523D01*
X140739904Y-71969285D01*
X140692285Y-71778809D01*
X140692285Y-71635952D01*
X140739904Y-71445476D01*
X140787523Y-71350238D01*
X140882761Y-71255000D01*
X141025619Y-71207380D01*
X141120857Y-71207380D01*
X141263714Y-71255000D01*
X141311333Y-71302619D01*
X141644666Y-71207380D02*
X142263714Y-71207380D01*
X141930380Y-71588333D01*
X142073238Y-71588333D01*
X142168476Y-71635952D01*
X142216095Y-71683571D01*
X142263714Y-71778809D01*
X142263714Y-72016904D01*
X142216095Y-72112142D01*
X142168476Y-72159761D01*
X142073238Y-72207380D01*
X141787523Y-72207380D01*
X141692285Y-72159761D01*
X141644666Y-72112142D01*
X131826095Y-73747380D02*
X131826095Y-74556904D01*
X131873714Y-74652142D01*
X131921333Y-74699761D01*
X132016571Y-74747380D01*
X132207047Y-74747380D01*
X132302285Y-74699761D01*
X132349904Y-74652142D01*
X132397523Y-74556904D01*
X132397523Y-73747380D01*
X132778476Y-73747380D02*
X133397523Y-73747380D01*
X133064190Y-74128333D01*
X133207047Y-74128333D01*
X133302285Y-74175952D01*
X133349904Y-74223571D01*
X133397523Y-74318809D01*
X133397523Y-74556904D01*
X133349904Y-74652142D01*
X133302285Y-74699761D01*
X133207047Y-74747380D01*
X132921333Y-74747380D01*
X132826095Y-74699761D01*
X132778476Y-74652142D01*
X131826095Y-100417380D02*
X131826095Y-101226904D01*
X131873714Y-101322142D01*
X131921333Y-101369761D01*
X132016571Y-101417380D01*
X132207047Y-101417380D01*
X132302285Y-101369761D01*
X132349904Y-101322142D01*
X132397523Y-101226904D01*
X132397523Y-100417380D01*
X132826095Y-100512619D02*
X132873714Y-100465000D01*
X132968952Y-100417380D01*
X133207047Y-100417380D01*
X133302285Y-100465000D01*
X133349904Y-100512619D01*
X133397523Y-100607857D01*
X133397523Y-100703095D01*
X133349904Y-100845952D01*
X132778476Y-101417380D01*
X133397523Y-101417380D01*
X145796095Y-102957380D02*
X145796095Y-103766904D01*
X145843714Y-103862142D01*
X145891333Y-103909761D01*
X145986571Y-103957380D01*
X146177047Y-103957380D01*
X146272285Y-103909761D01*
X146319904Y-103862142D01*
X146367523Y-103766904D01*
X146367523Y-102957380D01*
X147319904Y-102957380D02*
X146843714Y-102957380D01*
X146796095Y-103433571D01*
X146843714Y-103385952D01*
X146938952Y-103338333D01*
X147177047Y-103338333D01*
X147272285Y-103385952D01*
X147319904Y-103433571D01*
X147367523Y-103528809D01*
X147367523Y-103766904D01*
X147319904Y-103862142D01*
X147272285Y-103909761D01*
X147177047Y-103957380D01*
X146938952Y-103957380D01*
X146843714Y-103909761D01*
X146796095Y-103862142D01*
X145121333Y-73382142D02*
X145073714Y-73429761D01*
X144930857Y-73477380D01*
X144835619Y-73477380D01*
X144692761Y-73429761D01*
X144597523Y-73334523D01*
X144549904Y-73239285D01*
X144502285Y-73048809D01*
X144502285Y-72905952D01*
X144549904Y-72715476D01*
X144597523Y-72620238D01*
X144692761Y-72525000D01*
X144835619Y-72477380D01*
X144930857Y-72477380D01*
X145073714Y-72525000D01*
X145121333Y-72572619D01*
X145978476Y-72477380D02*
X145788000Y-72477380D01*
X145692761Y-72525000D01*
X145645142Y-72572619D01*
X145549904Y-72715476D01*
X145502285Y-72905952D01*
X145502285Y-73286904D01*
X145549904Y-73382142D01*
X145597523Y-73429761D01*
X145692761Y-73477380D01*
X145883238Y-73477380D01*
X145978476Y-73429761D01*
X146026095Y-73382142D01*
X146073714Y-73286904D01*
X146073714Y-73048809D01*
X146026095Y-72953571D01*
X145978476Y-72905952D01*
X145883238Y-72858333D01*
X145692761Y-72858333D01*
X145597523Y-72905952D01*
X145549904Y-72953571D01*
X145502285Y-73048809D01*
X145796095Y-76287380D02*
X145796095Y-77096904D01*
X145843714Y-77192142D01*
X145891333Y-77239761D01*
X145986571Y-77287380D01*
X146177047Y-77287380D01*
X146272285Y-77239761D01*
X146319904Y-77192142D01*
X146367523Y-77096904D01*
X146367523Y-76287380D01*
X147272285Y-76287380D02*
X147081809Y-76287380D01*
X146986571Y-76335000D01*
X146938952Y-76382619D01*
X146843714Y-76525476D01*
X146796095Y-76715952D01*
X146796095Y-77096904D01*
X146843714Y-77192142D01*
X146891333Y-77239761D01*
X146986571Y-77287380D01*
X147177047Y-77287380D01*
X147272285Y-77239761D01*
X147319904Y-77192142D01*
X147367523Y-77096904D01*
X147367523Y-76858809D01*
X147319904Y-76763571D01*
X147272285Y-76715952D01*
X147177047Y-76668333D01*
X146986571Y-76668333D01*
X146891333Y-76715952D01*
X146843714Y-76763571D01*
X146796095Y-76858809D01*
X148931333Y-97512142D02*
X148883714Y-97559761D01*
X148740857Y-97607380D01*
X148645619Y-97607380D01*
X148502761Y-97559761D01*
X148407523Y-97464523D01*
X148359904Y-97369285D01*
X148312285Y-97178809D01*
X148312285Y-97035952D01*
X148359904Y-96845476D01*
X148407523Y-96750238D01*
X148502761Y-96655000D01*
X148645619Y-96607380D01*
X148740857Y-96607380D01*
X148883714Y-96655000D01*
X148931333Y-96702619D01*
X149836095Y-96607380D02*
X149359904Y-96607380D01*
X149312285Y-97083571D01*
X149359904Y-97035952D01*
X149455142Y-96988333D01*
X149693238Y-96988333D01*
X149788476Y-97035952D01*
X149836095Y-97083571D01*
X149883714Y-97178809D01*
X149883714Y-97416904D01*
X149836095Y-97512142D01*
X149788476Y-97559761D01*
X149693238Y-97607380D01*
X149455142Y-97607380D01*
X149359904Y-97559761D01*
X149312285Y-97512142D01*
X160361333Y-117832142D02*
X160313714Y-117879761D01*
X160170857Y-117927380D01*
X160075619Y-117927380D01*
X159932761Y-117879761D01*
X159837523Y-117784523D01*
X159789904Y-117689285D01*
X159742285Y-117498809D01*
X159742285Y-117355952D01*
X159789904Y-117165476D01*
X159837523Y-117070238D01*
X159932761Y-116975000D01*
X160075619Y-116927380D01*
X160170857Y-116927380D01*
X160313714Y-116975000D01*
X160361333Y-117022619D01*
X160694666Y-116927380D02*
X161361333Y-116927380D01*
X160932761Y-117927380D01*
X166330380Y-86293095D02*
X165330380Y-86293095D01*
X165330380Y-86055000D01*
X165378000Y-85912142D01*
X165473238Y-85816904D01*
X165568476Y-85769285D01*
X165758952Y-85721666D01*
X165901809Y-85721666D01*
X166092285Y-85769285D01*
X166187523Y-85816904D01*
X166282761Y-85912142D01*
X166330380Y-86055000D01*
X166330380Y-86293095D01*
X165425619Y-85340714D02*
X165378000Y-85293095D01*
X165330380Y-85197857D01*
X165330380Y-84959761D01*
X165378000Y-84864523D01*
X165425619Y-84816904D01*
X165520857Y-84769285D01*
X165616095Y-84769285D01*
X165758952Y-84816904D01*
X166330380Y-85388333D01*
X166330380Y-84769285D01*
X166650380Y-89626904D02*
X165650380Y-89626904D01*
X166650380Y-89055476D02*
X166078952Y-89484047D01*
X165650380Y-89055476D02*
X166221809Y-89626904D01*
X173228000Y-107315000D02*
X173228000Y-89535000D01*
X173228000Y-89535000D02*
X170688000Y-89535000D01*
X173228000Y-107315000D02*
X170688000Y-107315000D01*
X170408000Y-110135000D02*
X173508000Y-110135000D01*
X170408000Y-108585000D02*
X170408000Y-110135000D01*
X170688000Y-89535000D02*
X170688000Y-107315000D01*
X173508000Y-110135000D02*
X173508000Y-108585000D01*
X170408000Y-85725000D02*
X170408000Y-87275000D01*
X173228000Y-84455000D02*
X173228000Y-71755000D01*
X173228000Y-84455000D02*
X170688000Y-84455000D01*
X173228000Y-71755000D02*
X170688000Y-71755000D01*
X170408000Y-87275000D02*
X173508000Y-87275000D01*
X170688000Y-71755000D02*
X170688000Y-84455000D01*
X173508000Y-87275000D02*
X173508000Y-85725000D01*
X122148000Y-117729000D02*
X122148000Y-119279000D01*
X125248000Y-119279000D02*
X125248000Y-117729000D01*
X124968000Y-93599000D02*
X122428000Y-93599000D01*
X122428000Y-93599000D02*
X122428000Y-116459000D01*
X122148000Y-119279000D02*
X125248000Y-119279000D01*
X124968000Y-116459000D02*
X122428000Y-116459000D01*
X124968000Y-116459000D02*
X124968000Y-93599000D01*
X125248000Y-92355000D02*
X125248000Y-90805000D01*
X122428000Y-71755000D02*
X122428000Y-89535000D01*
X122148000Y-92355000D02*
X125248000Y-92355000D01*
X122148000Y-90805000D02*
X122148000Y-92355000D01*
X124968000Y-89535000D02*
X122428000Y-89535000D01*
X124968000Y-71755000D02*
X122428000Y-71755000D01*
X124968000Y-89535000D02*
X124968000Y-71755000D01*
D11*
X138018000Y-99074000D02*
X138018000Y-97816000D01*
X139858000Y-99074000D02*
X139858000Y-97816000D01*
X168978000Y-120025000D02*
X168978000Y-120205000D01*
X172398000Y-122380000D02*
X172398000Y-122545000D01*
X169098000Y-120025000D02*
X169098000Y-120205000D01*
X169218000Y-120025000D02*
X169218000Y-120205000D01*
X172398000Y-120025000D02*
X172398000Y-120190000D01*
X168978000Y-122365000D02*
X168978000Y-122545000D01*
X169218000Y-122365000D02*
X169218000Y-122545000D01*
X169098000Y-122365000D02*
X169098000Y-122545000D01*
X168978000Y-122545000D02*
X172398000Y-122545000D01*
X168978000Y-120025000D02*
X172398000Y-120025000D01*
X168148000Y-92995000D02*
X168148000Y-96155000D01*
X169068000Y-92075000D02*
G75*
G03*
X169068000Y-92075000I-920000J0D01*
G01*
X168148000Y-111475000D02*
X168148000Y-108315000D01*
X169068000Y-112395000D02*
G75*
G03*
X169068000Y-112395000I-920000J0D01*
G01*
X167798000Y-116205000D02*
X170958000Y-116205000D01*
X167798000Y-116205000D02*
G75*
G03*
X167798000Y-116205000I-920000J0D01*
G01*
X145638000Y-133364000D02*
X145638000Y-132106000D01*
X147478000Y-133364000D02*
X147478000Y-132106000D01*
X119828000Y-132825000D02*
X145348000Y-132825000D01*
X145348000Y-127525000D02*
X119828000Y-127525000D01*
X119828000Y-127525000D02*
X119828000Y-132825000D01*
X145348000Y-132825000D02*
X145348000Y-131175000D01*
X145348000Y-129175000D02*
X145348000Y-127525000D01*
X145348000Y-129175000D02*
G75*
G03*
X145348000Y-131175000I0J-1000000D01*
G01*
X147478000Y-127014000D02*
X147478000Y-125756000D01*
X145638000Y-127014000D02*
X145638000Y-125756000D01*
X168148000Y-103855000D02*
X168148000Y-100695000D01*
X169068000Y-104775000D02*
G75*
G03*
X169068000Y-104775000I-920000J0D01*
G01*
X163068000Y-118395000D02*
X163068000Y-121555000D01*
X163988000Y-117475000D02*
G75*
G03*
X163988000Y-117475000I-920000J0D01*
G01*
X173288000Y-127525000D02*
X147768000Y-127525000D01*
X147768000Y-127525000D02*
X147768000Y-129175000D01*
X147768000Y-132825000D02*
X173288000Y-132825000D01*
X147768000Y-131175000D02*
X147768000Y-132825000D01*
X173288000Y-132825000D02*
X173288000Y-127525000D01*
X147768000Y-131175000D02*
G75*
G03*
X147768000Y-129175000I0J1000000D01*
G01*
X162028000Y-116325000D02*
X162028000Y-75445000D01*
X160258000Y-116325000D02*
X162028000Y-116325000D01*
X156488000Y-75445000D02*
X156488000Y-116325000D01*
X156488000Y-116325000D02*
X158258000Y-116325000D01*
X162028000Y-75445000D02*
X156488000Y-75445000D01*
X160258000Y-116325000D02*
G75*
G03*
X158258000Y-116325000I-1000000J0D01*
G01*
X138018000Y-72404000D02*
X138018000Y-71146000D01*
X139858000Y-72404000D02*
X139858000Y-71146000D01*
X131588000Y-71695000D02*
X129938000Y-71695000D01*
X135238000Y-97215000D02*
X135238000Y-71695000D01*
X129938000Y-71695000D02*
X129938000Y-97215000D01*
X129938000Y-97215000D02*
X135238000Y-97215000D01*
X135238000Y-71695000D02*
X133588000Y-71695000D01*
X131588000Y-71695000D02*
G75*
G03*
X133588000Y-71695000I1000000J0D01*
G01*
X135238000Y-123885000D02*
X135238000Y-98365000D01*
X129938000Y-98365000D02*
X129938000Y-123885000D01*
X129938000Y-123885000D02*
X135238000Y-123885000D01*
X135238000Y-98365000D02*
X133588000Y-98365000D01*
X131588000Y-98365000D02*
X129938000Y-98365000D01*
X131588000Y-98365000D02*
G75*
G03*
X133588000Y-98365000I1000000J0D01*
G01*
X149208000Y-100905000D02*
X147558000Y-100905000D01*
X143908000Y-121345000D02*
X149208000Y-121345000D01*
X143908000Y-100905000D02*
X143908000Y-121345000D01*
X149208000Y-121345000D02*
X149208000Y-100905000D01*
X145558000Y-100905000D02*
X143908000Y-100905000D01*
X145558000Y-100905000D02*
G75*
G03*
X147558000Y-100905000I1000000J0D01*
G01*
X149747000Y-73945000D02*
X148489000Y-73945000D01*
X149747000Y-72105000D02*
X148489000Y-72105000D01*
X143908000Y-94675000D02*
X149208000Y-94675000D01*
X149208000Y-94675000D02*
X149208000Y-74235000D01*
X143908000Y-74235000D02*
X143908000Y-94675000D01*
X149208000Y-74235000D02*
X147558000Y-74235000D01*
X145558000Y-74235000D02*
X143908000Y-74235000D01*
X145558000Y-74235000D02*
G75*
G03*
X147558000Y-74235000I1000000J0D01*
G01*
X149747000Y-98775000D02*
X148489000Y-98775000D01*
X149747000Y-100615000D02*
X148489000Y-100615000D01*
X156069000Y-118395000D02*
X157327000Y-118395000D01*
X156069000Y-116555000D02*
X157327000Y-116555000D01*
X166878000Y-86955000D02*
X169118000Y-86955000D01*
X169118000Y-83435000D02*
X166878000Y-83435000D01*
X166878000Y-86835000D02*
X169118000Y-86835000D01*
X166878000Y-87075000D02*
X169118000Y-87075000D01*
X169118000Y-87675000D02*
X169118000Y-83435000D01*
X166878000Y-87675000D02*
X169118000Y-87675000D01*
X166878000Y-83435000D02*
X166878000Y-87675000D01*
X167998000Y-88325000D02*
X167998000Y-87675000D01*
X167998000Y-82785000D02*
X167998000Y-83435000D01*
D12*
X171958000Y-108585000D03*
X171958000Y-106045000D03*
X171958000Y-103505000D03*
X171958000Y-100965000D03*
X171958000Y-98425000D03*
X171958000Y-95885000D03*
X171958000Y-93345000D03*
X171958000Y-90805000D03*
X171958000Y-85725000D03*
X171958000Y-83185000D03*
X171958000Y-80645000D03*
X171958000Y-78105000D03*
X171958000Y-75565000D03*
X171958000Y-73025000D03*
X123698000Y-117729000D03*
X123698000Y-115189000D03*
X123698000Y-112649000D03*
X123698000Y-110109000D03*
X123698000Y-107569000D03*
X123698000Y-105029000D03*
X123698000Y-102489000D03*
X123698000Y-99949000D03*
X123698000Y-97409000D03*
X123698000Y-94869000D03*
X123698000Y-90805000D03*
X123698000Y-88265000D03*
X123698000Y-85725000D03*
X123698000Y-83185000D03*
X123698000Y-80645000D03*
X123698000Y-78105000D03*
X123698000Y-75565000D03*
X123698000Y-73025000D03*
M02*
