G04 #@! TF.GenerationSoftware,KiCad,Pcbnew,(5.1.2)-2*
G04 #@! TF.CreationDate,2019-07-26T21:41:05+12:00*
G04 #@! TF.ProjectId,APEDSK-AU,41504544-534b-42d4-9155-2e6b69636164,rev?*
G04 #@! TF.SameCoordinates,Original*
G04 #@! TF.FileFunction,Legend,Top*
G04 #@! TF.FilePolarity,Positive*
%FSLAX46Y46*%
G04 Gerber Fmt 4.6, Leading zero omitted, Abs format (unit mm)*
G04 Created by KiCad (PCBNEW (5.1.2)-2) date 2019-07-26 21:41:05*
%MOMM*%
%LPD*%
G04 APERTURE LIST*
%ADD10C,0.150000*%
%ADD11C,0.200000*%
%ADD12C,0.120000*%
G04 APERTURE END LIST*
D10*
X158678952Y-129627380D02*
X159345619Y-129627380D01*
X158917047Y-130627380D01*
X160155142Y-129960714D02*
X160155142Y-130627380D01*
X159917047Y-129579761D02*
X159678952Y-130294047D01*
X160298000Y-130294047D01*
X161155142Y-130627380D02*
X160678952Y-130627380D01*
X160678952Y-129627380D01*
X161440857Y-130579761D02*
X161583714Y-130627380D01*
X161821809Y-130627380D01*
X161917047Y-130579761D01*
X161964666Y-130532142D01*
X162012285Y-130436904D01*
X162012285Y-130341666D01*
X161964666Y-130246428D01*
X161917047Y-130198809D01*
X161821809Y-130151190D01*
X161631333Y-130103571D01*
X161536095Y-130055952D01*
X161488476Y-130008333D01*
X161440857Y-129913095D01*
X161440857Y-129817857D01*
X161488476Y-129722619D01*
X161536095Y-129675000D01*
X161631333Y-129627380D01*
X161869428Y-129627380D01*
X162012285Y-129675000D01*
X162964666Y-130627380D02*
X162393238Y-130627380D01*
X162678952Y-130627380D02*
X162678952Y-129627380D01*
X162583714Y-129770238D01*
X162488476Y-129865476D01*
X162393238Y-129913095D01*
X163298000Y-129627380D02*
X163917047Y-129627380D01*
X163583714Y-130008333D01*
X163726571Y-130008333D01*
X163821809Y-130055952D01*
X163869428Y-130103571D01*
X163917047Y-130198809D01*
X163917047Y-130436904D01*
X163869428Y-130532142D01*
X163821809Y-130579761D01*
X163726571Y-130627380D01*
X163440857Y-130627380D01*
X163345619Y-130579761D01*
X163298000Y-130532142D01*
X164488476Y-130055952D02*
X164393238Y-130008333D01*
X164345619Y-129960714D01*
X164298000Y-129865476D01*
X164298000Y-129817857D01*
X164345619Y-129722619D01*
X164393238Y-129675000D01*
X164488476Y-129627380D01*
X164678952Y-129627380D01*
X164774190Y-129675000D01*
X164821809Y-129722619D01*
X164869428Y-129817857D01*
X164869428Y-129865476D01*
X164821809Y-129960714D01*
X164774190Y-130008333D01*
X164678952Y-130055952D01*
X164488476Y-130055952D01*
X164393238Y-130103571D01*
X164345619Y-130151190D01*
X164298000Y-130246428D01*
X164298000Y-130436904D01*
X164345619Y-130532142D01*
X164393238Y-130579761D01*
X164488476Y-130627380D01*
X164678952Y-130627380D01*
X164774190Y-130579761D01*
X164821809Y-130532142D01*
X164869428Y-130436904D01*
X164869428Y-130246428D01*
X164821809Y-130151190D01*
X164774190Y-130103571D01*
X164678952Y-130055952D01*
X133135619Y-109133095D02*
X133135619Y-109799761D01*
X132135619Y-109371190D01*
X132802285Y-110609285D02*
X132135619Y-110609285D01*
X133183238Y-110371190D02*
X132468952Y-110133095D01*
X132468952Y-110752142D01*
X132135619Y-111133095D02*
X133135619Y-111133095D01*
X132659428Y-111133095D02*
X132659428Y-111704523D01*
X132135619Y-111704523D02*
X133135619Y-111704523D01*
X132230857Y-112752142D02*
X132183238Y-112704523D01*
X132135619Y-112561666D01*
X132135619Y-112466428D01*
X132183238Y-112323571D01*
X132278476Y-112228333D01*
X132373714Y-112180714D01*
X132564190Y-112133095D01*
X132707047Y-112133095D01*
X132897523Y-112180714D01*
X132992761Y-112228333D01*
X133088000Y-112323571D01*
X133135619Y-112466428D01*
X133135619Y-112561666D01*
X133088000Y-112704523D01*
X133040380Y-112752142D01*
X133135619Y-113656904D02*
X133135619Y-113180714D01*
X132659428Y-113133095D01*
X132707047Y-113180714D01*
X132754666Y-113275952D01*
X132754666Y-113514047D01*
X132707047Y-113609285D01*
X132659428Y-113656904D01*
X132564190Y-113704523D01*
X132326095Y-113704523D01*
X132230857Y-113656904D01*
X132183238Y-113609285D01*
X132135619Y-113514047D01*
X132135619Y-113275952D01*
X132183238Y-113180714D01*
X132230857Y-113133095D01*
X132135619Y-114180714D02*
X132135619Y-114371190D01*
X132183238Y-114466428D01*
X132230857Y-114514047D01*
X132373714Y-114609285D01*
X132564190Y-114656904D01*
X132945142Y-114656904D01*
X133040380Y-114609285D01*
X133088000Y-114561666D01*
X133135619Y-114466428D01*
X133135619Y-114275952D01*
X133088000Y-114180714D01*
X133040380Y-114133095D01*
X132945142Y-114085476D01*
X132707047Y-114085476D01*
X132611809Y-114133095D01*
X132564190Y-114180714D01*
X132516571Y-114275952D01*
X132516571Y-114466428D01*
X132564190Y-114561666D01*
X132611809Y-114609285D01*
X132707047Y-114656904D01*
X133135619Y-115561666D02*
X133135619Y-115085476D01*
X132659428Y-115037857D01*
X132707047Y-115085476D01*
X132754666Y-115180714D01*
X132754666Y-115418809D01*
X132707047Y-115514047D01*
X132659428Y-115561666D01*
X132564190Y-115609285D01*
X132326095Y-115609285D01*
X132230857Y-115561666D01*
X132183238Y-115514047D01*
X132135619Y-115418809D01*
X132135619Y-115180714D01*
X132183238Y-115085476D01*
X132230857Y-115037857D01*
X161075619Y-107863095D02*
X161075619Y-108529761D01*
X160075619Y-108101190D01*
X160742285Y-109339285D02*
X160075619Y-109339285D01*
X161123238Y-109101190D02*
X160408952Y-108863095D01*
X160408952Y-109482142D01*
X160075619Y-109863095D02*
X161075619Y-109863095D01*
X160599428Y-109863095D02*
X160599428Y-110434523D01*
X160075619Y-110434523D02*
X161075619Y-110434523D01*
X160170857Y-111482142D02*
X160123238Y-111434523D01*
X160075619Y-111291666D01*
X160075619Y-111196428D01*
X160123238Y-111053571D01*
X160218476Y-110958333D01*
X160313714Y-110910714D01*
X160504190Y-110863095D01*
X160647047Y-110863095D01*
X160837523Y-110910714D01*
X160932761Y-110958333D01*
X161028000Y-111053571D01*
X161075619Y-111196428D01*
X161075619Y-111291666D01*
X161028000Y-111434523D01*
X160980380Y-111482142D01*
X161075619Y-112386904D02*
X161075619Y-111910714D01*
X160599428Y-111863095D01*
X160647047Y-111910714D01*
X160694666Y-112005952D01*
X160694666Y-112244047D01*
X160647047Y-112339285D01*
X160599428Y-112386904D01*
X160504190Y-112434523D01*
X160266095Y-112434523D01*
X160170857Y-112386904D01*
X160123238Y-112339285D01*
X160075619Y-112244047D01*
X160075619Y-112005952D01*
X160123238Y-111910714D01*
X160170857Y-111863095D01*
X160075619Y-112910714D02*
X160075619Y-113101190D01*
X160123238Y-113196428D01*
X160170857Y-113244047D01*
X160313714Y-113339285D01*
X160504190Y-113386904D01*
X160885142Y-113386904D01*
X160980380Y-113339285D01*
X161028000Y-113291666D01*
X161075619Y-113196428D01*
X161075619Y-113005952D01*
X161028000Y-112910714D01*
X160980380Y-112863095D01*
X160885142Y-112815476D01*
X160647047Y-112815476D01*
X160551809Y-112863095D01*
X160504190Y-112910714D01*
X160456571Y-113005952D01*
X160456571Y-113196428D01*
X160504190Y-113291666D01*
X160551809Y-113339285D01*
X160647047Y-113386904D01*
X161075619Y-114291666D02*
X161075619Y-113815476D01*
X160599428Y-113767857D01*
X160647047Y-113815476D01*
X160694666Y-113910714D01*
X160694666Y-114148809D01*
X160647047Y-114244047D01*
X160599428Y-114291666D01*
X160504190Y-114339285D01*
X160266095Y-114339285D01*
X160170857Y-114291666D01*
X160123238Y-114244047D01*
X160075619Y-114148809D01*
X160075619Y-113910714D01*
X160123238Y-113815476D01*
X160170857Y-113767857D01*
X161075619Y-78795952D02*
X161075619Y-79462619D01*
X160075619Y-79034047D01*
X160742285Y-80272142D02*
X160075619Y-80272142D01*
X161123238Y-80034047D02*
X160408952Y-79795952D01*
X160408952Y-80415000D01*
X160075619Y-81272142D02*
X160075619Y-80795952D01*
X161075619Y-80795952D01*
X160123238Y-81557857D02*
X160075619Y-81700714D01*
X160075619Y-81938809D01*
X160123238Y-82034047D01*
X160170857Y-82081666D01*
X160266095Y-82129285D01*
X160361333Y-82129285D01*
X160456571Y-82081666D01*
X160504190Y-82034047D01*
X160551809Y-81938809D01*
X160599428Y-81748333D01*
X160647047Y-81653095D01*
X160694666Y-81605476D01*
X160789904Y-81557857D01*
X160885142Y-81557857D01*
X160980380Y-81605476D01*
X161028000Y-81653095D01*
X161075619Y-81748333D01*
X161075619Y-81986428D01*
X161028000Y-82129285D01*
X161075619Y-83034047D02*
X161075619Y-82557857D01*
X160599428Y-82510238D01*
X160647047Y-82557857D01*
X160694666Y-82653095D01*
X160694666Y-82891190D01*
X160647047Y-82986428D01*
X160599428Y-83034047D01*
X160504190Y-83081666D01*
X160266095Y-83081666D01*
X160170857Y-83034047D01*
X160123238Y-82986428D01*
X160075619Y-82891190D01*
X160075619Y-82653095D01*
X160123238Y-82557857D01*
X160170857Y-82510238D01*
X160742285Y-83938809D02*
X160075619Y-83938809D01*
X161123238Y-83700714D02*
X160408952Y-83462619D01*
X160408952Y-84081666D01*
X160075619Y-84986428D02*
X160075619Y-84415000D01*
X160075619Y-84700714D02*
X161075619Y-84700714D01*
X160932761Y-84605476D01*
X160837523Y-84510238D01*
X160789904Y-84415000D01*
X146105619Y-91376904D02*
X147105619Y-91376904D01*
X146629428Y-91376904D02*
X146629428Y-91948333D01*
X146105619Y-91948333D02*
X147105619Y-91948333D01*
X146105619Y-92424523D02*
X147105619Y-92424523D01*
X146391333Y-92757857D01*
X147105619Y-93091190D01*
X146105619Y-93091190D01*
X147105619Y-93995952D02*
X147105619Y-93805476D01*
X147058000Y-93710238D01*
X147010380Y-93662619D01*
X146867523Y-93567380D01*
X146677047Y-93519761D01*
X146296095Y-93519761D01*
X146200857Y-93567380D01*
X146153238Y-93615000D01*
X146105619Y-93710238D01*
X146105619Y-93900714D01*
X146153238Y-93995952D01*
X146200857Y-94043571D01*
X146296095Y-94091190D01*
X146534190Y-94091190D01*
X146629428Y-94043571D01*
X146677047Y-93995952D01*
X146724666Y-93900714D01*
X146724666Y-93710238D01*
X146677047Y-93615000D01*
X146629428Y-93567380D01*
X146534190Y-93519761D01*
X147105619Y-94995952D02*
X147105619Y-94519761D01*
X146629428Y-94472142D01*
X146677047Y-94519761D01*
X146724666Y-94615000D01*
X146724666Y-94853095D01*
X146677047Y-94948333D01*
X146629428Y-94995952D01*
X146534190Y-95043571D01*
X146296095Y-95043571D01*
X146200857Y-94995952D01*
X146153238Y-94948333D01*
X146105619Y-94853095D01*
X146105619Y-94615000D01*
X146153238Y-94519761D01*
X146200857Y-94472142D01*
X147105619Y-95376904D02*
X147105619Y-96043571D01*
X146105619Y-95615000D01*
X147105619Y-96853095D02*
X147105619Y-96662619D01*
X147058000Y-96567380D01*
X147010380Y-96519761D01*
X146867523Y-96424523D01*
X146677047Y-96376904D01*
X146296095Y-96376904D01*
X146200857Y-96424523D01*
X146153238Y-96472142D01*
X146105619Y-96567380D01*
X146105619Y-96757857D01*
X146153238Y-96853095D01*
X146200857Y-96900714D01*
X146296095Y-96948333D01*
X146534190Y-96948333D01*
X146629428Y-96900714D01*
X146677047Y-96853095D01*
X146724666Y-96757857D01*
X146724666Y-96567380D01*
X146677047Y-96472142D01*
X146629428Y-96424523D01*
X146534190Y-96376904D01*
X146772285Y-97805476D02*
X146105619Y-97805476D01*
X147153238Y-97567380D02*
X146438952Y-97329285D01*
X146438952Y-97948333D01*
X133135619Y-80065952D02*
X133135619Y-80732619D01*
X132135619Y-80304047D01*
X132802285Y-81542142D02*
X132135619Y-81542142D01*
X133183238Y-81304047D02*
X132468952Y-81065952D01*
X132468952Y-81685000D01*
X132135619Y-82542142D02*
X132135619Y-82065952D01*
X133135619Y-82065952D01*
X132183238Y-82827857D02*
X132135619Y-82970714D01*
X132135619Y-83208809D01*
X132183238Y-83304047D01*
X132230857Y-83351666D01*
X132326095Y-83399285D01*
X132421333Y-83399285D01*
X132516571Y-83351666D01*
X132564190Y-83304047D01*
X132611809Y-83208809D01*
X132659428Y-83018333D01*
X132707047Y-82923095D01*
X132754666Y-82875476D01*
X132849904Y-82827857D01*
X132945142Y-82827857D01*
X133040380Y-82875476D01*
X133088000Y-82923095D01*
X133135619Y-83018333D01*
X133135619Y-83256428D01*
X133088000Y-83399285D01*
X133135619Y-84304047D02*
X133135619Y-83827857D01*
X132659428Y-83780238D01*
X132707047Y-83827857D01*
X132754666Y-83923095D01*
X132754666Y-84161190D01*
X132707047Y-84256428D01*
X132659428Y-84304047D01*
X132564190Y-84351666D01*
X132326095Y-84351666D01*
X132230857Y-84304047D01*
X132183238Y-84256428D01*
X132135619Y-84161190D01*
X132135619Y-83923095D01*
X132183238Y-83827857D01*
X132230857Y-83780238D01*
X132802285Y-85208809D02*
X132135619Y-85208809D01*
X133183238Y-84970714D02*
X132468952Y-84732619D01*
X132468952Y-85351666D01*
X132135619Y-86256428D02*
X132135619Y-85685000D01*
X132135619Y-85970714D02*
X133135619Y-85970714D01*
X132992761Y-85875476D01*
X132897523Y-85780238D01*
X132849904Y-85685000D01*
X130738952Y-129627380D02*
X131405619Y-129627380D01*
X130977047Y-130627380D01*
X132215142Y-129960714D02*
X132215142Y-130627380D01*
X131977047Y-129579761D02*
X131738952Y-130294047D01*
X132358000Y-130294047D01*
X133215142Y-130627380D02*
X132738952Y-130627380D01*
X132738952Y-129627380D01*
X133500857Y-130579761D02*
X133643714Y-130627380D01*
X133881809Y-130627380D01*
X133977047Y-130579761D01*
X134024666Y-130532142D01*
X134072285Y-130436904D01*
X134072285Y-130341666D01*
X134024666Y-130246428D01*
X133977047Y-130198809D01*
X133881809Y-130151190D01*
X133691333Y-130103571D01*
X133596095Y-130055952D01*
X133548476Y-130008333D01*
X133500857Y-129913095D01*
X133500857Y-129817857D01*
X133548476Y-129722619D01*
X133596095Y-129675000D01*
X133691333Y-129627380D01*
X133929428Y-129627380D01*
X134072285Y-129675000D01*
X134453238Y-129722619D02*
X134500857Y-129675000D01*
X134596095Y-129627380D01*
X134834190Y-129627380D01*
X134929428Y-129675000D01*
X134977047Y-129722619D01*
X135024666Y-129817857D01*
X135024666Y-129913095D01*
X134977047Y-130055952D01*
X134405619Y-130627380D01*
X135024666Y-130627380D01*
X135881809Y-129960714D02*
X135881809Y-130627380D01*
X135643714Y-129579761D02*
X135405619Y-130294047D01*
X136024666Y-130294047D01*
X136881809Y-129627380D02*
X136405619Y-129627380D01*
X136358000Y-130103571D01*
X136405619Y-130055952D01*
X136500857Y-130008333D01*
X136738952Y-130008333D01*
X136834190Y-130055952D01*
X136881809Y-130103571D01*
X136929428Y-130198809D01*
X136929428Y-130436904D01*
X136881809Y-130532142D01*
X136834190Y-130579761D01*
X136738952Y-130627380D01*
X136500857Y-130627380D01*
X136405619Y-130579761D01*
X136358000Y-130532142D01*
X170449904Y-123991666D02*
X170926095Y-123991666D01*
X170354666Y-124277380D02*
X170688000Y-123277380D01*
X171021333Y-124277380D01*
X109442285Y-76620714D02*
X109442285Y-77287380D01*
X109204190Y-76239761D02*
X108966095Y-76954047D01*
X109585142Y-76954047D01*
X109870857Y-76287380D02*
X110489904Y-76287380D01*
X110156571Y-76668333D01*
X110299428Y-76668333D01*
X110394666Y-76715952D01*
X110442285Y-76763571D01*
X110489904Y-76858809D01*
X110489904Y-77096904D01*
X110442285Y-77192142D01*
X110394666Y-77239761D01*
X110299428Y-77287380D01*
X110013714Y-77287380D01*
X109918476Y-77239761D01*
X109870857Y-77192142D01*
X110013714Y-130627380D02*
X109442285Y-130627380D01*
X109728000Y-130627380D02*
X109728000Y-129627380D01*
X109632761Y-129770238D01*
X109537523Y-129865476D01*
X109442285Y-129913095D01*
X117062285Y-129722619D02*
X117109904Y-129675000D01*
X117205142Y-129627380D01*
X117443238Y-129627380D01*
X117538476Y-129675000D01*
X117586095Y-129722619D01*
X117633714Y-129817857D01*
X117633714Y-129913095D01*
X117586095Y-130055952D01*
X117014666Y-130627380D01*
X117633714Y-130627380D01*
X117062285Y-76620714D02*
X117062285Y-77287380D01*
X116824190Y-76239761D02*
X116586095Y-76954047D01*
X117205142Y-76954047D01*
X118014666Y-76620714D02*
X118014666Y-77287380D01*
X117776571Y-76239761D02*
X117538476Y-76954047D01*
X118157523Y-76954047D01*
D11*
X142938952Y-118901666D02*
X143415142Y-118901666D01*
X142843714Y-119187380D02*
X143177047Y-118187380D01*
X143510380Y-119187380D01*
X143843714Y-119187380D02*
X143843714Y-118187380D01*
X144224666Y-118187380D01*
X144319904Y-118235000D01*
X144367523Y-118282619D01*
X144415142Y-118377857D01*
X144415142Y-118520714D01*
X144367523Y-118615952D01*
X144319904Y-118663571D01*
X144224666Y-118711190D01*
X143843714Y-118711190D01*
X144843714Y-118663571D02*
X145177047Y-118663571D01*
X145319904Y-119187380D02*
X144843714Y-119187380D01*
X144843714Y-118187380D01*
X145319904Y-118187380D01*
X145748476Y-119187380D02*
X145748476Y-118187380D01*
X145986571Y-118187380D01*
X146129428Y-118235000D01*
X146224666Y-118330238D01*
X146272285Y-118425476D01*
X146319904Y-118615952D01*
X146319904Y-118758809D01*
X146272285Y-118949285D01*
X146224666Y-119044523D01*
X146129428Y-119139761D01*
X145986571Y-119187380D01*
X145748476Y-119187380D01*
X146700857Y-119139761D02*
X146843714Y-119187380D01*
X147081809Y-119187380D01*
X147177047Y-119139761D01*
X147224666Y-119092142D01*
X147272285Y-118996904D01*
X147272285Y-118901666D01*
X147224666Y-118806428D01*
X147177047Y-118758809D01*
X147081809Y-118711190D01*
X146891333Y-118663571D01*
X146796095Y-118615952D01*
X146748476Y-118568333D01*
X146700857Y-118473095D01*
X146700857Y-118377857D01*
X146748476Y-118282619D01*
X146796095Y-118235000D01*
X146891333Y-118187380D01*
X147129428Y-118187380D01*
X147272285Y-118235000D01*
X147700857Y-119187380D02*
X147700857Y-118187380D01*
X148272285Y-119187380D02*
X147843714Y-118615952D01*
X148272285Y-118187380D02*
X147700857Y-118758809D01*
X148748476Y-119187380D02*
X148938952Y-119187380D01*
X149034190Y-119139761D01*
X149081809Y-119092142D01*
X149177047Y-118949285D01*
X149224666Y-118758809D01*
X149224666Y-118377857D01*
X149177047Y-118282619D01*
X149129428Y-118235000D01*
X149034190Y-118187380D01*
X148843714Y-118187380D01*
X148748476Y-118235000D01*
X148700857Y-118282619D01*
X148653238Y-118377857D01*
X148653238Y-118615952D01*
X148700857Y-118711190D01*
X148748476Y-118758809D01*
X148843714Y-118806428D01*
X149034190Y-118806428D01*
X149129428Y-118758809D01*
X149177047Y-118711190D01*
X149224666Y-118615952D01*
X149700857Y-119187380D02*
X149891333Y-119187380D01*
X149986571Y-119139761D01*
X150034190Y-119092142D01*
X150129428Y-118949285D01*
X150177047Y-118758809D01*
X150177047Y-118377857D01*
X150129428Y-118282619D01*
X150081809Y-118235000D01*
X149986571Y-118187380D01*
X149796095Y-118187380D01*
X149700857Y-118235000D01*
X149653238Y-118282619D01*
X149605619Y-118377857D01*
X149605619Y-118615952D01*
X149653238Y-118711190D01*
X149700857Y-118758809D01*
X149796095Y-118806428D01*
X149986571Y-118806428D01*
X150081809Y-118758809D01*
X150129428Y-118711190D01*
X150177047Y-118615952D01*
X144653238Y-120220714D02*
X144891333Y-120887380D01*
X145129428Y-120220714D01*
X145700857Y-119887380D02*
X145796095Y-119887380D01*
X145891333Y-119935000D01*
X145938952Y-119982619D01*
X145986571Y-120077857D01*
X146034190Y-120268333D01*
X146034190Y-120506428D01*
X145986571Y-120696904D01*
X145938952Y-120792142D01*
X145891333Y-120839761D01*
X145796095Y-120887380D01*
X145700857Y-120887380D01*
X145605619Y-120839761D01*
X145558000Y-120792142D01*
X145510380Y-120696904D01*
X145462761Y-120506428D01*
X145462761Y-120268333D01*
X145510380Y-120077857D01*
X145558000Y-119982619D01*
X145605619Y-119935000D01*
X145700857Y-119887380D01*
X146462761Y-120792142D02*
X146510380Y-120839761D01*
X146462761Y-120887380D01*
X146415142Y-120839761D01*
X146462761Y-120792142D01*
X146462761Y-120887380D01*
X147462761Y-120887380D02*
X146891333Y-120887380D01*
X147177047Y-120887380D02*
X147177047Y-119887380D01*
X147081809Y-120030238D01*
X146986571Y-120125476D01*
X146891333Y-120173095D01*
X147843714Y-119982619D02*
X147891333Y-119935000D01*
X147986571Y-119887380D01*
X148224666Y-119887380D01*
X148319904Y-119935000D01*
X148367523Y-119982619D01*
X148415142Y-120077857D01*
X148415142Y-120173095D01*
X148367523Y-120315952D01*
X147796095Y-120887380D01*
X148415142Y-120887380D01*
X142891333Y-122968333D02*
X142843714Y-122920714D01*
X142748476Y-122777857D01*
X142700857Y-122682619D01*
X142653238Y-122539761D01*
X142605619Y-122301666D01*
X142605619Y-122111190D01*
X142653238Y-121873095D01*
X142700857Y-121730238D01*
X142748476Y-121635000D01*
X142843714Y-121492142D01*
X142891333Y-121444523D01*
X143700857Y-122539761D02*
X143605619Y-122587380D01*
X143415142Y-122587380D01*
X143319904Y-122539761D01*
X143272285Y-122492142D01*
X143224666Y-122396904D01*
X143224666Y-122111190D01*
X143272285Y-122015952D01*
X143319904Y-121968333D01*
X143415142Y-121920714D01*
X143605619Y-121920714D01*
X143700857Y-121968333D01*
X144034190Y-122968333D02*
X144081809Y-122920714D01*
X144177047Y-122777857D01*
X144224666Y-122682619D01*
X144272285Y-122539761D01*
X144319904Y-122301666D01*
X144319904Y-122111190D01*
X144272285Y-121873095D01*
X144224666Y-121730238D01*
X144177047Y-121635000D01*
X144081809Y-121492142D01*
X144034190Y-121444523D01*
X145843714Y-121587380D02*
X145843714Y-122301666D01*
X145796095Y-122444523D01*
X145700857Y-122539761D01*
X145558000Y-122587380D01*
X145462761Y-122587380D01*
X146319904Y-122492142D02*
X146367523Y-122539761D01*
X146319904Y-122587380D01*
X146272285Y-122539761D01*
X146319904Y-122492142D01*
X146319904Y-122587380D01*
X147891333Y-122063571D02*
X148034190Y-122111190D01*
X148081809Y-122158809D01*
X148129428Y-122254047D01*
X148129428Y-122396904D01*
X148081809Y-122492142D01*
X148034190Y-122539761D01*
X147938952Y-122587380D01*
X147558000Y-122587380D01*
X147558000Y-121587380D01*
X147891333Y-121587380D01*
X147986571Y-121635000D01*
X148034190Y-121682619D01*
X148081809Y-121777857D01*
X148081809Y-121873095D01*
X148034190Y-121968333D01*
X147986571Y-122015952D01*
X147891333Y-122063571D01*
X147558000Y-122063571D01*
X148986571Y-121920714D02*
X148986571Y-122587380D01*
X148558000Y-121920714D02*
X148558000Y-122444523D01*
X148605619Y-122539761D01*
X148700857Y-122587380D01*
X148843714Y-122587380D01*
X148938952Y-122539761D01*
X148986571Y-122492142D01*
X149891333Y-121920714D02*
X149891333Y-122587380D01*
X149462761Y-121920714D02*
X149462761Y-122444523D01*
X149510380Y-122539761D01*
X149605619Y-122587380D01*
X149748476Y-122587380D01*
X149843714Y-122539761D01*
X149891333Y-122492142D01*
X150367523Y-122587380D02*
X150367523Y-121920714D01*
X150367523Y-122111190D02*
X150415142Y-122015952D01*
X150462761Y-121968333D01*
X150558000Y-121920714D01*
X150653238Y-121920714D01*
X135224666Y-123620714D02*
X135224666Y-124430238D01*
X135177047Y-124525476D01*
X135129428Y-124573095D01*
X135034190Y-124620714D01*
X134891333Y-124620714D01*
X134796095Y-124573095D01*
X135224666Y-124239761D02*
X135129428Y-124287380D01*
X134938952Y-124287380D01*
X134843714Y-124239761D01*
X134796095Y-124192142D01*
X134748476Y-124096904D01*
X134748476Y-123811190D01*
X134796095Y-123715952D01*
X134843714Y-123668333D01*
X134938952Y-123620714D01*
X135129428Y-123620714D01*
X135224666Y-123668333D01*
X135700857Y-124287380D02*
X135700857Y-123620714D01*
X135700857Y-123287380D02*
X135653238Y-123335000D01*
X135700857Y-123382619D01*
X135748476Y-123335000D01*
X135700857Y-123287380D01*
X135700857Y-123382619D01*
X136034190Y-123620714D02*
X136415142Y-123620714D01*
X136177047Y-123287380D02*
X136177047Y-124144523D01*
X136224666Y-124239761D01*
X136319904Y-124287380D01*
X136415142Y-124287380D01*
X136748476Y-124287380D02*
X136748476Y-123287380D01*
X137177047Y-124287380D02*
X137177047Y-123763571D01*
X137129428Y-123668333D01*
X137034190Y-123620714D01*
X136891333Y-123620714D01*
X136796095Y-123668333D01*
X136748476Y-123715952D01*
X138081809Y-123620714D02*
X138081809Y-124287380D01*
X137653238Y-123620714D02*
X137653238Y-124144523D01*
X137700857Y-124239761D01*
X137796095Y-124287380D01*
X137938952Y-124287380D01*
X138034190Y-124239761D01*
X138081809Y-124192142D01*
X138558000Y-124287380D02*
X138558000Y-123287380D01*
X138558000Y-123668333D02*
X138653238Y-123620714D01*
X138843714Y-123620714D01*
X138938952Y-123668333D01*
X138986571Y-123715952D01*
X139034190Y-123811190D01*
X139034190Y-124096904D01*
X138986571Y-124192142D01*
X138938952Y-124239761D01*
X138843714Y-124287380D01*
X138653238Y-124287380D01*
X138558000Y-124239761D01*
X139462761Y-124192142D02*
X139510380Y-124239761D01*
X139462761Y-124287380D01*
X139415142Y-124239761D01*
X139462761Y-124192142D01*
X139462761Y-124287380D01*
X140367523Y-124239761D02*
X140272285Y-124287380D01*
X140081809Y-124287380D01*
X139986571Y-124239761D01*
X139938952Y-124192142D01*
X139891333Y-124096904D01*
X139891333Y-123811190D01*
X139938952Y-123715952D01*
X139986571Y-123668333D01*
X140081809Y-123620714D01*
X140272285Y-123620714D01*
X140367523Y-123668333D01*
X140938952Y-124287380D02*
X140843714Y-124239761D01*
X140796095Y-124192142D01*
X140748476Y-124096904D01*
X140748476Y-123811190D01*
X140796095Y-123715952D01*
X140843714Y-123668333D01*
X140938952Y-123620714D01*
X141081809Y-123620714D01*
X141177047Y-123668333D01*
X141224666Y-123715952D01*
X141272285Y-123811190D01*
X141272285Y-124096904D01*
X141224666Y-124192142D01*
X141177047Y-124239761D01*
X141081809Y-124287380D01*
X140938952Y-124287380D01*
X141700857Y-124287380D02*
X141700857Y-123620714D01*
X141700857Y-123715952D02*
X141748476Y-123668333D01*
X141843714Y-123620714D01*
X141986571Y-123620714D01*
X142081809Y-123668333D01*
X142129428Y-123763571D01*
X142129428Y-124287380D01*
X142129428Y-123763571D02*
X142177047Y-123668333D01*
X142272285Y-123620714D01*
X142415142Y-123620714D01*
X142510380Y-123668333D01*
X142558000Y-123763571D01*
X142558000Y-124287380D01*
X143748476Y-123239761D02*
X142891333Y-124525476D01*
X144081809Y-123620714D02*
X144081809Y-124477857D01*
X144034190Y-124573095D01*
X143938952Y-124620714D01*
X143891333Y-124620714D01*
X144081809Y-123287380D02*
X144034190Y-123335000D01*
X144081809Y-123382619D01*
X144129428Y-123335000D01*
X144081809Y-123287380D01*
X144081809Y-123382619D01*
X144986571Y-124287380D02*
X144986571Y-123763571D01*
X144938952Y-123668333D01*
X144843714Y-123620714D01*
X144653238Y-123620714D01*
X144558000Y-123668333D01*
X144986571Y-124239761D02*
X144891333Y-124287380D01*
X144653238Y-124287380D01*
X144558000Y-124239761D01*
X144510380Y-124144523D01*
X144510380Y-124049285D01*
X144558000Y-123954047D01*
X144653238Y-123906428D01*
X144891333Y-123906428D01*
X144986571Y-123858809D01*
X145462761Y-124287380D02*
X145462761Y-123620714D01*
X145462761Y-123715952D02*
X145510380Y-123668333D01*
X145605619Y-123620714D01*
X145748476Y-123620714D01*
X145843714Y-123668333D01*
X145891333Y-123763571D01*
X145891333Y-124287380D01*
X145891333Y-123763571D02*
X145938952Y-123668333D01*
X146034190Y-123620714D01*
X146177047Y-123620714D01*
X146272285Y-123668333D01*
X146319904Y-123763571D01*
X146319904Y-124287380D01*
X146796095Y-124287380D02*
X146796095Y-123287380D01*
X146796095Y-123668333D02*
X146891333Y-123620714D01*
X147081809Y-123620714D01*
X147177047Y-123668333D01*
X147224666Y-123715952D01*
X147272285Y-123811190D01*
X147272285Y-124096904D01*
X147224666Y-124192142D01*
X147177047Y-124239761D01*
X147081809Y-124287380D01*
X146891333Y-124287380D01*
X146796095Y-124239761D01*
X148129428Y-123620714D02*
X148129428Y-124287380D01*
X147700857Y-123620714D02*
X147700857Y-124144523D01*
X147748476Y-124239761D01*
X147843714Y-124287380D01*
X147986571Y-124287380D01*
X148081809Y-124239761D01*
X148129428Y-124192142D01*
X149034190Y-123620714D02*
X149034190Y-124287380D01*
X148605619Y-123620714D02*
X148605619Y-124144523D01*
X148653238Y-124239761D01*
X148748476Y-124287380D01*
X148891333Y-124287380D01*
X148986571Y-124239761D01*
X149034190Y-124192142D01*
X149510380Y-124287380D02*
X149510380Y-123620714D01*
X149510380Y-123811190D02*
X149558000Y-123715952D01*
X149605619Y-123668333D01*
X149700857Y-123620714D01*
X149796095Y-123620714D01*
X150843714Y-123239761D02*
X149986571Y-124525476D01*
X151129428Y-124001666D02*
X151605619Y-124001666D01*
X151034190Y-124287380D02*
X151367523Y-123287380D01*
X151700857Y-124287380D01*
X152034190Y-124287380D02*
X152034190Y-123287380D01*
X152415142Y-123287380D01*
X152510380Y-123335000D01*
X152558000Y-123382619D01*
X152605619Y-123477857D01*
X152605619Y-123620714D01*
X152558000Y-123715952D01*
X152510380Y-123763571D01*
X152415142Y-123811190D01*
X152034190Y-123811190D01*
X153034190Y-123763571D02*
X153367523Y-123763571D01*
X153510380Y-124287380D02*
X153034190Y-124287380D01*
X153034190Y-123287380D01*
X153510380Y-123287380D01*
X153938952Y-124287380D02*
X153938952Y-123287380D01*
X154177047Y-123287380D01*
X154319904Y-123335000D01*
X154415142Y-123430238D01*
X154462761Y-123525476D01*
X154510380Y-123715952D01*
X154510380Y-123858809D01*
X154462761Y-124049285D01*
X154415142Y-124144523D01*
X154319904Y-124239761D01*
X154177047Y-124287380D01*
X153938952Y-124287380D01*
X154891333Y-124239761D02*
X155034190Y-124287380D01*
X155272285Y-124287380D01*
X155367523Y-124239761D01*
X155415142Y-124192142D01*
X155462761Y-124096904D01*
X155462761Y-124001666D01*
X155415142Y-123906428D01*
X155367523Y-123858809D01*
X155272285Y-123811190D01*
X155081809Y-123763571D01*
X154986571Y-123715952D01*
X154938952Y-123668333D01*
X154891333Y-123573095D01*
X154891333Y-123477857D01*
X154938952Y-123382619D01*
X154986571Y-123335000D01*
X155081809Y-123287380D01*
X155319904Y-123287380D01*
X155462761Y-123335000D01*
X155891333Y-124287380D02*
X155891333Y-123287380D01*
X156462761Y-124287380D02*
X156034190Y-123715952D01*
X156462761Y-123287380D02*
X155891333Y-123858809D01*
X156938952Y-124287380D02*
X157129428Y-124287380D01*
X157224666Y-124239761D01*
X157272285Y-124192142D01*
X157367523Y-124049285D01*
X157415142Y-123858809D01*
X157415142Y-123477857D01*
X157367523Y-123382619D01*
X157319904Y-123335000D01*
X157224666Y-123287380D01*
X157034190Y-123287380D01*
X156938952Y-123335000D01*
X156891333Y-123382619D01*
X156843714Y-123477857D01*
X156843714Y-123715952D01*
X156891333Y-123811190D01*
X156938952Y-123858809D01*
X157034190Y-123906428D01*
X157224666Y-123906428D01*
X157319904Y-123858809D01*
X157367523Y-123811190D01*
X157415142Y-123715952D01*
X157891333Y-124287380D02*
X158081809Y-124287380D01*
X158177047Y-124239761D01*
X158224666Y-124192142D01*
X158319904Y-124049285D01*
X158367523Y-123858809D01*
X158367523Y-123477857D01*
X158319904Y-123382619D01*
X158272285Y-123335000D01*
X158177047Y-123287380D01*
X157986571Y-123287380D01*
X157891333Y-123335000D01*
X157843714Y-123382619D01*
X157796095Y-123477857D01*
X157796095Y-123715952D01*
X157843714Y-123811190D01*
X157891333Y-123858809D01*
X157986571Y-123906428D01*
X158177047Y-123906428D01*
X158272285Y-123858809D01*
X158319904Y-123811190D01*
X158367523Y-123715952D01*
D12*
X121098000Y-127525000D02*
X121098000Y-129175000D01*
X146618000Y-127525000D02*
X121098000Y-127525000D01*
X146618000Y-132825000D02*
X146618000Y-127525000D01*
X121098000Y-132825000D02*
X146618000Y-132825000D01*
X121098000Y-131175000D02*
X121098000Y-132825000D01*
X121098000Y-129175000D02*
G75*
G02X121098000Y-131175000I0J-1000000D01*
G01*
X169068000Y-81295000D02*
X169068000Y-77455000D01*
X167228000Y-81295000D02*
X167228000Y-77455000D01*
X135238000Y-71695000D02*
X133588000Y-71695000D01*
X135238000Y-97215000D02*
X135238000Y-71695000D01*
X129938000Y-97215000D02*
X135238000Y-97215000D01*
X129938000Y-71695000D02*
X129938000Y-97215000D01*
X131588000Y-71695000D02*
X129938000Y-71695000D01*
X133588000Y-71695000D02*
G75*
G02X131588000Y-71695000I-1000000J0D01*
G01*
X135238000Y-102175000D02*
X133588000Y-102175000D01*
X135238000Y-122615000D02*
X135238000Y-102175000D01*
X129938000Y-122615000D02*
X135238000Y-122615000D01*
X129938000Y-102175000D02*
X129938000Y-122615000D01*
X131588000Y-102175000D02*
X129938000Y-102175000D01*
X133588000Y-102175000D02*
G75*
G02X131588000Y-102175000I-1000000J0D01*
G01*
X151578000Y-127525000D02*
X151578000Y-129175000D01*
X172018000Y-127525000D02*
X151578000Y-127525000D01*
X172018000Y-132825000D02*
X172018000Y-127525000D01*
X151578000Y-132825000D02*
X172018000Y-132825000D01*
X151578000Y-131175000D02*
X151578000Y-132825000D01*
X151578000Y-129175000D02*
G75*
G02X151578000Y-131175000I0J-1000000D01*
G01*
D10*
X124968000Y-89535000D02*
X124968000Y-71755000D01*
X124968000Y-71755000D02*
X122428000Y-71755000D01*
X122428000Y-71755000D02*
X122428000Y-89535000D01*
X125248000Y-92355000D02*
X125248000Y-90805000D01*
X124968000Y-89535000D02*
X122428000Y-89535000D01*
X122148000Y-90805000D02*
X122148000Y-92355000D01*
X122148000Y-92355000D02*
X125248000Y-92355000D01*
D12*
X149208000Y-78045000D02*
X147558000Y-78045000D01*
X149208000Y-113725000D02*
X149208000Y-78045000D01*
X143908000Y-113725000D02*
X149208000Y-113725000D01*
X143908000Y-78045000D02*
X143908000Y-113725000D01*
X145558000Y-78045000D02*
X143908000Y-78045000D01*
X147558000Y-78045000D02*
G75*
G02X145558000Y-78045000I-1000000J0D01*
G01*
X163178000Y-100905000D02*
X161528000Y-100905000D01*
X163178000Y-121345000D02*
X163178000Y-100905000D01*
X157878000Y-121345000D02*
X163178000Y-121345000D01*
X157878000Y-100905000D02*
X157878000Y-121345000D01*
X159528000Y-100905000D02*
X157878000Y-100905000D01*
X161528000Y-100905000D02*
G75*
G02X159528000Y-100905000I-1000000J0D01*
G01*
X163178000Y-70425000D02*
X161528000Y-70425000D01*
X163178000Y-95945000D02*
X163178000Y-70425000D01*
X157878000Y-95945000D02*
X163178000Y-95945000D01*
X157878000Y-70425000D02*
X157878000Y-95945000D01*
X159528000Y-70425000D02*
X157878000Y-70425000D01*
X161528000Y-70425000D02*
G75*
G02X159528000Y-70425000I-1000000J0D01*
G01*
X167498000Y-117125000D02*
X171338000Y-117125000D01*
X167498000Y-115285000D02*
X171338000Y-115285000D01*
X169068000Y-111775000D02*
X169068000Y-107935000D01*
X167228000Y-111775000D02*
X167228000Y-107935000D01*
X169068000Y-104155000D02*
X169068000Y-100315000D01*
X167228000Y-104155000D02*
X167228000Y-100315000D01*
X167228000Y-92695000D02*
X167228000Y-96535000D01*
X169068000Y-92695000D02*
X169068000Y-96535000D01*
X169068000Y-88915000D02*
X169068000Y-85075000D01*
X167228000Y-88915000D02*
X167228000Y-85075000D01*
X167948000Y-122365000D02*
X167948000Y-122545000D01*
X167948000Y-120025000D02*
X167948000Y-120205000D01*
X167828000Y-122365000D02*
X167828000Y-122545000D01*
X167828000Y-120025000D02*
X167828000Y-120205000D01*
X171128000Y-122380000D02*
X171128000Y-122545000D01*
X171128000Y-120025000D02*
X171128000Y-120190000D01*
X167708000Y-122365000D02*
X167708000Y-122545000D01*
X167708000Y-120025000D02*
X167708000Y-120205000D01*
X167708000Y-122545000D02*
X171128000Y-122545000D01*
X167708000Y-120025000D02*
X171128000Y-120025000D01*
X151288000Y-130824000D02*
X151288000Y-129566000D01*
X149448000Y-130824000D02*
X149448000Y-129566000D01*
X159919000Y-99345000D02*
X161177000Y-99345000D01*
X159919000Y-97505000D02*
X161177000Y-97505000D01*
X169068000Y-72364000D02*
X169068000Y-71106000D01*
X167228000Y-72364000D02*
X167228000Y-71106000D01*
X149747000Y-73375000D02*
X148489000Y-73375000D01*
X149747000Y-75215000D02*
X148489000Y-75215000D01*
X141128000Y-72364000D02*
X141128000Y-71106000D01*
X139288000Y-72364000D02*
X139288000Y-71106000D01*
X120808000Y-125704000D02*
X120808000Y-124446000D01*
X118968000Y-125704000D02*
X118968000Y-124446000D01*
X133237000Y-98775000D02*
X131979000Y-98775000D01*
X133237000Y-100615000D02*
X131979000Y-100615000D01*
D10*
X173228000Y-107315000D02*
X173228000Y-89535000D01*
X173228000Y-89535000D02*
X170688000Y-89535000D01*
X170688000Y-89535000D02*
X170688000Y-107315000D01*
X173508000Y-110135000D02*
X173508000Y-108585000D01*
X173228000Y-107315000D02*
X170688000Y-107315000D01*
X170408000Y-108585000D02*
X170408000Y-110135000D01*
X170408000Y-110135000D02*
X173508000Y-110135000D01*
X173228000Y-84455000D02*
X173228000Y-71755000D01*
X173228000Y-71755000D02*
X170688000Y-71755000D01*
X170688000Y-71755000D02*
X170688000Y-84455000D01*
X173508000Y-87275000D02*
X173508000Y-85725000D01*
X173228000Y-84455000D02*
X170688000Y-84455000D01*
X170408000Y-85725000D02*
X170408000Y-87275000D01*
X170408000Y-87275000D02*
X173508000Y-87275000D01*
X124968000Y-116459000D02*
X124968000Y-93599000D01*
X124968000Y-93599000D02*
X122428000Y-93599000D01*
X122428000Y-93599000D02*
X122428000Y-116459000D01*
X125248000Y-119279000D02*
X125248000Y-117729000D01*
X124968000Y-116459000D02*
X122428000Y-116459000D01*
X122148000Y-117729000D02*
X122148000Y-119279000D01*
X122148000Y-119279000D02*
X125248000Y-119279000D01*
X123150380Y-130936904D02*
X123959904Y-130936904D01*
X124055142Y-130889285D01*
X124102761Y-130841666D01*
X124150380Y-130746428D01*
X124150380Y-130555952D01*
X124102761Y-130460714D01*
X124055142Y-130413095D01*
X123959904Y-130365476D01*
X123150380Y-130365476D01*
X124150380Y-129365476D02*
X124150380Y-129936904D01*
X124150380Y-129651190D02*
X123150380Y-129651190D01*
X123293238Y-129746428D01*
X123388476Y-129841666D01*
X123436095Y-129936904D01*
X168600380Y-79541666D02*
X168124190Y-79875000D01*
X168600380Y-80113095D02*
X167600380Y-80113095D01*
X167600380Y-79732142D01*
X167648000Y-79636904D01*
X167695619Y-79589285D01*
X167790857Y-79541666D01*
X167933714Y-79541666D01*
X168028952Y-79589285D01*
X168076571Y-79636904D01*
X168124190Y-79732142D01*
X168124190Y-80113095D01*
X168600380Y-78589285D02*
X168600380Y-79160714D01*
X168600380Y-78875000D02*
X167600380Y-78875000D01*
X167743238Y-78970238D01*
X167838476Y-79065476D01*
X167886095Y-79160714D01*
X131826095Y-73747380D02*
X131826095Y-74556904D01*
X131873714Y-74652142D01*
X131921333Y-74699761D01*
X132016571Y-74747380D01*
X132207047Y-74747380D01*
X132302285Y-74699761D01*
X132349904Y-74652142D01*
X132397523Y-74556904D01*
X132397523Y-73747380D01*
X132826095Y-73842619D02*
X132873714Y-73795000D01*
X132968952Y-73747380D01*
X133207047Y-73747380D01*
X133302285Y-73795000D01*
X133349904Y-73842619D01*
X133397523Y-73937857D01*
X133397523Y-74033095D01*
X133349904Y-74175952D01*
X132778476Y-74747380D01*
X133397523Y-74747380D01*
X131826095Y-104227380D02*
X131826095Y-105036904D01*
X131873714Y-105132142D01*
X131921333Y-105179761D01*
X132016571Y-105227380D01*
X132207047Y-105227380D01*
X132302285Y-105179761D01*
X132349904Y-105132142D01*
X132397523Y-105036904D01*
X132397523Y-104227380D01*
X133349904Y-104227380D02*
X132873714Y-104227380D01*
X132826095Y-104703571D01*
X132873714Y-104655952D01*
X132968952Y-104608333D01*
X133207047Y-104608333D01*
X133302285Y-104655952D01*
X133349904Y-104703571D01*
X133397523Y-104798809D01*
X133397523Y-105036904D01*
X133349904Y-105132142D01*
X133302285Y-105179761D01*
X133207047Y-105227380D01*
X132968952Y-105227380D01*
X132873714Y-105179761D01*
X132826095Y-105132142D01*
X153630380Y-130936904D02*
X154439904Y-130936904D01*
X154535142Y-130889285D01*
X154582761Y-130841666D01*
X154630380Y-130746428D01*
X154630380Y-130555952D01*
X154582761Y-130460714D01*
X154535142Y-130413095D01*
X154439904Y-130365476D01*
X153630380Y-130365476D01*
X153963714Y-129460714D02*
X154630380Y-129460714D01*
X153582761Y-129698809D02*
X154297047Y-129936904D01*
X154297047Y-129317857D01*
X145796095Y-80097380D02*
X145796095Y-80906904D01*
X145843714Y-81002142D01*
X145891333Y-81049761D01*
X145986571Y-81097380D01*
X146177047Y-81097380D01*
X146272285Y-81049761D01*
X146319904Y-81002142D01*
X146367523Y-80906904D01*
X146367523Y-80097380D01*
X146748476Y-80097380D02*
X147415142Y-80097380D01*
X146986571Y-81097380D01*
X159766095Y-102957380D02*
X159766095Y-103766904D01*
X159813714Y-103862142D01*
X159861333Y-103909761D01*
X159956571Y-103957380D01*
X160147047Y-103957380D01*
X160242285Y-103909761D01*
X160289904Y-103862142D01*
X160337523Y-103766904D01*
X160337523Y-102957380D01*
X161242285Y-102957380D02*
X161051809Y-102957380D01*
X160956571Y-103005000D01*
X160908952Y-103052619D01*
X160813714Y-103195476D01*
X160766095Y-103385952D01*
X160766095Y-103766904D01*
X160813714Y-103862142D01*
X160861333Y-103909761D01*
X160956571Y-103957380D01*
X161147047Y-103957380D01*
X161242285Y-103909761D01*
X161289904Y-103862142D01*
X161337523Y-103766904D01*
X161337523Y-103528809D01*
X161289904Y-103433571D01*
X161242285Y-103385952D01*
X161147047Y-103338333D01*
X160956571Y-103338333D01*
X160861333Y-103385952D01*
X160813714Y-103433571D01*
X160766095Y-103528809D01*
X159766095Y-72477380D02*
X159766095Y-73286904D01*
X159813714Y-73382142D01*
X159861333Y-73429761D01*
X159956571Y-73477380D01*
X160147047Y-73477380D01*
X160242285Y-73429761D01*
X160289904Y-73382142D01*
X160337523Y-73286904D01*
X160337523Y-72477380D01*
X160718476Y-72477380D02*
X161337523Y-72477380D01*
X161004190Y-72858333D01*
X161147047Y-72858333D01*
X161242285Y-72905952D01*
X161289904Y-72953571D01*
X161337523Y-73048809D01*
X161337523Y-73286904D01*
X161289904Y-73382142D01*
X161242285Y-73429761D01*
X161147047Y-73477380D01*
X160861333Y-73477380D01*
X160766095Y-73429761D01*
X160718476Y-73382142D01*
X169251333Y-116657380D02*
X168918000Y-116181190D01*
X168679904Y-116657380D02*
X168679904Y-115657380D01*
X169060857Y-115657380D01*
X169156095Y-115705000D01*
X169203714Y-115752619D01*
X169251333Y-115847857D01*
X169251333Y-115990714D01*
X169203714Y-116085952D01*
X169156095Y-116133571D01*
X169060857Y-116181190D01*
X168679904Y-116181190D01*
X170108476Y-115657380D02*
X169918000Y-115657380D01*
X169822761Y-115705000D01*
X169775142Y-115752619D01*
X169679904Y-115895476D01*
X169632285Y-116085952D01*
X169632285Y-116466904D01*
X169679904Y-116562142D01*
X169727523Y-116609761D01*
X169822761Y-116657380D01*
X170013238Y-116657380D01*
X170108476Y-116609761D01*
X170156095Y-116562142D01*
X170203714Y-116466904D01*
X170203714Y-116228809D01*
X170156095Y-116133571D01*
X170108476Y-116085952D01*
X170013238Y-116038333D01*
X169822761Y-116038333D01*
X169727523Y-116085952D01*
X169679904Y-116133571D01*
X169632285Y-116228809D01*
X168600380Y-110021666D02*
X168124190Y-110355000D01*
X168600380Y-110593095D02*
X167600380Y-110593095D01*
X167600380Y-110212142D01*
X167648000Y-110116904D01*
X167695619Y-110069285D01*
X167790857Y-110021666D01*
X167933714Y-110021666D01*
X168028952Y-110069285D01*
X168076571Y-110116904D01*
X168124190Y-110212142D01*
X168124190Y-110593095D01*
X167600380Y-109116904D02*
X167600380Y-109593095D01*
X168076571Y-109640714D01*
X168028952Y-109593095D01*
X167981333Y-109497857D01*
X167981333Y-109259761D01*
X168028952Y-109164523D01*
X168076571Y-109116904D01*
X168171809Y-109069285D01*
X168409904Y-109069285D01*
X168505142Y-109116904D01*
X168552761Y-109164523D01*
X168600380Y-109259761D01*
X168600380Y-109497857D01*
X168552761Y-109593095D01*
X168505142Y-109640714D01*
X168600380Y-102401666D02*
X168124190Y-102735000D01*
X168600380Y-102973095D02*
X167600380Y-102973095D01*
X167600380Y-102592142D01*
X167648000Y-102496904D01*
X167695619Y-102449285D01*
X167790857Y-102401666D01*
X167933714Y-102401666D01*
X168028952Y-102449285D01*
X168076571Y-102496904D01*
X168124190Y-102592142D01*
X168124190Y-102973095D01*
X167933714Y-101544523D02*
X168600380Y-101544523D01*
X167552761Y-101782619D02*
X168267047Y-102020714D01*
X168267047Y-101401666D01*
X168600380Y-94781666D02*
X168124190Y-95115000D01*
X168600380Y-95353095D02*
X167600380Y-95353095D01*
X167600380Y-94972142D01*
X167648000Y-94876904D01*
X167695619Y-94829285D01*
X167790857Y-94781666D01*
X167933714Y-94781666D01*
X168028952Y-94829285D01*
X168076571Y-94876904D01*
X168124190Y-94972142D01*
X168124190Y-95353095D01*
X167600380Y-94448333D02*
X167600380Y-93829285D01*
X167981333Y-94162619D01*
X167981333Y-94019761D01*
X168028952Y-93924523D01*
X168076571Y-93876904D01*
X168171809Y-93829285D01*
X168409904Y-93829285D01*
X168505142Y-93876904D01*
X168552761Y-93924523D01*
X168600380Y-94019761D01*
X168600380Y-94305476D01*
X168552761Y-94400714D01*
X168505142Y-94448333D01*
X168600380Y-87161666D02*
X168124190Y-87495000D01*
X168600380Y-87733095D02*
X167600380Y-87733095D01*
X167600380Y-87352142D01*
X167648000Y-87256904D01*
X167695619Y-87209285D01*
X167790857Y-87161666D01*
X167933714Y-87161666D01*
X168028952Y-87209285D01*
X168076571Y-87256904D01*
X168124190Y-87352142D01*
X168124190Y-87733095D01*
X167695619Y-86780714D02*
X167648000Y-86733095D01*
X167600380Y-86637857D01*
X167600380Y-86399761D01*
X167648000Y-86304523D01*
X167695619Y-86256904D01*
X167790857Y-86209285D01*
X167886095Y-86209285D01*
X168028952Y-86256904D01*
X168600380Y-86828333D01*
X168600380Y-86209285D01*
X168679904Y-119477380D02*
X168679904Y-118477380D01*
X168918000Y-118477380D01*
X169060857Y-118525000D01*
X169156095Y-118620238D01*
X169203714Y-118715476D01*
X169251333Y-118905952D01*
X169251333Y-119048809D01*
X169203714Y-119239285D01*
X169156095Y-119334523D01*
X169060857Y-119429761D01*
X168918000Y-119477380D01*
X168679904Y-119477380D01*
X170203714Y-119477380D02*
X169632285Y-119477380D01*
X169918000Y-119477380D02*
X169918000Y-118477380D01*
X169822761Y-118620238D01*
X169727523Y-118715476D01*
X169632285Y-118763095D01*
X148931333Y-126722142D02*
X148883714Y-126769761D01*
X148740857Y-126817380D01*
X148645619Y-126817380D01*
X148502761Y-126769761D01*
X148407523Y-126674523D01*
X148359904Y-126579285D01*
X148312285Y-126388809D01*
X148312285Y-126245952D01*
X148359904Y-126055476D01*
X148407523Y-125960238D01*
X148502761Y-125865000D01*
X148645619Y-125817380D01*
X148740857Y-125817380D01*
X148883714Y-125865000D01*
X148931333Y-125912619D01*
X149788476Y-126150714D02*
X149788476Y-126817380D01*
X149550380Y-125769761D02*
X149312285Y-126484047D01*
X149931333Y-126484047D01*
X156551333Y-98782142D02*
X156503714Y-98829761D01*
X156360857Y-98877380D01*
X156265619Y-98877380D01*
X156122761Y-98829761D01*
X156027523Y-98734523D01*
X155979904Y-98639285D01*
X155932285Y-98448809D01*
X155932285Y-98305952D01*
X155979904Y-98115476D01*
X156027523Y-98020238D01*
X156122761Y-97925000D01*
X156265619Y-97877380D01*
X156360857Y-97877380D01*
X156503714Y-97925000D01*
X156551333Y-97972619D01*
X157408476Y-97877380D02*
X157218000Y-97877380D01*
X157122761Y-97925000D01*
X157075142Y-97972619D01*
X156979904Y-98115476D01*
X156932285Y-98305952D01*
X156932285Y-98686904D01*
X156979904Y-98782142D01*
X157027523Y-98829761D01*
X157122761Y-98877380D01*
X157313238Y-98877380D01*
X157408476Y-98829761D01*
X157456095Y-98782142D01*
X157503714Y-98686904D01*
X157503714Y-98448809D01*
X157456095Y-98353571D01*
X157408476Y-98305952D01*
X157313238Y-98258333D01*
X157122761Y-98258333D01*
X157027523Y-98305952D01*
X156979904Y-98353571D01*
X156932285Y-98448809D01*
X165441333Y-69572142D02*
X165393714Y-69619761D01*
X165250857Y-69667380D01*
X165155619Y-69667380D01*
X165012761Y-69619761D01*
X164917523Y-69524523D01*
X164869904Y-69429285D01*
X164822285Y-69238809D01*
X164822285Y-69095952D01*
X164869904Y-68905476D01*
X164917523Y-68810238D01*
X165012761Y-68715000D01*
X165155619Y-68667380D01*
X165250857Y-68667380D01*
X165393714Y-68715000D01*
X165441333Y-68762619D01*
X165774666Y-68667380D02*
X166393714Y-68667380D01*
X166060380Y-69048333D01*
X166203238Y-69048333D01*
X166298476Y-69095952D01*
X166346095Y-69143571D01*
X166393714Y-69238809D01*
X166393714Y-69476904D01*
X166346095Y-69572142D01*
X166298476Y-69619761D01*
X166203238Y-69667380D01*
X165917523Y-69667380D01*
X165822285Y-69619761D01*
X165774666Y-69572142D01*
X148951333Y-72112142D02*
X148903714Y-72159761D01*
X148760857Y-72207380D01*
X148665619Y-72207380D01*
X148522761Y-72159761D01*
X148427523Y-72064523D01*
X148379904Y-71969285D01*
X148332285Y-71778809D01*
X148332285Y-71635952D01*
X148379904Y-71445476D01*
X148427523Y-71350238D01*
X148522761Y-71255000D01*
X148665619Y-71207380D01*
X148760857Y-71207380D01*
X148903714Y-71255000D01*
X148951333Y-71302619D01*
X149284666Y-71207380D02*
X149951333Y-71207380D01*
X149522761Y-72207380D01*
X142581333Y-72112142D02*
X142533714Y-72159761D01*
X142390857Y-72207380D01*
X142295619Y-72207380D01*
X142152761Y-72159761D01*
X142057523Y-72064523D01*
X142009904Y-71969285D01*
X141962285Y-71778809D01*
X141962285Y-71635952D01*
X142009904Y-71445476D01*
X142057523Y-71350238D01*
X142152761Y-71255000D01*
X142295619Y-71207380D01*
X142390857Y-71207380D01*
X142533714Y-71255000D01*
X142581333Y-71302619D01*
X142962285Y-71302619D02*
X143009904Y-71255000D01*
X143105142Y-71207380D01*
X143343238Y-71207380D01*
X143438476Y-71255000D01*
X143486095Y-71302619D01*
X143533714Y-71397857D01*
X143533714Y-71493095D01*
X143486095Y-71635952D01*
X142914666Y-72207380D01*
X143533714Y-72207380D01*
X119721333Y-121642142D02*
X119673714Y-121689761D01*
X119530857Y-121737380D01*
X119435619Y-121737380D01*
X119292761Y-121689761D01*
X119197523Y-121594523D01*
X119149904Y-121499285D01*
X119102285Y-121308809D01*
X119102285Y-121165952D01*
X119149904Y-120975476D01*
X119197523Y-120880238D01*
X119292761Y-120785000D01*
X119435619Y-120737380D01*
X119530857Y-120737380D01*
X119673714Y-120785000D01*
X119721333Y-120832619D01*
X120673714Y-121737380D02*
X120102285Y-121737380D01*
X120388000Y-121737380D02*
X120388000Y-120737380D01*
X120292761Y-120880238D01*
X120197523Y-120975476D01*
X120102285Y-121023095D01*
X136231333Y-100052142D02*
X136183714Y-100099761D01*
X136040857Y-100147380D01*
X135945619Y-100147380D01*
X135802761Y-100099761D01*
X135707523Y-100004523D01*
X135659904Y-99909285D01*
X135612285Y-99718809D01*
X135612285Y-99575952D01*
X135659904Y-99385476D01*
X135707523Y-99290238D01*
X135802761Y-99195000D01*
X135945619Y-99147380D01*
X136040857Y-99147380D01*
X136183714Y-99195000D01*
X136231333Y-99242619D01*
X137136095Y-99147380D02*
X136659904Y-99147380D01*
X136612285Y-99623571D01*
X136659904Y-99575952D01*
X136755142Y-99528333D01*
X136993238Y-99528333D01*
X137088476Y-99575952D01*
X137136095Y-99623571D01*
X137183714Y-99718809D01*
X137183714Y-99956904D01*
X137136095Y-100052142D01*
X137088476Y-100099761D01*
X136993238Y-100147380D01*
X136755142Y-100147380D01*
X136659904Y-100099761D01*
X136612285Y-100052142D01*
M02*
