G04 #@! TF.GenerationSoftware,KiCad,Pcbnew,(5.1.2)-2*
G04 #@! TF.CreationDate,2020-11-11T13:09:37+13:00*
G04 #@! TF.ProjectId,APEDSK-AU,41504544-534b-42d4-9155-2e6b69636164,rev?*
G04 #@! TF.SameCoordinates,Original*
G04 #@! TF.FileFunction,Soldermask,Bot*
G04 #@! TF.FilePolarity,Negative*
%FSLAX46Y46*%
G04 Gerber Fmt 4.6, Leading zero omitted, Abs format (unit mm)*
G04 Created by KiCad (PCBNEW (5.1.2)-2) date 2020-11-11 13:09:37*
%MOMM*%
%LPD*%
G04 APERTURE LIST*
%ADD10O,1.600000X1.600000*%
%ADD11R,1.600000X1.600000*%
%ADD12C,1.600000*%
%ADD13O,1.800000X1.800000*%
%ADD14R,1.800000X1.800000*%
%ADD15O,1.400000X1.400000*%
%ADD16C,1.400000*%
%ADD17O,1.700000X1.700000*%
%ADD18R,1.700000X1.700000*%
%ADD19O,2.032000X1.727200*%
%ADD20C,1.800000*%
G04 APERTURE END LIST*
D10*
X149098000Y-126365000D03*
X171958000Y-133985000D03*
X151638000Y-126365000D03*
X169418000Y-133985000D03*
X154178000Y-126365000D03*
X166878000Y-133985000D03*
X156718000Y-126365000D03*
X164338000Y-133985000D03*
X159258000Y-126365000D03*
X161798000Y-133985000D03*
X161798000Y-126365000D03*
X159258000Y-133985000D03*
X164338000Y-126365000D03*
X156718000Y-133985000D03*
X166878000Y-126365000D03*
X154178000Y-133985000D03*
X169418000Y-126365000D03*
X151638000Y-133985000D03*
X171958000Y-126365000D03*
D11*
X149098000Y-133985000D03*
D12*
X157948000Y-117475000D03*
X155448000Y-117475000D03*
X147868000Y-99695000D03*
X150368000Y-99695000D03*
D10*
X150368000Y-75565000D03*
X142748000Y-93345000D03*
X150368000Y-78105000D03*
X142748000Y-90805000D03*
X150368000Y-80645000D03*
X142748000Y-88265000D03*
X150368000Y-83185000D03*
X142748000Y-85725000D03*
X150368000Y-85725000D03*
X142748000Y-83185000D03*
X150368000Y-88265000D03*
X142748000Y-80645000D03*
X150368000Y-90805000D03*
X142748000Y-78105000D03*
X150368000Y-93345000D03*
D11*
X142748000Y-75565000D03*
D13*
X168148000Y-84455000D03*
D14*
X168148000Y-89535000D03*
D10*
X155448000Y-114935000D03*
X163068000Y-76835000D03*
X155448000Y-112395000D03*
X163068000Y-79375000D03*
X155448000Y-109855000D03*
X163068000Y-81915000D03*
X155448000Y-107315000D03*
X163068000Y-84455000D03*
X155448000Y-104775000D03*
X163068000Y-86995000D03*
X155448000Y-102235000D03*
X163068000Y-89535000D03*
X155448000Y-99695000D03*
X163068000Y-92075000D03*
X155448000Y-97155000D03*
X163068000Y-94615000D03*
X155448000Y-94615000D03*
X163068000Y-97155000D03*
X155448000Y-92075000D03*
X163068000Y-99695000D03*
X155448000Y-89535000D03*
X163068000Y-102235000D03*
X155448000Y-86995000D03*
X163068000Y-104775000D03*
X155448000Y-84455000D03*
X163068000Y-107315000D03*
X155448000Y-81915000D03*
X163068000Y-109855000D03*
X155448000Y-79375000D03*
X163068000Y-112395000D03*
X155448000Y-76835000D03*
D11*
X163068000Y-114935000D03*
D12*
X147868000Y-73025000D03*
X150368000Y-73025000D03*
D15*
X168148000Y-76835000D03*
D16*
X168148000Y-81915000D03*
D15*
X163068000Y-122555000D03*
D16*
X163068000Y-117475000D03*
D15*
X171958000Y-116205000D03*
D16*
X166878000Y-116205000D03*
D15*
X168148000Y-107315000D03*
D16*
X168148000Y-112395000D03*
D15*
X168148000Y-99695000D03*
D16*
X168148000Y-104775000D03*
D15*
X168148000Y-97155000D03*
D16*
X168148000Y-92075000D03*
D17*
X114808000Y-76835000D03*
X112268000Y-76835000D03*
X114808000Y-79375000D03*
X112268000Y-79375000D03*
X114808000Y-81915000D03*
X112268000Y-81915000D03*
X114808000Y-84455000D03*
X112268000Y-84455000D03*
X114808000Y-86995000D03*
X112268000Y-86995000D03*
X114808000Y-89535000D03*
X112268000Y-89535000D03*
X114808000Y-92075000D03*
X112268000Y-92075000D03*
X114808000Y-94615000D03*
X112268000Y-94615000D03*
X114808000Y-97155000D03*
X112268000Y-97155000D03*
X114808000Y-99695000D03*
X112268000Y-99695000D03*
X114808000Y-102235000D03*
X112268000Y-102235000D03*
X114808000Y-104775000D03*
X112268000Y-104775000D03*
X114808000Y-107315000D03*
X112268000Y-107315000D03*
X114808000Y-109855000D03*
X112268000Y-109855000D03*
X114808000Y-112395000D03*
X112268000Y-112395000D03*
X114808000Y-114935000D03*
X112268000Y-114935000D03*
X114808000Y-117475000D03*
X112268000Y-117475000D03*
X114808000Y-120015000D03*
X112268000Y-120015000D03*
X114808000Y-122555000D03*
X112268000Y-122555000D03*
X114808000Y-125095000D03*
X112268000Y-125095000D03*
X114808000Y-127635000D03*
X112268000Y-127635000D03*
X114808000Y-130175000D03*
D18*
X112268000Y-130175000D03*
D10*
X144018000Y-133985000D03*
X121158000Y-126365000D03*
X141478000Y-133985000D03*
X123698000Y-126365000D03*
X138938000Y-133985000D03*
X126238000Y-126365000D03*
X136398000Y-133985000D03*
X128778000Y-126365000D03*
X133858000Y-133985000D03*
X131318000Y-126365000D03*
X131318000Y-133985000D03*
X133858000Y-126365000D03*
X128778000Y-133985000D03*
X136398000Y-126365000D03*
X126238000Y-133985000D03*
X138938000Y-126365000D03*
X123698000Y-133985000D03*
X141478000Y-126365000D03*
X121158000Y-133985000D03*
D11*
X144018000Y-126365000D03*
D12*
X146558000Y-131485000D03*
X146558000Y-133985000D03*
D10*
X136398000Y-99695000D03*
X128778000Y-122555000D03*
X136398000Y-102235000D03*
X128778000Y-120015000D03*
X136398000Y-104775000D03*
X128778000Y-117475000D03*
X136398000Y-107315000D03*
X128778000Y-114935000D03*
X136398000Y-109855000D03*
X128778000Y-112395000D03*
X136398000Y-112395000D03*
X128778000Y-109855000D03*
X136398000Y-114935000D03*
X128778000Y-107315000D03*
X136398000Y-117475000D03*
X128778000Y-104775000D03*
X136398000Y-120015000D03*
X128778000Y-102235000D03*
X136398000Y-122555000D03*
D11*
X128778000Y-99695000D03*
D10*
X150368000Y-102235000D03*
X142748000Y-120015000D03*
X150368000Y-104775000D03*
X142748000Y-117475000D03*
X150368000Y-107315000D03*
X142748000Y-114935000D03*
X150368000Y-109855000D03*
X142748000Y-112395000D03*
X150368000Y-112395000D03*
X142748000Y-109855000D03*
X150368000Y-114935000D03*
X142748000Y-107315000D03*
X150368000Y-117475000D03*
X142748000Y-104775000D03*
X150368000Y-120015000D03*
D11*
X142748000Y-102235000D03*
D19*
X123698000Y-90805000D03*
X123698000Y-88265000D03*
X123698000Y-85725000D03*
X123698000Y-83185000D03*
X123698000Y-80645000D03*
X123698000Y-78105000D03*
X123698000Y-75565000D03*
X123698000Y-73025000D03*
D10*
X136398000Y-73025000D03*
X128778000Y-95885000D03*
X136398000Y-75565000D03*
X128778000Y-93345000D03*
X136398000Y-78105000D03*
X128778000Y-90805000D03*
X136398000Y-80645000D03*
X128778000Y-88265000D03*
X136398000Y-83185000D03*
X128778000Y-85725000D03*
X136398000Y-85725000D03*
X128778000Y-83185000D03*
X136398000Y-88265000D03*
X128778000Y-80645000D03*
X136398000Y-90805000D03*
X128778000Y-78105000D03*
X136398000Y-93345000D03*
X128778000Y-75565000D03*
X136398000Y-95885000D03*
D11*
X128778000Y-73025000D03*
D20*
X171958000Y-121285000D03*
D14*
X169418000Y-121285000D03*
D12*
X146558000Y-125135000D03*
X146558000Y-127635000D03*
X138938000Y-70525000D03*
X138938000Y-73025000D03*
X138938000Y-97195000D03*
X138938000Y-99695000D03*
D19*
X171958000Y-108585000D03*
X171958000Y-106045000D03*
X171958000Y-103505000D03*
X171958000Y-100965000D03*
X171958000Y-98425000D03*
X171958000Y-95885000D03*
X171958000Y-93345000D03*
X171958000Y-90805000D03*
X171958000Y-85725000D03*
X171958000Y-83185000D03*
X171958000Y-80645000D03*
X171958000Y-78105000D03*
X171958000Y-75565000D03*
X171958000Y-73025000D03*
X123698000Y-117729000D03*
X123698000Y-115189000D03*
X123698000Y-112649000D03*
X123698000Y-110109000D03*
X123698000Y-107569000D03*
X123698000Y-105029000D03*
X123698000Y-102489000D03*
X123698000Y-99949000D03*
X123698000Y-97409000D03*
X123698000Y-94869000D03*
M02*
