G04 #@! TF.GenerationSoftware,KiCad,Pcbnew,(5.1.2)-2*
G04 #@! TF.CreationDate,2020-11-11T13:09:37+13:00*
G04 #@! TF.ProjectId,APEDSK-AU,41504544-534b-42d4-9155-2e6b69636164,rev?*
G04 #@! TF.SameCoordinates,Original*
G04 #@! TF.FileFunction,Other,User*
%FSLAX46Y46*%
G04 Gerber Fmt 4.6, Leading zero omitted, Abs format (unit mm)*
G04 Created by KiCad (PCBNEW (5.1.2)-2) date 2020-11-11 13:09:37*
%MOMM*%
%LPD*%
G04 APERTURE LIST*
%ADD10C,0.050000*%
G04 APERTURE END LIST*
D10*
X147548000Y-125285000D02*
X147548000Y-135085000D01*
X173498000Y-125285000D02*
X147548000Y-125285000D01*
X173498000Y-135085000D02*
X173498000Y-125285000D01*
X147548000Y-135085000D02*
X173498000Y-135085000D01*
X158998000Y-116425000D02*
X154398000Y-116425000D01*
X158998000Y-118525000D02*
X158998000Y-116425000D01*
X154398000Y-118525000D02*
X158998000Y-118525000D01*
X154398000Y-116425000D02*
X154398000Y-118525000D01*
X146818000Y-100745000D02*
X151418000Y-100745000D01*
X146818000Y-98645000D02*
X146818000Y-100745000D01*
X151418000Y-98645000D02*
X146818000Y-98645000D01*
X151418000Y-100745000D02*
X151418000Y-98645000D01*
X151448000Y-74015000D02*
X141648000Y-74015000D01*
X151448000Y-94865000D02*
X151448000Y-74015000D01*
X141648000Y-94865000D02*
X151448000Y-94865000D01*
X141648000Y-74015000D02*
X141648000Y-94865000D01*
X166548000Y-83305000D02*
X166548000Y-91135000D01*
X169748000Y-83305000D02*
X166548000Y-83305000D01*
X169748000Y-91135000D02*
X169748000Y-83305000D01*
X166548000Y-91135000D02*
X169748000Y-91135000D01*
X154388000Y-116535000D02*
X164168000Y-116535000D01*
X154388000Y-75235000D02*
X154388000Y-116535000D01*
X164168000Y-75235000D02*
X154388000Y-75235000D01*
X164168000Y-116535000D02*
X164168000Y-75235000D01*
X146818000Y-74075000D02*
X151418000Y-74075000D01*
X146818000Y-71975000D02*
X146818000Y-74075000D01*
X151418000Y-71975000D02*
X146818000Y-71975000D01*
X151418000Y-74075000D02*
X151418000Y-71975000D01*
X167098000Y-75885000D02*
X167098000Y-82965000D01*
X169198000Y-75885000D02*
X167098000Y-75885000D01*
X169198000Y-82965000D02*
X169198000Y-75885000D01*
X167098000Y-82965000D02*
X169198000Y-82965000D01*
X164118000Y-123505000D02*
X164118000Y-116425000D01*
X162018000Y-123505000D02*
X164118000Y-123505000D01*
X162018000Y-116425000D02*
X162018000Y-123505000D01*
X164118000Y-116425000D02*
X162018000Y-116425000D01*
X172908000Y-115155000D02*
X165828000Y-115155000D01*
X172908000Y-117255000D02*
X172908000Y-115155000D01*
X165828000Y-117255000D02*
X172908000Y-117255000D01*
X165828000Y-115155000D02*
X165828000Y-117255000D01*
X167098000Y-106365000D02*
X167098000Y-113445000D01*
X169198000Y-106365000D02*
X167098000Y-106365000D01*
X169198000Y-113445000D02*
X169198000Y-106365000D01*
X167098000Y-113445000D02*
X169198000Y-113445000D01*
X167098000Y-98745000D02*
X167098000Y-105825000D01*
X169198000Y-98745000D02*
X167098000Y-98745000D01*
X169198000Y-105825000D02*
X169198000Y-98745000D01*
X167098000Y-105825000D02*
X169198000Y-105825000D01*
X169198000Y-98105000D02*
X169198000Y-91025000D01*
X167098000Y-98105000D02*
X169198000Y-98105000D01*
X167098000Y-91025000D02*
X167098000Y-98105000D01*
X169198000Y-91025000D02*
X167098000Y-91025000D01*
X145568000Y-135065000D02*
X145568000Y-125265000D01*
X119618000Y-135065000D02*
X145568000Y-135065000D01*
X119618000Y-125265000D02*
X119618000Y-135065000D01*
X145568000Y-125265000D02*
X119618000Y-125265000D01*
X145508000Y-130435000D02*
X145508000Y-135035000D01*
X147608000Y-130435000D02*
X145508000Y-130435000D01*
X147608000Y-135035000D02*
X147608000Y-130435000D01*
X145508000Y-135035000D02*
X147608000Y-135035000D01*
X137478000Y-98145000D02*
X127678000Y-98145000D01*
X137478000Y-124095000D02*
X137478000Y-98145000D01*
X127678000Y-124095000D02*
X137478000Y-124095000D01*
X127678000Y-98145000D02*
X127678000Y-124095000D01*
X151448000Y-100685000D02*
X141648000Y-100685000D01*
X151448000Y-121535000D02*
X151448000Y-100685000D01*
X141648000Y-121535000D02*
X151448000Y-121535000D01*
X141648000Y-100685000D02*
X141648000Y-121535000D01*
X121948000Y-92555000D02*
X125448000Y-92555000D01*
X121948000Y-71255000D02*
X125448000Y-71255000D01*
X121948000Y-92555000D02*
X121948000Y-71255000D01*
X125448000Y-92555000D02*
X125448000Y-71255000D01*
X137478000Y-71475000D02*
X127678000Y-71475000D01*
X137478000Y-97425000D02*
X137478000Y-71475000D01*
X127678000Y-97425000D02*
X137478000Y-97425000D01*
X127678000Y-71475000D02*
X127678000Y-97425000D01*
X173118000Y-119735000D02*
X168268000Y-119735000D01*
X173118000Y-122835000D02*
X173118000Y-119735000D01*
X168268000Y-122835000D02*
X173118000Y-122835000D01*
X168268000Y-119735000D02*
X168268000Y-122835000D01*
X145508000Y-124085000D02*
X145508000Y-128685000D01*
X147608000Y-124085000D02*
X145508000Y-124085000D01*
X147608000Y-128685000D02*
X147608000Y-124085000D01*
X145508000Y-128685000D02*
X147608000Y-128685000D01*
X137888000Y-69475000D02*
X137888000Y-74075000D01*
X139988000Y-69475000D02*
X137888000Y-69475000D01*
X139988000Y-74075000D02*
X139988000Y-69475000D01*
X137888000Y-74075000D02*
X139988000Y-74075000D01*
X137888000Y-96145000D02*
X137888000Y-100745000D01*
X139988000Y-96145000D02*
X137888000Y-96145000D01*
X139988000Y-100745000D02*
X139988000Y-96145000D01*
X137888000Y-100745000D02*
X139988000Y-100745000D01*
X170208000Y-110335000D02*
X173708000Y-110335000D01*
X170208000Y-89035000D02*
X173708000Y-89035000D01*
X170208000Y-110335000D02*
X170208000Y-89035000D01*
X173708000Y-110335000D02*
X173708000Y-89035000D01*
X170208000Y-87475000D02*
X173708000Y-87475000D01*
X170208000Y-71275000D02*
X173708000Y-71275000D01*
X170208000Y-87475000D02*
X170208000Y-71275000D01*
X173708000Y-87475000D02*
X173708000Y-71275000D01*
X121948000Y-119479000D02*
X125448000Y-119479000D01*
X121948000Y-93079000D02*
X125448000Y-93079000D01*
X121948000Y-119479000D02*
X121948000Y-93079000D01*
X125448000Y-119479000D02*
X125448000Y-93079000D01*
M02*
